<?xml version="1.0" encoding="UTF-8"?>
<svg width="32px" height="32px" viewBox="0 0 32 32" version="1.1" xmlns="http://www.w3.org/2000/svg" xmlns:xlink="http://www.w3.org/1999/xlink">
    <path d="M0,16 C0,7.16344357 7.16344357,0 16,0 C24.8365564,0 32,7.16344357 32,16 C32,24.8365564 24.8365564,32 16,32 C7.16344357,32 0,24.8365564 0,16 Z M17.6677034,25.4076511 L17.6677034,16.7028064 L20.0706212,16.7028064 L20.3890597,13.7030687 L17.6677034,13.7030687 L17.6717859,12.2016711 C17.6717859,11.4192933 17.7461223,11.0000774 18.8698427,11.0000774 L20.3720491,11.0000774 L20.3720491,8 L17.9687911,8 C15.0820917,8 14.0660483,9.45519552 14.0660483,11.9023768 L14.0660483,13.7034084 L12.2666667,13.7034084 L12.2666667,16.7031461 L14.0660483,16.7031461 L14.0660483,25.4076511 L17.6677034,25.4076511 Z" fill="currentColor"></path>
</svg>