<svg xmlns="http://www.w3.org/2000/svg" width="33" height="33" viewBox="0 0 33 33">
  <path fill="currentColor" fill-rule="evenodd" d="M16.5,33 C7.38730163,33 0,25.6126984 0,16.5 C0,7.38730163 7.38730163,0 16.5,0 C25.6126984,0 33,7.38730163 33,16.5 C33,25.6126984 25.6126984,33 16.5,33 Z M16.4974137,8.25520536 C14.2575387,8.25520536 13.9766786,8.2646994 13.097006,8.30483631 C12.2191667,8.344875 11.6196339,8.48430655 11.0950387,8.6881994 C10.5526994,8.89893452 10.0927619,9.18094048 9.63423214,9.6394375 C9.17573512,10.0979673 8.89372917,10.5579048 8.68299405,11.100244 C8.47910119,11.6248393 8.33966964,12.224372 8.29963095,13.1022113 C8.25949405,13.9818839 8.25,14.262744 8.25,16.502619 C8.25,18.7424613 8.25949405,19.0233214 8.29963095,19.902994 C8.33966964,20.7808333 8.47910119,21.3803661 8.68299405,21.9049613 C8.89372917,22.4473006 9.17573512,22.9072381 9.63423214,23.3657679 C10.0927619,23.8242649 10.5526994,24.1062708 11.0950387,24.3170387 C11.6196339,24.5208988 12.2191667,24.6603304 13.097006,24.700369 C13.9766786,24.740506 14.2575387,24.75 16.4974137,24.75 C18.737256,24.75 19.0181161,24.740506 19.8977887,24.700369 C20.775628,24.6603304 21.3751607,24.5208988 21.899756,24.3170387 C22.4420952,24.1062708 22.9020327,23.8242649 23.3605625,23.3657679 C23.8190595,22.9072381 24.1010655,22.4473006 24.3118333,21.9049613 C24.5156935,21.3803661 24.655125,20.7808333 24.6951637,19.902994 C24.7353006,19.0233214 24.7447946,18.7424613 24.7447946,16.502619 C24.7447946,14.262744 24.7353006,13.9818839 24.6951637,13.1022113 C24.655125,12.224372 24.5156935,11.6248393 24.3118333,11.100244 C24.1010655,10.5579048 23.8190595,10.0979673 23.3605625,9.6394375 C22.9020327,9.18094048 22.4420952,8.89893452 21.899756,8.6881994 C21.3751607,8.48430655 20.775628,8.344875 19.8977887,8.30483631 C19.0181161,8.2646994 18.737256,8.25520536 16.4974137,8.25520536 Z M16.4974137,9.74122024 C18.6995417,9.74122024 18.9603988,9.74963393 19.8300536,9.7893125 C20.6341667,9.82597917 21.0708601,9.96033631 21.3614762,10.0732827 C21.7464435,10.2228958 22.0211815,10.4016131 22.3097679,10.6902321 C22.5983869,10.9788185 22.7771042,11.2535565 22.9267173,11.6385238 C23.0396637,11.9291399 23.1740208,12.3658333 23.2106875,13.1699464 C23.2503661,14.0396012 23.2587798,14.3004583 23.2587798,16.502619 C23.2587798,18.704747 23.2503661,18.9656042 23.2106875,19.8352589 C23.1740208,20.639372 23.0396637,21.0760655 22.9267173,21.3666815 C22.7771042,21.7516488 22.5983869,22.0263869 22.3097679,22.3149732 C22.0211815,22.6035923 21.7464435,22.7823095 21.3614762,22.9319226 C21.0708601,23.044869 20.6341667,23.1792262 19.8300536,23.2158929 C18.9605298,23.2555714 18.6997054,23.2639851 16.4974137,23.2639851 C14.2950893,23.2639851 14.0342976,23.2555714 13.1647411,23.2158929 C12.360628,23.1792262 11.9239345,23.044869 11.6333185,22.9319226 C11.2483512,22.7823095 10.9736131,22.6035923 10.6850268,22.3149732 C10.3964405,22.0263869 10.2176905,21.7516488 10.0680774,21.3666815 C9.95513095,21.0760655 9.82077381,20.639372 9.78410714,19.8352589 C9.74442857,18.9656042 9.73601488,18.704747 9.73601488,16.502619 C9.73601488,14.3004583 9.74442857,14.0396012 9.78410714,13.1699464 C9.82077381,12.3658333 9.95513095,11.9291399 10.0680774,11.6385238 C10.2176905,11.2535565 10.3964077,10.9788185 10.6850268,10.6902321 C10.9736131,10.4016131 11.2483512,10.2228958 11.6333185,10.0732827 C11.9239345,9.96033631 12.360628,9.82597917 13.1647411,9.7893125 C14.0343958,9.74963393 14.295253,9.74122024 16.4974137,9.74122024 Z M16.3625165,19.4043877 C14.834383,19.4043877 13.5956123,18.165617 13.5956123,16.6375165 C13.5956123,15.109383 14.834383,13.8706123 16.3625165,13.8706123 C17.890617,13.8706123 19.1293877,15.109383 19.1293877,16.6375165 C19.1293877,18.165617 17.890617,19.4043877 16.3625165,19.4043877 Z M16.3625165,12.375 C14.0083711,12.375 12.1,14.2833711 12.1,16.6375165 C12.1,18.9916289 14.0083711,20.9 16.3625165,20.9 C18.7166289,20.9 20.625,18.9916289 20.625,16.6375165 C20.625,14.2833711 18.7166289,12.375 16.3625165,12.375 Z M21.725,12.2375159 C21.725,11.7059369 21.2940631,11.275 20.7624841,11.275 C20.2309369,11.275 19.8,11.7059369 19.8,12.2375159 C19.8,12.769095 20.2309369,13.2 20.7624841,13.2 C21.2940631,13.2 21.725,12.769095 21.725,12.2375159 Z"/>
</svg>
