<svg width="32" height="32" viewBox="0 0 32 32" fill="none" xmlns="http://www.w3.org/2000/svg">
<circle cx="16" cy="16" r="16" fill="black"/>
<path d="M25.2578 17.99C24.9838 19.4 22.8018 20.945 20.2958 21.244C18.9898 21.4 17.7028 21.544 16.3308 21.48C14.0878 21.377 12.3168 20.945 12.3168 20.945C12.3168 21.163 12.3308 21.371 12.3568 21.565C12.6488 23.78 14.5528 23.912 16.3568 23.975C18.1768 24.037 19.7968 23.525 19.7968 23.525L19.8728 25.171C19.8728 25.171 18.5988 25.855 16.3308 25.981C15.0808 26.049 13.5278 25.949 11.7188 25.471C7.79576 24.432 7.12076 20.251 7.01776 16.007C6.98676 14.747 7.00576 13.56 7.00576 12.567C7.00576 8.227 9.84876 6.956 9.84876 6.956C11.2818 6.298 13.7408 6.021 16.2988 6H16.3608C18.9178 6.02 21.3788 6.298 22.8118 6.956C22.8118 6.956 25.6548 8.228 25.6548 12.566C25.6548 12.566 25.6908 15.767 25.2578 17.99V17.99ZM22.3018 12.903C22.3018 11.829 22.0288 10.976 21.4798 10.345C20.9128 9.714 20.1718 9.39 19.2508 9.39C18.1858 9.39 17.3798 9.8 16.8458 10.618L16.3278 11.488L15.8088 10.618C15.2758 9.8 14.4698 9.39 13.4048 9.39C12.4838 9.39 11.7418 9.714 11.1758 10.345C10.6268 10.976 10.3538 11.829 10.3538 12.903V18.156H12.4348V13.057C12.4348 11.982 12.8868 11.437 13.7918 11.437C14.7918 11.437 15.2928 12.084 15.2928 13.364V16.154H17.3628V13.364C17.3628 12.084 17.8628 11.437 18.8628 11.437C19.7678 11.437 20.2208 11.982 20.2208 13.057V18.157H22.3008V12.902L22.3018 12.903Z" fill="white"/>
</svg>
