<?xml version="1.0" encoding="UTF-8"?>
<svg width="32px" height="32px" viewBox="0 0 32 32" version="1.1" xmlns="http://www.w3.org/2000/svg" xmlns:xlink="http://www.w3.org/1999/xlink">
    <path d="M0,16 C0,7.16344357 7.16344357,0 16,0 C24.8365564,0 32,7.16344357 32,16 C32,24.8365564 24.8365564,32 16,32 C7.16344357,32 0,24.8365564 0,16 Z M15.5208017,13.0050004 L15.5543768,13.5586365 L14.9947933,13.4908443 C12.9579095,13.2309743 11.1784341,12.3496761 9.66755872,10.8695469 L8.92890855,10.1351317 L8.73865017,10.6774691 C8.33575008,11.8864295 8.59315847,13.1631822 9.43253367,14.021883 C9.88020044,14.4964283 9.77947541,14.5642204 9.00725023,14.281753 C8.73865017,14.1913635 8.50362512,14.1235713 8.48124178,14.1574674 C8.40290009,14.2365583 8.67150016,15.2647396 8.88414187,15.6714926 C9.17512527,16.2364274 9.76828374,16.7900635 10.4174006,17.1177257 L10.9657924,17.3775957 L10.3166755,17.3888944 C9.68994206,17.3888944 9.66755872,17.4001931 9.73470874,17.6374657 C9.95854212,18.3718809 10.842684,19.151491 11.8275509,19.4904518 L12.5214344,19.7277244 L11.9170842,20.0892827 C11.0217507,20.6090227 9.96973379,20.9027888 8.91771688,20.9253862 C8.41409176,20.9366849 8,20.9818797 8,21.0157758 C8,21.1287627 9.36538365,21.7614897 10.1599922,22.010061 C12.5438177,22.7444762 15.37531,22.4281128 17.5017272,21.1739575 C19.0126026,20.2813605 20.5234779,18.5074653 21.2285531,16.7900635 C21.6090698,15.8748692 21.9895866,14.2026622 21.9895866,13.4004548 C21.9895866,12.8807148 22.0231616,12.8129226 22.6498951,12.1914943 C23.0192202,11.829936 23.3661619,11.4344817 23.4333119,11.3214947 C23.5452286,11.1068195 23.5340369,11.1068195 22.9632618,11.2988973 C22.0119699,11.6378582 21.8776699,11.5926634 22.34772,11.0842221 C22.6946618,10.7226639 23.1087535,10.0673395 23.1087535,9.87526167 C23.1087535,9.84136558 22.9408785,9.89785906 22.7506201,9.99954732 C22.5491701,10.1125343 22.1015033,10.2820147 21.7657532,10.383703 L21.1614031,10.5757808 L20.6130113,10.2029238 C20.3108362,9.99954732 19.8855528,9.7735734 19.6617194,9.70578123 C19.0909442,9.54759949 18.217994,9.57019688 17.7031773,9.75097601 C16.3042186,10.2594173 15.4200767,11.570066 15.5208017,13.0050004 Z" fill="currentColor"></path>
</svg>