<svg width="32" height="32" viewBox="0 0 32 32" fill="none" xmlns="http://www.w3.org/2000/svg">
<g clip-path="url(#clip0_468_175)">
<path d="M18.5649 15.7329L14.9713 14.0561C14.6577 13.9105 14.4001 14.0737 14.4001 14.4209V17.5793C14.4001 17.9265 14.6577 18.0897 14.9713 17.9441L18.5633 16.2673C18.8785 16.1201 18.8785 15.8801 18.5649 15.7329ZM16.0001 0.640137C7.51694 0.640137 0.640137 7.51694 0.640137 16.0001C0.640137 24.4833 7.51694 31.3601 16.0001 31.3601C24.4833 31.3601 31.3601 24.4833 31.3601 16.0001C31.3601 7.51694 24.4833 0.640137 16.0001 0.640137ZM16.0001 22.2401C8.13774 22.2401 8.00014 21.5313 8.00014 16.0001C8.00014 10.4689 8.13774 9.76014 16.0001 9.76014C23.8625 9.76014 24.0001 10.4689 24.0001 16.0001C24.0001 21.5313 23.8625 22.2401 16.0001 22.2401Z" fill="currentColor"/>
</g>
<defs>
<clipPath id="clip0_468_175">
<rect width="32" height="32" fill="white"/>
</clipPath>
</defs>
</svg>
