<svg id="outlines" xmlns="http://www.w3.org/2000/svg" viewBox="0 0 794 103.28"><defs><style>.cls-1{fill:#10293f;}.cls-2{fill:#0081df;}</style></defs><title>logo_FA</title><g id="outlines-2" data-name="outlines"><path class="cls-1" d="M453.9,279.8s18.2-54.2,89.8-33.8C543.7,246,485.6,238.2,453.9,279.8Z" transform="translate(-86.4 -222.38)"/><ellipse class="cls-1" cx="484.99" cy="236.53" rx="11.7" ry="14.5" transform="translate(-139.64 -24.18) rotate(-21.92)"/><polygon class="cls-1" points="449.6 22.52 484.6 6.42 481.2 16.92 450.3 27.32 449.6 22.52"/><polygon class="cls-1" points="371.4 51.72 331.1 63.32 341.6 69.62 374.3 56.12 371.4 51.72"/><rect class="cls-1" x="440.89" y="262.51" width="101.19" height="3" transform="translate(-146.78 -40.24) rotate(-19.8)"/><path class="cls-1" d="M470.5,289.9s18.4-25.7,62.8-32.2c0,0-5.8,38.5-28.1,57.8C505.3,315.4,491.8,291.3,470.5,289.9Z" transform="translate(-86.4 -222.38)"/><path class="cls-2" d="M447.5,286c39,2.4,44.6,43.9,89.3,39.3-33.5-4.9-49.1-50.6-89.3-39.3h0Z" transform="translate(-86.4 -222.38)"/><path class="cls-2" d="M430.2,298.7c23.2-20.7,46.4,9.3,64,19-22.1,3-37.5-21.5-64-19h0Z" transform="translate(-86.4 -222.38)"/><path class="cls-2" d="M419.9,317.4c3.6-19.7,32.5-11.5,45.7-3.2,0,0-29.8-4.7-45.7,3.2h0Z" transform="translate(-86.4 -222.38)"/><path class="cls-1" d="M100.8,287v30.1H86.4v-77h23.5a48,48,0,0,1,13.5,1.6,25.62,25.62,0,0,1,9.2,4.6,17.88,17.88,0,0,1,5.3,7,23.65,23.65,0,0,1,1.7,9,26,26,0,0,1-1.1,7.4,23.64,23.64,0,0,1-3.3,6.3,23.07,23.07,0,0,1-5.3,5,26.59,26.59,0,0,1-7.2,3.4,14,14,0,0,1,4.7,4.4l19.3,28.4H133.8a6.57,6.57,0,0,1-3.2-.7,6.3,6.3,0,0,1-2.2-2.1l-16.2-24.7a6.33,6.33,0,0,0-2-2,6.73,6.73,0,0,0-3.2-.6h-6.2V287Zm0-10.3h8.9a21.74,21.74,0,0,0,7.1-1,14.18,14.18,0,0,0,5-2.8,11,11,0,0,0,2.9-4.2,15.27,15.27,0,0,0,1-5.4q0-5.85-3.9-9c-2.6-2.1-6.5-3.1-11.8-3.1h-9.2v25.5Z" transform="translate(-86.4 -222.38)"/><path class="cls-1" d="M223.4,317.1H212.3a5.17,5.17,0,0,1-3.1-.9,4.81,4.81,0,0,1-1.7-2.3l-5.8-15.7H169.8L164,313.9a4.41,4.41,0,0,1-1.7,2.2,4.62,4.62,0,0,1-3.1,1H148.1l30.3-77H193ZM173.6,288h24.6l-9.4-25.6c-0.4-1.1-.9-2.5-1.4-4s-1-3.2-1.5-5q-0.75,2.7-1.5,5.1c-0.5,1.6-1,2.9-1.4,4.1Z" transform="translate(-86.4 -222.38)"/><path class="cls-1" d="M246.2,290v27.1H231.9v-77H257a44.81,44.81,0,0,1,13.4,1.8,24.42,24.42,0,0,1,9.3,5.1,20,20,0,0,1,5.4,7.8,28.57,28.57,0,0,1,1.8,9.9A27,27,0,0,1,285,275a20.4,20.4,0,0,1-5.6,8,26.18,26.18,0,0,1-9.3,5.2,42.59,42.59,0,0,1-13.1,1.9H246.2V290Zm0-11.2H257a20.89,20.89,0,0,0,6.9-1,12.44,12.44,0,0,0,4.8-2.8,12.94,12.94,0,0,0,2.9-4.5,18.23,18.23,0,0,0,1-5.9,14.33,14.33,0,0,0-1-5.6,10.59,10.59,0,0,0-2.9-4.3,12.51,12.51,0,0,0-4.8-2.7,23.57,23.57,0,0,0-6.9-.9H246.2v27.7Z" transform="translate(-86.4 -222.38)"/><path class="cls-1" d="M314.1,317.1H299.7v-77h14.4v77Z" transform="translate(-86.4 -222.38)"/><path class="cls-1" d="M399.8,278.6a42,42,0,0,1-2.8,15.6,36.18,36.18,0,0,1-7.9,12.2,34.26,34.26,0,0,1-12.3,7.9,42.84,42.84,0,0,1-15.9,2.8H331.5v-77h29.4a45,45,0,0,1,15.9,2.8,35.65,35.65,0,0,1,12.3,7.9A33.85,33.85,0,0,1,397,263,43.3,43.3,0,0,1,399.8,278.6Zm-14.7,0a36.89,36.89,0,0,0-1.7-11.4,24.19,24.19,0,0,0-4.8-8.5,21.93,21.93,0,0,0-7.6-5.4,27.12,27.12,0,0,0-10.1-1.9h-15v54.2h15a24.93,24.93,0,0,0,10.1-1.9,19.6,19.6,0,0,0,7.6-5.4,23.55,23.55,0,0,0,4.8-8.5A32.17,32.17,0,0,0,385.1,278.6Z" transform="translate(-86.4 -222.38)"/><path class="cls-1" d="M594.6,287v30.1H580.3v-77h23.5a48,48,0,0,1,13.5,1.6,25.62,25.62,0,0,1,9.2,4.6,17.88,17.88,0,0,1,5.3,7,23.66,23.66,0,0,1,1.7,9,26,26,0,0,1-1.1,7.4,23.64,23.64,0,0,1-3.3,6.3,23.08,23.08,0,0,1-5.3,5,26.59,26.59,0,0,1-7.2,3.4,14,14,0,0,1,4.7,4.4l19.3,28.4H627.7a6.57,6.57,0,0,1-3.2-.7,6.3,6.3,0,0,1-2.2-2.1l-16.2-24.7a6.33,6.33,0,0,0-2-2,6.73,6.73,0,0,0-3.2-.6h-6.3V287Zm0-10.3h8.9a21.74,21.74,0,0,0,7.1-1,14.18,14.18,0,0,0,5-2.8,11,11,0,0,0,2.9-4.2,15.27,15.27,0,0,0,1-5.4q0-5.85-3.9-9c-2.6-2.1-6.5-3.1-11.8-3.1h-9.2v25.5Z" transform="translate(-86.4 -222.38)"/><path class="cls-1" d="M665.7,317.1H651.3v-77h14.4v77Z" transform="translate(-86.4 -222.38)"/><path class="cls-1" d="M675.4,240H687a4.66,4.66,0,0,1,3,.9,5.78,5.78,0,0,1,1.8,2.3l18.1,47a48.59,48.59,0,0,1,1.7,5c0.5,1.8,1.1,3.8,1.6,5.8a64,64,0,0,1,3-10.8l18.1-47A5.06,5.06,0,0,1,736,241a4.36,4.36,0,0,1,3-1h11.6l-31.1,77H706.6Z" transform="translate(-86.4 -222.38)"/><path class="cls-1" d="M807.2,240v11.4H773.1v21.4H800v11H773.1v21.8h34.1v11.5H758.6v-77h48.6V240Z" transform="translate(-86.4 -222.38)"/><path class="cls-1" d="M834.4,287v30.1H820.1v-77h23.5a48,48,0,0,1,13.5,1.6,25.62,25.62,0,0,1,9.2,4.6,17.88,17.88,0,0,1,5.3,7,23.66,23.66,0,0,1,1.7,9,26,26,0,0,1-1.1,7.4,23.64,23.64,0,0,1-3.3,6.3,23.08,23.08,0,0,1-5.3,5,26.59,26.59,0,0,1-7.2,3.4,14,14,0,0,1,4.7,4.4l19.3,28.4H867.5a6.57,6.57,0,0,1-3.2-.7,6.3,6.3,0,0,1-2.2-2.1l-16.2-24.7a6.33,6.33,0,0,0-2-2,6.73,6.73,0,0,0-3.2-.6h-6.3V287Zm0-10.3h8.9a21.74,21.74,0,0,0,7.1-1,14.18,14.18,0,0,0,5-2.8,11,11,0,0,0,2.9-4.2,15.27,15.27,0,0,0,1-5.4q0-5.85-3.9-9c-2.6-2.1-6.5-3.1-11.8-3.1h-9.2v25.5Z" transform="translate(-86.4 -222.38)"/></g></svg>