<svg height="53.163612mm" viewBox="0 0 364.95898 53.163612" width="364.95898mm" xmlns="http://www.w3.org/2000/svg"><g stroke-width=".265" transform="translate(-125.23813 -32.422708)"><g fill="#333" stroke="#333" stroke-width=".265"><path d="m170.01974 84.577377v-23.128112q0-3.4925-1.62983-5.665611-1.62984-2.173111-4.34623-2.173111-2.794 0-4.65666 2.328333-1.78506 2.328334-1.78506 5.820834v22.817667h-10.08944v-22.97289q0-2.328333-.31045-3.802944-.31044-1.474611-1.08655-2.328334-.6985-.853722-1.86267-1.164166-1.16417-.388056-2.794-.388056-6.13128 0-6.13128 7.450667v23.205723h-10.08944v-38.184668h9.46855v5.588q1.94028-3.802944 4.65667-5.199944 2.71639-1.397001 6.51933-1.397001 1.94028 0 3.41489.310445 1.55222.310444 2.71639 1.086556 1.24178.6985 2.32833 1.862666 1.08656 1.164167 2.17312 2.794 1.55222-3.182055 4.11338-4.579055 2.56117-1.474612 6.20889-1.474612 2.87162 0 5.27756 1.008945 2.40594.931333 4.11339 2.716389 1.70744 1.707445 2.63878 4.035778 1.00894 2.328333 1.00894 4.967111v26.46539z"/><path d="m206.95536 65.873099q-.77612.776111-2.25073 1.241778-1.47461.465666-4.26861 1.008944-4.34622.853722-5.97605 2.173111-1.62984 1.319389-1.62984 3.802945 0 4.268611 4.8895 4.268611 1.94028 0 3.57011-.620889 1.70745-.6985 2.87161-1.785055 1.24178-1.164167 1.94028-2.638778.77611-1.552223.77611-3.259667zm.6985 18.704278q-.46567-1.474611-.62089-3.414889-1.78506 2.017889-4.73428 3.259667-2.94922 1.164167-6.82978 1.164167-6.59694 0-9.70139-2.871611-3.02683-2.949223-3.02683-7.60589 0-4.113389 1.31939-6.519333 1.31939-2.483556 3.64772-3.880556 2.32833-1.397 5.51039-2.017889 3.25966-.6985 7.06261-1.241778 3.80294-.543278 5.12233-1.397 1.31939-.931333 1.31939-2.949222 0-1.862667-1.78505-2.871611-1.70745-1.086556-4.65667-1.086556-3.4925 0-5.04472 1.552222-1.47461 1.552223-1.86267 4.113389h-9.39094q.0776-2.949222.93133-5.432778.93133-2.483555 2.87161-4.268611 2.01789-1.785056 5.19994-2.716389 3.18206-1.008945 7.76112-1.008945 4.50144 0 7.60589 1.008945 3.18205 1.008944 5.04472 2.949222 1.94028 1.862667 2.794 4.734278.85372 2.794.85372 6.364112v24.137056z"/><path d="m243.1476 59.431376h9.39095v10.865556q0 3.026834-.93134 5.820834-.85372 2.716389-2.794 4.8895-1.86266 2.0955-4.81189 3.337278-2.87161 1.241778-6.90739 1.241778-4.191 0-7.14022-1.241778-2.94922-1.241778-4.8895-3.337278-1.86266-2.0955-2.71639-4.8895-.85372-2.794-.85372-5.898445v-34.14889h9.93422v10.322278h21.11023v7.140223h-21.11023v15.677445q0 3.647722 1.31939 5.665611 1.397 1.940278 4.50145 1.940278 3.02683 0 4.42383-1.940278 1.47461-1.940278 1.47461-5.510389z"/><path d="m281.80764 61.75971q-.0776-2.0955-.77612-3.647723-.62088-1.629833-1.70744-2.638778-1.08656-1.086555-2.48356-1.552222-1.397-.543278-2.87161-.543278-3.02683 0-5.27755 2.250723-2.17311 2.173111-2.48356 6.131278zm-15.91028 6.364111q.23283 4.346222 2.48355 6.907389 2.32834 2.561167 6.05367 2.561167 2.48356 0 4.34622-1.086556 1.94028-1.164166 2.48356-3.182055h10.39989q-1.78506 5.898444-6.20889 9.0805-4.42384 3.182056-10.55511 3.182056-19.09234 0-19.09234-20.799779 0-4.423833 1.24178-7.993945 1.24178-3.570111 3.57011-6.131278 2.40595-2.561166 5.82083-3.880555 3.41489-1.397001 7.83873-1.397001 8.84766 0 13.34911 5.665612 4.57905 5.665611 4.57905 17.074445z"/><path d="m318.74326 57.956765q-.38806-2.794-2.01789-3.880556-1.62983-1.164166-5.12233-1.164166-2.87162 0-4.42384.776111-1.55222.6985-1.55222 2.405944 0 1.707445 1.55222 2.638778 1.55222.853722 4.65667 1.707445 3.25967.931333 6.20889 1.707444 2.94922.6985 5.19994 1.552223 3.02684 1.241777 4.65667 3.414889 1.62983 2.0955 1.62983 5.820833 0 5.976056-4.26861 9.313334-4.191 3.337278-12.41778 3.337278-8.84766 0-13.58194-3.725334-4.65667-3.725333-4.81189-9.546167h10.39989q0 2.716389 2.0955 4.191 2.0955 1.474612 5.82083 1.474612 2.71639 0 4.73428-.853723 2.01789-.931333 2.01789-3.104444 0-2.017889-1.86267-2.871611-1.78505-.853723-4.26861-1.474612-4.81189-1.164166-7.76111-2.0955-2.94922-.931333-4.96711-2.250722-2.71639-1.707445-3.80295-3.880556-1.00894-2.173111-1.00894-4.734278 0-2.405944.85372-4.501444.85372-2.095501 2.794-3.570112 1.94028-1.552222 4.96711-2.405944 3.10445-.853723 7.45067-.853723 8.30439 0 12.18495 3.182056 3.95816 3.182056 4.34622 9.390945z"/><path d="m353.65249 59.431376h9.39095v10.865556q0 3.026834-.93134 5.820834-.85372 2.716389-2.794 4.8895-1.86266 2.0955-4.81189 3.337278-2.87161 1.241778-6.90739 1.241778-4.191 0-7.14022-1.241778-2.94922-1.241778-4.8895-3.337278-1.86266-2.0955-2.71639-4.8895-.85372-2.794-.85372-5.898445v-34.14889h9.93422v10.322278h21.11023v7.140223h-21.11023v15.677445q0 3.647722 1.31939 5.665611 1.397 1.940278 4.50145 1.940278 3.02683 0 4.42383-1.940278 1.47461-1.940278 1.47461-5.510389z"/><path d="m390.37226 65.873099q-.77612.776111-2.25073 1.241778-1.47461.465666-4.26861 1.008944-4.34622.853722-5.97605 2.173111-1.62984 1.319389-1.62984 3.802945 0 4.268611 4.8895 4.268611 1.94028 0 3.57011-.620889 1.70745-.6985 2.87162-1.785055 1.24177-1.164167 1.94027-2.638778.77611-1.552223.77611-3.259667zm.6985 18.704278q-.46567-1.474611-.62089-3.414889-1.78506 2.017889-4.73428 3.259667-2.94922 1.164167-6.82978 1.164167-6.59694 0-9.70139-2.871611-3.02683-2.949223-3.02683-7.60589 0-4.113389 1.31939-6.519333 1.31939-2.483556 3.64772-3.880556 2.32833-1.397 5.51039-2.017889 3.25967-.6985 7.06261-1.241778 3.80294-.543278 5.12233-1.397 1.31939-.931333 1.31939-2.949222 0-1.862667-1.78505-2.871611-1.70745-1.086556-4.65667-1.086556-3.4925 0-5.04472 1.552222-1.47461 1.552223-1.86267 4.113389h-9.39094q.0776-2.949222.93133-5.432778.93133-2.483555 2.87161-4.268611 2.01789-1.785056 5.19995-2.716389 3.18205-1.008945 7.76111-1.008945 4.50144 0 7.60589 1.008945 3.18205 1.008944 5.04472 2.949222 1.94028 1.862667 2.794 4.734278.85372 2.794.85372 6.364112v24.137056z"/><path d="m439.29273 70.762599q-.38805 3.337278-1.94028 6.053667-1.47461 2.716389-3.80294 4.656667-2.32833 1.940278-5.35517 3.026833-2.94922 1.086556-6.44172 1.086556-3.88056 0-7.14022-1.241778-3.18206-1.319389-5.51039-3.880556-2.32833-2.638778-3.64772-6.441722-1.24178-3.880556-1.24178-9.00289 0-5.122333 1.24178-8.847667 1.31939-3.725333 3.64772-6.053667 2.32833-2.405944 5.588-3.570111 3.33728-1.164167 7.37306-1.164167 3.72533 0 6.75216 1.008945 3.10445 1.008944 5.35517 2.949222 2.32833 1.940278 3.64772 4.656667 1.31939 2.716389 1.55222 6.053667h-10.16705q-.38806-2.949222-2.40595-4.579056-1.94027-1.707444-4.81189-1.707444-1.62983 0-3.02683.543278-1.397.543277-2.48356 1.862666-1.00894 1.241778-1.62983 3.414889-.62089 2.095501-.62089 5.199945 0 6.2865 2.25072 9.313334 2.25073 3.026833 5.19995 3.026833 2.94922 0 5.04472-1.629833 2.0955-1.629833 2.40595-4.734278z"/><path d="m465.63927 84.577377-8.382-17.152056-4.8895 5.044722v12.107334h-10.16706v-52.154669h10.16706v28.483279l12.573-14.513278h12.34017l-12.80584 14.047612 12.49539 24.137056z"/></g><path d="m479.40916 84.577377v-10.4775h10.78795v10.4775z" fill="#f30"/></g></svg>