<?xml version="1.0" encoding="utf-8"?>
<!-- Generator: Adobe Illustrator 23.0.6, SVG Export Plug-In . SVG Version: 6.00 Build 0)  -->
<svg version="1.1" id="Layer_1" xmlns="http://www.w3.org/2000/svg" xmlns:xlink="http://www.w3.org/1999/xlink" x="0px" y="0px"
	 viewBox="0 0 1470.06 471.53" style="enable-background:new 0 0 1470.06 471.53;" xml:space="preserve">
<style type="text/css">
	.st0{fill:#4E4E50;}
	.st1{fill:#2574BB;}
	.st2{fill:#FF8300;}
</style>
<path class="st0" d="M22.16,44.06h44.5v36.09h0.99c11.37-24.72,41.04-42.03,77.13-42.03c45.49,0,85.05,27.2,85.05,89.5v150.81h-44.5
	V139.98c0-44.01-25.22-60.32-53.4-60.32c-37.08,0-65.27,23.73-65.27,78.12v120.65h-44.5V44.06z"/>
<path class="st0" d="M298.35,177.56c0,41.04,38.07,68.23,79.11,68.23c27.2,0,46.97-13.85,64.28-35.11l33.62,25.71
	c-24.72,32.14-58.84,47.96-103.83,47.96c-74.17,0-120.65-53.4-120.65-123.12c0-70.21,50.93-123.12,121.14-123.12
	c82.57,0,114.22,63.29,114.22,123.62v15.82H298.35z M438.78,141.96c-0.99-39.06-22.75-68.23-67.74-68.23
	c-44.01,0-72.68,37.09-72.68,68.23H438.78z"/>
<path class="st0" d="M571.59,153.33L488.52,44.06h57.35l56.86,83.07l55.87-83.07h53.89l-80.1,109.27l94.93,125.1h-57.36l-69.22-98.4
	l-69.22,98.4h-54.88L571.59,153.33z"/>
<path class="st0" d="M739.19,44.06h41.54v36.59h0.99c4.45-13.84,33.13-42.52,75.16-42.52c34.61,0,58.35,14.83,73.18,43.51
	c15.33-28.68,45.98-43.51,74.17-43.51c72.19,0,89,51.42,89,103.83v136.47h-44.5V147.9c0-35.6-7.42-68.23-50.43-68.23
	c-43.02,0-59.83,29.17-59.83,70.71v128.06h-44.5V155.81c0-44.5-6.43-76.14-49.44-76.14c-32.14,0-60.82,24.23-60.82,77.13v121.64
	h-44.5V44.06z"/>
<circle class="st1" cx="1249.01" cy="158.58" r="28.56"/>
<g>
	<path class="st0" d="M1247.99,79.68c40.09,0,73.35,28.89,80.33,66.96h-15.69l38.18,37.55l38.3-37.55h-19.15
		c-7.32-60.89-59.11-108.1-121.98-108.1c-50.98,0-94.71,31.05-113.33,75.26l38.35,15.02C1185.61,99.9,1214.43,79.68,1247.99,79.68z"
		/>
	<path class="st0" d="M1247.99,243.22c-39.33,0-72.09-27.8-79.91-64.8h17.32l-38.18-37.55l-38.3,37.55h17.37
		c8.27,59.85,59.59,105.95,121.71,105.95c50.86,0,94.5-30.89,113.19-74.93l-38.36-15.02
		C1310.14,223.15,1281.42,243.22,1247.99,243.22z"/>
</g>
<g>
	<g>
		<g>
			<g>
				<g>
					<path class="st0" d="M1446.89,67.73c0,15.52-12.61,28.78-28.6,28.78s-28.59-13.07-28.59-28.78c0-15.6,12.6-28.87,28.68-28.87
						C1434.37,38.86,1446.89,52.02,1446.89,67.73z M1441.34,67.73c0-12.78-9.97-23.32-22.96-23.32c-13.16,0-23.22,10.63-23.22,23.42
						c0,12.69,10.06,23.32,23.13,23.32C1431.28,91.15,1441.34,80.43,1441.34,67.73z M1422.81,71.02l8.18,11.75h-5.73l-7.62-11.29
						h-4.42v11.29h-4.8V52.31h11c7.06,0,10.15,4.14,10.15,9.69C1429.58,66.98,1426.95,69.89,1422.81,71.02z M1413.22,67.07h5.07
						c4.52,0,6.21-2.35,6.21-5.17c0-3.11-2.17-5.17-5.84-5.17h-5.45V67.07z"/>
				</g>
			</g>
		</g>
	</g>
</g>
<g>
	<path class="st0" d="M48.99,367.92H15.32v-7.48h75.77v7.48H57.42v62.25h-8.44V367.92z"/>
	<path class="st0" d="M100.27,360.44h7.77v26.85c5.28-4.6,12.18-8.82,21.1-8.82c6.23,0,20.72,1.44,20.72,18.6v33.09h-7.77v-31.55
		c0.19-11.89-8.44-13.52-13.91-13.52c-8.54,0-15.63,5.27-20.14,10.07v35.01h-7.77V360.44z"/>
	<path class="st0" d="M213.8,419.71c-5.18,5.47-10.17,11.99-27.24,11.99c-16.88,0-28.39-11.51-28.39-26.86
		c0-15.92,11.99-26.37,27.43-26.37c16.02,0,30.02,8.34,29.64,28.19h-49.3c0.77,9.4,8.34,18.41,21.39,18.41
		c12.95,0,17.26-5.85,20.43-9.78L213.8,419.71z M206.8,400.05c-1.53-8.25-8.63-14.96-20.53-14.96c-11.41,0-17.84,5.76-20.05,14.96
		H206.8z"/>
	<path class="st2" d="M251.46,360.44h14.58l26.18,55.63l26.66-55.63h14.58l-34.14,69.72h-14.19L251.46,360.44z"/>
	<path class="st2" d="M325.67,404.36c0-13.81,8.34-27.43,28.87-27.43c20.52,0,28.87,13.62,28.87,27.43
		c0,20.52-14.77,27.53-28.87,27.53C340.44,431.89,325.67,424.89,325.67,404.36z M371.32,404.17c0-12.08-7.77-17.07-16.79-17.07
		c-9.11,0-16.78,4.99-16.78,17.07c0,10.94,6.14,17.56,16.78,17.56C365.18,421.72,371.32,415.1,371.32,404.17z"/>
	<path class="st2" d="M389.04,378.66h11.7v6.43c3.74-3.65,8.82-8.15,19.28-8.15c10.74,0,20.14,4.5,20.14,20.24v32.99h-11.89v-28.58
		c0-10.17-3.07-14.48-11.03-14.48c-9.5,0-13.33,3.93-16.31,7.57v35.49h-11.89V378.66z"/>
	<path class="st2" d="M502.09,421.82c0,3.45,0.19,6.9,0.96,8.34h-12.18c-0.38-1.73-0.67-3.45-0.67-5.18
		c-4.99,2.88-12.37,6.91-22.54,6.91c-6.81,0-19.95-2.88-19.95-15.54c0-17.36,25.9-19.85,42.49-20.81v-2.3
		c0-3.93-3.55-6.71-13.33-6.71c-10.93,0-13.23,4.03-13.91,6.81h-12.37c2.88-14,16.59-16.4,26.18-16.4
		c24.84,0,25.32,12.08,25.32,19.18V421.82z M490.2,404.17c-6.91,0.29-12.95,1.25-18.51,2.59c-7.38,1.72-10.84,4.22-10.93,8.73
		c-0.1,4.41,2.78,7.2,8.63,7.2c9.02,0,16.21-3.93,20.81-6.71V404.17z"/>
	<path class="st2" d="M570.64,387c-1.06-0.29-2.97-0.96-4.32-0.76c-1.34,0-3.07,0.58-3.84,0.96c0.77,1.05,2.4,4.12,2.4,8.54
		c0,14-12.47,18.99-26.09,18.99c-4.79,0-8.54-0.77-10.84-1.63c-1.34,0.86-3.26,2.3-3.26,4.13c0,1.82,1.15,3.07,11.51,2.97h16.21
		c11.6,0.39,18.32,3.74,18.32,11.8c0,12.28-17.94,15.82-33.47,15.82c-14.39,0-26.85-2.88-26.85-11.41c0-6.14,5.47-7,10.36-7.96
		v-0.19c-4.41-0.38-7.77-2.78-7.77-7.96s4.89-9.11,9.01-9.69v-0.19c-5.75-3.17-8.53-8.25-8.53-14.77c0-15.15,13.91-18.7,26.57-18.7
		c9.02,0,14.29,2.3,17.84,4.7c1.82-1.92,5.66-5.56,10.84-5.56h1.92V387z M530.26,430.83c-2.78,0-6.81,0.77-6.81,3.74
		c0,4.22,5.56,4.7,14.96,4.7c9.3,0,19.28-1.06,19.28-5.18c0-3.55-2.11-3.36-15.25-3.26H530.26z M553.19,395.73
		c0-7.67-7.87-9.98-14.2-9.98c-6.52,0-13.81,2.3-13.81,10.07c0,8.06,7.38,10.07,13.71,10.07
		C545.23,405.9,553.19,403.31,553.19,395.73z"/>
	<path class="st2" d="M632.19,414.72c-0.86,4.22-7.77,17.17-26.85,17.17c-18.41,0-29.44-11.51-29.44-27.62
		c0-14.58,9.59-27.33,28.58-27.33c19.37,0.19,28.68,12.18,28.68,30.79h-45.17c0.48,3.26,2.3,14,16.97,14.58
		c7.48,0,12.47-3.55,14.2-7.57H632.19z M620.49,398.51c-1.82-8.73-7.77-11.99-16.3-11.99c-6.23,0-13.43,2.11-15.82,11.99H620.49z"/>
	<path class="st2" d="M647.55,368.76c7.86,0,14.23,6.34,14.23,14.2s-6.37,14.23-14.23,14.23c-7.86,0-14.2-6.37-14.2-14.23
		S639.69,368.76,647.55,368.76z M647.55,394.95c6.63,0,12-5.33,12-11.96c0-6.63-5.36-12-12-12c-6.63,0-11.96,5.36-11.96,12
		C635.59,389.62,640.92,394.95,647.55,394.95z M647.4,383.89h-3.09v7.53h-2.24V374.5h6.7c3.8,0,5.48,1.64,5.48,4.69
		c0,2.94-1.97,4.32-4.25,4.69l5.1,7.53h-2.76L647.4,383.89z M644.31,381.87H648c2.24,0,4.02-0.26,4.02-2.72
		c0-2.38-1.97-2.64-4.02-2.64h-3.69V381.87z"/>
	<path class="st0" d="M723.08,360.49h10.35l35.75,69.67h-9.49l-9.01-18.11h-44.95l-9.11,18.11h-9.39L723.08,360.49z M746.94,404.58
		l-18.69-37.47l-18.69,37.47H746.94z"/>
	<path class="st0" d="M779.89,360.49h40.83c14.08,0,26.93,4.03,26.93,19.93c0,16-12.84,20.03-26.93,20.03h-32.39v29.71h-8.44V360.49
		z M788.32,392.98h30.19c13.99,0,21.08-2.97,21.08-12.46c0-9.58-7.09-12.55-21.08-12.55h-30.19V392.98z"/>
	<path class="st0" d="M859.61,360.49h8.43v69.67h-8.43V360.49z"/>
	<path class="st0" d="M920.83,360.49h40.83c14.08,0,26.93,4.03,26.93,19.93c0,16-12.84,20.03-26.93,20.03h-32.4v29.71h-8.43V360.49z
		 M929.26,392.98h30.19c13.99,0,21.08-2.97,21.08-12.46c0-9.58-7.09-12.55-21.08-12.55h-30.19V392.98z"/>
	<path class="st0" d="M998.25,360.49h7.76v69.67h-7.76V360.49z"/>
	<path class="st0" d="M1069.17,422.4c0,2.97,0.38,5.08,0.86,7.76h-7.76c-0.38-1.53-0.96-4.02-0.96-6.04
		c-7.28,4.7-15.43,7.57-25.01,7.57c-8.24,0-20.41-2.3-20.41-15.24c0-17.35,25.97-18.02,45.52-20.32v-1.92c0-6.8-8.15-9.39-16.1-9.39
		c-13.32,0-18.02,5.56-20.51,8.43l-5.85-4.03c2.88-3.55,8.34-10.73,25.78-10.73c11.4,0,24.44,3.35,24.44,16.2V422.4z
		 M1061.41,402.46c-22.81,2.2-38.15,4.32-38.15,13.99c0,7.86,8.82,8.91,12.65,8.91c10.83,0,20.51-5.17,25.49-7.86V402.46z"/>
	<path class="st0" d="M1116.2,386.65h-19.93v30.28c0,5.46,2.39,8.14,10.25,8.14c3.74,0,6.8-0.67,11.02-1.53v6.7
		c-5.56,0.86-9.49,1.44-12.65,1.44c-16.38,0-16.38-9.97-16.38-13.99v-31.05h-10.64v-6.61h10.64v-16.68h7.76v16.68h19.93V386.65z"/>
	<path class="st0" d="M1136.04,387.7h-12.65v-6.61h12.65v-3.83c0-8.24,2.59-18.49,17.82-18.49c7.96,0,11.02,0.86,13.04,1.34v6.9
		c-3.45-0.86-6.8-1.63-10.74-1.63c-10.73,0-12.36,5.08-12.36,12.46v3.26h20.61v6.61h-20.61v42.46h-7.76V387.7z"/>
	<path class="st0" d="M1168.33,404.19c0-14.28,11.31-25.69,28.94-25.69c17.64,0,28.85,11.4,28.85,25.69
		c0,17.73-11.79,27.5-28.85,27.5S1168.33,421.92,1168.33,404.19z M1218.35,405.15c0-9.11-5.94-20.03-21.08-20.03
		s-21.18,10.93-21.18,20.03c0,11.98,8.05,19.93,21.18,19.93S1218.35,417.13,1218.35,405.15z"/>
	<path class="st0" d="M1236.35,380.04h7.76v10.44c4.5-5.08,10.83-11.98,20.89-11.98c1.72,0,3.16,0.09,4.6,0.38v7.76
		c-0.96-0.09-2.88-0.67-6.23-0.67c-11.02,0-18.98,12.75-19.26,14.18v30h-7.76V380.04z"/>
	<path class="st0" d="M1278.51,380.04h7.47v6.99c5.75-4.89,11.69-8.53,19.93-8.53c10.93,0,13.9,5.27,15.91,8.91
		c7.86-6.62,13.04-8.91,20.42-8.91c4.6,0,18.4,0.96,18.4,15.43v36.22h-7.76v-33.35c0-3.07,0-11.7-11.02-11.7
		c-8.72,0-15.14,5.75-18.4,8.82v36.22h-7.76v-33.35c0-3.07,0-11.7-10.83-11.7c-8.91,0-15.34,5.75-18.59,8.82v36.22h-7.76V380.04z"/>
</g>
</svg>
