<svg fill="none" height="34" viewBox="0 0 142 34" width="142" xmlns="http://www.w3.org/2000/svg"><g clip-rule="evenodd" fill-rule="evenodd"><g fill="#0f0033"><path d="m119.337 2.36377h-4.434l.001 24.89523h4.433z"/><path d="m127.396 16.7213c.409-2.6945 2.251-4.3992 4.876-4.3992 2.763 0 4.571 1.7047 4.672 4.3992zm4.842-7.84376c-5.457 0-9.276 3.75146-9.276 9.31056 0 5.4901 3.718 9.2416 9.379 9.2416 3.205 0 5.865-1.1599 7.673-3.1376l-2.387-2.4893c-1.296 1.3294-3.036 2.0456-4.911 2.0456-2.661 0-4.639-1.568-5.218-4.1602h13.471c.442-6.6155-2.32-10.81066-8.731-10.81066z"/><path d="m38.2399 8.84367c-2.9669.03338-5.2521 1.15873-6.5477 3.58023v-3.41008h-4.4337v18.24528h4.4337v-8.9687c0-3.0013 1.7732-5.2177 4.7746-5.2521 2.5237 0 4.0578 1.5685 4.0578 4.1268v10.094h4.4676v-11.3901c0-4.3309-2.5577-7.02533-6.7523-7.02533z"/><path d="m49.0247 27.2591h4.4331v-18.24522h-4.4331z"/><path d="m81.3963 8.84367c-3.206.03338-5.5936 1.39843-6.7868 4.36473-.8529-2.7617-3.0692-4.36473-6.2752-4.36473-2.8991.03338-5.1493 1.12538-6.4109 3.54633v-3.37618h-4.4332v18.24528h4.4332v-9.0031c0-2.9669 1.7392-5.1499 4.6377-5.2516 2.4554 0 3.9561 1.5685 3.9561 4.1607v10.094h4.4676v-9.0031c0-2.9669 1.7387-5.1499 4.6039-5.2516 2.4548 0 3.99 1.5685 3.99 4.1607v10.094h4.4681v-11.3901c0-4.3309-2.5243-7.02533-6.6505-7.02533z"/><path d="m101.661 23.6104c-3.0352 0-5.1492-2.2513-5.1492-5.5252 0-3.2054 2.114-5.4901 5.1492-5.4901 3.001 0 5.115 2.2847 5.115 5.4901 0 3.24-2.114 5.5252-5.115 5.5252zm.989-14.73286c-2.7276 0-4.8426 1.12536-6.1382 3.13766v-9.65143h-4.4337v24.89523h4.4337v-2.9669c1.33 2.0122 3.444 3.1376 6.2062 3.1376 5.184 0 8.56-3.7175 8.56-9.2082 0-5.5925-3.478-9.34396-8.628-9.34396z"/></g><path d="m49.0247 6.79705h4.4331v-4.43316h-4.4331z" fill="#e20041"/><path d="m0 13.6296h6.81477v-6.81478h-6.81477z" fill="#f14321"/><path d="m6.8147 6.81494 6.8148 6.81476h-6.8148z" fill="#f86410"/><path d="m0 20.4449h6.81477v-6.8148h-6.81477z" fill="#e92131"/><path d="m0 34h6.81477v-7h-6.81477z" fill="#e20041"/><path d="m6.8147 20.4449h6.8148v-6.8148h-6.8148z" fill="#f14321"/><path d="m13.6296 20.4449h6.8143v-6.8148h-6.8143z" fill="#f86410"/><path d="m13.6296 7h6.8143v-7h-6.8143z" fill="#ff8500"/><path d="m6.8147 20.4448h6.8148v6.8143z" fill="#e92131"/><path d="m13.6296 27.2591h6.8143v-6.8143h-6.8143z" fill="#f14321"/></g></svg>