<svg xmlns="http://www.w3.org/2000/svg" xmlns:xlink="http://www.w3.org/1999/xlink" width="801" height="514" viewBox="0 0 801 514">
  <defs>
    <polygon id="bkk-illust-a" points="0 174.532 570 174.532 570 .468 0 .468"/>
  </defs>
  <g fill="none" fill-rule="evenodd">
    <g transform="translate(490 3)">
      <polygon fill="#ED1844" points="164.472 116.624 196.123 30.544 12.026 30.544 43.676 116.624 47.712 56.098 160.194 56.098"/>
      <path fill="#ED1844" d="M18.9133125 52.9048099L.0001875 2.94820437 22.8526875 15.5756172C25.04175 16.7846447 26.7114375 18.7525897 27.548625 21.1060759L31.4064375 31.9573787M190.303688 52.9048099L209.216813 2.94820437 186.364313 15.5756172C184.17525 16.7846447 182.505563 18.7525897 181.668375 21.1060759L177.810563 31.9573787"/>
      <polyline fill="#ED1844" points="83.693 35.263 103.99 .172 124.288 35.263"/>
      <polygon fill="#ED1844" points="57.716 60.53 28.488 60.53 43.101 35.263 57.716 9.997 72.33 35.263 86.945 60.53"/>
      <polygon fill="#ED1844" points="151.331 60.53 122.101 60.53 136.716 35.263 151.331 9.997 165.944 35.263 180.559 60.53"/>
      <polygon fill="#ED1844" points="190.582 349.218 204.047 510 174.103 510 163.967 349.218"/>
      <polygon fill="#ED1844" points="17.087 349.218 3.621 510 33.566 510 43.701 349.218"/>
      <polygon stroke="#000006" stroke-width="2" points="11.106 509.064 26.737 509.064 56.651 51.172 48.464 51.172"/>
      <polygon stroke="#000006" stroke-width="2" points="196.875 509.064 181.244 509.064 151.331 51.172 159.517 51.172"/>
      <polygon fill="#ED1944" stroke="#000006" stroke-width="2" points="16.773 60.333 192.544 60.333 192.544 49.192 16.773 49.192"/>
      <polygon fill="#E81C4D" stroke="#000006" stroke-width="2" points="163.449 100.583 44.531 100.583 45.203 89.918 162.778 89.918"/>
    </g>
    <g transform="translate(0 304)">
      <polygon fill="#FFF" stroke="#000006" stroke-width="2" points="338.438 162.834 570 162.834 570 7.487 338.438 7.487"/>
      <path fill="#000006" d="M405.9375 36.2568913L398.955453 36.2568913C397.575717 36.2568913 396.475905 36.5366422 395.657547 37.0923325 394.83766 37.6503097 394.191386 38.422483 393.717963 39.407328 393.243009 40.3936974 392.942435 41.4852593 392.812415 42.6858249 392.683925 43.8863906 392.618915 45.1281184 392.618915 46.4140576L392.618915 69.0426234C392.618915 71.9575205 392.186792 74.4211574 391.326369 76.4350586 390.462886 78.4504843 389.428084 80.0992611 388.221962 81.3859626 387.014311 82.6711395 385.785244 83.6354033 384.537057 84.2779918 383.286575 84.9205802 382.273953 85.3283914 381.49766 85.4999008L381.49766 85.7560214C382.273953 85.8429195 383.286575 86.1653572 384.537057 86.7202853 385.785244 87.2790247 387.014311 88.1792583 388.221962 89.4209862 389.428084 90.6642386 390.462886 92.3351211 391.326369 94.4359203 392.186792 96.5359574 392.618915 99.1726282 392.618915 102.342121L392.618915 124.842627C392.618915 126.127042 392.683925 127.368769 392.812415 128.570097 392.942435 129.769901 393.243009 130.840119 393.717963 131.784564 394.191386 132.727485 394.83766 133.498896 395.657547 134.098797 396.475905 134.698699 397.575717 134.999031 398.955453 134.999031L405.9375 134.999031 405.9375 142.713904 396.885849 142.713904C395.246839 142.713904 393.630773 142.370123 392.036122 141.68561 390.440707 140.998048 388.998255 139.969754 387.704944 138.599203 386.411632 137.227128 385.355415 135.53414 384.537057 133.521001 383.716405 131.506338 383.30799 129.21421 383.30799 126.642332L383.30799 104.142589C383.30799 101.826831 382.985236 99.770243 382.338198 97.970538 381.691925 96.170833 380.851387 94.6287731 379.81735 93.3420717 378.782547 92.0568948 377.596311 91.0918687 376.260169 90.4500425 374.922498 89.807454 373.566471 89.4850164 372.1875 89.4850164L372.1875 81.7716681C373.566471 81.7716681 374.922498 81.4294116 376.260169 80.7418496 377.596311 80.0573366 378.782547 79.0923105 379.81735 77.8490581 380.851387 76.6080925 381.691925 75.0850893 382.338198 73.284622 382.985236 71.4849169 383.30799 69.4725403 383.30799 67.2413939L383.30799 44.6143526C383.30799 42.0424742 383.738584 39.7503467 384.602067 37.7341587 385.461725 35.7225443 386.540887 34.028794 387.834963 32.6559567 389.12751 31.2869307 390.569961 30.2586368 392.166142 29.5710747 393.760792 28.8865618 395.334793 28.5427807 396.885849 28.5427807L405.9375 28.5427807 405.9375 36.2568913zM502.5 28.5427807L511.552211 28.5427807C513.102467 28.5427807 514.675667 28.8865618 516.271046 29.571837 517.865661 30.2586368 519.309609 31.287693 520.603656 32.6559567 521.896174 34.028794 522.973781 35.7225443 523.836479 37.734921 524.696118 39.7503467 525.128997 42.0424742 525.128997 44.6143526L525.128997 67.2421561C525.128997 69.4725403 525.453273 71.4849169 526.098767 73.284622 526.745026 75.0850893 527.586309 76.6080925 528.619559 77.8498204 529.654337 79.0923105 530.839017 80.0573366 532.176658 80.7418496 533.512005 81.4294116 534.86953 81.7716681 536.25 81.7716681L536.25 89.4850164C534.86953 89.4850164 533.512005 89.807454 532.176658 90.4500425 530.839017 91.0926309 529.654337 92.0568948 528.619559 93.3420717 527.586309 94.6287731 526.745026 96.170833 526.098767 97.970538 525.453273 99.770243 525.128997 101.827593 525.128997 104.142589L525.128997 126.642332C525.128997 129.21421 524.719827 131.506338 523.900723 133.521001 523.079324 135.53414 522.02619 137.227128 520.732143 138.599203 519.439626 139.969754 517.994148 140.998048 516.401063 141.68561 514.804154 142.370123 513.188125 142.713904 511.552211 142.713904L502.5 142.713904 502.5 134.999031 509.481888 134.999031C510.860828 134.999031 511.959086 134.698699 512.77972 134.09956 513.598824 133.498896 514.222903 132.727485 514.655017 131.784564 515.085601 130.840119 515.386169 129.769901 515.560544 128.57086 515.73186 127.368769 515.819048 126.127804 515.819048 124.842627L515.819048 102.342121C515.819048 99.1726282 516.249632 96.5359574 517.1108 94.4359203 517.971969 92.3351211 519.006747 90.6642386 520.215901 89.4209862 521.420466 88.1792583 522.649505 87.2790247 523.900723 86.7202853 525.149646 86.1653572 526.163011 85.8429195 526.939286 85.7567837L526.939286 85.4999008C526.163011 85.3283914 525.149646 84.9205802 523.900723 84.2779918 522.649505 83.6354033 521.420466 82.6711395 520.215901 81.3859626 519.006747 80.0992611 517.971969 78.4504843 517.1108 76.4350586 516.249632 74.4219197 515.819048 71.9575205 515.819048 69.0426234L515.819048 46.4140576C515.819048 45.1281184 515.73186 43.8863906 515.560544 42.6858249 515.386169 41.4852593 515.085601 40.3936974 514.655017 39.407328 514.222903 38.422483 513.598824 37.6503097 512.77972 37.0923325 511.959086 36.5366422 510.860828 36.2568913 509.481888 36.2568913L502.5 36.2568913 502.5 28.5427807zM480.183258 100.601604C473.797011 105.621724 466.148689 108.383209 458.693937 108.383209 458.29441 108.383209 457.898753 108.354976 457.5 108.339715 460.80462 112.273249 465.26214 115.52614 470.478454 117.655055 479.129466 121.18646 488.52843 121.105577 495.9375 117.494814 493.511686 110.427426 487.778155 104.297829 480.183258 100.601604"/>
      <path fill="#000006" d="M482.8125 97.8474512C486.516925 99.825776 489.774355 102.359617 492.446437 105.280749 496.645747 102.927095 500.104629 99.7659627 502.5 96.1068842 499.259294 92.6608906 494.898062 90.0044326 489.892185 88.4358289 488.117893 91.8317288 485.737726 95.0287495 482.8125 97.8474512M449.743563 108.3834C442.288811 108.3834 434.641264 105.623373 428.254242 100.601604 420.66012 104.297156 414.92504 110.427667 412.5 117.494465 419.909844 121.106079 429.308034 121.186202 437.959821 117.65471 443.176908 115.525743 447.63288 112.273535 450.9375 108.339142 450.539521 108.355167 450.14309 108.3834 449.743563 108.3834M454.184208 109.959893C452.220168 112.431855 449.865399 114.66276 447.1875 116.566515 449.049773 119.894904 451.444654 122.75166 454.238435 124.933155 457.012159 122.765884 459.39367 119.934581 461.25 116.636137 458.536445 114.719655 456.171277 112.455811 454.184208 109.959893M415.991807 105.280749C418.662922 102.359617 421.920861 99.825776 425.625 97.8474512 422.69924 95.0287495 420.319257 91.8317288 418.545101 88.4358289 413.539611 90.0036849 409.179476 92.6608906 405.9375 96.1061366 408.333446 99.7659627 411.792821 102.927095 415.991807 105.280749M484.476081 72.7577758L456.5625 104.236852C464.709174 104.991477 473.44296 101.765379 480.177493 95.4563809 486.911258 89.1466248 490.624268 80.710887 490.291954 72.629732 488.374052 72.4547135 486.423915 72.5062341 484.476081 72.7577758"/>
      <polygon fill="#ED1844" points="454.687 90.307 463.125 65.976 446.25 65.976"/>
      <polygon fill="#ED1844" points="442.672 66.121 429.35 66.121 429.35 62.472 441.453 62.472 437.269 49.944 440.725 48.786 444.678 60.623 454.688 47.717 464.699 60.626 468.65 48.798 472.106 49.954 467.926 62.472 480.024 62.472 480.024 66.121 466.703 66.121 455.188 100.602 486.563 64.705 471.252 46.324 438.123 46.324 422.813 64.705 454.187 100.601"/>
      <polygon fill="#ED1844" points="447.188 62.233 461.25 62.233 454.218 53.81"/>
      <path fill="#000006" d="M424.116039,72.7764567 C422.117688,72.5074929 420.114733,72.4506695 418.145544,72.6309889 C417.813253,80.7120261 421.526011,89.1468834 428.258549,95.4573052 C434.992622,101.763939 443.722743,104.991505 451.873465,104.236891 C451.875767,104.186129 451.873465,104.135366 451.875,104.083847 L424.116039,72.7764567 Z"/>
      <path fill="#E81C4D" d="M273.75,100.601604 L260.625,100.601604 L260.625,65.5008467 C260.625,58.5273619 266.501207,52.8743316 273.75,52.8743316 L273.75,100.601604 Z"/>
      <path fill="#ED1844" d="M281.71875,124.933155 L281.71875,124.933155 C278.882504,124.933155 276.5625,122.626932 276.5625,119.809237 L276.5625,104.789694 C276.5625,101.971998 278.882504,99.6657754 281.71875,99.6657754 C284.554996,99.6657754 286.875,101.971998 286.875,104.789694 L286.875,119.809237 C286.875,122.626932 284.554996,124.933155 281.71875,124.933155"/>
      <path stroke="#E81C4D" stroke-width="2" d="M170.625,139.906417 L190.097334,115.021935 C196.622528,106.525257 206.7713,101.537433 217.538022,101.537433 L272.8125,101.537433 L272.8125,138.388747"/>
      <mask id="bkk-illust-b" fill="#fff">
        <use xlink:href="#bkk-illust-a"/>
      </mask>
      <polygon fill="#FFF" points="272.813 145.521 279.375 145.521 279.375 24.799 272.813 24.799" mask="url(#bkk-illust-b)"/>
      <polygon stroke="#000006" stroke-width="2" points="272.813 145.521 279.375 145.521 279.375 24.799 272.813 24.799" mask="url(#bkk-illust-b)"/>
      <polygon fill="#FFF" points="18.75 96.956 47.813 105.281 39.811 84.693 47.813 64.104 18.75 72.429" mask="url(#bkk-illust-b)"/>
      <polygon stroke="#E81C4D" stroke-width="2" points="18.75 96.956 47.813 105.281 39.811 84.693 47.813 64.104 18.75 72.429" mask="url(#bkk-illust-b)"/>
      <path fill="#ED1844" d="M22.5,84.6925134 C22.5,91.9279436 20.8209773,97.7941176 18.7503916,97.7941176 C16.6790227,97.7941176 15,91.9279436 15,84.6925134 C15,77.4563216 16.6790227,71.5909091 18.7503916,71.5909091 C20.8209773,71.5909091 22.5,77.4563216 22.5,84.6925134" mask="url(#bkk-illust-b)"/>
      <path fill="#000006" d="M48.9844888,157.257828 C44.0449769,170.307989 29.4414345,176.890147 16.3680049,171.958665 C3.29381284,167.027945 -3.29931869,152.450395 1.64019324,139.400234 C6.58046756,126.350074 21.1840099,119.767155 34.2574396,124.699397 C47.3308692,129.630118 53.9247631,144.207668 48.9844888,157.257828" mask="url(#bkk-illust-b)"/>
      <path fill="#FFF" d="M34.9567949,151.966501 C32.9443356,157.28311 26.9947192,159.964826 21.6685113,157.955994 C16.3423033,155.947161 13.6557459,150.008267 15.6682051,144.690902 C17.6814209,139.374293 23.6302808,136.692577 28.9564887,138.702164 C34.2826967,140.710997 36.9692541,146.649891 34.9567949,151.966501" mask="url(#bkk-illust-b)"/>
      <path fill="#ED1844" d="M23.9410792,151.635775 L23.5464117,151.428831 C21.719909,150.467908 21.027687,148.218908 22.0081406,146.429447 L39.3921577,114.710633 C40.3726112,112.921172 42.6699181,112.244037 44.4964208,113.203438 L44.8910883,113.411143 C46.717591,114.370544 47.409813,116.621066 46.4293594,118.409767 L29.0453423,150.129341 C28.0648888,151.918041 25.7683588,152.595937 23.9410792,151.635775" mask="url(#bkk-illust-b)"/>
      <path fill="#FFF" d="M49.4648766,144.585561 L60.2420674,144.585561 C60.8479584,141.621397 61.0742089,138.519968 60.8563949,135.330842 C59.6998333,118.403002 45.9583782,104.695555 28.9366751,103.497536 C20.1006364,102.87603 11.9111372,105.565663 5.49329399,110.443151 C3.91184171,111.644983 4.82067825,114.133295 6.81091523,114.130244 L6.86997043,114.130244 C26.683374,114.130244 43.488797,126.886749 49.4648766,144.585561" mask="url(#bkk-illust-b)"/>
      <path stroke="#000006" stroke-width="2" d="M49.4648766,144.585561 L60.2420674,144.585561 C60.8479584,141.621397 61.0742089,138.519968 60.8563949,135.330842 C59.6998333,118.403002 45.9583782,104.695555 28.9366751,103.497536 C20.1006364,102.87603 11.9111372,105.565663 5.49329399,110.443151 C3.91184171,111.644983 4.82067825,114.133295 6.81091523,114.130244 L6.86997043,114.130244 C26.683374,114.130244 43.488797,126.886749 49.4648766,144.585561 Z" mask="url(#bkk-illust-b)"/>
      <path fill="#E81C4D" d="M142.5,113.703209 L129.375,113.703209 L129.375,78.602451 C129.375,71.6289661 135.251207,65.9759358 142.5,65.9759358 L142.5,113.703209 Z" mask="url(#bkk-illust-b)"/>
      <polygon fill="#FFF" points="45.938 101.537 77.004 113.785 142.5 113.785 142.5 143.65 55.98 143.65" mask="url(#bkk-illust-b)"/>
      <polygon stroke="#E81C4D" stroke-width="2" points="45.938 101.537 77.004 113.785 142.5 113.785 142.5 143.65 55.98 143.65" mask="url(#bkk-illust-b)"/>
      <path fill="#ED1844" d="M84.212729,70.8857857 L84.212729,70.8857857 C83.6674116,69.2732718 81.9055578,68.4004716 80.2958676,68.9459718 L43.3479158,81.4739046 C41.738998,82.0201785 40.8677261,83.7851229 41.412271,85.3976367 C41.956816,87.0101506 43.7202146,87.8829508 45.3291324,87.3374507 L82.2770842,74.8087441 C83.886002,74.263244 84.7572739,72.4975258 84.212729,70.8857857" mask="url(#bkk-illust-b)"/>
      <path fill="#000006" d="M84.212729,97.5638037 L84.212729,97.5638037 C83.6674116,99.1763186 81.9055578,100.049119 80.2958676,99.5028452 L43.3479158,86.9749042 C41.738998,86.4294037 40.8677261,84.6636844 41.412271,83.0511695 C41.956816,81.4386546 43.7202146,80.5658538 45.3291324,81.1121281 L82.2770842,93.640069 C83.886002,94.1855695 84.7572739,95.9512888 84.212729,97.5638037" mask="url(#bkk-illust-b)"/>
      <polygon fill="#FFF" points="58.91 24.799 43.093 83.584 66.563 143.65 49.471 143.65 26.25 83.649 52.787 24.799" mask="url(#bkk-illust-b)"/>
      <polygon stroke="#000006" stroke-width="2" points="58.91 24.799 43.093 83.584 66.563 143.65 49.471 143.65 26.25 83.649 52.787 24.799" mask="url(#bkk-illust-b)"/>
      <path stroke="#000006" stroke-width="2" d="M279.375 94.986631L208.407853 94.986631C204.642794 94.986631 201.5625 91.9434492 201.5625 88.2237522L201.5625 85.8404189C201.5625 82.1207219 204.642794 79.0775401 208.407853 79.0775401L279.375 79.0775401 279.375 94.986631zM216.09375 94.986631L216.09375 100.601604M253.59375 94.986631L253.59375 100.601604" mask="url(#bkk-illust-b)"/>
      <path fill="#E81C4D" d="M275.737416,138.970588 L47.7000841,138.970588 C45.6907081,138.970588 44.0625,140.646912 44.0625,142.713904 C44.0625,144.781685 45.6907081,146.457219 47.7000841,146.457219 L275.737416,146.457219 C277.746025,146.457219 279.375,144.781685 279.375,142.713904 C279.375,140.646912 277.746025,138.970588 275.737416,138.970588" mask="url(#bkk-illust-b)"/>
      <path fill="#E81C4D" d="M280.614217,151.136364 L238.760783,151.136364 C235.317544,151.136364 232.5,148.313095 232.5,144.86286 L232.5,135.885803 C232.5,132.435568 235.317544,129.612299 238.760783,129.612299 L280.614217,129.612299 C284.057456,129.612299 286.875,132.435568 286.875,135.885803 L286.875,144.86286 C286.875,148.313095 284.057456,151.136364 280.614217,151.136364" mask="url(#bkk-illust-b)"/>
      <path fill="#000006" d="M259.6875,143.181436 C259.6875,160.496673 245.627195,174.532086 228.28125,174.532086 C210.936071,174.532086 196.875,160.496673 196.875,143.181436 C196.875,125.866964 210.936071,111.831551 228.28125,111.831551 C245.627195,111.831551 259.6875,125.866964 259.6875,143.181436" mask="url(#bkk-illust-b)"/>
      <path fill="#FFF" d="M241.875,143.181443 C241.875,150.159002 235.998518,155.815508 228.74961,155.815508 C221.501482,155.815508 215.625,150.159002 215.625,143.181443 C215.625,136.204635 221.501482,130.548128 228.74961,130.548128 C235.998518,130.548128 241.875,136.204635 241.875,143.181443" mask="url(#bkk-illust-b)"/>
      <polygon fill="#FFF" points="142.5 145.521 149.063 145.521 149.063 24.799 142.5 24.799" mask="url(#bkk-illust-b)"/>
      <polygon stroke="#000006" stroke-width="2" points="142.5 145.521 149.063 145.521 149.063 24.799 142.5 24.799" mask="url(#bkk-illust-b)"/>
      <path fill="#E81C4D" d="M25.4061635,24.7994652 C22.0849958,24.7994652 21.3650385,20.147582 24.5342322,19.1600783 C43.8072899,13.153337 75.1714858,4.20852392 97.4863248,1.988359 C124.265206,-0.675533408 220.206042,0.809158922 261.352601,1.59732892 C271.885622,1.79895381 280.3125,10.3512093 280.3125,20.8334121 L280.3125,24.7994652 L25.4061635,24.7994652 Z" mask="url(#bkk-illust-b)"/>
      <path stroke="#000006" stroke-width="2" d="M280.3125 47.7272727L339.375 47.7272727M280.3125 123.529412L339.375 123.529412" mask="url(#bkk-illust-b)"/>
    </g>
    <path stroke="#010101" stroke-width="2" d="M-.0000716612378-.000213333333C18.2850098-.000213333333 18.2850098 14.2220089 36.5700912 14.2220089 54.8551726 14.2220089 54.8551726-.000213333333 73.1402541-.000213333333 91.4267687-.000213333333 91.4267687 14.2220089 109.713283 14.2220089 127.998365 14.2220089 127.998365-.000213333333 146.284163-.000213333333 164.572111-.000213333333 164.572111 14.2220089 182.860059 14.2220089 201.148007 14.2220089 201.148007-.000213333333 219.436671-.000213333333M-.0000716612378 21.33312C18.2850098 21.33312 18.2850098 35.5553422 36.5700912 35.5553422 54.8551726 35.5553422 54.8551726 21.33312 73.1402541 21.33312 91.4267687 21.33312 91.4267687 35.5553422 109.713283 35.5553422 127.998365 35.5553422 127.998365 21.33312 146.284163 21.33312 164.572111 21.33312 164.572111 35.5553422 182.860059 35.5553422 201.148007 35.5553422 201.148007 21.33312 219.436671 21.33312M-.0000716612378 43.5553422C18.2850098 43.5553422 18.2850098 57.7775644 36.5700912 57.7775644 54.8551726 57.7775644 54.8551726 43.5553422 73.1402541 43.5553422 91.4267687 43.5553422 91.4267687 57.7775644 109.713283 57.7775644 127.998365 57.7775644 127.998365 43.5553422 146.284163 43.5553422 164.572111 43.5553422 164.572111 57.7775644 182.860059 57.7775644 201.148007 57.7775644 201.148007 43.5553422 219.436671 43.5553422M-.0000716612378 64.8886756C18.2850098 64.8886756 18.2850098 79.1108978 36.5700912 79.1108978 54.8551726 79.1108978 54.8551726 64.8886756 73.1402541 64.8886756 91.4267687 64.8886756 91.4267687 79.1108978 109.713283 79.1108978 127.998365 79.1108978 127.998365 64.8886756 146.284163 64.8886756 164.572111 64.8886756 164.572111 79.1108978 182.860059 79.1108978 201.148007 79.1108978 201.148007 64.8886756 219.436671 64.8886756M-.0000716612378 86.2220089C18.2850098 86.2220089 18.2850098 100.444231 36.5700912 100.444231 54.8551726 100.444231 54.8551726 86.2220089 73.1402541 86.2220089 91.4267687 86.2220089 91.4267687 100.444231 109.713283 100.444231 127.998365 100.444231 127.998365 86.2220089 146.284163 86.2220089 164.572111 86.2220089 164.572111 100.444231 182.860059 100.444231 201.148007 100.444231 201.148007 86.2220089 219.436671 86.2220089M-.0000716612378 108.444231C18.2850098 108.444231 18.2850098 122.666453 36.5700912 122.666453 54.8551726 122.666453 54.8551726 108.444231 73.1402541 108.444231 91.4267687 108.444231 91.4267687 122.666453 109.713283 122.666453 127.998365 122.666453 127.998365 108.444231 146.284163 108.444231 164.572111 108.444231 164.572111 122.666453 182.860059 122.666453 201.148007 122.666453 201.148007 108.444231 219.436671 108.444231M-.0000716612378 129.777564C18.2850098 129.777564 18.2850098 143.999787 36.5700912 143.999787 54.8551726 143.999787 54.8551726 129.777564 73.1402541 129.777564 91.4267687 129.777564 91.4267687 143.999787 109.713283 143.999787 127.998365 143.999787 127.998365 129.777564 146.284163 129.777564 164.572111 129.777564 164.572111 143.999787 182.860059 143.999787 201.148007 143.999787 201.148007 129.777564 219.436671 129.777564" transform="translate(581 138)"/>
    <g transform="translate(116)">
      <polygon fill="#FFF" points="21.689 256.049 328.206 256.049 328.206 110.108 21.689 110.108"/>
      <polygon stroke="#010101" stroke-width="2" points="21.689 256.049 328.206 256.049 328.206 110.108 21.689 110.108"/>
      <polygon fill="#FFF" points="72.37 256.049 277.526 256.049 277.526 110.108 72.37 110.108"/>
      <polygon stroke="#010101" stroke-width="2" points="72.37 256.049 277.526 256.049 277.526 110.108 72.37 110.108"/>
      <polygon fill="#E81C4D" points="348.335 155.033 1.561 155.033 10.822 84.022 339.073 84.022"/>
      <polygon fill="#FFF" points="115.355 161.261 234.959 161.261 234.959 127.76 115.355 127.76"/>
      <g transform="translate(58.59 64.453)">
        <polyline fill="#E81C4D" points="222.705 .619 231.966 63.605 .749 63.605 10.01 .619"/>
        <polyline stroke="#FFF" stroke-width="2" points="222.705 .619 231.966 63.605 .749 63.605 10.01 .619"/>
      </g>
      <g transform="translate(105.617 46.756)">
        <polyline fill="#E81C4D" points="128.923 .344 138.185 63.33 .478 63.33 9.738 .344"/>
        <polyline stroke="#FFF" stroke-width="2" points="128.923 .344 138.185 63.33 .478 63.33 9.738 .344"/>
      </g>
      <polygon fill="#FFF" points="114.995 256.049 128.472 256.049 128.472 110.108 114.995 110.108"/>
      <polygon stroke="#010101" stroke-width="2" points="114.995 256.049 128.472 256.049 128.472 110.108 114.995 110.108"/>
      <polygon fill="#000006" points="151.107 256.548 162.049 256.548 162.049 191.74 151.107 191.74"/>
      <polygon fill="#000006" points="188.461 256.548 199.401 256.548 199.401 191.74 188.461 191.74"/>
      <polygon fill="#FFF" points="221.483 256.049 234.959 256.049 234.959 110.108 221.483 110.108"/>
      <g transform="translate(0 .588)">
        <polygon stroke="#010101" stroke-width="2" points="221.483 255.461 234.959 255.461 234.959 109.52 221.483 109.52"/>
        <path stroke="#E81C4D" stroke-width="2" d="M126.806388 47.2667629L115.381278 47.2667629C109.710352 47.2667629 105.071696 42.6353766 105.071696 36.9759904L105.071696 24.6638437M79.5420485 65.2161353L68.1169383 65.2161353C62.4460132 65.2161353 57.8073568 60.5847491 57.8073568 54.9253629L57.8073568 42.6132162M21.7354626 84.1866596L10.3103524 84.1866596C4.63942731 84.1866596 0 79.5552734 0 73.8958871L0 61.5837404M223.927148 47.2667629L235.351487 47.2667629C241.022412 47.2667629 245.661839 42.6353766 245.661839 36.9759904L245.661839 24.6638437M269.896564 65.2161353L281.320903 65.2161353C286.992599 65.2161353 291.631256 60.5847491 291.631256 54.9253629L291.631256 42.6132162M328.206101 84.1866596L339.631211 84.1866596C345.302137 84.1866596 349.941564 79.5552734 349.941564 73.8958871L349.941564 61.5837404"/>
        <path stroke="#E81C4D" stroke-width="4" d="M175.254945,19.2746153 L142.263976,57.5199087 C133.724438,67.4205644 129.027192,80.0504985 129.027192,93.1151781 L129.027192,109.693987 L221.482698,109.693987 L221.482698,93.1151781 C221.482698,80.0504985 216.785452,67.4205644 208.245143,57.5199087 L175.254945,19.2746153 Z"/>
        <path fill="#FFF" d="M175.254945,19.2746153 L142.263976,57.5199087 C133.724438,67.4205644 129.027192,80.0504985 129.027192,93.1151781 L129.027192,109.693987 L221.482698,109.693987 L221.482698,93.1151781 C221.482698,80.0504985 216.785452,67.4205644 208.245143,57.5199087 L175.254945,19.2746153 Z"/>
        <path fill="#FFF" d="M175.254945,34.4053749 L148.065187,66.6950395 C141.028183,74.8544048 137.156597,85.2644437 137.156597,96.0307431 L137.156597,109.694063 L213.353293,109.694063 L213.353293,96.0307431 C213.353293,85.2644437 209.481707,74.8544048 202.443932,66.6950395 L175.254945,34.4053749 Z"/>
        <path stroke="#010101" stroke-width="2" d="M175.254945,34.4053749 L148.065187,66.6950395 C141.028183,74.8544048 137.156597,85.2644437 137.156597,96.0307431 L137.156597,109.694063 L213.353293,109.694063 L213.353293,96.0307431 C213.353293,85.2644437 209.481707,74.8544048 202.443932,66.6950395 L175.254945,34.4053749 Z"/>
        <polygon fill="#ED1844" points="175.343 60.831 191.167 85.164 206.991 109.498 175.343 109.498 143.696 109.498 159.52 85.164"/>
        <polygon fill="#E81C4D" points="175.343 74.886 186.598 92.191 197.851 109.497 175.343 109.497 152.836 109.497 164.089 92.191"/>
        <polygon stroke="#010101" stroke-width="2" points="175.343 74.886 186.598 92.191 197.851 109.497 175.343 109.497 152.836 109.497 164.089 92.191"/>
        <path fill="#FFF" d="M122.288535 82.1419707L117.448667 91.8448749C116.199769 94.3479317 115.549879 97.1056802 115.549879 99.9019018L115.549879 109.102348 129.027192 109.102348 129.027192 99.9019018C129.027192 97.1056802 128.377302 94.3479317 127.128403 91.8448749L122.288535 82.1419707zM228.174791 82.5424751L223.334923 92.2461488C222.086795 94.7492057 221.436134 97.5069542 221.436134 100.303176L221.436134 109.503622 234.913447 109.503622 234.913447 100.303176C234.913447 97.5069542 234.263557 94.7492057 233.014659 92.2461488L228.174791 82.5424751z"/>
        <polygon fill="#FFF" points="115.355 127.172 234.959 127.172 234.959 109.497 115.355 109.497"/>
        <polygon stroke="#010101" stroke-width="2" points="115.355 127.172 234.959 127.172 234.959 109.497 115.355 109.497"/>
        <path fill="#ED1844" d="M175.254945,143.922847 L158.022456,163.900365 C153.561112,169.071913 151.108029,175.669272 151.108029,182.492853 L151.108029,191.153137 L199.40109,191.153137 L199.40109,182.492853 C199.40109,175.669272 196.948007,169.071913 192.487434,163.900365 L175.254945,143.922847 Z"/>
        <g transform="translate(162.665 164.665)">
          <path fill="#E81C4D" d="M25.0442731,26.6182749 L25.0442731,22.1515533 C25.0442731,18.6320383 23.7784141,15.228712 21.4779736,12.5617599 L12.589978,0.453520359 L3.70121145,12.5617599 C1.40077093,15.228712 0.134911894,18.6320383 0.134911894,22.1515533 L0.134911894,26.6182749"/>
          <path stroke="#FFF" stroke-width="2" d="M25.0442731,26.6182749 L25.0442731,22.1515533 C25.0442731,18.6320383 23.7784141,15.228712 21.4779736,12.5617599 L12.589978,0.453520359 L3.70121145,12.5617599 C1.40077093,15.228712 0.134911894,18.6320383 0.134911894,22.1515533 L0.134911894,26.6182749"/>
        </g>
        <path stroke="#E81C4D" stroke-width="2" d="M175.254945,18.5051542 L175.254945,0.181977545"/>
        <path fill="#000006" d="M58.6171366 183.985838L49.8671366 173.842033 41.1171366 183.985838C38.8521586 186.61124 37.6063436 189.961473 37.6063436 193.427126L37.6063436 197.823057 37.6063436 220.180518 62.1279295 220.180518 62.1279295 197.823057 62.1279295 193.427126C62.1279295 189.961473 60.8821145 186.61124 58.6171366 183.985838M103.082401 192.84372L96.4740308 185.182196 89.8648899 192.84372C88.154207 194.826622 87.2136784 197.35661 87.2136784 199.974316L87.2136784 203.29531 87.2136784 220.180364 105.733612 220.180364 105.733612 203.29531 105.733612 199.974316C105.733612 197.35661 104.793084 194.826622 103.082401 192.84372M259.66978 192.84372L253.06141 185.182196 246.452269 192.84372C244.742357 194.826622 243.801057 197.35661 243.801057 199.974316L243.801057 203.29531 243.801057 220.180364 262.320991 220.180364 262.320991 203.29531 262.320991 199.974316C262.320991 197.35661 261.381233 194.826622 259.66978 192.84372M309.313117 183.985838L300.563117 173.842033 291.813117 183.985838C289.548139 186.61124 288.302324 189.961473 288.302324 193.427126L288.302324 197.823057 288.302324 220.180518 312.82391 220.180518 312.82391 197.823057 312.82391 193.427126C312.82391 189.961473 311.578095 186.61124 309.313117 183.985838"/>
        <polygon fill="#ED1844" points="108.305 254.692 135.162 254.692 135.162 245.602 108.305 245.602"/>
        <polygon fill="#ED1844" points="214.792 254.692 241.65 254.692 241.65 245.602 214.792 245.602"/>
      </g>
    </g>
  </g>
</svg>
