<svg xmlns="http://www.w3.org/2000/svg"><symbol id="icon-facebook" viewBox="0 0 32 32"><title>icon-facebook</title><path d="M0 16C0 7.163 7.163 0 16 0s16 7.163 16 16-7.163 16-16 16S0 24.837 0 16zm17.668 9.408v-8.705h2.403l.318-3h-2.721l.004-1.501c0-.783.074-1.202 1.198-1.202h1.502V8h-2.403c-2.887 0-3.903 1.455-3.903 3.902v1.801h-1.8v3h1.8v8.705h3.602z" fill="currentColor"/></symbol><symbol id="icon-instagram" viewBox="0 0 32 32"><title>icon-instagram</title><g fill="currentColor"><path d="M15.995.01c-4.344 0-4.889.02-6.595.096C7.698.184 6.535.454 5.518.85a7.84 7.84 0 0 0-2.833 1.845A7.84 7.84 0 0 0 .84 5.528C.444 6.545.174 7.708.096 9.41.018 11.116 0 11.661 0 16.005c0 4.344.018 4.889.096 6.595.078 1.702.348 2.865.744 3.882a7.84 7.84 0 0 0 1.845 2.833 7.841 7.841 0 0 0 2.833 1.845c1.017.396 2.18.666 3.882.744 1.706.078 2.251.096 6.595.096 4.344 0 4.889-.018 6.595-.096 1.702-.078 2.865-.348 3.882-.744a7.841 7.841 0 0 0 2.833-1.845 7.841 7.841 0 0 0 1.845-2.833c.396-1.017.666-2.18.744-3.882.077-1.706.096-2.251.096-6.595 0-4.344-.019-4.889-.096-6.595-.078-1.702-.348-2.865-.744-3.882a7.841 7.841 0 0 0-1.845-2.833A7.84 7.84 0 0 0 26.472.85C25.455.454 24.292.184 22.59.106 20.884.03 20.339.01 15.995.01zm0 2.882c4.27 0 4.777.016 6.463.093 1.56.071 2.407.332 2.97.551.747.29 1.28.637 1.84 1.197s.906 1.092 1.196 1.839c.219.563.48 1.41.55 2.97.078 1.686.094 2.192.094 6.463 0 4.27-.016 4.777-.093 6.463-.071 1.56-.332 2.407-.551 2.97a4.955 4.955 0 0 1-1.197 1.84c-.56.56-1.092.906-1.839 1.196-.563.22-1.41.48-2.97.55-1.686.078-2.192.094-6.463.094s-4.777-.016-6.463-.093c-1.56-.071-2.407-.332-2.97-.551a4.955 4.955 0 0 1-1.84-1.196 4.956 4.956 0 0 1-1.196-1.84c-.22-.563-.48-1.41-.55-2.97-.078-1.686-.094-2.192-.094-6.463 0-4.27.016-4.777.093-6.463.071-1.56.332-2.407.551-2.97.29-.747.637-1.28 1.196-1.84a4.955 4.955 0 0 1 1.84-1.196c.563-.219 1.41-.48 2.97-.55 1.686-.078 2.192-.094 6.463-.094z"/><path d="M15.995 21.337a5.332 5.332 0 1 1 0-10.664 5.332 5.332 0 0 1 0 10.664zm0-13.546a8.214 8.214 0 1 0 0 16.428 8.214 8.214 0 0 0 0-16.428zm10.458-.324a1.92 1.92 0 1 1-3.84 0 1.92 1.92 0 0 1 3.84 0"/></g></symbol><symbol id="icon-logo" viewBox="0 0 550 385"><title>icon-logo</title><g fill="none" fill-rule="evenodd"><path fill="#000006" d="M113.674 26.012H90.159c-4.65 0-8.357.943-11.115 2.818-2.758 1.88-4.938 4.485-6.526 7.807-1.6 3.326-2.615 7.008-3.054 11.05-.43 4.05-.652 8.24-.652 12.578v76.304c0 9.83-1.453 18.14-4.351 24.93-2.91 6.796-6.395 12.358-10.458 16.695-4.068 4.333-8.205 7.585-12.412 9.752-4.212 2.167-7.618 3.543-10.237 4.116v.868c2.619.295 6.025 1.38 10.237 3.252 4.207 1.885 8.344 4.924 12.412 9.11 4.063 4.19 7.548 9.825 10.458 16.907 2.898 7.081 4.35 15.973 4.35 26.663v75.874c0 4.333.222 8.519.653 12.57.44 4.046 1.453 7.659 3.054 10.84 1.588 3.18 3.768 5.78 6.526 7.803 2.758 2.02 6.465 3.035 11.115 3.035h23.515V385H83.18c-5.512 0-10.959-1.159-16.327-3.469-5.377-2.318-10.237-5.787-14.592-10.407-4.355-4.628-7.913-10.334-10.671-17.124-2.759-6.795-4.134-14.52-4.134-23.194v-75.874c0-7.807-1.087-14.745-3.267-20.81-2.18-6.07-5.011-11.272-8.496-15.61-3.48-4.333-7.474-7.585-11.977-9.751-4.502-2.171-9.07-3.253-13.717-3.253v-26.012c4.646 0 9.215-1.159 13.717-3.477 4.503-2.306 8.496-5.558 11.977-9.752 3.485-4.186 6.317-9.322 8.496-15.392 2.18-6.07 3.267-12.852 3.267-20.376V54.195c0-8.67 1.445-16.403 4.355-23.198 2.894-6.787 6.53-12.496 10.89-17.124 4.35-4.62 9.214-8.085 14.587-10.403C72.662 1.16 77.96 0 83.18 0h30.493v26.012zM436.328 0h30.488c5.221 0 10.52 1.16 15.897 3.47 5.368 2.317 10.232 5.782 14.587 10.402 4.355 4.628 7.983 10.338 10.893 17.125 2.894 6.799 4.351 14.527 4.351 23.198v76.304c0 7.524 1.092 14.306 3.267 20.376 2.18 6.07 5.008 11.206 8.493 15.392 3.48 4.194 7.474 7.446 11.98 9.756 4.495 2.314 9.067 3.473 13.714 3.473v26.012c-4.647 0-9.22 1.081-13.714 3.252-4.506 2.167-8.5 5.419-11.98 9.752-3.485 4.337-6.313 9.54-8.493 15.609-2.175 6.07-3.267 13.004-3.267 20.81v75.874c0 8.675-1.383 16.4-4.133 23.194-2.766 6.791-6.32 12.496-10.676 17.125-4.355 4.62-9.223 8.089-14.587 10.407-5.377 2.31-10.824 3.469-16.332 3.469h-30.488v-26.016h23.515c4.642 0 8.344-1.016 11.11-3.035 2.755-2.023 4.86-4.624 6.313-7.803 1.45-3.182 2.463-6.794 3.054-10.84.57-4.052.87-8.237.87-12.57v-75.874c0-10.69 1.445-19.582 4.35-26.664 2.899-7.081 6.383-12.717 10.455-16.907 4.06-4.186 8.197-7.225 12.416-9.109 4.203-1.872 7.618-2.957 10.232-3.252v-.864c-2.614-.578-6.029-1.954-10.232-4.12-4.22-2.167-8.357-5.42-12.416-9.752-4.072-4.338-7.556-9.9-10.454-16.695-2.906-6.79-4.35-15.1-4.35-24.93V60.265c0-4.338-.3-8.528-.871-12.574-.591-4.047-1.605-7.729-3.054-11.055-1.453-3.321-3.558-5.922-6.312-7.806-2.767-1.872-6.47-2.818-11.111-2.818h-23.515V0zm-75.28 241.737c-21.248 16.915-46.692 26.213-71.491 26.213-1.326 0-2.643-.094-3.973-.148 10.996 13.254 25.821 24.206 43.179 31.382 28.78 11.898 60.053 11.624 84.7-.537-8.07-23.812-27.147-44.459-52.414-56.91"/><path fill="#000006" d="M370.929 232.977c12.556 6.8 23.593 15.511 32.643 25.554 14.234-8.09 25.953-18.96 34.071-31.537-10.983-11.85-25.76-20.983-42.723-26.373-6.013 11.673-14.079 22.666-23.991 32.356m-110.488 34.974c-24.8 0-50.243-9.301-71.492-26.212-25.263 12.45-44.345 33.101-52.41 56.906 24.648 12.164 55.92 12.435 84.7.54 17.358-7.175 32.183-18.131 43.175-31.381-1.322.053-2.643.147-3.973.147m14.606 6.252c-6.81 8.482-14.977 16.141-24.266 22.682 6.456 11.427 14.768 21.236 24.45 28.728 9.621-7.442 17.875-17.166 24.315-28.49a118.739 118.739 0 0 1-24.5-22.92m-128.62-15.671c9.054-10.043 20.095-18.75 32.646-25.553-9.916-9.69-17.982-20.684-23.995-32.36-16.96 5.393-31.735 14.527-42.723 26.376 8.123 12.578 19.841 23.444 34.071 31.537M375.43 148.507l-93.688 106.796c27.344 2.56 56.658-8.384 79.261-29.788 22.6-21.408 35.06-50.025 33.948-77.442-6.436-.594-12.982-.418-19.52.434"/><path fill="#ED1944" d="M275.231 208.447l27.62-82.398h-55.239z"/><path fill="#ED1944" d="M234.623 126.048h-45.017v-12.287h40.901l-14.14-42.186 11.677-3.895 13.36 39.851 33.829-43.451 33.837 43.464 13.348-39.827 11.677 3.895-14.123 42.149h40.885v12.287h-45.018L276.92 242.142l106.035-120.865-51.741-61.887H219.252l-51.741 61.887 106.031 120.865z"/><path fill="#ED1944" d="M252.152 113.761h46.159l-23.08-29.653z"/><path fill="#000006" d="M175.088 148.567c-6.71-.914-13.43-1.106-20.042-.496-1.112 27.417 11.35 56.038 33.948 77.442 22.604 21.4 51.906 32.353 79.266 29.793.008-.172 0-.348.004-.52l-93.176-106.22z"/></g></symbol><symbol id="icon-twitter" viewBox="0 0 32 32"><title>icon-twitter</title><path d="M0 16C0 7.163 7.163 0 16 0s16 7.163 16 16-7.163 16-16 16S0 24.837 0 16zm15.52-2.995l.034.554-.56-.068c-2.036-.26-3.816-1.141-5.326-2.621l-.74-.735-.19.542c-.402 1.21-.145 2.486.695 3.345.447.474.346.542-.426.26-.268-.09-.503-.158-.526-.125-.078.08.19 1.108.403 1.514.291.565.884 1.12 1.533 1.447l.549.26-.65.01c-.626 0-.648.012-.581.25.224.734 1.108 1.513 2.093 1.852l.693.238-.604.361a6.301 6.301 0 0 1-3 .836c-.503.012-.917.057-.917.09 0 .114 1.365.746 2.16.995 2.384.734 5.215.418 7.342-.836 1.51-.893 3.021-2.667 3.727-4.384.38-.915.76-2.587.76-3.39 0-.52.034-.587.66-1.209.37-.361.717-.757.784-.87.112-.214.101-.214-.47-.022-.951.339-1.085.294-.615-.215.347-.361.76-1.017.76-1.209 0-.034-.167.023-.357.125-.202.113-.65.282-.985.384l-.605.192-.548-.373c-.302-.203-.727-.43-.951-.497-.571-.158-1.444-.136-1.959.045-1.399.508-2.283 1.82-2.182 3.254z" fill="currentColor"/></symbol></svg>