<svg xmlns="http://www.w3.org/2000/svg"><symbol id="icon-facebook" viewBox="0 0 32 32"><title>icon-facebook</title><path d="M0 16C0 7.163 7.163 0 16 0s16 7.163 16 16-7.163 16-16 16S0 24.837 0 16zm17.668 9.408v-8.705h2.403l.318-3h-2.721l.004-1.501c0-.783.074-1.202 1.198-1.202h1.502V8h-2.403c-2.887 0-3.903 1.455-3.903 3.902v1.801h-1.8v3h1.8v8.705h3.602z" fill="currentColor"/></symbol><symbol id="icon-jekyll" viewBox="0 0 32 32"><title>icon-jekyll</title><g fill="none" fill-rule="evenodd"><path d="M8.34 26.181a3.524 3.524 0 1 0 6.578 2.526S23.3 6.639 23.561 6.13c.664-.369 1.08-.554 1.219-.877.392-.97-.914-2.402-3.4-3.407-2.485-1.004-4.694-1.188-4.782 0-.068.91.277 1.095.434 1.757.076.099-8.693 22.578-8.693 22.578z" fill="#D8D8D8"/><path d="M20.484 4.009c1.437.58 2.727.742 2.881.36.155-.382-.885-1.162-2.322-1.743-1.437-.58-2.727-.742-2.882-.36-.154.382.886 1.162 2.323 1.743z" fill-opacity=".2" fill="#333"/><path d="M16.94 13.047c-2.006.203-2.963 1.225-3.67 3.069l-3.946 10.28a2.464 2.464 0 0 0 1.423 3.19 2.476 2.476 0 0 0 3.195-1.427l6.721-17.51c-.832.934-1.716 2.196-3.723 2.398z" fill="#E00B00"/><g transform="translate(11.744 16.44)" fill="#FFF" fill-opacity=".5"><path d="M1.71 5.547a.924.924 0 1 0 0-1.849.924.924 0 0 0 0 1.849z"/><circle cx="4.276" cy="2.381" r="1"/><circle cx=".416" cy="6.009" r="1"/><circle cx="2.565" cy=".347" r="1"/><circle cx="2.057" cy="8.898" r="1"/></g></g></symbol><symbol id="icon-twitter" viewBox="0 0 32 32"><title>icon-twitter</title><path d="M0 16C0 7.163 7.163 0 16 0s16 7.163 16 16-7.163 16-16 16S0 24.837 0 16zm15.52-2.995l.034.554-.56-.068c-2.036-.26-3.816-1.141-5.326-2.621l-.74-.735-.19.542c-.402 1.21-.145 2.486.695 3.345.447.474.346.542-.426.26-.268-.09-.503-.158-.526-.125-.078.08.19 1.108.403 1.514.291.565.884 1.12 1.533 1.447l.549.26-.65.01c-.626 0-.648.012-.581.25.224.734 1.108 1.513 2.093 1.852l.693.238-.604.361a6.301 6.301 0 0 1-3 .836c-.503.012-.917.057-.917.09 0 .114 1.365.746 2.16.995 2.384.734 5.215.418 7.342-.836 1.51-.893 3.021-2.667 3.727-4.384.38-.915.76-2.587.76-3.39 0-.52.034-.587.66-1.209.37-.361.717-.757.784-.87.112-.214.101-.214-.47-.022-.951.339-1.085.294-.615-.215.347-.361.76-1.017.76-1.209 0-.034-.167.023-.357.125-.202.113-.65.282-.985.384l-.605.192-.548-.373c-.302-.203-.727-.43-.951-.497-.571-.158-1.444-.136-1.959.045-1.399.508-2.283 1.82-2.182 3.254z" fill="currentColor"/></symbol></svg>