<svg xmlns="http://www.w3.org/2000/svg"><symbol id="icon-facebook" viewBox="0 0 32 32"><title>icon-facebook</title><path d="M0 16C0 7.163 7.163 0 16 0s16 7.163 16 16-7.163 16-16 16S0 24.837 0 16zm17.668 9.408v-8.705h2.403l.318-3h-2.721l.004-1.501c0-.783.074-1.202 1.198-1.202h1.502V8h-2.403c-2.887 0-3.903 1.455-3.903 3.902v1.801h-1.8v3h1.8v8.705h3.602z" fill="currentColor"/></symbol><symbol id="icon-twitter" viewBox="0 0 32 32"><title>icon-twitter</title><path d="M0 16C0 7.163 7.163 0 16 0s16 7.163 16 16-7.163 16-16 16S0 24.837 0 16zm15.52-2.995l.034.554-.56-.068c-2.036-.26-3.816-1.141-5.326-2.621l-.74-.735-.19.542c-.402 1.21-.145 2.486.695 3.345.447.474.346.542-.426.26-.268-.09-.503-.158-.526-.125-.078.08.19 1.108.403 1.514.291.565.884 1.12 1.533 1.447l.549.26-.65.01c-.626 0-.648.012-.581.25.224.734 1.108 1.513 2.093 1.852l.693.238-.604.361a6.301 6.301 0 0 1-3 .836c-.503.012-.917.057-.917.09 0 .114 1.365.746 2.16.995 2.384.734 5.215.418 7.342-.836 1.51-.893 3.021-2.667 3.727-4.384.38-.915.76-2.587.76-3.39 0-.52.034-.587.66-1.209.37-.361.717-.757.784-.87.112-.214.101-.214-.47-.022-.951.339-1.085.294-.615-.215.347-.361.76-1.017.76-1.209 0-.034-.167.023-.357.125-.202.113-.65.282-.985.384l-.605.192-.548-.373c-.302-.203-.727-.43-.951-.497-.571-.158-1.444-.136-1.959.045-1.399.508-2.283 1.82-2.182 3.254z" fill="currentColor"/></symbol></svg>