<?xml version="1.0" encoding="UTF-8"?>
<svg width="355px" height="107px" viewBox="0 0 355 107" version="1.1" xmlns="http://www.w3.org/2000/svg" xmlns:xlink="http://www.w3.org/1999/xlink">
    <defs>
        <path d="M319.915096,51.2662335 L334.278893,51.1785759 C334.278893,57.9952912 330.861974,63.3658619 324.889133,66.9808116 C318.812206,70.1825771 311.110713,72.6065358 301.784654,72.6065358 C291.620499,72.6065358 282.766155,70.5924689 275.221623,66.5647467 C265.791062,61.6069485 261.07599,54.4807568 261.07599,45.1849367 C261.07599,43.2223121 261.023531,39.9691043 260.918613,35.4244903 L260.918613,25.6644554 C260.918613,13.68335 266.367696,6.04026649 277.265029,2.73561646 C282.399774,1.18617594 292.930311,0.411661448 308.857055,0.411661448 L319.545385,0.411661448 C342.912159,0.618253517 354.595546,8.0543334 354.595546,22.7207242 L354.595546,72.1419095 C354.595546,83.296235 350.142769,92.0755749 341.23555,98.479106 C333.272178,104.159565 323.370318,107 311.529137,107 C303.670267,107 294.030702,105.502413 282.609194,102.50724 C281.246923,102.197352 279.989571,102.042202 278.83672,102.042202 C275.274082,102.042202 271.711861,103.178458 268.148806,105.450559 L263.590695,93.0566815 C268.72544,90.9907608 273.80731,89.958212 278.83672,89.958212 C282.085436,89.958212 285.437821,90.4228384 288.895957,91.3525027 C297.174084,93.7278999 304.718616,94.9155986 311.529137,94.9155986 C319.388007,94.9155986 325.675187,93.1085353 330.390675,89.4935856 C335.629922,85.4654518 338.249129,79.6816969 338.249129,72.1419095 L338.249129,22.875874 C338.249129,15.9554512 333.429555,12.4956514 323.789158,12.4956514 L291.882378,12.4956514 C282.137479,12.4956514 277.265029,16.110601 277.265029,23.3405004 L277.42199,45.1849367 C277.42199,54.4807568 284.547682,59.5410278 298.798234,60.3673961 C298.798234,60.3673961 318.249729,60.831611 319.915096,51.2662335 Z M231.89983,23.9925823 C233.481929,22.428738 234.272563,20.6043901 234.272563,18.5191271 C234.272563,16.329745 233.481929,14.4794702 231.89983,12.9674797 C230.317314,11.4559006 228.472087,10.6999053 226.362066,10.6999053 C224.252878,10.6999053 222.406818,11.4559006 220.824718,12.9674797 C219.243036,14.4794702 218.45157,16.329745 218.45157,18.5191271 C218.45157,20.6043901 219.243036,22.428738 220.824718,23.9925823 C222.406818,25.5564267 224.252878,26.3383488 226.362066,26.3383488 C228.472087,26.3383488 230.317314,25.5564267 231.89983,23.9925823 Z M226.570237,0.411455679 C231.69957,0.411455679 236.069911,2.19135747 239.680844,5.75116106 C243.292194,9.31137618 245.097453,13.6189443 245.097453,18.6751 L245.097453,20.842259 L244.940492,106.588256 L228.611978,106.588256 L228.454601,36.784006 C227.826757,36.8873021 227.198497,36.9387443 226.570237,36.9387443 C221.441737,36.9387443 217.071396,35.1329156 213.460046,31.5216698 C209.848696,27.9104239 208.043021,23.6279597 208.043021,18.6751 C208.043021,13.6189443 209.848696,9.31137618 213.460046,5.75116106 C217.071396,2.19135747 221.441737,0.411455679 226.570237,0.411455679 Z M164.237356,95.0652749 C174.012232,95.0652749 178.899253,91.3992945 178.899253,84.0669222 L178.741876,28.6109439 C178.741876,23.3444923 174.95816,19.1620317 167.390313,16.0639738 C161.504904,13.5852805 155.461284,12.3461396 149.260288,12.3461396 C142.953956,12.3461396 136.857878,13.5852805 130.972469,16.0639738 C123.509956,19.1620317 119.778699,23.3444923 119.778699,28.6109439 L119.778699,84.3768103 C119.778699,91.5025906 124.666137,95.0652749 134.441013,95.0652749 L164.237356,95.0652749 Z M177.938336,6.51300018 C189.126276,11.8889209 194.720246,19.1772586 194.720246,28.3784249 L194.720246,66.3707888 C194.720246,76.8123306 194.668204,82.5504047 194.563702,83.5841882 C194.354282,91.5441559 191.061017,97.5921182 184.682242,101.727252 C179.245233,105.242198 172.292323,106.999877 163.822679,106.999877 L133.866045,106.844727 C125.814825,106.844727 118.913957,105.139313 113.163026,101.727252 C106.471162,97.6958257 103.125022,91.9063093 103.125022,84.3591142 L103.281983,28.3784249 C103.281983,19.1772586 108.823494,11.8889209 119.906933,6.51300018 C128.899502,2.17086288 138.571541,0 148.922634,0 C159.274144,0 168.946183,2.17086288 177.938336,6.51300018 Z M80.9272946,92.803421 C84.3758548,93.6874046 88.1129399,93.4721702 92.13855,92.1568948 L93.4021478,105.284957 C87.9076834,106.010087 82.7263081,105.748348 77.8576056,104.500154 C74.7133914,103.693951 71.5858308,102.41201 68.474924,100.65392 C61.0652867,96.2998477 54.0644972,93.2775128 47.4717228,91.5873262 C39.8647395,89.6370477 33.3198444,89.8259437 27.8374539,92.1548371 C21.7426244,94.753288 17.7378314,99.7016207 15.8226586,106.999835 L2.7000624e-13,102.942894 C4.91783084,77.1563352 21.7317995,74.6607689 55.3992894,51.64098 C66.2291756,44.2357655 71.0591583,35.3222642 71.0591583,28.7216065 C71.0591583,23.358855 67.2866841,19.1817444 59.7421521,16.1910979 C53.9787308,13.7156969 47.9009713,12.4782021 41.5088737,12.4782021 C34.1737617,12.4782021 26.9169219,14.2058386 19.7391871,17.6607 C12.5610359,21.1155614 8.79897027,23.7370584 2.52761184,28.8689371 L2.37023459,12.6329404 C14.0019953,4.48531136 27.0480696,0.411496833 41.5088737,0.411496833 C51.9877837,0.411496833 61.6806401,2.57742126 70.5878592,6.90885857 C81.7999473,12.2716101 87.4059914,19.5426632 87.4059914,28.7216065 C87.4059914,41.819626 74.5172943,56.309467 48.7390676,72.192364 L42.2845187,76.6419127 L39.8405916,78.0621303 C43.2887355,78.3386838 46.8542877,78.9448793 50.5414118,79.890182 C58.1483952,81.8408721 67.0993302,85.6829908 77.3938007,91.4169495 C78.633667,92.0552449 79.8114983,92.5174021 80.9272946,92.803421 Z" id="path-2019"></path>
    </defs>
    <g stroke="none" stroke-width="1" fill="none" fill-rule="evenodd">
        <mask fill="white">
            <use xlink:href="#path-2019"></use>
        </mask>
        <use fill="currentColor" xlink:href="#path-2019"></use>
    </g>
</svg>