<?xml version="1.0" encoding="UTF-8"?>
<svg width="1466px" height="288px" viewBox="0 0 1466 288" version="1.1" xmlns="http://www.w3.org/2000/svg" xmlns:xlink="http://www.w3.org/1999/xlink">
    <g stroke="none" stroke-width="1" fill="none" fill-rule="evenodd" opacity="0.100000001">
        <g transform="translate(733.000000, 144.000000) rotate(-90.000000) translate(-733.000000, -144.000000) translate(589.000000, -589.000000)">
            <path d="M120.257996,1183.18994 L120.257996,1055.20112 L164.703625,1055.20112 L164.703625,1183.18994 L120.257996,1183.18994 Z M-12.2707889,1183.18994 L-12.2707889,1081.93296 L22.4776119,1081.93296 L22.4776119,1183.18994 L-12.2707889,1183.18994 Z M75.8123667,1183.18994 L75.8123667,1068.16201 L115.409382,1068.16201 L115.409382,1183.18994 L75.8123667,1183.18994 Z M216.422175,1039 L250.362473,1051.61572 L250.362473,1183.18994 L216.422175,1183.18994 L216.422175,1039 Z M60.8872112,1077.05159 L66.3295331,1077.05159 L66.3295331,1070.75524 L60.8872112,1070.75524 L60.8872112,1077.05159 Z M60.8872112,1095.04114 L66.3295331,1095.04114 L66.3295331,1088.74479 L60.8872112,1088.74479 L60.8872112,1095.04114 Z M60.8872112,1104.03591 L66.3295331,1104.03591 L66.3295331,1097.73957 L60.8872112,1097.73957 L60.8872112,1104.03591 Z M60.8872112,1113.03069 L66.3295331,1113.03069 L66.3295331,1106.73435 L60.8872112,1106.73435 L60.8872112,1113.03069 Z M60.8872112,1122.02547 L66.3295331,1122.02547 L66.3295331,1115.72912 L60.8872112,1115.72912 L60.8872112,1122.02547 Z M60.8872112,1131.02024 L66.3295331,1131.02024 L66.3295331,1124.7239 L60.8872112,1124.7239 L60.8872112,1131.02024 Z M60.8872112,1140.01502 L66.3295331,1140.01502 L66.3295331,1133.71868 L60.8872112,1133.71868 L60.8872112,1140.01502 Z M60.8872112,1149.00979 L66.3295331,1149.00979 L66.3295331,1142.71345 L60.8872112,1142.71345 L60.8872112,1149.00979 Z M60.8872112,1166.99935 L66.3295331,1166.99935 L66.3295331,1160.703 L60.8872112,1160.703 L60.8872112,1166.99935 Z M51.8166746,1077.05159 L57.2589966,1077.05159 L57.2589966,1070.75524 L51.8166746,1070.75524 L51.8166746,1077.05159 Z M51.8166746,1086.04636 L57.2589966,1086.04636 L57.2589966,1079.75002 L51.8166746,1079.75002 L51.8166746,1086.04636 Z M51.8166746,1095.04114 L57.2589966,1095.04114 L57.2589966,1088.74479 L51.8166746,1088.74479 L51.8166746,1095.04114 Z M51.8166746,1104.03591 L57.2589966,1104.03591 L57.2589966,1097.73957 L51.8166746,1097.73957 L51.8166746,1104.03591 Z M51.8166746,1113.03069 L57.2589966,1113.03069 L57.2589966,1106.73435 L51.8166746,1106.73435 L51.8166746,1113.03069 Z M51.8166746,1122.02547 L57.2589966,1122.02547 L57.2589966,1115.72912 L51.8166746,1115.72912 L51.8166746,1122.02547 Z M51.8166746,1140.01502 L57.2589966,1140.01502 L57.2589966,1133.71868 L51.8166746,1133.71868 L51.8166746,1140.01502 Z M51.8166746,1149.00979 L57.2589966,1149.00979 L57.2589966,1142.71345 L51.8166746,1142.71345 L51.8166746,1149.00979 Z M51.8166746,1158.00457 L57.2589966,1158.00457 L57.2589966,1151.70823 L51.8166746,1151.70823 L51.8166746,1158.00457 Z M51.8166746,1166.99935 L57.2589966,1166.99935 L57.2589966,1160.703 L51.8166746,1160.703 L51.8166746,1166.99935 Z M41.8390845,1077.05159 L47.2814064,1077.05159 L47.2814064,1070.75524 L41.8390845,1070.75524 L41.8390845,1077.05159 Z M41.8390845,1095.04114 L47.2814064,1095.04114 L47.2814064,1088.74479 L41.8390845,1088.74479 L41.8390845,1095.04114 Z M41.8390845,1104.03591 L47.2814064,1104.03591 L47.2814064,1097.73957 L41.8390845,1097.73957 L41.8390845,1104.03591 Z M41.8390845,1113.03069 L47.2814064,1113.03069 L47.2814064,1106.73435 L41.8390845,1106.73435 L41.8390845,1113.03069 Z M41.8390845,1122.02547 L47.2814064,1122.02547 L47.2814064,1115.72912 L41.8390845,1115.72912 L41.8390845,1122.02547 Z M41.8390845,1131.02024 L47.2814064,1131.02024 L47.2814064,1124.7239 L41.8390845,1124.7239 L41.8390845,1131.02024 Z M41.8390845,1140.01502 L47.2814064,1140.01502 L47.2814064,1133.71868 L41.8390845,1133.71868 L41.8390845,1140.01502 Z M41.8390845,1149.00979 L47.2814064,1149.00979 L47.2814064,1142.71345 L41.8390845,1142.71345 L41.8390845,1149.00979 Z M41.8390845,1158.00457 L47.2814064,1158.00457 L47.2814064,1151.70823 L41.8390845,1151.70823 L41.8390845,1158.00457 Z M31.8614943,1077.05159 L38.2108698,1077.05159 L38.2108698,1070.75524 L31.8614943,1070.75524 L31.8614943,1077.05159 Z M31.8614943,1086.04636 L38.2108698,1086.04636 L38.2108698,1079.75002 L31.8614943,1079.75002 L31.8614943,1086.04636 Z M31.8614943,1095.04114 L38.2108698,1095.04114 L38.2108698,1088.74479 L31.8614943,1088.74479 L31.8614943,1095.04114 Z M31.8614943,1113.03069 L38.2108698,1113.03069 L38.2108698,1106.73435 L31.8614943,1106.73435 L31.8614943,1113.03069 Z M31.8614943,1122.02547 L38.2108698,1122.02547 L38.2108698,1115.72912 L31.8614943,1115.72912 L31.8614943,1122.02547 Z M31.8614943,1131.02024 L38.2108698,1131.02024 L38.2108698,1124.7239 L31.8614943,1124.7239 L31.8614943,1131.02024 Z M31.8614943,1140.01502 L38.2108698,1140.01502 L38.2108698,1133.71868 L31.8614943,1133.71868 L31.8614943,1140.01502 Z M31.8614943,1158.00457 L38.2108698,1158.00457 L38.2108698,1151.70823 L31.8614943,1151.70823 L31.8614943,1158.00457 Z M31.8614943,1166.99935 L38.2108698,1166.99935 L38.2108698,1160.703 L31.8614943,1160.703 L31.8614943,1166.99935 Z M57.2589966,1055.46412 L71.771855,1055.46412 L71.771855,1183.18994 L27.326226,1183.18994 L27.326226,1055.46412 L31.8614943,1055.46412 L31.8614943,1044.67039 L57.2589966,1044.67039 L57.2589966,1055.46412 Z M205.026283,1088.08528 L209.561551,1088.08528 L209.561551,1079.11315 L205.026283,1079.11315 L205.026283,1088.08528 Z M205.026283,1101.54349 L209.561551,1101.54349 L209.561551,1092.57135 L205.026283,1092.57135 L205.026283,1101.54349 Z M205.026283,1115.0017 L209.561551,1115.0017 L209.561551,1106.02956 L205.026283,1106.02956 L205.026283,1115.0017 Z M205.026283,1128.4599 L209.561551,1128.4599 L209.561551,1119.48777 L205.026283,1119.48777 L205.026283,1128.4599 Z M205.026283,1141.91811 L209.561551,1141.91811 L209.561551,1132.94597 L205.026283,1132.94597 L205.026283,1141.91811 Z M205.026283,1155.37632 L209.561551,1155.37632 L209.561551,1146.40418 L205.026283,1146.40418 L205.026283,1155.37632 Z M205.026283,1168.83452 L209.561551,1168.83452 L209.561551,1159.86239 L205.026283,1159.86239 L205.026283,1168.83452 Z M196.8628,1088.08528 L201.398068,1088.08528 L201.398068,1079.11315 L196.8628,1079.11315 L196.8628,1088.08528 Z M196.8628,1115.0017 L201.398068,1115.0017 L201.398068,1106.02956 L196.8628,1106.02956 L196.8628,1115.0017 Z M196.8628,1128.4599 L201.398068,1128.4599 L201.398068,1119.48777 L196.8628,1119.48777 L196.8628,1128.4599 Z M196.8628,1141.91811 L201.398068,1141.91811 L201.398068,1132.94597 L196.8628,1132.94597 L196.8628,1141.91811 Z M196.8628,1155.37632 L201.398068,1155.37632 L201.398068,1146.40418 L196.8628,1146.40418 L196.8628,1155.37632 Z M196.8628,1168.83452 L201.398068,1168.83452 L201.398068,1159.86239 L196.8628,1159.86239 L196.8628,1168.83452 Z M188.699317,1088.08528 L193.234585,1088.08528 L193.234585,1079.11315 L188.699317,1079.11315 L188.699317,1088.08528 Z M188.699317,1101.54349 L193.234585,1101.54349 L193.234585,1092.57135 L188.699317,1092.57135 L188.699317,1101.54349 Z M188.699317,1115.0017 L193.234585,1115.0017 L193.234585,1106.02956 L188.699317,1106.02956 L188.699317,1115.0017 Z M188.699317,1128.4599 L193.234585,1128.4599 L193.234585,1119.48777 L188.699317,1119.48777 L188.699317,1128.4599 Z M188.699317,1141.91811 L193.234585,1141.91811 L193.234585,1132.94597 L188.699317,1132.94597 L188.699317,1141.91811 Z M188.699317,1168.83452 L193.234585,1168.83452 L193.234585,1159.86239 L188.699317,1159.86239 L188.699317,1168.83452 Z M180.535834,1088.08528 L185.071102,1088.08528 L185.071102,1079.11315 L180.535834,1079.11315 L180.535834,1088.08528 Z M180.535834,1101.54349 L185.071102,1101.54349 L185.071102,1092.57135 L180.535834,1092.57135 L180.535834,1101.54349 Z M180.535834,1128.4599 L185.071102,1128.4599 L185.071102,1119.48777 L180.535834,1119.48777 L180.535834,1128.4599 Z M180.535834,1155.37632 L185.071102,1155.37632 L185.071102,1146.40418 L180.535834,1146.40418 L180.535834,1155.37632 Z M180.535834,1168.83452 L185.071102,1168.83452 L185.071102,1159.86239 L180.535834,1159.86239 L180.535834,1168.83452 Z M172.372351,1088.08528 L176.907619,1088.08528 L176.907619,1079.11315 L172.372351,1079.11315 L172.372351,1088.08528 Z M172.372351,1101.54349 L176.907619,1101.54349 L176.907619,1092.57135 L172.372351,1092.57135 L172.372351,1101.54349 Z M172.372351,1115.0017 L176.907619,1115.0017 L176.907619,1106.02956 L172.372351,1106.02956 L172.372351,1115.0017 Z M172.372351,1128.4599 L176.907619,1128.4599 L176.907619,1119.48777 L172.372351,1119.48777 L172.372351,1128.4599 Z M172.372351,1141.91811 L176.907619,1141.91811 L176.907619,1132.94597 L172.372351,1132.94597 L172.372351,1141.91811 Z M172.372351,1155.37632 L176.907619,1155.37632 L176.907619,1146.40418 L172.372351,1146.40418 L172.372351,1155.37632 Z M172.372351,1168.83452 L176.907619,1168.83452 L176.907619,1159.86239 L172.372351,1159.86239 L172.372351,1168.83452 Z M180.535834,1072.83265 L185.071102,1072.83265 L185.071102,1063.86051 L180.535834,1063.86051 L180.535834,1072.83265 Z M188.699317,1071.03822 L188.699317,1072.83265 L193.234585,1072.83265 L193.234585,1071.03822 L193.234585,1063.86051 L188.699317,1063.86051 L188.699317,1071.03822 Z M196.8628,1072.83265 L201.398068,1072.83265 L201.398068,1063.86051 L196.8628,1063.86051 L196.8628,1072.83265 Z M206.84039,1073.72986 L213.189765,1073.72986 L213.189765,1183.18994 L168.744136,1183.18994 L168.744136,1073.72986 L176.000566,1073.72986 L176.000566,1059.37444 L188.699317,1059.37444 L188.699317,1041.43017 L193.234585,1041.43017 L193.234585,1059.37444 L206.84039,1059.37444 L206.84039,1073.72986 Z M-85,1184 L-85,1119.19553 L-52.6759062,1119.19553 L-52.6759062,1184 L-85,1184 Z M-45.0438285,1111.79767 L-19.9028666,1111.79767 L-19.9028666,1109.10399 L-45.0438285,1109.10399 L-45.0438285,1111.79767 Z M-45.0438285,1118.98082 L-19.9028666,1118.98082 L-19.9028666,1116.28714 L-45.0438285,1116.28714 L-45.0438285,1118.98082 Z M-45.0438285,1126.16396 L-19.9028666,1126.16396 L-19.9028666,1123.47028 L-45.0438285,1123.47028 L-45.0438285,1126.16396 Z M-45.0438285,1133.34711 L-19.9028666,1133.34711 L-19.9028666,1130.65343 L-45.0438285,1130.65343 L-45.0438285,1133.34711 Z M-45.0438285,1140.53026 L-19.9028666,1140.53026 L-19.9028666,1137.83658 L-45.0438285,1137.83658 L-45.0438285,1140.53026 Z M-45.0438285,1147.7134 L-19.9028666,1147.7134 L-19.9028666,1145.01972 L-45.0438285,1145.01972 L-45.0438285,1147.7134 Z M-45.0438285,1154.89655 L-19.9028666,1154.89655 L-19.9028666,1152.20287 L-45.0438285,1152.20287 L-45.0438285,1154.89655 Z M-45.0438285,1162.07969 L-19.9028666,1162.07969 L-19.9028666,1159.38601 L-45.0438285,1159.38601 L-45.0438285,1162.07969 Z M-38.758588,1104.61453 L-16.3113006,1104.61453 L-16.3113006,1179.13966 L-48.6353945,1179.13966 L-48.6353945,1104.61453 L-43.2480455,1104.61453 L-43.2480455,1105.51242 L-38.758588,1105.51242 L-38.758588,1104.61453 Z M279.601085,1116.74849 L283.200814,1116.74849 L283.200814,1112.23411 L279.601085,1112.23411 L279.601085,1116.74849 Z M279.601085,1123.06861 L283.200814,1123.06861 L283.200814,1118.55424 L279.601085,1118.55424 L279.601085,1123.06861 Z M279.601085,1129.38873 L283.200814,1129.38873 L283.200814,1124.87436 L279.601085,1124.87436 L279.601085,1129.38873 Z M279.601085,1135.70886 L283.200814,1135.70886 L283.200814,1131.19448 L279.601085,1131.19448 L279.601085,1135.70886 Z M279.601085,1142.02898 L283.200814,1142.02898 L283.200814,1137.51461 L279.601085,1137.51461 L279.601085,1142.02898 Z M279.601085,1148.3491 L283.200814,1148.3491 L283.200814,1143.83473 L279.601085,1143.83473 L279.601085,1148.3491 Z M279.601085,1154.66923 L283.200814,1154.66923 L283.200814,1150.15485 L279.601085,1150.15485 L279.601085,1154.66923 Z M279.601085,1160.98935 L283.200814,1160.98935 L283.200814,1156.47498 L279.601085,1156.47498 L279.601085,1160.98935 Z M279.601085,1167.30947 L283.200814,1167.30947 L283.200814,1162.7951 L279.601085,1162.7951 L279.601085,1167.30947 Z M279.601085,1173.6296 L283.200814,1173.6296 L283.200814,1169.11522 L279.601085,1169.11522 L279.601085,1173.6296 Z M272.401628,1116.74849 L276.001357,1116.74849 L276.001357,1112.23411 L272.401628,1112.23411 L272.401628,1116.74849 Z M272.401628,1123.06861 L276.001357,1123.06861 L276.001357,1118.55424 L272.401628,1118.55424 L272.401628,1123.06861 Z M272.401628,1129.38873 L276.001357,1129.38873 L276.001357,1124.87436 L272.401628,1124.87436 L272.401628,1129.38873 Z M272.401628,1135.70886 L276.001357,1135.70886 L276.001357,1131.19448 L272.401628,1131.19448 L272.401628,1135.70886 Z M272.401628,1142.02898 L276.001357,1142.02898 L276.001357,1137.51461 L272.401628,1137.51461 L272.401628,1142.02898 Z M272.401628,1148.3491 L276.001357,1148.3491 L276.001357,1143.83473 L272.401628,1143.83473 L272.401628,1148.3491 Z M272.401628,1154.66923 L276.001357,1154.66923 L276.001357,1150.15485 L272.401628,1150.15485 L272.401628,1154.66923 Z M272.401628,1160.98935 L276.001357,1160.98935 L276.001357,1156.47498 L272.401628,1156.47498 L272.401628,1160.98935 Z M272.401628,1167.30947 L276.001357,1167.30947 L276.001357,1162.7951 L272.401628,1162.7951 L272.401628,1167.30947 Z M272.401628,1173.6296 L276.001357,1173.6296 L276.001357,1169.11522 L272.401628,1169.11522 L272.401628,1173.6296 Z M276.001357,1105.01111 L294,1105.01111 L294,1179.94972 L254.402985,1179.94972 L254.402985,1105.01111 L264.302239,1105.01111 L264.302239,1093.27374 L268.8019,1093.27374 L268.8019,1105.01111 L271.501696,1105.01111 L271.501696,1097.78812 L276.001357,1097.78812 L276.001357,1105.01111 Z" fill="#2C2D30" opacity="0.200000003" transform="translate(104.500000, 1111.500000) rotate(-270.000000) translate(-104.500000, -1111.500000) "></path>
            <path d="M120.257996,816.189944 L120.257996,688.201117 L164.703625,688.201117 L164.703625,816.189944 L120.257996,816.189944 Z M-12.2707889,816.189944 L-12.2707889,714.932961 L22.4776119,714.932961 L22.4776119,816.189944 L-12.2707889,816.189944 Z M75.8123667,816.189944 L75.8123667,701.162011 L115.409382,701.162011 L115.409382,816.189944 L75.8123667,816.189944 Z M216.422175,672 L250.362473,684.615719 L250.362473,816.189944 L216.422175,816.189944 L216.422175,672 Z M60.8872112,710.051585 L66.3295331,710.051585 L66.3295331,703.755242 L60.8872112,703.755242 L60.8872112,710.051585 Z M60.8872112,728.041138 L66.3295331,728.041138 L66.3295331,721.744794 L60.8872112,721.744794 L60.8872112,728.041138 Z M60.8872112,737.035914 L66.3295331,737.035914 L66.3295331,730.73957 L60.8872112,730.73957 L60.8872112,737.035914 Z M60.8872112,746.03069 L66.3295331,746.03069 L66.3295331,739.734347 L60.8872112,739.734347 L60.8872112,746.03069 Z M60.8872112,755.025466 L66.3295331,755.025466 L66.3295331,748.729123 L60.8872112,748.729123 L60.8872112,755.025466 Z M60.8872112,764.020242 L66.3295331,764.020242 L66.3295331,757.723899 L60.8872112,757.723899 L60.8872112,764.020242 Z M60.8872112,773.015019 L66.3295331,773.015019 L66.3295331,766.718675 L60.8872112,766.718675 L60.8872112,773.015019 Z M60.8872112,782.009795 L66.3295331,782.009795 L66.3295331,775.713451 L60.8872112,775.713451 L60.8872112,782.009795 Z M60.8872112,799.999347 L66.3295331,799.999347 L66.3295331,793.703004 L60.8872112,793.703004 L60.8872112,799.999347 Z M51.8166746,710.051585 L57.2589966,710.051585 L57.2589966,703.755242 L51.8166746,703.755242 L51.8166746,710.051585 Z M51.8166746,719.046361 L57.2589966,719.046361 L57.2589966,712.750018 L51.8166746,712.750018 L51.8166746,719.046361 Z M51.8166746,728.041138 L57.2589966,728.041138 L57.2589966,721.744794 L51.8166746,721.744794 L51.8166746,728.041138 Z M51.8166746,737.035914 L57.2589966,737.035914 L57.2589966,730.73957 L51.8166746,730.73957 L51.8166746,737.035914 Z M51.8166746,746.03069 L57.2589966,746.03069 L57.2589966,739.734347 L51.8166746,739.734347 L51.8166746,746.03069 Z M51.8166746,755.025466 L57.2589966,755.025466 L57.2589966,748.729123 L51.8166746,748.729123 L51.8166746,755.025466 Z M51.8166746,773.015019 L57.2589966,773.015019 L57.2589966,766.718675 L51.8166746,766.718675 L51.8166746,773.015019 Z M51.8166746,782.009795 L57.2589966,782.009795 L57.2589966,775.713451 L51.8166746,775.713451 L51.8166746,782.009795 Z M51.8166746,791.004571 L57.2589966,791.004571 L57.2589966,784.708228 L51.8166746,784.708228 L51.8166746,791.004571 Z M51.8166746,799.999347 L57.2589966,799.999347 L57.2589966,793.703004 L51.8166746,793.703004 L51.8166746,799.999347 Z M41.8390845,710.051585 L47.2814064,710.051585 L47.2814064,703.755242 L41.8390845,703.755242 L41.8390845,710.051585 Z M41.8390845,728.041138 L47.2814064,728.041138 L47.2814064,721.744794 L41.8390845,721.744794 L41.8390845,728.041138 Z M41.8390845,737.035914 L47.2814064,737.035914 L47.2814064,730.73957 L41.8390845,730.73957 L41.8390845,737.035914 Z M41.8390845,746.03069 L47.2814064,746.03069 L47.2814064,739.734347 L41.8390845,739.734347 L41.8390845,746.03069 Z M41.8390845,755.025466 L47.2814064,755.025466 L47.2814064,748.729123 L41.8390845,748.729123 L41.8390845,755.025466 Z M41.8390845,764.020242 L47.2814064,764.020242 L47.2814064,757.723899 L41.8390845,757.723899 L41.8390845,764.020242 Z M41.8390845,773.015019 L47.2814064,773.015019 L47.2814064,766.718675 L41.8390845,766.718675 L41.8390845,773.015019 Z M41.8390845,782.009795 L47.2814064,782.009795 L47.2814064,775.713451 L41.8390845,775.713451 L41.8390845,782.009795 Z M41.8390845,791.004571 L47.2814064,791.004571 L47.2814064,784.708228 L41.8390845,784.708228 L41.8390845,791.004571 Z M31.8614943,710.051585 L38.2108698,710.051585 L38.2108698,703.755242 L31.8614943,703.755242 L31.8614943,710.051585 Z M31.8614943,719.046361 L38.2108698,719.046361 L38.2108698,712.750018 L31.8614943,712.750018 L31.8614943,719.046361 Z M31.8614943,728.041138 L38.2108698,728.041138 L38.2108698,721.744794 L31.8614943,721.744794 L31.8614943,728.041138 Z M31.8614943,746.03069 L38.2108698,746.03069 L38.2108698,739.734347 L31.8614943,739.734347 L31.8614943,746.03069 Z M31.8614943,755.025466 L38.2108698,755.025466 L38.2108698,748.729123 L31.8614943,748.729123 L31.8614943,755.025466 Z M31.8614943,764.020242 L38.2108698,764.020242 L38.2108698,757.723899 L31.8614943,757.723899 L31.8614943,764.020242 Z M31.8614943,773.015019 L38.2108698,773.015019 L38.2108698,766.718675 L31.8614943,766.718675 L31.8614943,773.015019 Z M31.8614943,791.004571 L38.2108698,791.004571 L38.2108698,784.708228 L31.8614943,784.708228 L31.8614943,791.004571 Z M31.8614943,799.999347 L38.2108698,799.999347 L38.2108698,793.703004 L31.8614943,793.703004 L31.8614943,799.999347 Z M57.2589966,688.464122 L71.771855,688.464122 L71.771855,816.189944 L27.326226,816.189944 L27.326226,688.464122 L31.8614943,688.464122 L31.8614943,677.670391 L57.2589966,677.670391 L57.2589966,688.464122 Z M205.026283,721.085284 L209.561551,721.085284 L209.561551,712.113146 L205.026283,712.113146 L205.026283,721.085284 Z M205.026283,734.543491 L209.561551,734.543491 L209.561551,725.571353 L205.026283,725.571353 L205.026283,734.543491 Z M205.026283,748.001697 L209.561551,748.001697 L209.561551,739.029559 L205.026283,739.029559 L205.026283,748.001697 Z M205.026283,761.459904 L209.561551,761.459904 L209.561551,752.487766 L205.026283,752.487766 L205.026283,761.459904 Z M205.026283,774.91811 L209.561551,774.91811 L209.561551,765.945973 L205.026283,765.945973 L205.026283,774.91811 Z M205.026283,788.376317 L209.561551,788.376317 L209.561551,779.404179 L205.026283,779.404179 L205.026283,788.376317 Z M205.026283,801.834524 L209.561551,801.834524 L209.561551,792.862386 L205.026283,792.862386 L205.026283,801.834524 Z M196.8628,721.085284 L201.398068,721.085284 L201.398068,712.113146 L196.8628,712.113146 L196.8628,721.085284 Z M196.8628,748.001697 L201.398068,748.001697 L201.398068,739.029559 L196.8628,739.029559 L196.8628,748.001697 Z M196.8628,761.459904 L201.398068,761.459904 L201.398068,752.487766 L196.8628,752.487766 L196.8628,761.459904 Z M196.8628,774.91811 L201.398068,774.91811 L201.398068,765.945973 L196.8628,765.945973 L196.8628,774.91811 Z M196.8628,788.376317 L201.398068,788.376317 L201.398068,779.404179 L196.8628,779.404179 L196.8628,788.376317 Z M196.8628,801.834524 L201.398068,801.834524 L201.398068,792.862386 L196.8628,792.862386 L196.8628,801.834524 Z M188.699317,721.085284 L193.234585,721.085284 L193.234585,712.113146 L188.699317,712.113146 L188.699317,721.085284 Z M188.699317,734.543491 L193.234585,734.543491 L193.234585,725.571353 L188.699317,725.571353 L188.699317,734.543491 Z M188.699317,748.001697 L193.234585,748.001697 L193.234585,739.029559 L188.699317,739.029559 L188.699317,748.001697 Z M188.699317,761.459904 L193.234585,761.459904 L193.234585,752.487766 L188.699317,752.487766 L188.699317,761.459904 Z M188.699317,774.91811 L193.234585,774.91811 L193.234585,765.945973 L188.699317,765.945973 L188.699317,774.91811 Z M188.699317,801.834524 L193.234585,801.834524 L193.234585,792.862386 L188.699317,792.862386 L188.699317,801.834524 Z M180.535834,721.085284 L185.071102,721.085284 L185.071102,712.113146 L180.535834,712.113146 L180.535834,721.085284 Z M180.535834,734.543491 L185.071102,734.543491 L185.071102,725.571353 L180.535834,725.571353 L180.535834,734.543491 Z M180.535834,761.459904 L185.071102,761.459904 L185.071102,752.487766 L180.535834,752.487766 L180.535834,761.459904 Z M180.535834,788.376317 L185.071102,788.376317 L185.071102,779.404179 L180.535834,779.404179 L180.535834,788.376317 Z M180.535834,801.834524 L185.071102,801.834524 L185.071102,792.862386 L180.535834,792.862386 L180.535834,801.834524 Z M172.372351,721.085284 L176.907619,721.085284 L176.907619,712.113146 L172.372351,712.113146 L172.372351,721.085284 Z M172.372351,734.543491 L176.907619,734.543491 L176.907619,725.571353 L172.372351,725.571353 L172.372351,734.543491 Z M172.372351,748.001697 L176.907619,748.001697 L176.907619,739.029559 L172.372351,739.029559 L172.372351,748.001697 Z M172.372351,761.459904 L176.907619,761.459904 L176.907619,752.487766 L172.372351,752.487766 L172.372351,761.459904 Z M172.372351,774.91811 L176.907619,774.91811 L176.907619,765.945973 L172.372351,765.945973 L172.372351,774.91811 Z M172.372351,788.376317 L176.907619,788.376317 L176.907619,779.404179 L172.372351,779.404179 L172.372351,788.376317 Z M172.372351,801.834524 L176.907619,801.834524 L176.907619,792.862386 L172.372351,792.862386 L172.372351,801.834524 Z M180.535834,705.83265 L185.071102,705.83265 L185.071102,696.860512 L180.535834,696.860512 L180.535834,705.83265 Z M188.699317,704.038222 L188.699317,705.83265 L193.234585,705.83265 L193.234585,704.038222 L193.234585,696.860512 L188.699317,696.860512 L188.699317,704.038222 Z M196.8628,705.83265 L201.398068,705.83265 L201.398068,696.860512 L196.8628,696.860512 L196.8628,705.83265 Z M206.84039,706.729864 L213.189765,706.729864 L213.189765,816.189944 L168.744136,816.189944 L168.744136,706.729864 L176.000566,706.729864 L176.000566,692.374443 L188.699317,692.374443 L188.699317,674.430168 L193.234585,674.430168 L193.234585,692.374443 L206.84039,692.374443 L206.84039,706.729864 Z M-85,817 L-85,752.195531 L-52.6759062,752.195531 L-52.6759062,817 L-85,817 Z M-45.0438285,744.797671 L-19.9028666,744.797671 L-19.9028666,742.103991 L-45.0438285,742.103991 L-45.0438285,744.797671 Z M-45.0438285,751.980817 L-19.9028666,751.980817 L-19.9028666,749.287137 L-45.0438285,749.287137 L-45.0438285,751.980817 Z M-45.0438285,759.163963 L-19.9028666,759.163963 L-19.9028666,756.470283 L-45.0438285,756.470283 L-45.0438285,759.163963 Z M-45.0438285,766.347109 L-19.9028666,766.347109 L-19.9028666,763.653429 L-45.0438285,763.653429 L-45.0438285,766.347109 Z M-45.0438285,773.530255 L-19.9028666,773.530255 L-19.9028666,770.836575 L-45.0438285,770.836575 L-45.0438285,773.530255 Z M-45.0438285,780.713401 L-19.9028666,780.713401 L-19.9028666,778.019721 L-45.0438285,778.019721 L-45.0438285,780.713401 Z M-45.0438285,787.896547 L-19.9028666,787.896547 L-19.9028666,785.202867 L-45.0438285,785.202867 L-45.0438285,787.896547 Z M-45.0438285,795.079693 L-19.9028666,795.079693 L-19.9028666,792.386013 L-45.0438285,792.386013 L-45.0438285,795.079693 Z M-38.758588,737.614525 L-16.3113006,737.614525 L-16.3113006,812.139665 L-48.6353945,812.139665 L-48.6353945,737.614525 L-43.2480455,737.614525 L-43.2480455,738.512418 L-38.758588,738.512418 L-38.758588,737.614525 Z M279.601085,749.748487 L283.200814,749.748487 L283.200814,745.234113 L279.601085,745.234113 L279.601085,749.748487 Z M279.601085,756.06861 L283.200814,756.06861 L283.200814,751.554236 L279.601085,751.554236 L279.601085,756.06861 Z M279.601085,762.388734 L283.200814,762.388734 L283.200814,757.87436 L279.601085,757.87436 L279.601085,762.388734 Z M279.601085,768.708857 L283.200814,768.708857 L283.200814,764.194483 L279.601085,764.194483 L279.601085,768.708857 Z M279.601085,775.02898 L283.200814,775.02898 L283.200814,770.514607 L279.601085,770.514607 L279.601085,775.02898 Z M279.601085,781.349104 L283.200814,781.349104 L283.200814,776.83473 L279.601085,776.83473 L279.601085,781.349104 Z M279.601085,787.669227 L283.200814,787.669227 L283.200814,783.154853 L279.601085,783.154853 L279.601085,787.669227 Z M279.601085,793.989351 L283.200814,793.989351 L283.200814,789.474977 L279.601085,789.474977 L279.601085,793.989351 Z M279.601085,800.309474 L283.200814,800.309474 L283.200814,795.7951 L279.601085,795.7951 L279.601085,800.309474 Z M279.601085,806.629597 L283.200814,806.629597 L283.200814,802.115223 L279.601085,802.115223 L279.601085,806.629597 Z M272.401628,749.748487 L276.001357,749.748487 L276.001357,745.234113 L272.401628,745.234113 L272.401628,749.748487 Z M272.401628,756.06861 L276.001357,756.06861 L276.001357,751.554236 L272.401628,751.554236 L272.401628,756.06861 Z M272.401628,762.388734 L276.001357,762.388734 L276.001357,757.87436 L272.401628,757.87436 L272.401628,762.388734 Z M272.401628,768.708857 L276.001357,768.708857 L276.001357,764.194483 L272.401628,764.194483 L272.401628,768.708857 Z M272.401628,775.02898 L276.001357,775.02898 L276.001357,770.514607 L272.401628,770.514607 L272.401628,775.02898 Z M272.401628,781.349104 L276.001357,781.349104 L276.001357,776.83473 L272.401628,776.83473 L272.401628,781.349104 Z M272.401628,787.669227 L276.001357,787.669227 L276.001357,783.154853 L272.401628,783.154853 L272.401628,787.669227 Z M272.401628,793.989351 L276.001357,793.989351 L276.001357,789.474977 L272.401628,789.474977 L272.401628,793.989351 Z M272.401628,800.309474 L276.001357,800.309474 L276.001357,795.7951 L272.401628,795.7951 L272.401628,800.309474 Z M272.401628,806.629597 L276.001357,806.629597 L276.001357,802.115223 L272.401628,802.115223 L272.401628,806.629597 Z M276.001357,738.011115 L294,738.011115 L294,812.949721 L254.402985,812.949721 L254.402985,738.011115 L264.302239,738.011115 L264.302239,726.273743 L268.8019,726.273743 L268.8019,738.011115 L271.501696,738.011115 L271.501696,730.788117 L276.001357,730.788117 L276.001357,738.011115 Z" fill="#2C2D30" opacity="0.200000003" transform="translate(104.500000, 744.500000) rotate(-270.000000) translate(-104.500000, -744.500000) "></path>
            <path d="M127.257996,417.189944 L127.257996,289.201117 L171.703625,289.201117 L171.703625,417.189944 L127.257996,417.189944 Z M-5.27078891,417.189944 L-5.27078891,315.932961 L29.4776119,315.932961 L29.4776119,417.189944 L-5.27078891,417.189944 Z M82.8123667,417.189944 L82.8123667,302.162011 L122.409382,302.162011 L122.409382,417.189944 L82.8123667,417.189944 Z M223.422175,273 L257.362473,285.615719 L257.362473,417.189944 L223.422175,417.189944 L223.422175,273 Z M67.8872112,311.051585 L73.3295331,311.051585 L73.3295331,304.755242 L67.8872112,304.755242 L67.8872112,311.051585 Z M67.8872112,329.041138 L73.3295331,329.041138 L73.3295331,322.744794 L67.8872112,322.744794 L67.8872112,329.041138 Z M67.8872112,338.035914 L73.3295331,338.035914 L73.3295331,331.73957 L67.8872112,331.73957 L67.8872112,338.035914 Z M67.8872112,347.03069 L73.3295331,347.03069 L73.3295331,340.734347 L67.8872112,340.734347 L67.8872112,347.03069 Z M67.8872112,356.025466 L73.3295331,356.025466 L73.3295331,349.729123 L67.8872112,349.729123 L67.8872112,356.025466 Z M67.8872112,365.020242 L73.3295331,365.020242 L73.3295331,358.723899 L67.8872112,358.723899 L67.8872112,365.020242 Z M67.8872112,374.015019 L73.3295331,374.015019 L73.3295331,367.718675 L67.8872112,367.718675 L67.8872112,374.015019 Z M67.8872112,383.009795 L73.3295331,383.009795 L73.3295331,376.713451 L67.8872112,376.713451 L67.8872112,383.009795 Z M67.8872112,400.999347 L73.3295331,400.999347 L73.3295331,394.703004 L67.8872112,394.703004 L67.8872112,400.999347 Z M58.8166746,311.051585 L64.2589966,311.051585 L64.2589966,304.755242 L58.8166746,304.755242 L58.8166746,311.051585 Z M58.8166746,320.046361 L64.2589966,320.046361 L64.2589966,313.750018 L58.8166746,313.750018 L58.8166746,320.046361 Z M58.8166746,329.041138 L64.2589966,329.041138 L64.2589966,322.744794 L58.8166746,322.744794 L58.8166746,329.041138 Z M58.8166746,338.035914 L64.2589966,338.035914 L64.2589966,331.73957 L58.8166746,331.73957 L58.8166746,338.035914 Z M58.8166746,347.03069 L64.2589966,347.03069 L64.2589966,340.734347 L58.8166746,340.734347 L58.8166746,347.03069 Z M58.8166746,356.025466 L64.2589966,356.025466 L64.2589966,349.729123 L58.8166746,349.729123 L58.8166746,356.025466 Z M58.8166746,374.015019 L64.2589966,374.015019 L64.2589966,367.718675 L58.8166746,367.718675 L58.8166746,374.015019 Z M58.8166746,383.009795 L64.2589966,383.009795 L64.2589966,376.713451 L58.8166746,376.713451 L58.8166746,383.009795 Z M58.8166746,392.004571 L64.2589966,392.004571 L64.2589966,385.708228 L58.8166746,385.708228 L58.8166746,392.004571 Z M58.8166746,400.999347 L64.2589966,400.999347 L64.2589966,394.703004 L58.8166746,394.703004 L58.8166746,400.999347 Z M48.8390845,311.051585 L54.2814064,311.051585 L54.2814064,304.755242 L48.8390845,304.755242 L48.8390845,311.051585 Z M48.8390845,329.041138 L54.2814064,329.041138 L54.2814064,322.744794 L48.8390845,322.744794 L48.8390845,329.041138 Z M48.8390845,338.035914 L54.2814064,338.035914 L54.2814064,331.73957 L48.8390845,331.73957 L48.8390845,338.035914 Z M48.8390845,347.03069 L54.2814064,347.03069 L54.2814064,340.734347 L48.8390845,340.734347 L48.8390845,347.03069 Z M48.8390845,356.025466 L54.2814064,356.025466 L54.2814064,349.729123 L48.8390845,349.729123 L48.8390845,356.025466 Z M48.8390845,365.020242 L54.2814064,365.020242 L54.2814064,358.723899 L48.8390845,358.723899 L48.8390845,365.020242 Z M48.8390845,374.015019 L54.2814064,374.015019 L54.2814064,367.718675 L48.8390845,367.718675 L48.8390845,374.015019 Z M48.8390845,383.009795 L54.2814064,383.009795 L54.2814064,376.713451 L48.8390845,376.713451 L48.8390845,383.009795 Z M48.8390845,392.004571 L54.2814064,392.004571 L54.2814064,385.708228 L48.8390845,385.708228 L48.8390845,392.004571 Z M38.8614943,311.051585 L45.2108698,311.051585 L45.2108698,304.755242 L38.8614943,304.755242 L38.8614943,311.051585 Z M38.8614943,320.046361 L45.2108698,320.046361 L45.2108698,313.750018 L38.8614943,313.750018 L38.8614943,320.046361 Z M38.8614943,329.041138 L45.2108698,329.041138 L45.2108698,322.744794 L38.8614943,322.744794 L38.8614943,329.041138 Z M38.8614943,347.03069 L45.2108698,347.03069 L45.2108698,340.734347 L38.8614943,340.734347 L38.8614943,347.03069 Z M38.8614943,356.025466 L45.2108698,356.025466 L45.2108698,349.729123 L38.8614943,349.729123 L38.8614943,356.025466 Z M38.8614943,365.020242 L45.2108698,365.020242 L45.2108698,358.723899 L38.8614943,358.723899 L38.8614943,365.020242 Z M38.8614943,374.015019 L45.2108698,374.015019 L45.2108698,367.718675 L38.8614943,367.718675 L38.8614943,374.015019 Z M38.8614943,392.004571 L45.2108698,392.004571 L45.2108698,385.708228 L38.8614943,385.708228 L38.8614943,392.004571 Z M38.8614943,400.999347 L45.2108698,400.999347 L45.2108698,394.703004 L38.8614943,394.703004 L38.8614943,400.999347 Z M64.2589966,289.464122 L78.771855,289.464122 L78.771855,417.189944 L34.326226,417.189944 L34.326226,289.464122 L38.8614943,289.464122 L38.8614943,278.670391 L64.2589966,278.670391 L64.2589966,289.464122 Z M212.026283,322.085284 L216.561551,322.085284 L216.561551,313.113146 L212.026283,313.113146 L212.026283,322.085284 Z M212.026283,335.543491 L216.561551,335.543491 L216.561551,326.571353 L212.026283,326.571353 L212.026283,335.543491 Z M212.026283,349.001697 L216.561551,349.001697 L216.561551,340.029559 L212.026283,340.029559 L212.026283,349.001697 Z M212.026283,362.459904 L216.561551,362.459904 L216.561551,353.487766 L212.026283,353.487766 L212.026283,362.459904 Z M212.026283,375.91811 L216.561551,375.91811 L216.561551,366.945973 L212.026283,366.945973 L212.026283,375.91811 Z M212.026283,389.376317 L216.561551,389.376317 L216.561551,380.404179 L212.026283,380.404179 L212.026283,389.376317 Z M212.026283,402.834524 L216.561551,402.834524 L216.561551,393.862386 L212.026283,393.862386 L212.026283,402.834524 Z M203.8628,322.085284 L208.398068,322.085284 L208.398068,313.113146 L203.8628,313.113146 L203.8628,322.085284 Z M203.8628,349.001697 L208.398068,349.001697 L208.398068,340.029559 L203.8628,340.029559 L203.8628,349.001697 Z M203.8628,362.459904 L208.398068,362.459904 L208.398068,353.487766 L203.8628,353.487766 L203.8628,362.459904 Z M203.8628,375.91811 L208.398068,375.91811 L208.398068,366.945973 L203.8628,366.945973 L203.8628,375.91811 Z M203.8628,389.376317 L208.398068,389.376317 L208.398068,380.404179 L203.8628,380.404179 L203.8628,389.376317 Z M203.8628,402.834524 L208.398068,402.834524 L208.398068,393.862386 L203.8628,393.862386 L203.8628,402.834524 Z M195.699317,322.085284 L200.234585,322.085284 L200.234585,313.113146 L195.699317,313.113146 L195.699317,322.085284 Z M195.699317,335.543491 L200.234585,335.543491 L200.234585,326.571353 L195.699317,326.571353 L195.699317,335.543491 Z M195.699317,349.001697 L200.234585,349.001697 L200.234585,340.029559 L195.699317,340.029559 L195.699317,349.001697 Z M195.699317,362.459904 L200.234585,362.459904 L200.234585,353.487766 L195.699317,353.487766 L195.699317,362.459904 Z M195.699317,375.91811 L200.234585,375.91811 L200.234585,366.945973 L195.699317,366.945973 L195.699317,375.91811 Z M195.699317,402.834524 L200.234585,402.834524 L200.234585,393.862386 L195.699317,393.862386 L195.699317,402.834524 Z M187.535834,322.085284 L192.071102,322.085284 L192.071102,313.113146 L187.535834,313.113146 L187.535834,322.085284 Z M187.535834,335.543491 L192.071102,335.543491 L192.071102,326.571353 L187.535834,326.571353 L187.535834,335.543491 Z M187.535834,362.459904 L192.071102,362.459904 L192.071102,353.487766 L187.535834,353.487766 L187.535834,362.459904 Z M187.535834,389.376317 L192.071102,389.376317 L192.071102,380.404179 L187.535834,380.404179 L187.535834,389.376317 Z M187.535834,402.834524 L192.071102,402.834524 L192.071102,393.862386 L187.535834,393.862386 L187.535834,402.834524 Z M179.372351,322.085284 L183.907619,322.085284 L183.907619,313.113146 L179.372351,313.113146 L179.372351,322.085284 Z M179.372351,335.543491 L183.907619,335.543491 L183.907619,326.571353 L179.372351,326.571353 L179.372351,335.543491 Z M179.372351,349.001697 L183.907619,349.001697 L183.907619,340.029559 L179.372351,340.029559 L179.372351,349.001697 Z M179.372351,362.459904 L183.907619,362.459904 L183.907619,353.487766 L179.372351,353.487766 L179.372351,362.459904 Z M179.372351,375.91811 L183.907619,375.91811 L183.907619,366.945973 L179.372351,366.945973 L179.372351,375.91811 Z M179.372351,389.376317 L183.907619,389.376317 L183.907619,380.404179 L179.372351,380.404179 L179.372351,389.376317 Z M179.372351,402.834524 L183.907619,402.834524 L183.907619,393.862386 L179.372351,393.862386 L179.372351,402.834524 Z M187.535834,306.83265 L192.071102,306.83265 L192.071102,297.860512 L187.535834,297.860512 L187.535834,306.83265 Z M195.699317,305.038222 L195.699317,306.83265 L200.234585,306.83265 L200.234585,305.038222 L200.234585,297.860512 L195.699317,297.860512 L195.699317,305.038222 Z M203.8628,306.83265 L208.398068,306.83265 L208.398068,297.860512 L203.8628,297.860512 L203.8628,306.83265 Z M213.84039,307.729864 L220.189765,307.729864 L220.189765,417.189944 L175.744136,417.189944 L175.744136,307.729864 L183.000566,307.729864 L183.000566,293.374443 L195.699317,293.374443 L195.699317,275.430168 L200.234585,275.430168 L200.234585,293.374443 L213.84039,293.374443 L213.84039,307.729864 Z M-78,418 L-78,353.195531 L-45.6759062,353.195531 L-45.6759062,418 L-78,418 Z M-38.0438285,345.797671 L-12.9028666,345.797671 L-12.9028666,343.103991 L-38.0438285,343.103991 L-38.0438285,345.797671 Z M-38.0438285,352.980817 L-12.9028666,352.980817 L-12.9028666,350.287137 L-38.0438285,350.287137 L-38.0438285,352.980817 Z M-38.0438285,360.163963 L-12.9028666,360.163963 L-12.9028666,357.470283 L-38.0438285,357.470283 L-38.0438285,360.163963 Z M-38.0438285,367.347109 L-12.9028666,367.347109 L-12.9028666,364.653429 L-38.0438285,364.653429 L-38.0438285,367.347109 Z M-38.0438285,374.530255 L-12.9028666,374.530255 L-12.9028666,371.836575 L-38.0438285,371.836575 L-38.0438285,374.530255 Z M-38.0438285,381.713401 L-12.9028666,381.713401 L-12.9028666,379.019721 L-38.0438285,379.019721 L-38.0438285,381.713401 Z M-38.0438285,388.896547 L-12.9028666,388.896547 L-12.9028666,386.202867 L-38.0438285,386.202867 L-38.0438285,388.896547 Z M-38.0438285,396.079693 L-12.9028666,396.079693 L-12.9028666,393.386013 L-38.0438285,393.386013 L-38.0438285,396.079693 Z M-31.758588,338.614525 L-9.31130064,338.614525 L-9.31130064,413.139665 L-41.6353945,413.139665 L-41.6353945,338.614525 L-36.2480455,338.614525 L-36.2480455,339.512418 L-31.758588,339.512418 L-31.758588,338.614525 Z M286.601085,350.748487 L290.200814,350.748487 L290.200814,346.234113 L286.601085,346.234113 L286.601085,350.748487 Z M286.601085,357.06861 L290.200814,357.06861 L290.200814,352.554236 L286.601085,352.554236 L286.601085,357.06861 Z M286.601085,363.388734 L290.200814,363.388734 L290.200814,358.87436 L286.601085,358.87436 L286.601085,363.388734 Z M286.601085,369.708857 L290.200814,369.708857 L290.200814,365.194483 L286.601085,365.194483 L286.601085,369.708857 Z M286.601085,376.02898 L290.200814,376.02898 L290.200814,371.514607 L286.601085,371.514607 L286.601085,376.02898 Z M286.601085,382.349104 L290.200814,382.349104 L290.200814,377.83473 L286.601085,377.83473 L286.601085,382.349104 Z M286.601085,388.669227 L290.200814,388.669227 L290.200814,384.154853 L286.601085,384.154853 L286.601085,388.669227 Z M286.601085,394.989351 L290.200814,394.989351 L290.200814,390.474977 L286.601085,390.474977 L286.601085,394.989351 Z M286.601085,401.309474 L290.200814,401.309474 L290.200814,396.7951 L286.601085,396.7951 L286.601085,401.309474 Z M286.601085,407.629597 L290.200814,407.629597 L290.200814,403.115223 L286.601085,403.115223 L286.601085,407.629597 Z M279.401628,350.748487 L283.001357,350.748487 L283.001357,346.234113 L279.401628,346.234113 L279.401628,350.748487 Z M279.401628,357.06861 L283.001357,357.06861 L283.001357,352.554236 L279.401628,352.554236 L279.401628,357.06861 Z M279.401628,363.388734 L283.001357,363.388734 L283.001357,358.87436 L279.401628,358.87436 L279.401628,363.388734 Z M279.401628,369.708857 L283.001357,369.708857 L283.001357,365.194483 L279.401628,365.194483 L279.401628,369.708857 Z M279.401628,376.02898 L283.001357,376.02898 L283.001357,371.514607 L279.401628,371.514607 L279.401628,376.02898 Z M279.401628,382.349104 L283.001357,382.349104 L283.001357,377.83473 L279.401628,377.83473 L279.401628,382.349104 Z M279.401628,388.669227 L283.001357,388.669227 L283.001357,384.154853 L279.401628,384.154853 L279.401628,388.669227 Z M279.401628,394.989351 L283.001357,394.989351 L283.001357,390.474977 L279.401628,390.474977 L279.401628,394.989351 Z M279.401628,401.309474 L283.001357,401.309474 L283.001357,396.7951 L279.401628,396.7951 L279.401628,401.309474 Z M279.401628,407.629597 L283.001357,407.629597 L283.001357,403.115223 L279.401628,403.115223 L279.401628,407.629597 Z M283.001357,339.011115 L301,339.011115 L301,413.949721 L261.402985,413.949721 L261.402985,339.011115 L271.302239,339.011115 L271.302239,327.273743 L275.8019,327.273743 L275.8019,339.011115 L278.501696,339.011115 L278.501696,331.788117 L283.001357,331.788117 L283.001357,339.011115 Z" fill="#2C2D30" opacity="0.200000003" transform="translate(111.500000, 345.500000) rotate(-270.000000) translate(-111.500000, -345.500000) "></path>
            <path d="M-186.818674,774.258427 L-186.988182,807.145618 L-198.409831,807.978663 L-198.409831,810.662921 L-207.018445,810.662921 L-207.018445,810.546214 L-208.818465,810.662921 L-246.699594,810.662921 L-186.818674,774.258427 Z M-164.161028,815.516854 L-168.742697,815.516854 L-168.742697,805.35103 L-181.154263,806.253849 L-181.154263,774.258427 L-164.161028,815.516854 Z M-180.345061,751.606742 L-142.312585,816.325843 L-162.519226,816.325843 L-180.345061,772.320444 L-180.345061,751.606742 Z M-181.154263,736.235955 L-115.608931,816.325843 L-123.250751,816.325843 L-123.250751,813.467085 L-130.572304,816.325843 L-141.818145,816.325843 L-181.154263,750.099306 L-181.154263,736.235955 Z M-181.154263,723.292135 L-93.7604871,806.173588 L-107.562713,807.089674 L-107.562713,812.265965 L-114.622332,812.265965 L-114.622332,815.516854 L-181.154263,734.58107 L-181.154263,723.292135 Z M-180.345061,715.202247 L-50.0635995,815.516854 L-53.7617657,815.516854 L-53.7617657,812.975454 L-71.1034951,812.975454 L-71.1034951,815.516854 L-75.3843046,815.516854 L-77.2900336,814.975443 L-77.2900336,804.680549 L-92.0988833,805.670443 L-180.345061,721.880999 L-180.345061,715.202247 Z M-181.154263,708.730337 L-36.3071719,809.939964 L-37.3215356,810.008764 L-37.3215356,814.124655 L-49.6034523,815.055486 L-49.6034523,815.516854 L-181.154263,714.339604 L-181.154263,708.730337 Z M-180.345061,703.876404 L-16.0771313,808.665589 L-34.1511849,809.853933 L-180.345061,707.404933 L-180.345061,703.876404 Z M-180.345061,700.640449 L4.96211096,809.925609 L1.93658842,809.592472 L1.93658842,813.898876 L-6.25178959,813.898876 L-6.7100792,813.606366 L-6.7100792,808.133983 L-14.4807242,808.645876 L-180.345061,702.692085 L-180.345061,700.640449 Z M280.714837,678.946683 L280.95056,678.946683 L281.088743,673.134831 L331.960209,673.134831 L332.15529,678.946683 L332.569838,678.946683 L338.35318,787.689266 L333.240429,787.689266 L333.240429,812.542043 L304.161149,813.423981 L304.161149,816.325843 L295.496296,816.325843 L295.496296,814.874912 L282.389283,814.106772 L282.389283,787.689266 L276.853857,787.689266 L280.714837,678.946683 Z M281.169447,658.573034 L331.495616,658.573034 L331.879567,670.707865 L280.899865,670.707865 L281.169447,658.573034 Z M490.483085,797.780114 C490.483085,800.835478 490.078509,803.801694 489.32195,806.617978 L423.671284,806.617978 C422.922817,803.801694 422.510149,800.835478 422.510149,797.780114 C422.510149,778.981924 437.722234,763.741573 456.49864,763.741573 C475.271,763.741573 490.483085,778.981924 490.483085,797.780114 Z M644.231394,797.509905 C644.231394,797.509905 648.034691,797.439898 650.70901,794.483146 C653.367315,797.439898 657.17862,797.509905 657.17862,797.509905 L657.17862,810.662921 L644.231394,810.662921 L644.231394,797.509905 Z M653.941813,787.200103 C653.941813,788.988563 652.495124,790.438202 650.7093,790.438202 C648.91489,790.438202 647.4682,788.988563 647.4682,787.200103 C647.4682,785.415931 648.91489,783.966292 650.7093,783.966292 C652.495124,783.966292 653.941813,785.415931 653.941813,787.200103 Z M722.500621,817.202118 L722.500621,756.098353 L711.219134,719.672981 L706.700856,719.733825 L706.700856,810.383515 L702.52764,810.659342 L702.52764,791.367686 L693.592572,764.539467 L693.592572,756.098353 L682.319204,740.680442 L677.792807,740.73723 L677.792807,762.300401 L672.495095,762.300401 L672.495095,811.847832 L667.578981,811.847832 C667.5871,803.021372 667.526207,792.576457 665.196026,782.3952 C663.198728,773.653922 655.721038,772.757485 652.534292,772.781823 L652.534292,772.664191 L654.08504,772.664191 L654.08504,771.573052 L653.289368,771.573052 C653.63849,771.094411 653.886122,770.538701 653.886122,769.901866 L652.534292,769.901866 L652.534292,769.58142 L654.08504,769.58142 L654.08504,768.482168 L653.289368,768.482168 C653.467989,768.238792 653.614132,767.97919 653.711562,767.687138 L655.07557,767.687138 L655.07557,766.239047 L646.915876,766.239047 L646.915876,767.687138 L648.296123,767.687138 C648.389493,767.97919 648.535636,768.238792 648.714257,768.482168 L647.906406,768.482168 L647.906406,769.58142 L649.469333,769.58142 L649.469333,769.901866 L648.117503,769.901866 C648.117503,770.538701 648.365135,771.094411 648.714257,771.573052 L647.906406,771.573052 L647.906406,772.664191 L649.469333,772.664191 L649.469333,772.781823 C646.213574,772.781823 638.914505,773.775611 636.937505,782.3952 C634.607323,792.588626 634.785944,802.928077 634.838718,811.847832 L629.7724,811.847832 L629.7724,762.300401 L624.46657,762.300401 L624.46657,740.73723 L619.944232,740.680442 L608.662745,756.098353 L608.662745,764.539467 L599.735797,791.367686 L599.735797,812.687481 L595.56664,812.229122 L595.56664,719.733825 L591.048362,719.672981 L579.762815,756.098353 L579.762815,810.74858 L568.793913,811.466542 L568.793913,781.101248 L516.348599,781.101248 C518.695018,774.517909 519.977835,767.42348 519.977835,760.028886 C519.977835,732.125753 501.791055,708.481711 476.625911,700.247468 C475.261902,696.179021 473.938489,692.045675 472.684088,687.867709 L476.44729,687.867709 L476.44729,680.493396 L470.50817,680.493396 C462.291643,651.596475 456.689465,620.391532 456.689465,589 C456.689465,620.391532 451.087287,651.596475 442.874819,680.493396 L437.10214,680.493396 L437.10214,687.867709 L440.70296,687.867709 C439.399845,692.134913 438.064254,696.349385 436.679947,700.498957 C411.8964,708.956296 394.062801,732.405636 394.062801,760.028886 C394.062801,767.42348 395.345618,774.517909 397.692038,781.101248 L377.662222,781.101248 L377.662222,810.89055 L354.210207,812.423823 L354.210207,816.553114 L348.949032,816.954685 L346.464588,787.64808 L341.199352,787.64808 L335.162803,679.118318 L339.392853,679.118318 C339.392853,650.85012 364.923357,629.13281 369.088455,625.810719 L360.421317,625.810719 C360.12497,629.716914 356.852974,632.795629 352.870556,632.795629 C348.87596,632.795629 343.756868,629.716914 343.460521,625.810719 C342.372562,632.799685 334.46456,638.153971 327.17361,638.153971 C319.866422,638.153971 307.176271,632.799685 306.096431,625.810719 C305.016591,632.799685 292.967849,638.153971 285.660661,638.153971 C278.361592,638.153971 270.461709,632.799685 269.369691,625.810719 C269.073343,629.716914 263.954252,632.795629 259.963715,632.795629 C255.977238,632.795629 252.705241,629.716914 252.412954,625.810719 L244.553667,625.810719 C248.710645,629.13281 274.241149,650.85012 274.241149,679.118318 L278.893393,679.118318 L274.86632,787.64808 L269.970504,787.64808 L267.806764,813.133672 L266.024622,813.028208 L266.024622,817.202118 L251.215387,817.202118 L246.822955,816.398975 L246.822955,817.202118 L230.38584,817.202118 L230.38584,813.393273 L221.20314,813.393273 L220.931151,808.805623 L225.490024,808.805623 L225.315464,805.852653 L220.748471,805.852653 L220.346576,799.212527 L224.913568,799.212527 L224.730889,796.26767 L220.167955,796.26767 L219.77012,789.627543 L224.333053,789.627543 L224.154433,786.674573 L219.58744,786.674573 L219.185544,780.042559 L223.752537,780.042559 L223.577977,777.085533 L219.010984,777.085533 L218.600969,770.441351 L223.167962,770.441351 L222.993402,767.496493 L218.422349,767.496493 L218.024513,760.856367 L222.595566,760.856367 L222.408826,757.903397 L217.849953,757.903397 L217.573903,753.364422 L213.895952,753.364422 L213.895952,746.983898 L215.113817,746.983898 L215.113817,744.189122 L213.895952,744.189122 L213.895952,741.171252 L215.113817,741.171252 L215.113817,738.388645 L213.895952,738.388645 L213.895952,734.563576 L212.600956,734.563576 L212.600956,738.388645 L211.289721,738.388645 L211.289721,741.171252 L212.600956,741.171252 L212.600956,744.189122 L211.289721,744.189122 L211.289721,746.983898 L212.600956,746.983898 L212.600956,753.364422 L209.04885,753.364422 C208.41962,699.712039 204.19363,683.000176 198.997407,682.249764 L198.997407,680.894968 L199.886448,680.894968 L199.886448,678.891166 L198.997407,678.891166 L198.997407,676.721058 L199.886448,676.721058 L199.886448,674.696976 L198.997407,674.696976 L198.997407,671.946819 L198.07183,671.946819 L198.07183,674.696976 L197.117836,674.696976 L197.117836,676.721058 L198.07183,676.721058 L198.07183,678.891166 L197.117836,678.891166 L197.117836,680.894968 L198.07183,680.894968 L198.07183,682.265989 C192.924321,683.198933 188.742986,700.032485 188.117815,753.364422 L184.610365,753.364422 L184.610365,746.983898 L185.836349,746.983898 L185.836349,744.189122 L184.610365,744.189122 L184.610365,741.171252 L185.836349,741.171252 L185.836349,738.388645 L184.610365,738.388645 L184.610365,734.563576 L183.327547,734.563576 L183.327547,738.388645 L182.004134,738.388645 L182.004134,741.171252 L183.327547,741.171252 L183.327547,744.189122 L182.004134,744.189122 L182.004134,746.983898 L183.327547,746.983898 L183.327547,753.364422 L179.259879,753.364422 L178.98383,757.903397 L174.429016,757.903397 L174.246336,760.856367 L178.79709,760.856367 L178.387076,767.496493 L173.828202,767.496493 L173.653642,770.441351 L178.204396,770.441351 L177.790322,777.085533 L173.239568,777.085533 L173.052828,780.042559 L177.611702,780.042559 L177.197628,786.674573 L172.642814,786.674573 L172.549444,788.220015 L166.074464,788.220015 L165.972975,786.597504 L169.659045,786.597504 L169.516961,784.212413 L165.826831,784.212413 L165.506127,778.85407 L169.196257,778.85407 L169.050113,776.473035 L165.364042,776.473035 L165.035219,771.102524 L168.72129,771.102524 L168.579205,768.717433 L164.893135,768.717433 L164.6658,765.050558 L161.690151,765.050558 L161.690151,759.890973 L162.68474,759.890973 L162.68474,757.631626 L161.690151,757.631626 L161.690151,755.19786 L162.68474,755.19786 L162.68474,752.946625 L161.690151,752.946625 L161.690151,749.863855 L160.659025,749.863855 L160.659025,752.946625 L159.587304,752.946625 L159.587304,755.19786 L160.659025,755.19786 L160.659025,757.631626 L159.587304,757.631626 L159.587304,759.890973 L160.659025,759.890973 L160.659025,765.050558 L157.776745,765.050558 C157.265242,722.406912 153.847102,712.976067 149.665766,712.566383 L149.665766,711.475244 L150.380247,711.475244 L150.380247,709.848677 L149.665766,709.848677 L149.665766,708.092308 L150.380247,708.092308 L150.380247,706.465741 L149.665766,706.465741 L149.665766,704.238845 L148.91069,704.238845 L148.91069,706.465741 L148.147495,706.465741 L148.147495,708.092308 L148.91069,708.092308 L148.91069,709.848677 L148.147495,709.848677 L148.147495,711.475244 L148.91069,711.475244 L148.91069,712.570439 C144.761831,713.089642 141.376167,722.654345 140.872783,765.050558 L138.031098,765.050558 L138.031098,759.890973 L139.025688,759.890973 L139.025688,757.631626 L138.031098,757.631626 L138.031098,755.19786 L139.025688,755.19786 L139.025688,752.946625 L138.031098,752.946625 L138.031098,749.863855 L136.999973,749.863855 L136.999973,752.946625 L135.928252,752.946625 L135.928252,755.19786 L136.999973,755.19786 L136.999973,757.631626 L135.928252,757.631626 L135.928252,759.890973 L136.999973,759.890973 L136.999973,765.050558 L133.711738,765.050558 L133.488463,768.717433 L129.806452,768.717433 L129.652189,771.102524 L133.33826,771.102524 L133.005377,776.473035 L129.327425,776.473035 L129.173162,778.85407 L132.855173,778.85407 L132.518231,784.212413 L128.848398,784.212413 L128.694135,786.597504 L132.376146,786.597504 L132.270598,788.220015 L120.266511,788.220015 L118.516846,788.220015 L118.139308,786.974738 L118.139308,788.220015 L114.185307,788.220015 L114.083818,786.597504 L117.76177,786.597504 L117.615626,784.212413 L113.937674,784.212413 L113.600732,778.85407 L117.278683,778.85407 L117.136599,776.473035 L113.458648,776.473035 L113.121705,771.102524 L116.799656,771.102524 L116.657572,768.717433 L112.979621,768.717433 L112.748226,765.050558 L109.468111,765.050558 L109.468111,759.890973 L110.527653,759.890973 L110.527653,757.631626 L109.468111,757.631626 L109.468111,755.19786 L110.527653,755.19786 L110.527653,752.946625 L109.468111,752.946625 L109.468111,749.863855 L108.424807,749.863855 L108.424807,752.946625 L107.434277,752.946625 L107.434277,755.19786 L108.424807,755.19786 L108.424807,757.631626 L107.434277,757.631626 L107.434277,759.890973 L108.424807,759.890973 L108.424807,765.050558 L105.595301,765.050558 C105.087857,722.650289 101.702193,713.089642 97.5452151,712.570439 L97.5452151,711.475244 L98.320589,711.475244 L98.320589,709.848677 L97.5452151,709.848677 L97.5452151,708.092308 L98.320589,708.092308 L98.320589,706.465741 L97.5452151,706.465741 L97.5452151,704.238845 L96.7982581,704.238845 L96.7982581,706.465741 L96.0837774,706.465741 L96.0837774,708.092308 L96.7982581,708.092308 L96.7982581,709.848677 L96.0837774,709.848677 L96.0837774,711.475244 L96.7982581,711.475244 L96.7982581,712.566383 C92.6047438,712.976067 89.190663,722.406912 88.6832194,765.050558 L85.8049991,765.050558 L85.8049991,759.890973 L86.8686009,759.890973 L86.8686009,757.631626 L85.8049991,757.631626 L85.8049991,755.19786 L86.8686009,755.19786 L86.8686009,752.946625 L85.8049991,752.946625 L85.8049991,749.863855 L84.7657545,749.863855 L84.7657545,752.946625 L83.7752245,752.946625 L83.7752245,755.19786 L84.7657545,755.19786 L84.7657545,757.631626 L83.7752245,757.631626 L83.7752245,759.890973 L84.7657545,759.890973 L84.7657545,765.050558 L81.790105,765.050558 L81.5708894,768.717433 L77.8807592,768.717433 L77.7346155,771.102524 L81.4288051,771.102524 L81.0999817,776.473035 L77.4139111,776.473035 L77.2677673,778.85407 L80.9578975,778.85407 L80.6331335,784.212413 L76.9430034,784.212413 L76.7968596,786.597504 L80.4869898,786.597504 L80.3895606,788.220015 L73.9145798,788.220015 L73.8212101,786.674573 L69.2623365,786.674573 L68.852322,780.042559 L73.4071361,780.042559 L73.228516,777.085533 L68.6696423,777.085533 L68.2596279,770.441351 L72.8103824,770.441351 L72.6277027,767.496493 L68.0728886,767.496493 L67.6669337,760.856367 L72.2176882,760.856367 L72.0350085,757.903397 L67.4801944,757.903397 L67.196026,753.364422 L63.1324173,753.364422 L63.1324173,746.983898 L64.4517708,746.983898 L64.4517708,744.189122 L63.1324173,744.189122 L63.1324173,741.171252 L64.4517708,741.171252 L64.4517708,738.388645 L63.1324173,738.388645 L63.1324173,734.563576 L61.8455403,734.563576 L61.8455403,738.388645 L60.6276755,738.388645 L60.6276755,741.171252 L61.8455403,741.171252 L61.8455403,744.189122 L60.6276755,744.189122 L60.6276755,746.983898 L61.8455403,746.983898 L61.8455403,753.364422 L58.3380898,753.364422 C57.7129193,700.032485 53.5275242,683.198933 48.388135,682.265989 L48.388135,680.894968 L49.3380695,680.894968 L49.3380695,678.891166 L48.388135,678.891166 L48.388135,676.721058 L49.3380695,676.721058 L49.3380695,674.696976 L48.388135,674.696976 L48.388135,671.946819 L47.4584982,671.946819 L47.4584982,674.696976 L46.5775761,674.696976 L46.5775761,676.721058 L47.4584982,676.721058 L47.4584982,678.891166 L46.5775761,678.891166 L46.5775761,680.894968 L47.4584982,680.894968 L47.4584982,682.249764 C42.2703945,683.000176 38.0403443,699.712039 37.4151738,753.364422 L33.8590087,753.364422 L33.8590087,746.983898 L35.1783622,746.983898 L35.1783622,744.189122 L33.8590087,744.189122 L33.8590087,741.171252 L35.1783622,741.171252 L35.1783622,738.388645 L33.8590087,738.388645 L33.8590087,734.563576 L32.5680721,734.563576 L32.5680721,738.388645 L31.3420883,738.388645 L31.3420883,741.171252 L32.5680721,741.171252 L32.5680721,744.189122 L31.3420883,744.189122 L31.3420883,746.983898 L32.5680721,746.983898 L32.5680721,753.364422 L28.8860611,753.364422 L28.6140713,757.903397 L24.0470786,757.903397 L23.8725179,760.856367 L28.4354511,760.856367 L28.0294962,767.496493 L23.466563,767.496493 L23.2879429,770.441351 L27.8549356,770.441351 L27.4530402,777.085533 L22.8860475,777.085533 L22.7114869,780.042559 L27.2744201,780.042559 L26.8725247,786.674573 L22.305532,786.674573 L22.1228523,789.627543 L26.6939046,789.627543 L26.2879497,796.26767 L21.7250165,796.26767 L21.5504559,799.212527 L26.1093295,799.212527 L25.7114937,805.852653 L21.1445009,805.852653 L20.9658808,808.805623 L25.5369331,808.805623 L25.3380152,811.997914 L6.94419817,809.973831 L-180.769352,699.557901 L-180.769352,698.474874 L-185.048117,698.474874 L-185.048117,701.229087 L-373.220397,815.883828 L-382.10675,815.883828 L-382.10675,817.096655 L-386.121644,817.096655 L-386.121644,813.425724 L-416.016164,811.425979 L-416.016164,817.096655 L-422.227274,817.096655 L-422.227274,817.202118 L-589,817.202118 L-589,877 L877,877 L877,817.202118 L722.500621,817.202118 Z" fill="#333333" transform="translate(144.000000, 733.000000) rotate(-270.000000) translate(-144.000000, -733.000000) "></path>
        </g>
    </g>
</svg>