<?xml version="1.0" encoding="UTF-8"?>
<svg width="872px" height="87px" viewBox="0 0 872 87" version="1.1" xmlns="http://www.w3.org/2000/svg" xmlns:xlink="http://www.w3.org/1999/xlink">
    <path d="M37.084,57.277 L28.956,57.277 L28.956,85.09 L-1.70530257e-13,85.09 L-1.70530257e-13,1.27 L45.466,1.27 C56.6420559,1.27 65.0874714,3.61947651 70.8025,8.3185 C76.5175286,13.0175235 79.375,20.0236201 79.375,29.337 C79.375,41.6137281 74.3373837,49.8686455 64.262,54.102 L84.074,85.09 L51.943,85.09 L37.084,57.277 Z M28.956,37.846 L39.497,37.846 C43.222352,37.846 45.8681588,37.2745057 47.4345,36.1315 C49.0008412,34.9884943 49.784,32.9776811 49.784,30.099 C49.784,27.304986 49.0008412,25.3153393 47.4345,24.13 C45.8681588,22.9446607 43.222352,22.352 39.497,22.352 L28.956,22.352 L28.956,37.846 Z M170.772666,49.022 C170.772666,73.9141245 157.268468,86.36 130.259666,86.36 C103.250864,86.36 89.746666,73.9141245 89.746666,49.022 L89.746666,1.27 L119.464666,1.27 L119.464666,51.308 C119.464666,55.5413545 120.374824,58.7374892 122.195166,60.8965 C124.015508,63.0555108 126.703648,64.135 130.259666,64.135 C133.815684,64.135 136.52499,63.0555108 138.387666,60.8965 C140.250342,58.7374892 141.181666,55.5413545 141.181666,51.308 L141.181666,1.27 L170.772666,1.27 L170.772666,49.022 Z M183.684332,1.27 L231.690332,1.27 C242.273718,1.35466709 250.14764,3.23848159 255.312332,6.9215 C260.477024,10.6045184 263.059332,16.1712961 263.059332,23.622 C263.059332,28.7866925 261.471848,33.0834829 258.296832,36.5125 C255.121816,39.9415171 250.401697,42.0793291 244.136332,42.926 L244.136332,43.053 C251.248368,43.8150038 256.539981,45.9316493 260.011332,49.403 C263.482683,52.8743507 265.218332,57.4039721 265.218332,62.992 C265.218332,70.3580368 262.72069,75.8824816 257.725332,79.5655 C252.729974,83.2485184 245.152383,85.09 234.992332,85.09 L183.684332,85.09 L183.684332,1.27 Z M224.959332,33.782 C230.208692,33.782 232.833332,31.7500203 232.833332,27.686 C232.833332,23.6219797 230.208692,21.59 224.959332,21.59 L212.005332,21.59 L212.005332,33.782 L224.959332,33.782 Z M227.118332,65.786 C232.367692,65.786 234.992332,63.7116874 234.992332,59.563 C234.992332,55.5836468 232.367692,53.594 227.118332,53.594 L212.005332,53.594 L212.005332,65.786 L227.118332,65.786 Z M328.929998,56.007 L328.929998,85.09 L299.338998,85.09 L299.338998,56.007 L270.001998,1.27 L299.465998,1.27 L308.355998,20.447 L314.324998,35.687 L320.293998,20.447 L329.183998,1.27 L358.266998,1.27 L328.929998,56.007 Z M438.361664,59.436 C434.043642,77.3854231 421.132105,86.36 399.626664,86.36 C390.821287,86.36 383.222529,84.6666836 376.830164,81.28 C370.437799,77.8933164 365.527181,72.9615324 362.098164,66.4845 C358.669147,60.0074676 356.954664,52.2393786 356.954664,43.18 C356.954664,34.1206214 358.669147,26.3525324 362.098164,19.8755 C365.527181,13.3984676 370.437799,8.4666836 376.830164,5.08 C383.222529,1.6933164 390.821287,1.42108547e-14 399.626664,1.42108547e-14 C409.448046,1.42108547e-14 417.829963,2.09547905 424.772664,6.2865 C431.715365,10.477521 436.033322,16.8486239 437.726664,25.4 L412.326664,35.306 C411.649327,30.1413075 410.421673,26.6700089 408.643664,24.892 C406.865655,23.1139911 404.114016,22.225 400.388664,22.225 C395.985975,22.225 392.684008,23.9183164 390.482664,27.305 C388.28132,30.6916836 387.180664,35.9832974 387.180664,43.18 C387.180664,50.3767027 388.238987,55.6683164 390.355664,59.055 C392.472341,62.4416836 395.731975,64.135 400.134664,64.135 C404.114017,64.135 406.992655,63.2460089 408.770664,61.468 C410.548673,59.6899911 411.691661,56.7690203 412.199664,52.705 L438.361664,59.436 Z M487.72233,1.42108547e-14 C501.09973,1.42108547e-14 511.534793,3.78879545 519.02783,11.3665 C526.520867,18.9442046 530.26733,29.5485985 530.26733,43.18 C530.26733,56.8114015 526.520867,67.4157954 519.02783,74.9935 C511.534793,82.5712046 501.09973,86.36 487.72233,86.36 C478.916953,86.36 471.318195,84.6666836 464.92583,81.28 C458.533465,77.8933164 453.622847,72.9615324 450.19383,66.4845 C446.764813,60.0074676 445.05033,52.2393786 445.05033,43.18 C445.05033,34.1206214 446.764813,26.3525324 450.19383,19.8755 C453.622847,13.3984676 458.533465,8.4666836 464.92583,5.08 C471.318195,1.6933164 478.916953,1.42108547e-14 487.72233,1.42108547e-14 Z M487.72233,22.225 C483.404308,22.225 480.250507,23.8971499 478.26083,27.2415 C476.271153,30.5858501 475.27633,35.8986303 475.27633,43.18 C475.27633,50.4613697 476.271153,55.7741499 478.26083,59.1185 C480.250507,62.4628501 483.404308,64.135 487.72233,64.135 C492.040352,64.135 495.172987,62.4628501 497.12033,59.1185 C499.067673,55.7741499 500.04133,50.4613697 500.04133,43.18 C500.04133,35.8986303 499.067673,30.5858501 497.12033,27.2415 C495.172987,23.8971499 492.040352,22.225 487.72233,22.225 Z M624.458996,85.09 L592.454996,85.09 L572.388996,46.99 L567.816996,36.703 L567.562996,36.703 L568.070996,53.975 L568.070996,85.09 L542.416996,85.09 L542.416996,1.27 L574.420996,1.27 L594.486996,39.497 L599.058996,49.657 L599.312996,49.657 L598.804996,32.385 L598.804996,1.27 L624.458996,1.27 L624.458996,85.09 Z M668.866662,22.987 L668.866662,34.671 L701.124662,34.671 L701.124662,56.388 L668.866662,56.388 L668.866662,85.09 L639.275662,85.09 L639.275662,1.27 L708.744662,1.27 L708.744662,22.987 L668.866662,22.987 Z M717.113101,10.7999609 L717.113101,1.25015625 L785.636051,1.25015625 L785.636051,10.7999609 L756.428531,10.7999609 L756.428531,85.09 L746.320621,85.09 L746.320621,10.7999609 L717.113101,10.7999609 Z M805.488068,85.09 L805.488068,1.25015625 L815.65799,1.25015625 L815.65799,37.8370703 L861.11258,37.8370703 L861.11258,1.25015625 L871.282502,1.25015625 L871.282502,85.09 L861.11258,85.09 L861.11258,47.386875 L815.65799,47.386875 L815.65799,85.09 L805.488068,85.09 Z" fill="currentColor"></path>
</svg>