<svg xmlns="http://www.w3.org/2000/svg"><symbol id="icon-jekyll" viewBox="0 0 32 32"><title>icon-jekyll</title><g fill="none" fill-rule="evenodd"><path d="M8.34 26.181a3.524 3.524 0 1 0 6.578 2.526S23.3 6.639 23.561 6.13c.664-.369 1.08-.554 1.219-.877.392-.97-.914-2.402-3.4-3.407-2.485-1.004-4.694-1.188-4.782 0-.068.91.277 1.095.434 1.757.076.099-8.693 22.578-8.693 22.578z" fill="#D8D8D8"/><path d="M20.484 4.009c1.437.58 2.727.742 2.881.36.155-.382-.885-1.162-2.322-1.743-1.437-.58-2.727-.742-2.882-.36-.154.382.886 1.162 2.323 1.743z" fill-opacity=".2" fill="#333"/><path d="M16.94 13.047c-2.006.203-2.963 1.225-3.67 3.069l-3.946 10.28a2.464 2.464 0 0 0 1.423 3.19 2.476 2.476 0 0 0 3.195-1.427l6.721-17.51c-.832.934-1.716 2.196-3.723 2.398z" fill="#E00B00"/><g transform="translate(11.744 16.44)" fill="#FFF" fill-opacity=".5"><path d="M1.71 5.547a.924.924 0 1 0 0-1.849.924.924 0 0 0 0 1.849z"/><circle cx="4.276" cy="2.381" r="1"/><circle cx=".416" cy="6.009" r="1"/><circle cx="2.565" cy=".347" r="1"/><circle cx="2.057" cy="8.898" r="1"/></g></g></symbol></svg>