<svg xmlns="http://www.w3.org/2000/svg" width="180" height="26" viewBox="0 0 180 26">
    <g fill="none" fill-rule="evenodd">
        <path fill="#ED1944" d="M6.1074401 11.8725404L8.33081634 11.8725404C9.11628416 11.8725404 9.67433614 11.7516681 10.0052483 11.5099234 10.3353324 11.2681787 10.5006505 10.8436043 10.5006505 10.234817 10.5006505 9.64428511 10.3353324 9.22385957 10.0052483 8.97298723 9.67433614 8.72266809 9.11628416 8.59709362 8.33081634 8.59709362L6.1074401 8.59709362 6.1074401 11.8725404zM7.8216146 15.9799872L6.1074401 15.9799872 6.1074401 21.8590298.0000551980198 21.8590298.0000551980198 4.14085957 9.58988317 4.14085957C11.9471146 4.14085957 13.7283547 4.63734894 14.9336035 5.63088085 16.1394042 6.62385957 16.7418906 8.10502979 16.7418906 10.0735617 16.7418906 12.6691362 15.6793287 14.4139021 13.554205 15.3086894L17.733247 21.8590298 10.9560342 21.8590298 7.8216146 15.9799872zM35.4391986 14.2346957C35.4391986 19.4963766 32.5904288 22.1276319 26.8939932 22.1276319 21.1972816 22.1276319 18.3487877 19.4963766 18.3487877 14.2346957L18.3487877 4.14088723 24.6173509 4.14088723 24.6173509 14.7181851C24.6173509 15.6132489 24.808888 16.2886957 25.1930662 16.7450787 25.5769684 17.2017383 26.1441281 17.4296532 26.8939932 17.4296532 27.6441343 17.4296532 28.2154338 17.2017383 28.6084437 16.7450787 29.0009016 16.2886957 29.1979585 15.6132489 29.1979585 14.7181851L29.1979585 4.14088723 35.4391986 4.14088723 35.4391986 14.2346957zM46.7430631 17.7785787C47.8500594 17.7785787 48.4039715 17.3404511 48.4039715 16.463366 48.4039715 15.6219617 47.8500594 15.2015362 46.7430631 15.2015362L43.5553775 15.2015362 43.5553775 17.7785787 46.7430631 17.7785787zM46.2876795 11.0136C47.3949517 11.0136 47.9485879 10.5837702 47.9485879 9.72466383 47.9485879 8.86555745 47.3949517 8.43628085 46.2876795 8.43628085L43.5553775 8.43628085 43.5553775 11.0136 46.2876795 11.0136zM37.5818478 4.14074894L47.7076485 4.14074894C49.9398564 4.15900426 51.6004889 4.55702553 52.6900978 5.33564255 53.7791547 6.11425957 54.3236832 7.29089787 54.3236832 8.86555745 54.3236832 9.95755745 53.9891832 10.8658979 53.3193552 11.5903021 52.6498032 12.3155362 51.6540309 12.7677702 50.3325903 12.9464511L50.3325903 12.9730043C51.8325965 13.133983 52.9487005 13.5817915 53.6809022 14.3153234 54.413104 15.0496851 54.7793428 16.006983 54.7793428 17.1877702 54.7793428 18.7450043 54.2522017 19.9127915 53.1987475 20.6911319 52.1450173 21.4700255 50.5470347 21.8591957 48.4039715 21.8591957L37.5818478 21.8591957 37.5818478 4.14074894z"/>
        <polygon fill="#ED1944" points="67.637 15.711 67.637 21.859 61.396 21.859 61.396 15.711 55.208 4.141 61.422 4.141 63.297 8.195 64.556 11.416 65.815 8.195 67.691 4.141 73.825 4.141"/>
        <path fill="#000006" d="M81.9684522 22.1276596C80.1110389 22.1276596 78.5086403 21.7700213 77.1601527 21.0536383 75.8116651 20.3380851 74.7761502 19.2953191 74.0527802 17.9261702 73.3299621 16.5570213 72.9681391 14.9154255 72.9681391 13 72.9681391 11.0851277 73.3299621 9.44297872 74.0527802 8.07382979 74.7761502 6.70468085 75.8116651 5.66219149 77.1601527 4.94608511 78.5086403 4.23053191 80.1110389 3.87234043 81.9684522 3.87234043 84.0400339 3.87234043 85.8077505 4.31544681 87.2727059 5.20110638 88.7365574 6.08731915 89.6476007 7.43406383 90.0047319 9.24134043L84.6474881 11.3354468C84.5042493 10.2442766 84.2456465 9.50991489 83.870576 9.13402128 83.4955054 8.75840426 82.9148223 8.57031915 82.1293545 8.57031915 81.2006478 8.57031915 80.5040488 8.92851064 80.0398334 9.64434043 79.5753421 10.3601702 79.3435104 11.479 79.3435104 13 79.3435104 14.5212766 79.5665104 15.6401064 80.0130624 16.3556596 80.4593384 17.0720426 81.1471057 17.4296809 82.0758124 17.4296809 82.9148223 17.4296809 83.5222765 17.2415957 83.897071 16.8659787 84.2724176 16.4900851 84.5136329 15.8724468 84.6204411 15.0133404L90.1388631 16.4361489C89.2280958 20.2310426 86.5046255 22.1276596 81.9684522 22.1276596M97.9737252 9.63073191C97.5539443 10.3382638 97.3441918 11.460966 97.3441918 12.9999447 97.3441918 14.5394766 97.5539443 15.6624553 97.9737252 16.369434 98.3932302 17.0764128 99.0586423 17.4296255 99.9691337 17.4296255 100.880177 17.4296255 101.540345 17.0764128 101.951847 16.369434 102.361968 15.6624553 102.567856 14.5394766 102.567856 12.9999447 102.567856 11.460966 102.361968 10.3382638 101.951847 9.63073191 101.540345 8.92402979 100.880177 8.57054043 99.9691337 8.57054043 99.0586423 8.57054043 98.3932302 8.92402979 97.9737252 9.63073191M106.572473 6.27507234C108.152792 7.87711489 108.943228 10.1186468 108.943228 12.9999447 108.943228 15.8817957 108.152792 18.1236043 106.572473 19.7250936 104.991877 21.3268596 102.790856 22.1276043 99.9691337 22.1276043 98.1117203 22.1276043 96.5093218 21.769966 95.1608342 21.053583 93.8123465 20.3380298 92.7768317 19.2952638 92.0534616 17.9261149 91.3306436 16.5572426 90.9688205 14.9153702 90.9688205 12.9999447 90.9688205 11.0850723 91.3306436 9.4429234 92.0534616 8.07377447 92.7768317 6.70462553 93.8123465 5.66213617 95.1608342 4.94602979 96.5093218 4.23075319 98.1117203 3.87228511 99.9691337 3.87228511 102.790856 3.87228511 104.991877 4.67358298 106.572473 6.27507234"/>
        <polygon fill="#000006" points="128.229 21.859 121.479 21.859 117.247 13.806 116.282 11.631 116.229 11.631 116.336 15.282 116.336 21.859 110.925 21.859 110.925 4.141 117.675 4.141 121.908 12.221 122.872 14.369 122.926 14.369 122.819 10.718 122.819 4.141 128.229 4.141"/>
        <polygon fill="#000006" points="137.015 8.732 137.015 11.202 143.819 11.202 143.819 15.792 137.015 15.792 137.015 21.859 130.774 21.859 130.774 4.141 145.426 4.141 145.426 8.732"/>
        <polygon fill="#000006" points="147.452 6.155 147.452 4.136 161.892 4.136 161.892 6.155 155.745 6.155 155.745 21.859 153.6 21.859 153.6 6.155"/>
        <polygon fill="#000006" points="165.499 21.859 165.499 4.137 167.644 4.137 167.644 11.87 177.232 11.87 177.232 4.137 179.376 4.137 179.376 21.859 177.232 21.859 177.232 13.889 167.644 13.889 167.644 21.859"/>
    </g>
</svg>
