<?xml version="1.0" encoding="UTF-8"?>
<svg width="32px" height="32px" viewBox="0 0 32 32" version="1.1" xmlns="http://www.w3.org/2000/svg" xmlns:xlink="http://www.w3.org/1999/xlink">
    <g stroke="none" stroke-width="1" fill="none" fill-rule="evenodd">
        <path d="M8.33934068,26.1810874 C7.64186448,27.998075 8.54883937,30.0362325 10.366018,30.733782 C12.1827972,31.4311782 14.2210027,30.523573 14.9184801,28.7065824 C14.9184801,28.7065824 23.3004617,6.6394453 23.5612957,6.13001018 C24.2249609,5.76117104 24.6409856,5.57627121 24.7796605,5.25269648 C25.1717623,4.28221037 23.8656886,2.85052754 21.3802974,1.84636429 C18.8949061,0.842201031 16.6862312,0.658231422 16.597843,1.84636426 C16.5301321,2.7565485 16.8751928,2.94144839 17.0320349,3.60322292 C17.1078642,3.70189401 8.33934068,26.1810874 8.33934068,26.1810874 Z" fill="#D8D8D8"></path>
        <path d="M20.483886,4.0089219 C21.9209643,4.58953921 23.2110309,4.75062776 23.3653303,4.36872323 C23.5196298,3.98681871 22.479732,3.20654059 21.0426538,2.62592327 C19.6055755,2.04530596 18.3155089,1.88421742 18.1612095,2.26612194 C18.0069101,2.64802647 19.0468078,3.42830459 20.483886,4.0089219 Z" fill-opacity="0.200000003" fill="#333333"></path>
        <path d="M14.4068235,12.6312731 C12.6058976,13.5393178 12.0794842,14.8365974 12.0794842,16.8112697 C12.0794842,17.4882394 12.0794842,27.8222312 12.0794842,27.8222312 C12.0794842,29.185345 13.1766671,30.290367 14.5513694,30.290367 L14.5513694,30.290367 C15.916554,30.290367 17.0232547,29.1787435 17.0232547,27.8132492 L17.0232548,9.0585023 C16.580878,10.2285977 16.2077495,11.7232284 14.4068235,12.6312731 Z" fill="#E00B00" transform="translate(14.551369, 19.674435) rotate(21.000000) translate(-14.551369, -19.674435) "></path>
        <g transform="translate(11.744222, 16.439137)" fill="#FFFFFF" fill-opacity="0.5">
            <path d="M1.71032357,5.54699538 C2.2209104,5.54699538 2.6348228,5.13308297 2.6348228,4.62249615 C2.6348228,4.11190932 2.2209104,3.69799692 1.71032357,3.69799692 C1.19973675,3.69799692 0.785824345,4.11190932 0.785824345,4.62249615 C0.785824345,5.13308297 1.19973675,5.54699538 1.71032357,5.54699538 Z"></path>
            <circle cx="4.27580894" cy="2.38058552" r="1"></circle>
            <circle cx="0.416024653" cy="6.00924499" r="1"></circle>
            <circle cx="2.56548536" cy="0.346687211" r="1"></circle>
            <circle cx="2.05701079" cy="8.89830508" r="1"></circle>
        </g>
    </g>
</svg>