<svg xmlns="http://www.w3.org/2000/svg" width="550" height="385" viewBox="0 0 550 385">
  <g fill="none" fill-rule="evenodd">
    <path fill="#000006" d="M113.673507 26.012484L90.1589552 26.012484C85.5085821 26.012484 81.8022388 26.9545053 79.0440299 28.8303564 76.2858209 30.7103032 74.1063433 33.3151968 72.5179104 36.6368457 70.9171642 39.9625904 69.9033582 43.6446649 69.4641791 47.6871649 69.033209 51.7378564 68.8115672 55.9278032 68.8115672 60.2651968L68.8115672 136.56892C68.8115672 146.398707 67.3585821 154.708973 64.4608209 161.499718 61.5507463 168.294559 58.0660448 173.85658 54.0026119 178.193973 49.9350746 182.527271 45.7977612 185.779293 41.5906716 187.945941 37.3794776 190.11259 33.9727612 191.488761 31.3541045 192.062165L31.3541045 192.930463C33.9727612 193.225356 37.3794776 194.310729 41.5906716 196.182484 45.7977612 198.066527 49.9350746 201.105569 54.0026119 205.29142 58.0660448 209.481367 61.5507463 215.117112 64.4608209 222.198654 67.3585821 229.280197 68.8115672 238.172059 68.8115672 248.861952L68.8115672 324.735622C68.8115672 329.06892 69.033209 333.254771 69.4641791 337.305463 69.9033582 341.352059 70.9171642 344.964505 72.5179104 348.146899 74.1063433 351.325197 76.2858209 353.925995 79.0440299 355.949293 81.8022388 357.968495 85.5085821 358.984239 90.1589552 358.984239L113.673507 358.984239 113.673507 385.00041 83.1813433 385.00041C77.6690299 385.00041 72.2223881 383.841314 66.8537313 381.531314 61.4768657 379.213122 56.6171642 375.744027 52.2623134 371.124027 47.9074627 366.495835 44.3488806 360.790463 41.5906716 353.999718 38.8324627 347.204878 37.4574627 339.480303 37.4574627 330.805516L37.4574627 254.931846C37.4574627 247.125356 36.3697761 240.187165 34.1902985 234.121367 32.0108209 228.051473 29.1787313 222.849878 25.6940299 218.512484 22.2134328 214.179186 18.2197761 210.927165 13.7171642 208.760516 9.21455224 206.589771 4.64626866 205.508495 0 205.508495L0 179.49642C4.64626866 179.49642 9.21455224 178.337324 13.7171642 176.019133 18.2197761 173.713229 22.2134328 170.461207 25.6940299 166.267165 29.1787313 162.081314 32.0108209 156.94525 34.1902985 150.875356 36.3697761 144.805463 37.4574627 138.02291 37.4574627 130.499027L37.4574627 54.1953032C37.4574627 45.5246117 38.9022388 37.7918457 41.8123134 30.9970053 44.7059701 24.2103564 48.3425373 18.5008883 52.7014925 13.8726968 57.0522388 9.25269681 61.9160448 5.78769681 67.288806 3.46950532 72.6615672 1.15950532 77.9604478.000409574468 83.1813433.000409574468L113.673507.000409574468 113.673507 26.012484zM436.328134 0L466.816194 0C472.03709 0 477.33597 1.15909574 482.712836 3.46909574 488.081493 5.78728723 492.945299 9.25228723 497.300149 13.8722872 501.655 18.5004787 505.283358 24.2099468 508.193433 30.9965957 511.08709 37.7955319 512.544179 45.5242021 512.544179 54.1948936L512.544179 130.498617C512.544179 138.0225 513.63597 144.805053 515.811343 150.874947 517.990821 156.94484 520.818806 162.080904 524.303507 166.266755 527.784104 170.460798 531.777761 173.712819 536.284478 176.022819 540.778881 178.336915 545.351269 179.496011 549.997537 179.496011L549.997537 205.508085C545.351269 205.508085 540.778881 206.589362 536.284478 208.760106 531.777761 210.926755 527.784104 214.178777 524.303507 218.512074 520.818806 222.849468 517.990821 228.051064 515.811343 234.120957 513.63597 240.190851 512.544179 247.124947 512.544179 254.931436L512.544179 330.805106C512.544179 339.479894 511.16097 347.204468 508.41097 353.999309 505.644552 360.790053 502.090075 366.495426 497.735224 371.123617 493.380373 375.743617 488.512463 379.212713 483.14791 381.530904 477.771045 383.840904 472.324403 385 466.816194 385L436.328134 385 436.328134 358.98383 459.842687 358.98383C464.484851 358.98383 468.18709 357.968085 470.953507 355.948883 473.707612 353.925585 475.813209 351.324787 477.266194 348.146489 478.715075 344.964096 479.728881 341.351649 480.319925 337.305053 480.890448 333.254362 481.190075 329.068511 481.190075 324.735213L481.190075 248.861543C481.190075 238.171649 482.634851 229.279787 485.540821 222.198245 488.438582 215.116702 491.923284 209.480957 495.994925 205.291011 500.054254 201.10516 504.191567 198.066117 508.41097 196.182074 512.613955 194.310319 516.028881 193.224947 518.643433 192.930053L518.643433 192.065851C516.028881 191.488351 512.613955 190.112181 508.41097 187.945532 504.191567 185.778883 500.054254 182.526862 495.994925 178.193564 491.923284 173.85617 488.438582 168.294149 485.540821 161.499309 482.634851 154.708564 481.190075 146.398298 481.190075 136.568511L481.190075 60.2647872C481.190075 55.9273936 480.890448 51.7374468 480.319925 47.6908511 479.728881 43.6442553 478.715075 39.9621809 477.266194 36.6364362 475.813209 33.3147872 473.707612 30.7139894 470.953507 28.8299468 468.18709 26.9581915 464.484851 26.0120745 459.842687 26.0120745L436.328134 26.0120745 436.328134 0zM361.048731 241.736995C339.799851 258.65242 314.356194 267.949761 289.55694 267.949761 288.231194 267.949761 286.913657 267.855559 285.583806 267.802314 296.579701 281.056144 311.405075 292.008165 328.76291 299.18391 357.543507 311.082048 388.815522 310.807633 413.46291 298.647367 405.393507 274.834707 386.315896 254.188059 361.048731 241.736995"/>
    <path fill="#000006" d="M370.92903 232.977426C383.484627 239.776362 394.521567 248.488011 403.57194 258.530777 417.806269 250.441681 429.524552 239.571574 437.643209 226.993543 426.659627 215.144553 411.883507 206.011043 394.919701 200.621043 388.906642 212.293915 380.841343 223.286894 370.92903 232.977426M260.441007 267.951399C235.641754 267.951399 210.198097 258.649963 188.949216 241.738633 163.686157 254.189697 144.60444 274.840441 136.539142 298.64491 161.18653 310.809271 192.458545 311.07959 221.239142 299.185548 238.596978 292.009803 253.422351 281.053686 264.414142 267.803952 263.0925 267.857197 261.770858 267.951399 260.441007 267.951399M275.046791 274.202734C268.237463 282.685021 260.069552 290.344064 250.781119 296.884968 257.237463 308.312096 265.54903 318.121404 275.231493 325.612521 284.852388 318.170553 293.106493 308.447255 299.546418 297.122521 290.138955 290.544755 281.934104 282.771032 275.046791 274.202734M146.425187 258.532005C155.479664 248.489239 166.520709 239.781686 179.072201 232.978654 169.155784 223.288122 161.090485 212.295144 155.077425 200.618176 138.117724 206.012271 123.341604 215.145782 112.353918 226.994771 120.476679 239.572803 132.194963 250.438814 146.425187 258.532005M375.43041 148.506787L281.741604 255.30333C309.085634 257.86317 338.399813 246.91934 361.003172 225.514979 383.602425 204.106521 396.063619 175.489553 394.951306 148.072638 388.515485 147.478755 381.968843 147.654872 375.43041 148.506787"/>
    <polygon fill="#ED1944" points="275.231 208.447 302.851 126.049 247.612 126.049"/>
    <polygon fill="#ED1944" points="234.623 126.048 189.606 126.048 189.606 113.761 230.507 113.761 216.367 71.575 228.044 67.68 241.404 107.531 275.233 64.08 309.07 107.544 322.418 67.717 334.095 71.612 319.972 113.761 360.857 113.761 360.857 126.048 315.839 126.048 276.92 242.142 382.955 121.277 331.214 59.39 219.252 59.39 167.511 121.277 273.542 242.142"/>
    <polygon fill="#ED1944" points="252.152 113.761 298.311 113.761 275.231 84.108"/>
    <path fill="#000006" d="M175.088396,148.566585 C168.377575,147.653234 161.658545,147.460734 155.046231,148.071 C153.933918,175.487915 166.395112,204.108979 188.994366,225.51334 C211.597724,246.913606 240.89959,257.865628 268.260037,255.305787 C268.268246,255.133766 268.260037,254.957649 268.264142,254.785628 L175.088396,148.566585 Z"/>
  </g>
</svg>
