<svg fill="none" height="32" viewBox="0 0 276 32" width="276" xmlns="http://www.w3.org/2000/svg"><g clip-rule="evenodd" fill="#fff" fill-rule="evenodd"><path d="m10.1488 19.6634h-2.11426v7.2384h-7.53454v-21.81037h11.8312c2.9076 0 5.1037.61284 6.5915 1.83512s2.2301 3.04378 2.2301 5.46795c0 3.1935-1.3108 5.3419-3.9324 6.445l5.1546 8.0623h-8.3618l-3.8678-7.2384zm-2.11426-5.0559h2.74416c.9703 0 1.6581-.1498 2.0667-.446.4085-.2962.6128-.8205.6128-1.5696 0-.749-.2043-1.2461-.6128-1.5525-.4086-.3098-1.0964-.463-2.0667-.463h-2.74416z"/><path d="m44.2194 17.5151c0 6.4757-3.5136 9.7169-10.5408 9.7169-7.0273 0-10.5409-3.2378-10.5409-9.7169v-12.42367h7.732v13.01947c0 1.1031.2349 1.9339.7116 2.4956.4732.5618 1.1746.841 2.0973.841.9226 0 1.6308-.2792 2.1143-.841.4834-.5617.7286-1.3925.7286-2.4956v-13.01947h7.6979z"/><path d="m46.8615 5.09143h12.4917c2.7544.02383 4.804.5141 6.1455 1.47082 1.3448.95671 2.0155 2.4071 2.0155 4.34435 0 1.3449-.4119 2.4616-1.2393 3.3536-.8273.892-2.053 1.4504-3.6838 1.6683v.0341c1.8487.1974 3.2276.749 4.1298 1.6512.9023.9057 1.3551 2.0837 1.3551 3.5375 0 1.9168-.6503 3.3536-1.9509 4.3137s-3.2719 1.4368-5.9139 1.4368h-13.3497zm10.7383 8.46057c1.3653 0 2.0496-.5277 2.0496-1.5865 0-1.0589-.6843-1.5866-2.0496-1.5866h-3.3706v3.1731zm.5618 8.3279c1.3653 0 2.0496-.538 2.0496-1.6206 0-1.0827-.6843-1.5526-2.0496-1.5526h-3.9324v3.1732z"/><path d="m83.9384 19.3332v7.5686h-7.698v-7.5686l-7.6367-14.24177h7.6673l2.3152 4.99127 1.5526 3.963 1.5525-3.963 2.3118-4.99127h7.5686z"/><path d="m101.619 27.232c-2.2915 0-4.2696-.4392-5.9311-1.321-1.6649-.8818-2.9416-2.1654-3.8337-3.8507-.892-1.6853-1.338-3.7077-1.338-6.0637s.446-4.3784 1.338-6.06373c.8921-1.68531 2.1688-2.96887 3.8337-3.85068s3.6396-1.32102 5.9311-1.32102c2.557 0 4.736.54475 6.544 1.63425 1.804 1.08949 2.928 2.74757 3.37 4.97418l-6.608 2.5774c-.177-1.3449-.497-2.2471-.96-2.7101-.463-.4631-1.178-.6946-2.149-.6946-1.144 0-2.005.4426-2.577 1.321-.572.8818-.858 2.2573-.858 4.1299s.2758 3.2515.8273 4.1299c.5516.8818 1.3997 1.321 2.5437 1.321 1.035 0 1.784-.2315 2.247-.6946.463-.463.759-1.2223.892-2.2811l6.806 1.75c-1.124 4.6712-4.484 7.0068-10.078 7.0068"/><path d="m131.972 7.71984c1.95 1.9713 2.924 4.73246 2.924 8.27676s-.974 6.3055-2.924 8.2768c-1.951 1.9713-4.665 2.9586-8.148 2.9586-2.291 0-4.269-.4392-5.931-1.321-1.665-.8818-2.941-2.1654-3.833-3.8507s-1.339-3.7077-1.339-6.0637.447-4.3784 1.339-6.06373c.892-1.68531 2.168-2.96887 3.833-3.85068s3.64-1.32102 5.931-1.32102c3.48 0 6.197.98736 8.148 2.95867zm-10.609 4.12986c-.518.8716-.777 2.2539-.777 4.1469s.259 3.2787.777 4.1469c.517.8716 1.338 1.304 2.461 1.304 1.124 0 1.937-.4358 2.445-1.304.507-.8716.759-2.2539.759-4.1469s-.255-3.2753-.759-4.1469c-.508-.8682-1.321-1.304-2.445-1.304-1.123 0-1.944.4358-2.461 1.304z"/><path d="m158.688 26.9018h-8.328l-5.223-9.9144-1.188-2.6761h-.068l.133 4.4942v8.0963h-6.673v-21.81037h8.328l5.219 9.94847 1.188 2.642h.068l-.133-4.4942v-8.09627h6.677z"/><path d="m169.525 10.7432v3.0404h8.393v5.6483h-8.393v7.4699h-7.698v-21.81037h18.076v5.65177z"/><path d="m182.402 7.57003v-2.48541h17.813v2.48541h-7.586v19.33177h-2.645v-19.33177z"/><path d="m204.665 26.9018v-21.81718h2.645v9.52288h11.828v-9.52288h2.645v21.81718h-2.645v-9.8123h-11.828v9.8123z"/><path d="m239.236 2.1566h-1.951c-.385 0-.695.07831-.923.23492-.228.15662-.408.37451-.541.65029s-.218.5822-.252.91927c-.037.33706-.055.68434-.055 1.04523v6.34289c0 .8171-.119 1.5083-.36 2.0735-.242.5651-.532 1.0282-.869 1.3891s-.681.6298-1.028.8103c-.35.1804-.633.2962-.848.3439v.0715c.218.0238.501.1157.848.2689.347.1566.691.4086 1.028.7559.337.3472.627.8171.869 1.4061.241.589.36 1.3278.36 2.2164v6.3089c0 .3609.018.7082.055 1.0452.037.3371.119.6367.252.9023.133.2655.313.48.541.6503.228.1668.538.2519.923.2519h1.951v2.162h-2.53c-.456 0-.909-.0953-1.355-.2894s-.848-.4801-1.209-.8648c-.36-.3847-.657-.858-.885-1.4232-.228-.5651-.344-1.2086-.344-1.927v-6.3055c0-.6503-.092-1.2256-.272-1.7295s-.415-.9363-.705-1.2972c-.289-.3609-.619-.6299-.994-.8103-.374-.1805-.752-.269-1.137-.269v-2.162c.385 0 .763-.0953 1.137-.2894.375-.1906.705-.463.994-.8103.29-.3473.525-.7762.705-1.2801s.272-1.0691.272-1.6922v-6.35649c0-.72179.119-1.36527.361-1.92704.239-.56518.542-1.03843.902-1.42316.361-.384724.763-.670717 1.209-.864784.446-.1906615.885-.28939709 1.318-.28939709h2.529v2.16197109z"/><path d="m268.533-.00537109c.432 0 .872.09533089 1.318.28939709.446.194067.847.480059 1.208.864784.361.38473.661.85798.903 1.42316.241.56517.36 1.20866.36 1.92704v6.34289c0 .6265.092 1.1883.273 1.6921.18.5039.415.9329.705 1.2802.289.3473.619.6197.994.8103.374.1907.752.2894 1.137.2894v2.162c-.385 0-.766.0885-1.137.269-.375.1804-.705.4494-.994.8103-.29.3609-.525.7933-.705 1.2971-.181.5039-.273 1.0827-.273 1.7296v6.3055c0 .7218-.115 1.3618-.343 1.927-.229.5652-.525 1.0384-.886 1.4232-.361.3847-.766.6707-1.208.8648-.446.1906-.899.2894-1.355.2894h-2.53v-2.162h1.951c.385 0 .691-.0851.923-.252.228-.1668.401-.3847.524-.6502.119-.2656.204-.5652.252-.9023.047-.337.071-.6843.071-1.0452v-6.3089c0-.8886.119-1.6274.361-2.2164s.528-1.0555.868-1.4062c.337-.3472.681-.5992 1.032-.7558.347-.1566.633-.2451.848-.269v-.0715c-.218-.0476-.501-.1634-.848-.3438-.351-.1805-.695-.4495-1.032-.8103-.337-.3609-.626-.824-.868-1.3892-.242-.5651-.361-1.2563-.361-2.0734v-6.33269c0-.3609-.024-.70818-.071-1.04524-.048-.33706-.133-.64348-.252-.91926s-.296-.49368-.524-.65029c-.229-.15662-.538-.23493-.923-.23493h-1.951v-2.15856109z"/><path d="m259.756 20.089c-1.764 1.4062-3.875 2.179-5.931 2.179-.109 0-.218-.0068-.33-.0136.912 1.0997 2.141 2.0122 3.581 2.608 2.387.9907 4.981.9669 7.028-.0443-.671-1.9781-2.251-3.6941-4.348-4.7325"/><path d="m260.576 19.3604c1.042.5652 1.958 1.2904 2.707 2.1245 1.181-.6707 2.152-1.5763 2.826-2.6216-.913-.9839-2.138-1.7432-3.544-2.1926-.501.9704-1.168 1.8828-1.992 2.6897"/><path d="m251.411 22.268c-2.056 0-4.167-.7729-5.931-2.179-2.097 1.035-3.677 2.751-4.348 4.7291 2.046 1.0112 4.637 1.035 7.027.0443 1.441-.5958 2.67-1.5083 3.582-2.608-.109.0034-.218.0136-.33.0136z"/><path d="m252.623 22.7889c-.565.7048-1.243 1.3415-2.012 1.8862.534.9499 1.226 1.767 2.029 2.3867.797-.6197 1.481-1.4266 2.016-2.3697-.78-.5481-1.461-1.1916-2.033-1.9066"/><path d="m241.953 21.4849c.752-.8341 1.668-1.5593 2.706-2.1245-.823-.8069-1.491-1.7193-1.991-2.6897-1.406.4494-2.632 1.2087-3.545 2.1926.675 1.0453 1.645 1.9475 2.826 2.6216"/><path d="m260.951 12.34-7.773 8.876c2.267.2111 4.698-.698 6.574-2.4752 1.876-1.7807 2.908-4.1571 2.816-6.4383-.534-.0476-1.076-.034-1.621.0375"/><path d="m252.64 17.321 2.291-6.8468h-4.582z"/><path d="m249.269 10.4742h-3.735v-1.02138h3.395l-1.175-3.51022.971-.32345 1.106 3.31275 2.809-3.60895 2.805 3.61235 1.107-3.31274.97.32344-1.171 3.50682h3.391v1.02138h-3.735l-3.227 9.6489 8.794-10.0472-4.29-5.14449h-9.288l-4.293 5.14449 8.794 10.0472z"/><path d="m250.723 9.45282h3.83l-1.913-2.46499z"/><path d="m244.333 12.3434c-.559-.0749-1.114-.0919-1.662-.0409-.092 2.2778.943 4.6576 2.816 6.4383 1.876 1.7772 4.307 2.6897 6.574 2.4752 0-.0137 0-.0273 0-.0443z"/></g></svg>