<svg width="768" height="224" viewBox="0 0 768 224" fill="none" xmlns="http://www.w3.org/2000/svg">
  <path d="M364.78 90.4703C378.367 90.4703 382.113 99.4184 382.113 99.4184H382.346C382.263 98.9246 382.224 98.4245 382.23 97.9238V95.7499C382.23 93.5565 383.841 91.8678 386.927 91.8678H390.809C392.102 91.7178 393.392 92.1655 394.314 93.0839C395.237 94.0023 395.69 95.2911 395.545 96.5845V146.799C395.545 166.888 379.706 174.458 365.246 174.458C359.402 174.499 353.602 173.446 348.145 171.352C346.856 171.043 345.795 170.132 345.295 168.904C344.794 167.676 344.916 166.283 345.622 165.161L346.495 162.579C347.815 159.648 349.523 158.852 352.629 159.881C356.396 161.348 360.407 162.086 364.45 162.055C373.398 162.055 380.968 158.27 380.968 147.827V143.479C380.985 142.479 381.063 141.481 381.201 140.49H380.968C377.746 146.003 372.699 149.205 364.896 149.205C347.815 149.205 338.401 135.618 338.401 119.488C338.401 103.359 347.349 90.4703 364.78 90.4703ZM144.63 90.4703C160.468 90.4703 170.678 102.97 170.678 121.1C170.678 139.456 159.499 151.419 144.423 151.723L143.834 151.729C137.012 151.992 130.573 148.577 126.966 142.781H126.733C126.996 144.451 127.138 146.137 127.16 147.827V168.402C127.358 169.731 126.916 171.076 125.968 172.028C125.02 172.98 123.677 173.428 122.347 173.235H117.32C115.995 173.403 114.668 172.947 113.725 172.001C112.783 171.055 112.333 169.726 112.506 168.402V96.5845C112.355 95.2674 112.814 93.9535 113.751 93.0161C114.689 92.0787 116.002 91.6201 117.32 91.7708H120.988C124.094 91.7708 125.705 93.4789 125.705 95.7887V98.5255C125.704 99.2905 125.666 100.055 125.588 100.816H125.802C129.709 94.1787 136.932 90.2094 144.63 90.4703ZM213.905 90.4897C229.743 90.4897 239.953 102.99 239.953 121.119C239.953 139.475 228.774 151.439 213.698 151.742L213.109 151.748C206.287 152.012 199.848 148.596 196.241 142.8H196.008C196.251 144.471 196.368 146.158 196.358 147.847V168.402C196.549 169.733 196.101 171.077 195.15 172.028C194.199 172.979 192.856 173.426 191.525 173.235H186.497C185.173 173.403 183.845 172.947 182.903 172.001C181.961 171.055 181.511 169.726 181.684 168.402V96.5845C181.533 95.2674 181.992 93.9535 182.929 93.0161C183.866 92.0787 185.18 91.6201 186.497 91.7708H190.166C193.272 91.7708 194.883 93.4789 194.883 95.7887V98.5255C194.882 99.2905 194.843 100.055 194.766 100.816H195.096C199.002 94.1893 206.217 90.2278 213.905 90.4897ZM276.269 67.5067C283.729 67.4636 291.036 69.6245 297.271 73.7193C298.387 74.3439 299.186 75.4116 299.471 76.6581C299.756 77.9046 299.499 79.2134 298.766 80.2605L296.708 84.0455C294.981 87.3647 292.574 86.8988 290.167 85.6372C285.976 82.8523 281.086 81.305 276.056 81.1728C268.466 81.1728 263.653 84.8413 263.653 90.3538C263.653 105.61 301.638 101.709 301.638 127.641C301.638 140.84 291.759 151.729 274.678 151.729C265.684 151.643 256.939 148.76 249.658 143.479C248.545 142.792 247.81 141.631 247.666 140.33C247.522 139.03 247.985 137.736 248.92 136.822L251.444 133.153C253.268 130.63 255.326 130.513 258.082 132.125C262.852 135.803 268.658 137.887 274.678 138.083C282.248 138.083 286.829 134.201 286.829 128.786C286.829 113.258 248.862 116.519 248.862 91.1496C248.862 76.8055 260.78 67.5067 276.269 67.5067ZM501.291 90.4897C516.431 90.4897 525.496 98.9719 525.496 113.782V145.537C525.687 146.863 525.242 148.202 524.294 149.149C523.347 150.097 522.008 150.542 520.682 150.351H516.8C515.489 150.518 514.175 150.06 513.252 149.114C512.329 148.168 511.903 146.844 512.103 145.537V143.169C512.085 142.322 512.163 141.475 512.336 140.646H512.103C508.396 147.339 501.391 151.538 493.741 151.651C483.065 151.651 474.33 144.78 474.33 134.182C474.235 117.278 494.869 114.277 507.98 114.21L510.841 114.209V112.831C510.841 105.067 505.911 102.505 499.933 102.505C495.672 102.616 491.502 103.761 487.782 105.843C485.024 107.054 482.892 106.673 481.507 104.22L480.193 101.728C479.442 100.656 479.225 99.2979 479.603 98.0446C479.982 96.7913 480.915 95.7809 482.134 95.3034C488.041 92.186 494.612 90.535 501.291 90.4897ZM552.11 70.1545C553.03 71.0981 553.466 72.4126 553.291 73.7193V130.96C553.291 136.607 555.555 137.672 557.674 137.944L557.872 137.967C558.903 138.015 559.868 138.485 560.54 139.268C561.212 140.05 561.532 141.075 561.424 142.101V145.983C561.621 147.322 561.183 148.677 560.239 149.647C559.296 150.617 557.954 151.092 556.61 150.933L555.94 150.928C548.282 150.803 538.831 148.397 538.831 132.125V73.7193C538.649 72.4146 539.08 71.0992 539.998 70.1546C540.916 69.2099 542.219 68.7419 543.528 68.8862H548.575C549.885 68.7433 551.189 69.211 552.11 70.1545ZM444.026 90.3882L444.633 90.3927C457.599 90.3927 465.053 97.1474 465.053 112.637V145.537C465.244 146.863 464.799 148.202 463.851 149.149C462.904 150.097 461.565 150.542 460.239 150.351H455.309C453.986 150.525 452.658 150.074 451.715 149.131C450.771 148.188 450.321 146.859 450.495 145.537V115.704C450.495 108.599 448.554 103.766 441.314 103.766C430.988 103.766 424.447 112.384 424.447 122.944V145.537C424.639 146.846 424.208 148.169 423.283 149.114C422.357 150.059 421.042 150.516 419.73 150.351H414.683C413.372 150.518 412.058 150.06 411.135 149.114C410.212 148.168 409.787 146.844 409.986 145.537V96.5845C409.811 95.2829 410.245 93.9732 411.162 93.0333C412.079 92.0934 413.378 91.6277 414.683 91.7708H419.167C420.474 91.6198 421.778 92.0829 422.697 93.0248C423.616 93.9667 424.047 95.2812 423.864 96.5845V100.137C423.85 101.021 423.772 101.903 423.631 102.776H423.864C427.76 95.1999 435.54 90.4387 444.026 90.3882ZM326.098 93.0248C327.019 93.9656 327.455 95.2792 327.279 96.5845V145.537C327.472 146.846 327.041 148.169 326.115 149.114C325.189 150.059 323.875 150.516 322.563 150.351H317.516C316.205 150.518 314.891 150.06 313.968 149.114C313.045 148.168 312.619 146.844 312.819 145.537V96.5845C312.644 95.2829 313.077 93.9732 313.995 93.0333C314.912 92.0934 316.211 91.6277 317.516 91.7708H322.563C323.871 91.6212 325.176 92.084 326.098 93.0248ZM77.9751 72.7876L103.441 144.858C104.586 148.177 103.092 150.351 99.5592 150.351H94.2602C91.7524 150.557 89.4658 148.912 88.8642 146.469L83.1382 129.582H54.5664L48.9375 146.352C48.3922 148.847 46.0871 150.555 43.5415 150.351H38.2813C34.7098 150.351 33.2153 148.177 34.3993 144.858L59.846 72.7876C60.4755 70.3633 62.7433 68.7317 65.242 68.9056H72.5791C75.0869 68.6992 77.3736 70.3442 77.9751 72.7876ZM510.958 125.234V123.06H508.531C501.194 123.06 488.694 124.205 488.694 132.92C488.694 136.822 491.683 140.607 497.526 140.607C505.678 140.607 510.958 132.338 510.958 125.234ZM210.605 102.97C203.015 102.97 195.795 108.483 195.795 121.449C195.795 130.513 200.919 139.462 210.372 139.462C218.388 139.462 225.046 132.92 225.046 121.332C225.046 110.191 219.087 102.97 210.605 102.97ZM141.408 102.97C133.838 102.97 126.617 108.483 126.617 121.449C126.617 130.513 131.664 139.462 141.194 139.462C149.21 139.462 155.868 132.92 155.868 121.332C155.868 110.191 149.909 102.97 141.408 102.97ZM367.09 102.893C358.025 102.893 353.075 109.318 353.075 118.964C353.075 129.524 358.355 136.977 367.769 136.977C374.66 136.938 381.317 132.92 381.317 119.877C381.317 106.445 374.66 102.893 367.09 102.893ZM69.027 82.9974H68.7941L67.6998 87.5903C67.0666 90.1743 66.2611 93.3333 65.572 95.6334L58.235 117.431H79.4697L72.2297 95.6334L71.8813 94.4184C70.5765 89.7497 69.027 82.9974 69.027 82.9974ZM326.14 70.1374C327.078 71.0795 327.533 72.399 327.376 73.7193V77.1743C327.527 78.4817 327.064 79.7853 326.122 80.7044C325.18 81.6235 323.866 82.0545 322.563 81.8716H317.516C316.224 82.0472 314.925 81.6091 314.003 80.6873C313.081 79.7656 312.643 78.466 312.819 77.1743V73.7193C312.637 72.4146 313.068 71.0992 313.986 70.1546C314.904 69.2099 316.207 68.7419 317.516 68.8862H322.563C323.884 68.7344 325.201 69.1954 326.14 70.1374Z" fill="#21375A"/>
  <path d="M716.24 74.3404C705.68 74.3404 698.13 83.6378 690.346 94.0029C685.513 71.9917 680.156 50 663.075 50C645.994 50 640.618 71.9917 635.707 94.0223C627.943 83.6378 620.392 74.3404 609.833 74.3404C603.117 74.3404 591.743 78.9017 591.743 96.0215V127.078C591.743 143.868 600.71 147.983 606.087 149.399C615.365 151.806 637.706 154.058 662.862 154.058C688.017 154.058 710.358 151.806 719.636 149.399C725.013 147.983 734 143.868 734 127.078V96.0215C734 78.9017 722.626 74.3404 715.91 74.3404M663.075 59.7051C673.304 59.7051 677.206 79.8917 682.641 104.116C676.682 111.453 670.354 117.373 663.075 117.373C655.796 117.373 649.488 111.453 643.51 104.116C648.595 81.4639 652.516 59.7051 663.075 59.7051ZM601.603 127.175V96.1186C601.603 85.3071 607.426 84.1425 609.988 84.1425C617.442 84.1425 625.516 96.565 633.067 106.542C627.671 129.174 621.964 142.955 608.494 140.121C604.981 139.17 601.681 136.938 601.681 127.272M628.117 143.014C634.076 136.531 637.823 126.418 640.792 115.703C647.023 122.245 654.224 127.175 663.153 127.175C672.081 127.175 679.263 122.245 685.513 115.703C688.405 126.418 692.21 136.531 698.169 143.014C687.745 143.965 675.206 144.547 663.23 144.547C651.254 144.547 638.618 143.965 628.195 143.014M724.702 127.272C724.702 136.977 721.403 139.17 717.889 140.121C704.399 142.975 698.712 129.174 693.316 106.542C700.944 96.565 708.844 84.1425 716.395 84.1425C718.918 84.1425 724.78 85.3071 724.78 96.1186L724.702 127.272Z" fill="#21375A"/>
</svg>
