<svg width="768" height="224" viewBox="0 0 768 224" fill="none" xmlns="http://www.w3.org/2000/svg">
  <path d="M723.849 71.7292C712.678 71.7292 704.677 81.5872 696.452 92.5497C691.358 69.2749 685.67 46 667.603 46C649.536 46 643.848 69.2749 638.815 92.5497C630.631 81.5872 622.59 71.7292 611.418 71.7292C604.319 71.7292 592.288 76.5764 592.288 94.6768V127.626C592.288 145.399 601.782 149.755 607.47 151.228C617.291 153.784 640.943 156.136 667.562 156.136C694.181 156.136 717.834 153.784 727.634 151.228C733.343 149.755 742.836 145.399 742.836 127.626V94.6768C742.836 76.5764 730.806 71.7292 723.685 71.7292M667.603 56.2262C678.427 56.2262 682.539 77.5786 688.309 103.267C681.987 111.018 675.296 117.297 667.603 117.297C659.91 117.297 653.137 110.998 646.999 103.267C652.38 79.2966 656.513 56.2262 667.705 56.2262M602.559 127.626V94.6768C602.559 83.2439 608.697 81.9963 611.418 81.9963C619.296 81.9963 627.787 95.1472 635.848 105.701C630.058 129.65 624.022 144.172 609.761 141.227C606.037 140.204 602.559 137.852 602.559 127.626M630.631 144.274C636.769 137.422 640.861 126.726 643.93 115.395C650.539 122.308 658.15 127.523 667.603 127.523C677.056 127.523 684.647 122.308 691.255 115.395C694.324 126.726 698.355 137.422 704.657 144.274C693.629 145.297 680.35 145.89 667.603 145.89C654.856 145.89 641.557 145.297 630.529 144.274M732.647 127.626C732.647 137.852 729.148 140.204 725.445 141.227C711.123 144.253 705.128 129.65 699.419 105.701C707.501 95.1472 715.972 81.9963 723.849 81.9963C726.509 81.9963 732.729 83.2439 732.729 94.6768L732.647 127.626Z" fill="#203053"/>
  <path d="M27.312 152.496C27.0101 152.492 26.7118 152.429 26.4344 152.309C26.157 152.19 25.9059 152.017 25.6956 151.8C25.4678 151.573 25.2886 151.302 25.169 151.003C25.0494 150.704 24.9919 150.384 25 150.062C25.0119 149.697 25.0881 149.337 25.2251 148.998L53.6447 74.1016C53.8528 73.3081 54.2948 72.5956 54.9132 72.0564C55.6334 71.4734 56.5459 71.1815 57.4708 71.2383H67.7011C68.6259 71.1815 69.5385 71.4734 70.2586 72.0564C70.8867 72.6106 71.3652 73.314 71.6499 74.1016L99.9263 148.998C100.004 149.348 100.045 149.704 100.049 150.062C100.057 150.384 99.9997 150.704 99.8801 151.003C99.7605 151.302 99.5813 151.573 99.3535 151.8C99.1432 152.017 98.8921 152.19 98.6147 152.309C98.3373 152.429 98.039 152.492 97.7371 152.496H89.7166C89.319 152.529 88.919 152.479 88.542 152.349C88.165 152.218 87.8194 152.011 87.5273 151.739C87.1324 151.32 86.8138 150.836 86.5861 150.307L80.673 135.009H44.3761L38.5653 150.307C38.3342 150.82 37.9999 151.28 37.5832 151.657C37.2771 151.926 36.9205 152.132 36.534 152.262C36.1476 152.392 35.7392 152.444 35.3325 152.414L27.312 152.496ZM48.0794 123.494H76.9697L62.4632 85.0028L48.0794 123.494Z" fill="#203053"/>
  <path d="M111.998 174.523C111.643 174.538 111.289 174.478 110.958 174.349C110.628 174.219 110.328 174.022 110.077 173.77C109.827 173.517 109.632 173.216 109.505 172.884C109.378 172.553 109.321 172.199 109.338 171.844V94.8609C109.321 94.5071 109.377 94.1535 109.505 93.8229C109.632 93.4924 109.828 93.1922 110.078 92.9417C110.329 92.6912 110.629 92.496 110.96 92.3686C111.29 92.2412 111.644 92.1845 111.998 92.202H119.302C119.657 92.1847 120.012 92.2414 120.344 92.3686C120.675 92.4958 120.977 92.6907 121.229 92.9409C121.481 93.191 121.678 93.4909 121.808 93.8215C121.938 94.1521 121.997 94.506 121.983 94.8609V99.7285C124.007 97.1994 126.527 95.1112 129.39 93.5928C132.899 91.7732 136.814 90.8792 140.766 90.9954C144.506 90.8823 148.226 91.5801 151.671 93.0406C154.595 94.3613 157.173 96.3427 159.2 98.8286C161.276 101.41 162.832 104.369 163.784 107.541C164.858 110.997 165.463 114.581 165.584 118.197C165.584 119.506 165.707 120.876 165.707 122.288C165.707 123.699 165.707 125.028 165.584 126.378C165.538 129.958 164.973 133.513 163.906 136.932C162.919 140.064 161.366 142.99 159.323 145.562C157.288 148.096 154.688 150.12 151.732 151.473C148.279 152.985 144.534 153.718 140.766 153.621C136.971 153.737 133.206 152.922 129.799 151.248C126.959 149.766 124.485 147.67 122.556 145.112V171.701C122.568 172.056 122.507 172.41 122.377 172.74C122.246 173.071 122.05 173.372 121.799 173.623C121.525 173.879 121.203 174.077 120.852 174.207C120.5 174.337 120.127 174.396 119.753 174.38L111.998 174.523ZM137.533 142.74C140.562 142.926 143.566 142.09 146.065 140.368C148.114 138.796 149.663 136.665 150.525 134.232C151.483 131.505 152.034 128.652 152.162 125.764C152.305 123.524 152.305 121.276 152.162 119.036C152.034 116.148 151.483 113.295 150.525 110.568C149.658 108.138 148.109 106.008 146.065 104.433C143.578 102.675 140.575 101.797 137.533 101.937C134.683 101.743 131.846 102.479 129.451 104.036C127.056 105.593 125.232 107.885 124.254 110.568C123.297 113.036 122.731 115.637 122.576 118.279C122.494 119.642 122.453 121.115 122.453 122.697C122.453 124.312 122.453 125.826 122.576 127.217C122.657 129.763 123.248 132.266 124.315 134.579C125.394 136.925 127.074 138.943 129.185 140.429C131.652 142.064 134.576 142.873 137.533 142.74V142.74Z" fill="#203053"/>
  <path d="M179.906 174.523C179.553 174.532 179.202 174.468 178.874 174.336C178.546 174.204 178.248 174.007 177.999 173.756C177.75 173.505 177.555 173.206 177.426 172.878C177.296 172.549 177.235 172.197 177.247 171.844V94.8609C177.232 94.5079 177.291 94.1557 177.42 93.8266C177.548 93.4975 177.744 93.1986 177.994 92.9487C178.243 92.6989 178.543 92.5036 178.872 92.375C179.201 92.2465 179.553 92.1876 179.906 92.2021H187.231C187.582 92.1924 187.93 92.2526 188.257 92.379C188.583 92.5054 188.882 92.6955 189.134 92.9383C189.385 93.19 189.582 93.4904 189.712 93.8211C189.842 94.1518 189.903 94.5057 189.891 94.8609V99.7286C191.918 97.1943 194.447 95.1055 197.318 93.5928C200.819 91.7715 204.729 90.8773 208.674 90.9954C212.414 90.8804 216.135 91.5782 219.579 93.0406C222.51 94.3606 225.094 96.3418 227.129 98.8286C229.184 101.445 230.719 104.43 231.651 107.623C232.715 111.081 233.321 114.664 233.452 118.279C233.452 119.588 233.452 120.958 233.452 122.369C233.452 123.781 233.452 125.11 233.452 126.46C233.399 130.041 232.827 133.596 231.753 137.013C230.775 140.15 229.221 143.077 227.17 145.644C225.135 148.178 222.535 150.202 219.579 151.555C216.126 153.068 212.382 153.802 208.613 153.703C204.824 153.82 201.066 153.005 197.666 151.33C194.817 149.853 192.334 147.757 190.403 145.194V171.782C190.415 172.138 190.354 172.492 190.224 172.822C190.093 173.153 189.897 173.453 189.646 173.705C189.375 173.964 189.053 174.165 188.701 174.296C188.349 174.426 187.974 174.482 187.6 174.462L179.906 174.523ZM205.441 142.74C208.258 142.994 211.077 142.285 213.438 140.728C215.798 139.171 217.56 136.859 218.434 134.17C219.378 131.462 219.923 128.63 220.05 125.764C220.193 123.524 220.193 121.276 220.05 119.036C219.929 116.149 219.384 113.296 218.434 110.568C217.56 107.88 215.798 105.568 213.438 104.011C211.077 102.454 208.258 101.745 205.441 101.999C202.588 101.799 199.747 102.534 197.347 104.091C194.948 105.648 193.121 107.943 192.142 110.63C191.194 113.1 190.629 115.7 190.464 118.34C190.464 119.649 190.362 121.122 190.362 122.758C190.362 124.394 190.362 125.887 190.464 127.278C190.545 129.824 191.136 132.328 192.203 134.641C193.282 136.986 194.962 139.004 197.073 140.49C199.554 142.106 202.484 142.894 205.441 142.74V142.74Z" fill="#203053"/>
  <path d="M274.966 153.641C268.974 153.82 263.01 152.755 257.452 150.512C253.203 148.775 249.485 145.954 246.669 142.331C244.298 139.233 242.921 135.489 242.72 131.593C242.722 131.291 242.784 130.992 242.904 130.715C243.023 130.437 243.197 130.186 243.416 129.978C243.643 129.749 243.914 129.569 244.213 129.45C244.512 129.33 244.833 129.273 245.155 129.282H253.339C254.076 129.235 254.804 129.461 255.385 129.916C255.861 130.363 256.256 130.889 256.552 131.471C257.111 133.283 258.061 134.952 259.334 136.359C260.947 138.151 262.948 139.55 265.186 140.449C268.271 141.63 271.562 142.179 274.864 142.065C280.975 142.065 285.483 141.022 288.388 138.936C289.774 137.987 290.898 136.705 291.656 135.207C292.414 133.709 292.782 132.044 292.726 130.366C292.768 129.281 292.585 128.199 292.187 127.188C291.789 126.178 291.185 125.261 290.414 124.496C288.299 122.681 285.854 121.292 283.212 120.406C279.979 119.179 275.764 117.849 270.587 116.459C265.648 115.213 260.849 113.465 256.265 111.243C252.797 109.633 249.833 107.109 247.692 103.942C245.68 100.589 244.691 96.722 244.848 92.8156C244.791 88.6759 246.029 84.6218 248.388 81.219C250.945 77.6572 254.435 74.8689 258.475 73.1608C263.445 71.0745 268.8 70.0638 274.188 70.1952C278.604 70.1343 282.998 70.826 287.181 72.2404C290.598 73.3759 293.77 75.1453 296.531 77.4558C298.848 79.3899 300.772 81.7506 302.199 84.4096C303.422 86.6584 304.122 89.1543 304.245 91.7111C304.226 92.2982 303.993 92.8582 303.59 93.286C303.369 93.5376 303.095 93.7363 302.787 93.8673C302.478 93.9983 302.145 94.0583 301.81 94.0427H293.339C292.709 94.0399 292.09 93.8781 291.539 93.5723C290.897 93.176 290.423 92.5571 290.209 91.8339C289.918 90.3712 289.323 88.9858 288.463 87.7669C287.603 86.5481 286.497 85.5229 285.217 84.7573C281.914 82.7076 278.072 81.6959 274.188 81.8531C270.327 81.6833 266.495 82.5897 263.119 84.471C261.734 85.3184 260.607 86.5288 259.86 87.9709C259.113 89.413 258.776 91.0318 258.884 92.652C258.807 94.808 259.536 96.9155 260.93 98.5627C262.761 100.401 264.986 101.799 267.436 102.653C271.288 104.151 275.215 105.448 279.201 106.539C284.646 107.767 289.962 109.506 295.079 111.734C298.684 113.253 301.799 115.737 304.081 118.913C306.119 122.241 307.123 126.099 306.966 129.998C307.086 134.551 305.682 139.014 302.976 142.679C300.101 146.389 296.246 149.222 291.846 150.86C286.449 152.857 280.719 153.801 274.966 153.641Z" fill="#203053"/>
  <path d="M319.161 81.5258C318.786 81.5464 318.411 81.4898 318.059 81.3596C317.707 81.2295 317.386 81.0285 317.115 80.7691C316.863 80.522 316.666 80.2253 316.536 79.8978C316.405 79.5703 316.345 79.2192 316.358 78.867V71.545C316.337 71.1705 316.394 70.7957 316.524 70.4439C316.654 70.0921 316.855 69.7708 317.115 69.4998C317.379 69.2273 317.698 69.0136 318.05 68.8727C318.403 68.7317 318.781 68.6666 319.161 68.6817H327.979C328.357 68.6751 328.733 68.7441 329.085 68.8846C329.436 69.0251 329.756 69.2342 330.025 69.4998C330.301 69.7616 330.517 70.0799 330.658 70.4329C330.799 70.786 330.863 71.1653 330.844 71.545V78.867C330.854 79.2245 330.786 79.58 330.645 79.9085C330.503 80.2371 330.292 80.5308 330.025 80.7691C329.469 81.2793 328.734 81.551 327.979 81.5258H319.161ZM319.856 152.496C319.482 152.512 319.108 152.453 318.757 152.323C318.406 152.193 318.084 151.995 317.81 151.739C317.559 151.487 317.362 151.187 317.232 150.856C317.102 150.526 317.041 150.172 317.053 149.816V94.8608C317.041 94.5056 317.102 94.1518 317.232 93.8211C317.362 93.4904 317.559 93.1899 317.81 92.9383C318.085 92.6855 318.408 92.4902 318.759 92.3637C319.11 92.2373 319.483 92.1823 319.856 92.202H327.406C327.759 92.1876 328.112 92.2465 328.441 92.375C328.77 92.5035 329.069 92.6988 329.319 92.9487C329.569 93.1985 329.764 93.4974 329.893 93.8265C330.022 94.1556 330.081 94.5078 330.066 94.8608V149.816C330.078 150.172 330.017 150.526 329.887 150.856C329.757 151.187 329.56 151.487 329.309 151.739C329.059 151.986 328.762 152.181 328.435 152.311C328.108 152.441 327.758 152.504 327.406 152.496H319.856Z" fill="#203053"/>
  <path d="M369.759 178C365.176 178.153 360.605 177.424 356.296 175.852C353.257 174.686 350.477 172.935 348.112 170.698C346.3 168.975 344.847 166.911 343.836 164.624C343.147 163.079 342.698 161.437 342.506 159.756C342.447 159.385 342.479 159.004 342.6 158.648C342.721 158.291 342.928 157.97 343.202 157.711C343.466 157.44 343.786 157.229 344.139 157.091C344.491 156.954 344.87 156.893 345.248 156.913H353.146C353.757 156.888 354.362 157.045 354.885 157.363C355.479 157.902 355.882 158.62 356.03 159.409C356.606 160.647 357.29 161.831 358.077 162.947C359.091 164.363 360.45 165.496 362.025 166.24C364.314 167.28 366.819 167.757 369.33 167.631C372.151 167.711 374.962 167.26 377.616 166.301C379.836 165.406 381.654 163.734 382.731 161.597C384.051 158.737 384.661 155.601 384.512 152.455V144.601C382.461 147.008 379.922 148.953 377.064 150.307C373.616 151.889 369.847 152.645 366.056 152.516C362.295 152.637 358.553 151.939 355.089 150.471C352.137 149.159 349.547 147.152 347.539 144.622C345.514 142.002 343.982 139.036 343.018 135.868C341.949 132.373 341.384 128.744 341.34 125.09C341.258 123.003 341.258 120.876 341.34 118.708C341.395 115.132 341.946 111.58 342.977 108.155C343.892 104.899 345.427 101.85 347.498 99.1763C349.53 96.6122 352.128 94.5539 355.089 93.1633C358.535 91.6232 362.284 90.882 366.056 90.9953C369.979 90.8576 373.87 91.7385 377.35 93.5519C380.248 95.1052 382.796 97.235 384.839 99.8103V95.0858C384.822 94.7116 384.88 94.3378 385.01 93.9865C385.14 93.6352 385.339 93.3136 385.596 93.0405C385.861 92.7707 386.181 92.5601 386.533 92.4226C386.886 92.2852 387.264 92.2239 387.642 92.2429H394.946C395.318 92.2369 395.686 92.307 396.03 92.4489C396.373 92.5907 396.683 92.8012 396.942 93.0676C397.201 93.3339 397.402 93.6503 397.534 93.9974C397.666 94.3445 397.725 94.7149 397.709 95.0858V151.105C397.82 155.966 396.856 160.792 394.885 165.238C392.986 169.263 389.825 172.558 385.882 174.625C380.874 177.078 375.331 178.239 369.759 178ZM369.412 141.82C372.407 141.961 375.365 141.105 377.821 139.386C379.918 137.791 381.561 135.676 382.588 133.25C383.624 130.845 384.227 128.277 384.368 125.662C384.368 124.66 384.491 123.372 384.491 121.776C384.491 120.181 384.491 118.933 384.368 118.013C384.224 115.379 383.622 112.791 382.588 110.364C381.583 107.925 379.936 105.805 377.821 104.228C375.349 102.547 372.398 101.714 369.412 101.856C366.386 101.704 363.392 102.536 360.88 104.228C358.782 105.779 357.188 107.913 356.296 110.364C355.346 113.092 354.801 115.945 354.68 118.831C354.68 120.876 354.68 122.697 354.68 124.64C354.813 127.505 355.357 130.336 356.296 133.046C357.17 135.539 358.765 137.718 360.88 139.304C363.375 141.046 366.37 141.929 369.412 141.82V141.82Z" fill="#203053"/>
  <path d="M414.016 152.496C413.641 152.512 413.268 152.453 412.916 152.323C412.565 152.193 412.243 151.995 411.969 151.739C411.722 151.485 411.528 151.184 411.398 150.854C411.268 150.524 411.205 150.171 411.212 149.817V94.8608C411.205 94.5062 411.268 94.1537 411.398 93.8237C411.528 93.4937 411.722 93.1927 411.969 92.9383C412.244 92.6855 412.567 92.4902 412.918 92.3637C413.27 92.2373 413.643 92.1823 414.016 92.202H421.443C421.798 92.1847 422.152 92.2414 422.484 92.3686C422.815 92.4958 423.117 92.6907 423.369 92.9408C423.621 93.191 423.819 93.4909 423.948 93.8215C424.078 94.152 424.138 94.506 424.123 94.8608V99.8512C426.264 97.2445 428.908 95.0953 431.898 93.5314C435.527 91.7261 439.55 90.8544 443.601 90.9953C447.999 90.8706 452.342 91.9984 456.123 94.2473C459.621 96.4057 462.409 99.5414 464.144 103.267C466.105 107.614 467.063 112.346 466.947 117.113V149.837C466.954 150.197 466.884 150.554 466.743 150.886C466.602 151.217 466.393 151.515 466.128 151.759C465.854 152.014 465.532 152.212 465.181 152.342C464.83 152.472 464.456 152.531 464.082 152.516H456.062C455.71 152.524 455.36 152.462 455.033 152.331C454.706 152.201 454.409 152.007 454.159 151.759C453.908 151.508 453.711 151.207 453.581 150.877C453.451 150.546 453.39 150.192 453.402 149.837V117.706C453.65 113.522 452.346 109.393 449.74 106.11C448.4 104.696 446.765 103.596 444.95 102.889C443.135 102.181 441.186 101.884 439.243 102.019C437.289 101.922 435.336 102.236 433.51 102.941C431.685 103.646 430.027 104.725 428.645 106.11C427.232 107.678 426.143 109.51 425.441 111.5C424.739 113.49 424.437 115.599 424.553 117.706V149.817C424.563 150.177 424.496 150.536 424.354 150.868C424.213 151.199 424.002 151.497 423.734 151.739C423.461 151.995 423.139 152.195 422.788 152.325C422.436 152.455 422.063 152.513 421.688 152.496H414.016Z" fill="#203053"/>
  <path d="M497.474 153.641C493.758 153.69 490.081 152.878 486.732 151.269C483.698 149.827 481.069 147.655 479.08 144.949C477.193 142.346 476.196 139.205 476.236 135.991C476.175 133.482 476.738 130.998 477.873 128.76C479.009 126.522 480.682 124.6 482.742 123.167C487.846 119.659 493.748 117.486 499.909 116.847L516.277 114.413V111.55C516.376 110.07 516.181 108.586 515.703 107.182C515.225 105.778 514.475 104.482 513.494 103.369C511.633 101.447 508.543 100.485 504.205 100.485C501.532 100.361 498.878 101 496.553 102.326C494.707 103.528 493.278 105.271 492.461 107.316C492.23 107.791 491.864 108.187 491.409 108.456C490.955 108.725 490.431 108.855 489.904 108.83H482.722C482.37 108.859 482.016 108.812 481.684 108.692C481.352 108.572 481.05 108.382 480.799 108.134C480.364 107.614 480.138 106.951 480.164 106.273C480.367 104.748 480.86 103.277 481.617 101.937C482.678 99.9704 484.117 98.2327 485.852 96.8243C488.085 95.0257 490.621 93.6404 493.341 92.7338C496.863 91.5361 500.568 90.9684 504.287 91.0567C508.386 90.9433 512.472 91.5525 516.359 92.8565C519.282 93.8474 521.941 95.4911 524.134 97.6628C526.038 99.6428 527.484 102.017 528.369 104.617C529.256 107.253 529.705 110.016 529.699 112.798V149.817C529.71 150.177 529.642 150.536 529.501 150.868C529.36 151.199 529.148 151.497 528.881 151.739C528.608 151.995 528.286 152.195 527.934 152.325C527.583 152.455 527.209 152.513 526.835 152.496H519.408C519.053 152.51 518.699 152.451 518.368 152.321C518.037 152.191 517.737 151.994 517.487 151.742C517.237 151.49 517.042 151.189 516.914 150.857C516.787 150.526 516.73 150.171 516.748 149.817V144.949C515.6 146.513 514.22 147.892 512.656 149.039C510.799 150.463 508.727 151.582 506.517 152.353C503.592 153.268 500.538 153.703 497.474 153.641V153.641ZM500.727 143.783C503.51 143.819 506.258 143.165 508.727 141.881C511.176 140.539 513.16 138.485 514.415 135.991C515.898 132.879 516.6 129.454 516.461 126.01V123.147L503.919 125.192C499.936 125.538 496.079 126.76 492.625 128.771C491.511 129.403 490.578 130.311 489.916 131.407C489.253 132.502 488.882 133.75 488.84 135.029C488.769 136.834 489.391 138.597 490.579 139.958C491.791 141.274 493.309 142.272 494.998 142.863C496.838 143.508 498.778 143.82 500.727 143.783Z" fill="#203053"/>
  <path d="M545.658 152.496C545.303 152.51 544.949 152.451 544.619 152.321C544.288 152.191 543.988 151.994 543.738 151.742C543.487 151.49 543.292 151.189 543.165 150.857C543.038 150.526 542.981 150.171 542.999 149.816V72.8335C542.981 72.4788 543.038 72.1244 543.165 71.7929C543.292 71.4613 543.487 71.1599 543.738 70.9078C543.988 70.6558 544.288 70.4586 544.619 70.3288C544.949 70.1991 545.303 70.1396 545.658 70.1543H553.311C553.666 70.1396 554.02 70.1991 554.35 70.3288C554.681 70.4586 554.981 70.6558 555.231 70.9078C555.482 71.1599 555.677 71.4613 555.804 71.7929C555.931 72.1244 555.988 72.4788 555.971 72.8335V149.816C555.988 150.171 555.931 150.526 555.804 150.857C555.677 151.189 555.482 151.49 555.231 151.742C554.981 151.994 554.681 152.191 554.35 152.321C554.02 152.451 553.666 152.51 553.311 152.496H545.658Z" fill="#203053"/>
</svg>
