<svg width="768" height="224" viewBox="0 0 768 224" fill="none" xmlns="http://www.w3.org/2000/svg">
<path d="M115.214 118.298C115.214 128.279 115.214 139.633 114.942 141.547C114.806 142.226 114.942 142.512 115.485 142.647L117.129 143.055C117.943 143.191 118.364 143.055 118.908 142.647L124.38 139.633C127.531 141.547 132.855 143.191 140.514 143.191C156.104 143.191 168.951 128.144 168.951 112.146C168.951 92.5901 155.955 82.8802 143.923 82.8802C137.227 82.8802 129.432 85.474 125.046 89.7111V73.8492C125.046 61.6812 125.046 46.091 125.182 44.9909C125.318 43.3477 125.046 42.6687 124.082 42.6687C123.267 42.6687 122.167 43.2119 121.216 43.9045C117.794 46.091 110.691 49.649 106.726 51.428C105.911 51.8355 105.626 52.1071 105.626 52.528V53.6281C105.626 54.0355 105.898 54.3071 107.405 54.7281L108.777 55.1355C113.706 56.7787 115.2 58.6935 115.2 67.8467V118.311L115.214 118.298ZM125.059 94.3692C128.074 91.2185 132.99 89.4531 138.056 89.4531C151.46 89.4531 158.426 102.028 158.426 115.297C158.426 133.209 148.309 138.818 140.107 138.818C134.226 138.818 128.482 135.26 127.11 131.987C125.467 127.614 125.059 123.513 125.059 112.159V94.3827V94.3692Z" fill="#0CA8DD"/>
<path d="M190.34 88.7061C190.34 81.1825 190.748 52.7452 190.883 45.2217C191.019 43.4427 190.748 42.7637 189.783 42.7637C188.969 42.7637 188.14 43.0353 186.918 43.8637C181.852 47.1501 175.701 49.6082 170.92 51.7946C170.105 52.0662 169.684 52.3378 169.684 52.7452V53.8453C169.684 54.1169 169.82 54.2527 170.499 54.5243L173.229 55.4885C177.602 56.8601 179.788 59.0465 180.06 63.691C180.331 67.2491 180.467 79.6887 180.467 89.3987V98.0086C180.467 105.94 180.467 129.461 180.331 133.698C180.196 136.156 178.824 137.12 177.317 137.12H170.757C169.25 137.12 168.978 137.392 168.978 138.356V140.678C168.978 141.493 169.25 142.05 169.942 142.05C171.178 142.05 176.638 141.642 185.397 141.642C193.871 141.642 199.887 142.05 200.851 142.05C201.395 142.05 201.666 141.507 201.666 140.678V138.356C201.666 137.541 201.395 137.12 200.159 137.12H194.007C191.141 137.12 190.585 135.205 190.449 132.883C190.313 128.646 190.313 107.99 190.313 100.888V88.7196L190.34 88.7061Z" fill="#0CA8DD"/>
<path d="M254.793 103.536C254.793 90.1319 255.472 86.5738 255.608 85.3516C255.743 84.6726 255.2 83.98 254.372 83.98C253.964 83.98 253.421 84.1158 252.729 84.1158C252.049 84.2516 251.357 84.3874 250.406 84.3874H237.695C236.323 84.3874 236.052 84.5232 236.052 85.6232V87.9454C236.052 88.6245 236.731 88.9097 239.067 88.9097C242.489 89.1813 244.675 89.8739 244.947 93.6899V126.378C244.947 127.614 244.132 129.393 243.575 130.072C240.981 133.358 235.509 136.903 231.815 136.903C228.121 136.903 224.291 136.631 220.869 131.701C216.496 125.414 217.854 116.654 217.854 111.195V101.349C217.854 93.2825 218.262 86.859 218.397 85.6232C218.533 84.659 217.854 83.98 216.89 83.98C216.483 83.98 215.926 84.1158 215.383 84.1158C214.839 84.2516 214.282 84.3874 213.468 84.3874H201.3C200.064 84.3874 199.792 84.659 199.792 85.4874V87.9454C199.792 88.6245 200.471 88.7603 202.807 88.9097C205.958 89.3171 207.873 90.2813 208.008 94.1109V110.109C208.008 125.156 207.737 129.664 213.345 136.916C217.854 142.797 222.376 143.204 226.192 143.204C233.023 143.204 240.954 138.967 244.784 133.63H245.056L246.156 141.561C246.291 142.932 246.835 143.204 247.391 143.204C248.491 143.204 249.306 142.932 250.121 142.661L264.476 137.88C265.019 137.745 265.29 137.473 265.155 136.645L264.747 134.866C264.611 134.322 264.204 134.051 263.104 134.322C261.461 134.73 259.41 134.73 258.595 134.73C256.952 134.73 255.445 134.187 255.037 129.95C254.766 127.084 254.766 120.375 254.766 113.816V103.563L254.793 103.536Z" fill="#0CA8DD"/>
<path d="M309.413 105.179C311.599 105.179 313.243 104.908 313.243 102.993C313.243 97.6557 308.87 82.8938 293.144 82.8938C286.313 82.8938 279.468 84.1296 273.588 90.1457C266.336 97.3976 264.978 106.551 264.978 111.888C264.978 121.462 266.214 126.514 270.994 133.494C276.06 140.882 284.67 143.204 292.465 143.204C304.633 143.204 311.749 133.766 314.207 128.293C314.886 126.786 314.614 126.378 314.207 126.242L312.428 125.292C312.02 125.156 311.464 125.428 311.192 125.971C308.87 130.479 302.989 135.273 294.651 135.273C283.719 135.273 275.231 125.156 275.231 111.752C275.231 108.601 275.367 106.415 275.639 105.193H309.413V105.179ZM276.182 101.078C278.776 90.9605 284.52 86.9951 290.536 86.9951C299.418 86.9951 301.061 96.026 301.061 99.1631C301.061 100.399 299.961 101.078 297.367 101.078H276.168H276.182Z" fill="#0CA8DD"/>
<path d="M334.944 110.774C334.944 104.486 335.08 97.7777 335.352 91.49H352.992C353.807 91.49 354.092 91.0826 354.228 90.39L355.6 85.6097C355.871 85.0665 355.464 84.3739 354.649 84.3739H335.637L336.316 70.9701C336.316 69.8701 336.044 68.9194 334.944 68.9194C334.129 68.9194 333.437 69.191 333.029 70.2911C331.25 74.9355 320.725 85.4739 317.439 87.3887C315.796 88.3394 314.981 88.7604 314.981 89.8468C314.981 90.9468 315.796 91.49 317.032 91.49H325.37C325.234 97.2345 325.098 106.537 325.098 108.995V112.01C325.098 113.925 324.691 125.957 324.691 131.566C324.691 136.767 331.25 143.19 337.959 143.19C346.161 143.19 351.77 139.089 353.142 137.718C353.549 137.31 353.821 136.753 353.413 136.21L352.734 134.974C352.327 134.431 351.77 134.295 351.091 134.703C349.176 135.939 345.211 136.482 342.06 136.482C339.602 136.482 334.944 134.703 334.944 124.45V110.774Z" fill="#201E1E"/>
<path d="M365.31 108.397C365.31 117.293 365.31 132.326 364.902 134.92C364.631 136.563 362.58 137.106 360.394 137.106H357.528C356.021 137.106 355.478 137.242 355.478 138.206V140.664C355.478 141.629 355.885 142.036 356.442 142.036C357.678 142.036 362.865 141.629 369.71 141.629C375.997 141.629 381.606 142.036 382.706 142.036C383.521 142.036 383.806 141.493 383.806 140.529V138.206C383.806 137.392 383.263 137.106 382.299 137.106H378.197C375.604 137.106 375.183 135.871 375.183 131.498V101.689C375.183 99.2307 376.69 96.4875 377.912 94.9936C381.742 90.6207 386.658 89.2491 390.624 89.2491C394.046 89.2491 396.911 90.4849 399.654 93.0788C403.62 96.7727 404.163 102.246 404.163 109.905V120.986C404.163 125.359 404.299 132.611 404.163 134.526C404.027 136.848 401.298 137.12 398.962 137.12H395.811C394.996 137.12 394.861 137.527 394.861 138.22V140.542C394.861 141.642 395.132 142.05 396.096 142.05C397.332 142.05 402.248 141.642 408.957 141.642C416.752 141.642 421.125 142.05 422.089 142.05C422.904 142.05 423.189 141.506 423.189 140.406V138.356C423.189 137.392 422.782 137.12 421.682 137.12H419.36C416.494 137.12 414.294 136.713 414.294 135.069C414.294 132.475 414.023 123.988 414.023 116.342V108.547C414.023 101.159 414.294 94.1924 408.142 88.4479C404.313 84.754 400.347 82.975 394.603 82.975C388.586 82.975 380.656 86.1256 375.875 91.8701H375.196V83.1244C375.196 76.2935 375.332 48.5216 375.604 46.1994C375.875 43.8771 375.332 42.7771 374.504 42.7771C373.404 42.7771 372.453 43.3203 371.353 43.8771L357.134 51.4006C355.899 52.0797 355.491 52.2155 355.491 52.7723V54.0081C355.491 54.4155 355.627 54.5513 356.455 54.8229L358.778 55.6377C363.694 57.2809 365.337 58.7884 365.337 67.1267V108.425L365.31 108.397Z" fill="#201E1E"/>
<path d="M479.928 103.536C479.928 90.1319 480.607 86.5738 480.743 85.3516C480.879 84.6726 480.336 83.98 479.507 83.98C479.1 83.98 478.557 84.1158 477.864 84.1158C477.185 84.2516 476.492 84.3874 475.542 84.3874H462.831C461.459 84.3874 461.187 84.5232 461.187 85.6232V87.9454C461.187 88.6245 461.866 88.9097 464.202 88.9097C467.624 89.1813 469.811 89.8739 470.082 93.6899V126.378C470.082 127.614 469.268 129.393 468.711 130.072C466.117 133.358 460.644 136.903 456.95 136.903C453.256 136.903 449.427 136.631 446.004 131.701C441.632 125.414 442.99 116.654 442.99 111.195V101.349C442.99 93.2825 443.397 86.859 443.533 85.6232C443.669 84.659 442.99 83.98 442.025 83.98C441.618 83.98 441.061 84.1158 440.518 84.1158C439.975 84.2516 439.418 84.3874 438.603 84.3874H426.435C425.199 84.3874 424.928 84.659 424.928 85.4874V87.9454C424.928 88.6245 425.607 88.7603 427.943 88.9097C431.093 89.3171 433.008 90.2813 433.144 94.1109V110.109C433.144 125.156 432.872 129.664 438.481 136.916C442.99 142.797 447.512 143.204 451.328 143.204C458.159 143.204 466.09 138.967 469.919 133.63H470.191L471.291 141.561C471.427 142.932 471.97 143.204 472.527 143.204C473.627 143.204 474.442 142.932 475.257 142.661L489.611 137.88C490.154 137.745 490.426 137.473 490.29 136.645L489.883 134.866C489.747 134.322 489.339 134.051 488.239 134.322C486.596 134.73 484.546 134.73 483.731 134.73C482.088 134.73 480.58 134.187 480.173 129.95C479.901 127.084 479.901 120.375 479.901 113.816V103.563L479.928 103.536Z" fill="#201E1E"/>
<path d="M540.836 134.798C540.836 136.577 540.021 137.12 537.821 137.12H533.856C532.62 137.12 532.484 137.392 532.484 138.492V140.678C532.484 141.642 532.756 142.05 533.435 142.05C534.25 142.05 538.908 141.642 546.295 141.642C553.955 141.642 557.513 142.05 558.463 142.05C559.142 142.05 559.428 141.642 559.428 140.542V138.356C559.428 137.392 559.156 137.12 557.92 137.12H553.276C551.225 137.12 550.546 135.748 550.546 133.969V110.312C550.546 104.16 550.41 100.467 552.461 96.5011C554.647 92.5356 560.256 89.3849 564.357 89.3849C568.458 89.3849 572.017 90.3356 574.475 92.2504C577.625 94.7084 578.44 98.6739 578.44 103.196V123.431C578.44 126.446 578.44 131.362 578.168 134.513C578.033 136.427 576.933 137.106 575.439 137.106H572.017C570.509 137.106 570.238 137.378 570.238 138.342V140.664C570.238 141.629 570.509 142.036 571.338 142.036C572.302 142.036 577.218 141.629 584.049 141.629C590.608 141.629 594.438 142.036 595.402 142.036C596.081 142.036 596.353 141.629 596.353 140.664V138.342C596.353 137.378 596.081 137.106 594.845 137.106H591.151C589.508 137.106 588.286 136.427 588.286 134.377V103.889C588.286 93.364 584.864 90.3491 581.726 87.0627C578.44 83.7762 574.203 82.9614 569.423 82.9614C561.22 82.9614 553.425 88.1627 549.324 93.4862H548.645C545.779 87.0627 540.306 82.9614 533.19 82.9614C525.259 82.9614 517.193 87.7417 513.091 93.3504H512.684L512.141 85.4195C512.141 84.4553 511.733 83.5046 510.905 83.5046C510.362 83.5046 509.397 83.7762 508.311 84.3195L496.279 90.4714C496.007 90.6072 495.464 91.1504 495.464 91.5714V92.6714C495.464 93.0788 495.736 93.3504 496.428 93.7714L499.294 95.2788C502.58 97.0579 503.123 99.5159 503.123 102.259V126.595C503.123 128.917 503.123 131.375 502.988 133.711C502.852 136.305 502.173 137.134 500.937 137.134H496.292C494.921 137.134 494.649 137.269 494.649 138.369V140.827C494.649 141.792 494.921 142.063 495.749 142.063C496.849 142.063 501.222 141.656 508.46 141.656C515.984 141.656 519.678 142.063 520.9 142.063C521.864 142.063 522 141.52 522 140.556V138.369C522 137.405 521.864 137.134 520.628 137.134H515.712C513.797 137.134 512.983 135.762 512.983 133.575V106.496C512.983 102.667 513.254 100.073 514.897 97.3295C518.727 91.1776 524.472 89.3985 528.03 89.3985C531.045 89.3985 535.01 90.2133 536.775 91.8566C538.962 93.9072 540.877 96.5011 540.877 106.618V134.784L540.836 134.798Z" fill="#201E1E"/>
<path d="M606.633 118.298C606.633 128.279 606.633 139.633 606.361 141.547C606.225 142.226 606.361 142.512 606.905 142.647L608.548 143.055C609.363 143.191 609.784 143.055 610.327 142.647L615.8 139.633C618.95 141.547 624.274 143.191 631.933 143.191C647.523 143.191 660.37 128.144 660.37 112.146C660.37 92.5901 647.374 82.8802 635.342 82.8802C628.647 82.8802 620.852 85.474 616.465 89.7111V73.8492C616.465 61.6812 616.465 46.091 616.601 44.9909C616.737 43.3477 616.465 42.6687 615.501 42.6687C614.686 42.6687 613.586 43.2119 612.635 43.9045C609.213 46.091 602.111 49.649 598.145 51.428C597.33 51.8355 597.045 52.1071 597.045 52.528V53.6281C597.045 54.0355 597.317 54.3071 598.824 54.7281L600.196 55.1355C605.125 56.7787 606.619 58.6935 606.619 67.8467V118.311L606.633 118.298ZM616.479 94.3692C619.494 91.2185 624.41 89.4531 629.475 89.4531C642.879 89.4531 649.846 102.028 649.846 115.297C649.846 133.209 639.728 138.818 631.526 138.818C625.645 138.818 619.901 135.26 618.529 131.987C616.886 127.614 616.479 123.513 616.479 112.159V94.3827V94.3692Z" fill="#201E1E"/>
<path d="M132.529 159.406V181.283H127.423V172.035H118.527V181.283H113.421V159.406H118.527V168.545H127.423V159.406H132.529Z" fill="#201E1E"/>
<path d="M161.754 170.202C161.754 171.777 161.482 173.258 160.939 174.616C160.396 175.974 159.621 177.155 158.63 178.16C157.639 179.165 156.444 179.953 155.045 180.523C153.646 181.093 152.098 181.379 150.4 181.379C148.703 181.379 147.141 181.093 145.742 180.523C144.344 179.953 143.148 179.165 142.144 178.16C141.152 177.155 140.378 175.974 139.835 174.616C139.292 173.258 139.02 171.777 139.02 170.202C139.02 168.627 139.292 167.146 139.835 165.788C140.378 164.43 141.152 163.249 142.144 162.244C143.135 161.239 144.33 160.451 145.742 159.881C147.141 159.311 148.703 159.025 150.4 159.025C152.098 159.025 153.66 159.311 155.045 159.881C156.444 160.451 157.639 161.253 158.63 162.244C159.621 163.249 160.396 164.43 160.939 165.788C161.482 167.146 161.754 168.613 161.754 170.188V170.202ZM156.552 170.202C156.552 169.116 156.416 168.138 156.131 167.282C155.846 166.413 155.452 165.68 154.923 165.082C154.393 164.485 153.755 164.023 152.994 163.697C152.234 163.371 151.365 163.222 150.4 163.222C149.423 163.222 148.553 163.385 147.779 163.697C147.019 164.023 146.367 164.485 145.837 165.082C145.308 165.68 144.9 166.413 144.629 167.282C144.344 168.151 144.208 169.129 144.208 170.202C144.208 171.288 144.344 172.266 144.629 173.135C144.914 174.005 145.321 174.738 145.837 175.335C146.367 175.933 147.005 176.395 147.779 176.707C148.54 177.019 149.423 177.182 150.4 177.182C151.378 177.182 152.234 177.019 152.994 176.707C153.755 176.395 154.407 175.933 154.923 175.335C155.452 174.738 155.846 174.005 156.131 173.135C156.416 172.266 156.552 171.288 156.552 170.202Z" fill="#201E1E"/>
<path d="M192.364 159.406V181.284H187.882V168.695C187.882 168.409 187.896 168.084 187.909 167.744C187.923 167.405 187.95 167.051 187.991 166.712L182.178 177.956C182.002 178.31 181.757 178.568 181.459 178.758C181.16 178.934 180.807 179.029 180.413 179.029H179.72C179.327 179.029 178.987 178.934 178.675 178.758C178.376 178.581 178.118 178.31 177.941 177.956L172.129 166.671C172.156 167.038 172.183 167.377 172.21 167.73C172.224 168.07 172.238 168.396 172.238 168.681V181.27H167.756V159.392H171.627C171.844 159.392 172.048 159.392 172.21 159.406C172.373 159.419 172.523 159.446 172.645 159.501C172.781 159.555 172.889 159.623 172.998 159.732C173.107 159.84 173.202 159.99 173.297 160.18L178.933 171.275C179.136 171.655 179.327 172.049 179.517 172.456C179.707 172.864 179.883 173.285 180.046 173.719C180.223 173.285 180.399 172.85 180.576 172.429C180.766 172.008 180.956 171.614 181.174 171.234L186.796 160.18C186.891 159.99 186.999 159.84 187.108 159.732C187.217 159.623 187.325 159.555 187.461 159.501C187.597 159.446 187.746 159.419 187.909 159.406C188.072 159.392 188.262 159.392 188.48 159.392H192.35L192.364 159.406Z" fill="#201E1E"/>
<path d="M205.224 163.547V168.654H212.11V172.415H205.224V177.63H214.215V181.528H200.118V159.65H214.215V163.547H205.224Z" fill="#201E1E"/>
<path d="M253.896 170.827C253.896 172.402 253.625 173.882 253.082 175.24C252.538 176.598 251.764 177.78 250.773 178.785C249.782 179.79 248.586 180.577 247.188 181.148C245.789 181.718 244.241 182.003 242.543 182.003C240.846 182.003 239.284 181.718 237.885 181.148C236.486 180.577 235.291 179.79 234.286 178.785C233.295 177.78 232.521 176.598 231.978 175.24C231.434 173.882 231.163 172.402 231.163 170.827C231.163 169.251 231.434 167.771 231.978 166.413C232.521 165.055 233.295 163.873 234.286 162.868C235.278 161.864 236.473 161.076 237.885 160.505C239.284 159.935 240.846 159.65 242.543 159.65C244.241 159.65 245.802 159.935 247.188 160.505C248.586 161.076 249.782 161.877 250.773 162.868C251.764 163.873 252.538 165.055 253.082 166.413C253.625 167.771 253.896 169.238 253.896 170.813V170.827ZM248.695 170.827C248.695 169.74 248.559 168.762 248.274 167.907C247.989 167.038 247.595 166.304 247.065 165.707C246.536 165.109 245.898 164.647 245.137 164.322C244.377 163.996 243.507 163.846 242.543 163.846C241.565 163.846 240.696 164.009 239.922 164.322C239.162 164.647 238.51 165.109 237.98 165.707C237.451 166.304 237.043 167.038 236.772 167.907C236.486 168.776 236.351 169.754 236.351 170.827C236.351 171.913 236.486 172.891 236.772 173.76C237.057 174.629 237.464 175.362 237.98 175.96C238.51 176.557 239.148 177.019 239.922 177.332C240.683 177.644 241.565 177.807 242.543 177.807C243.521 177.807 244.377 177.644 245.137 177.332C245.898 177.019 246.549 176.557 247.065 175.96C247.595 175.362 247.989 174.629 248.274 173.76C248.559 172.891 248.695 171.913 248.695 170.827Z" fill="#201E1E"/>
<path d="M265.046 163.806V169.346H272.529V173.258H265.046V181.773H259.94V159.895H274.036V163.806H265.046Z" fill="#201E1E"/>
<path d="M303.193 172.918L301.17 166.929C301.02 166.549 300.857 166.101 300.694 165.585C300.518 165.069 300.355 164.512 300.178 163.914C300.029 164.525 299.866 165.096 299.703 165.612C299.526 166.128 299.377 166.59 299.228 166.97L297.218 172.932H303.207L303.193 172.918ZM311.26 181.283H307.322C306.887 181.283 306.52 181.175 306.249 180.971C305.977 180.767 305.773 180.509 305.638 180.183L304.348 176.367H296.023L294.733 180.183C294.624 180.469 294.434 180.713 294.135 180.944C293.85 181.175 293.497 181.283 293.076 181.283H289.11L297.585 159.406H302.786L311.26 181.283Z" fill="#201E1E"/>
<path d="M325.343 177.277C326.022 177.277 326.633 177.169 327.176 176.938C327.706 176.707 328.168 176.395 328.534 175.974C328.901 175.553 329.186 175.037 329.39 174.425C329.58 173.814 329.675 173.135 329.675 172.361V159.406H334.754V172.361C334.754 173.706 334.537 174.928 334.102 176.055C333.668 177.182 333.043 178.146 332.228 178.948C331.413 179.762 330.435 180.387 329.268 180.835C328.1 181.283 326.796 181.514 325.343 181.514C323.876 181.514 322.572 181.283 321.405 180.835C320.237 180.387 319.259 179.749 318.444 178.948C317.629 178.133 317.018 177.169 316.583 176.055C316.149 174.928 315.932 173.706 315.932 172.361V159.406H321.011V172.348C321.011 173.122 321.106 173.801 321.309 174.412C321.5 175.023 321.785 175.539 322.151 175.96C322.518 176.381 322.98 176.707 323.509 176.938C324.039 177.169 324.65 177.277 325.329 177.277H325.343Z" fill="#201E1E"/>
<path d="M353.631 163.846C353.481 164.091 353.332 164.267 353.155 164.389C352.992 164.512 352.775 164.566 352.517 164.566C352.286 164.566 352.042 164.485 351.77 164.349C351.499 164.199 351.2 164.05 350.874 163.86C350.534 163.683 350.154 163.52 349.72 163.371C349.285 163.222 348.796 163.154 348.253 163.154C347.302 163.154 346.596 163.357 346.134 163.765C345.673 164.172 345.428 164.715 345.428 165.408C345.428 165.843 345.564 166.209 345.849 166.508C346.134 166.793 346.501 167.051 346.949 167.255C347.411 167.459 347.927 167.649 348.511 167.825C349.095 168.002 349.692 168.192 350.303 168.409C350.915 168.627 351.512 168.885 352.096 169.17C352.68 169.455 353.196 169.835 353.658 170.283C354.12 170.732 354.473 171.275 354.758 171.927C355.043 172.578 355.179 173.353 355.179 174.262C355.179 175.267 355.002 176.218 354.649 177.101C354.296 177.983 353.794 178.744 353.128 179.409C352.463 180.061 351.648 180.577 350.67 180.958C349.692 181.338 348.579 181.528 347.343 181.528C346.664 181.528 345.971 181.46 345.265 181.324C344.559 181.188 343.88 180.985 343.215 180.727C342.549 180.469 341.938 180.17 341.354 179.817C340.77 179.464 340.268 179.07 339.833 178.649L341.34 176.272C341.463 176.096 341.626 175.96 341.816 175.838C342.006 175.729 342.223 175.661 342.454 175.661C342.753 175.661 343.065 175.756 343.364 175.946C343.663 176.137 344.016 176.354 344.396 176.571C344.776 176.802 345.224 177.006 345.727 177.196C346.229 177.386 346.813 177.481 347.506 177.481C348.429 177.481 349.149 177.277 349.652 176.87C350.168 176.462 350.412 175.824 350.412 174.941C350.412 174.425 350.276 174.018 349.991 173.692C349.706 173.366 349.339 173.108 348.891 172.891C348.429 172.687 347.913 172.497 347.329 172.334C346.745 172.171 346.148 171.994 345.537 171.804C344.926 171.614 344.328 171.37 343.744 171.085C343.16 170.799 342.644 170.419 342.196 169.957C341.734 169.496 341.368 168.912 341.096 168.219C340.811 167.527 340.675 166.671 340.675 165.652C340.675 164.838 340.838 164.036 341.164 163.249C341.49 162.461 341.979 161.768 342.617 161.157C343.255 160.546 344.043 160.057 344.98 159.691C345.917 159.324 346.976 159.147 348.185 159.147C348.85 159.147 349.516 159.202 350.154 159.297C350.792 159.405 351.39 159.555 351.96 159.759C352.531 159.962 353.06 160.207 353.563 160.492C354.052 160.777 354.5 161.103 354.894 161.47L353.631 163.833V163.846Z" fill="#201E1E"/>
<path d="M378.197 163.425H372.046V181.283H366.967V163.425H360.801V159.406H378.197V163.425Z" fill="#201E1E"/>
<path d="M390.461 169.686C391.153 169.686 391.737 169.591 392.226 169.414C392.715 169.238 393.109 168.993 393.421 168.695C393.733 168.382 393.951 168.016 394.1 167.608C394.236 167.187 394.304 166.753 394.304 166.264C394.304 165.3 393.991 164.553 393.367 164.009C392.742 163.466 391.764 163.195 390.461 163.195H388.424V169.686H390.461ZM401.243 181.284H396.653C395.798 181.284 395.187 180.958 394.82 180.319L391.18 173.964C391.004 173.692 390.814 173.489 390.61 173.366C390.406 173.244 390.094 173.176 389.714 173.176H388.424V181.27H383.344V159.392H390.461C392.036 159.392 393.394 159.555 394.508 159.881C395.621 160.207 396.531 160.669 397.237 161.239C397.943 161.823 398.459 162.502 398.772 163.303C399.098 164.091 399.247 164.96 399.247 165.884C399.247 166.59 399.152 167.269 398.962 167.893C398.772 168.518 398.487 169.102 398.12 169.645C397.753 170.175 397.292 170.664 396.748 171.085C396.205 171.506 395.567 171.845 394.861 172.117C395.187 172.293 395.499 172.497 395.798 172.755C396.083 173.013 396.354 173.312 396.585 173.665L401.243 181.284Z" fill="#201E1E"/>
<path d="M418.219 172.918L416.195 166.929C416.046 166.549 415.883 166.101 415.72 165.585C415.543 165.069 415.381 164.512 415.204 163.914C415.055 164.525 414.892 165.096 414.729 165.612C414.552 166.128 414.403 166.59 414.253 166.97L412.243 172.932H418.232L418.219 172.918ZM426.286 181.283H422.347C421.913 181.283 421.546 181.175 421.274 180.971C421.003 180.767 420.799 180.509 420.663 180.183L419.373 176.367H411.048L409.758 180.183C409.65 180.469 409.459 180.713 409.161 180.944C408.876 181.175 408.522 181.283 408.101 181.283H404.136L412.61 159.406H417.811L426.286 181.283Z" fill="#201E1E"/>
<path d="M444.755 177.223V181.283H431.568V159.406H436.647V177.223H444.755Z" fill="#201E1E"/>
<path d="M455.022 181.283H449.915V159.406H455.022V181.283Z" fill="#201E1E"/>
<path d="M474.618 172.918L472.595 166.929C472.445 166.549 472.282 166.101 472.119 165.585C471.943 165.069 471.78 164.512 471.603 163.914C471.454 164.525 471.291 165.096 471.128 165.612C470.952 166.128 470.802 166.59 470.653 166.97L468.643 172.932H474.632L474.618 172.918ZM482.685 181.283H478.747C478.312 181.283 477.945 181.175 477.674 180.971C477.402 180.767 477.199 180.509 477.063 180.183L475.773 176.367H467.448L466.158 180.183C466.049 180.469 465.859 180.713 465.56 180.944C465.275 181.175 464.922 181.283 464.501 181.283H460.535L469.01 159.406H474.211L482.685 181.283Z" fill="#201E1E"/>
<path d="M507.075 159.406V181.283H504.427C504.033 181.283 503.707 181.216 503.449 181.093C503.178 180.971 502.92 180.754 502.662 180.442L492.341 167.391C492.381 167.785 492.408 168.151 492.422 168.518C492.436 168.885 492.436 169.224 492.436 169.55V181.283H487.954V159.406H490.629C490.847 159.406 491.037 159.419 491.186 159.433C491.336 159.446 491.471 159.487 491.594 159.541C491.716 159.596 491.825 159.677 491.933 159.772C492.042 159.867 492.164 160.003 492.313 160.18L502.716 173.325C502.662 172.904 502.634 172.497 502.607 172.103C502.594 171.709 502.58 171.343 502.58 170.99V159.406H507.062H507.075Z" fill="#201E1E"/>
<path d="M536.314 173.407L534.29 167.418C534.141 167.038 533.978 166.59 533.815 166.074C533.638 165.558 533.476 165.001 533.299 164.403C533.15 165.014 532.987 165.585 532.824 166.101C532.647 166.617 532.498 167.079 532.348 167.459L530.338 173.421H536.327L536.314 173.407ZM544.381 181.773H540.442C540.008 181.773 539.641 181.664 539.369 181.46C539.098 181.256 538.894 180.998 538.758 180.672L537.468 176.856H529.143L527.853 180.672C527.745 180.958 527.554 181.202 527.256 181.433C526.971 181.664 526.617 181.773 526.196 181.773H522.231L530.705 159.895H535.906L544.381 181.773Z" fill="#201E1E"/>
<path d="M556.548 170.188C557.241 170.188 557.825 170.093 558.314 169.917C558.803 169.74 559.197 169.496 559.509 169.197C559.821 168.885 560.039 168.518 560.188 168.111C560.324 167.69 560.392 167.255 560.392 166.766C560.392 165.802 560.079 165.055 559.455 164.512C558.83 163.969 557.852 163.697 556.548 163.697H554.511V170.188H556.548ZM567.331 181.786H562.741C561.886 181.786 561.274 181.46 560.908 180.822L557.268 174.466C557.092 174.195 556.902 173.991 556.698 173.869C556.494 173.747 556.182 173.679 555.802 173.679H554.511V181.773H549.432V159.895H556.548C558.124 159.895 559.482 160.057 560.595 160.383C561.709 160.709 562.619 161.171 563.325 161.741C564.031 162.325 564.547 163.004 564.86 163.806C565.186 164.593 565.335 165.462 565.335 166.386C565.335 167.092 565.24 167.771 565.05 168.396C564.86 169.021 564.574 169.604 564.208 170.148C563.841 170.677 563.379 171.166 562.836 171.587C562.293 172.008 561.655 172.348 560.949 172.619C561.274 172.796 561.587 173 561.886 173.258C562.171 173.516 562.442 173.814 562.673 174.167L567.331 181.786Z" fill="#201E1E"/>
<path d="M588.028 163.425H581.862V181.283H576.783V163.425H570.631V159.406H588.028V163.425Z" fill="#201E1E"/>
<path d="M598.77 181.773H593.664V159.895H598.77V181.773Z" fill="#201E1E"/>
<path d="M618.163 164.335C618.013 164.58 617.864 164.756 617.687 164.878C617.524 165.001 617.307 165.055 617.049 165.055C616.818 165.055 616.574 164.974 616.302 164.838C616.031 164.688 615.732 164.539 615.406 164.349C615.066 164.172 614.686 164.009 614.251 163.86C613.817 163.711 613.328 163.643 612.785 163.643C611.834 163.643 611.128 163.846 610.666 164.254C610.205 164.661 609.96 165.204 609.96 165.897C609.96 166.332 610.096 166.698 610.381 166.997C610.666 167.282 611.033 167.54 611.481 167.744C611.943 167.948 612.459 168.138 613.043 168.314C613.627 168.491 614.224 168.681 614.835 168.898C615.447 169.116 616.044 169.374 616.628 169.659C617.212 169.944 617.728 170.324 618.19 170.772C618.652 171.221 619.005 171.764 619.29 172.416C619.575 173.067 619.711 173.842 619.711 174.751C619.711 175.756 619.534 176.707 619.181 177.59C618.828 178.472 618.326 179.233 617.66 179.898C616.995 180.55 616.18 181.066 615.202 181.447C614.224 181.827 613.111 182.017 611.875 182.017C611.196 182.017 610.503 181.949 609.797 181.813C609.091 181.677 608.412 181.474 607.747 181.216C607.081 180.958 606.47 180.659 605.886 180.306C605.302 179.953 604.8 179.559 604.365 179.138L605.872 176.761C605.995 176.585 606.158 176.449 606.348 176.327C606.538 176.218 606.755 176.15 606.986 176.15C607.285 176.15 607.597 176.245 607.896 176.435C608.195 176.626 608.548 176.843 608.928 177.06C609.308 177.291 609.756 177.495 610.259 177.685C610.761 177.875 611.345 177.97 612.038 177.97C612.961 177.97 613.681 177.766 614.184 177.359C614.7 176.951 614.944 176.313 614.944 175.43C614.944 174.914 614.808 174.507 614.523 174.181C614.238 173.855 613.871 173.597 613.423 173.38C612.961 173.176 612.445 172.986 611.861 172.823C611.277 172.66 610.68 172.484 610.069 172.293C609.458 172.103 608.86 171.859 608.276 171.574C607.692 171.288 607.176 170.908 606.728 170.446C606.266 169.985 605.9 169.401 605.628 168.708C605.343 168.016 605.207 167.16 605.207 166.141C605.207 165.327 605.37 164.525 605.696 163.738C606.022 162.95 606.511 162.257 607.149 161.646C607.787 161.035 608.575 160.546 609.512 160.18C610.449 159.813 611.508 159.636 612.717 159.636C613.382 159.636 614.048 159.691 614.686 159.786C615.324 159.895 615.922 160.044 616.492 160.248C617.063 160.451 617.592 160.696 618.095 160.981C618.584 161.266 619.032 161.592 619.426 161.959L618.163 164.322V164.335Z" fill="#201E1E"/>
<path d="M641.996 163.425H635.831V181.283H630.765V163.425H624.6V159.406H641.996V163.425Z" fill="#201E1E"/>
<path d="M660.452 163.846C660.303 164.091 660.153 164.267 659.977 164.389C659.814 164.512 659.596 164.566 659.338 164.566C659.107 164.566 658.863 164.485 658.591 164.349C658.32 164.199 658.021 164.05 657.695 163.86C657.356 163.683 656.975 163.52 656.541 163.371C656.106 163.222 655.617 163.154 655.074 163.154C654.123 163.154 653.417 163.357 652.956 163.765C652.494 164.172 652.249 164.715 652.249 165.408C652.249 165.843 652.385 166.209 652.67 166.508C652.956 166.793 653.322 167.051 653.77 167.255C654.232 167.459 654.748 167.649 655.332 167.825C655.916 168.002 656.514 168.192 657.125 168.409C657.736 168.627 658.333 168.885 658.917 169.17C659.501 169.455 660.017 169.835 660.479 170.283C660.941 170.732 661.294 171.275 661.579 171.927C661.864 172.578 662 173.353 662 174.262C662 175.267 661.824 176.218 661.47 177.101C661.117 177.983 660.615 178.744 659.949 179.409C659.284 180.061 658.469 180.577 657.491 180.958C656.514 181.338 655.4 181.528 654.164 181.528C653.485 181.528 652.793 181.46 652.086 181.324C651.38 181.188 650.701 180.985 650.036 180.727C649.37 180.469 648.759 180.17 648.175 179.817C647.591 179.464 647.089 179.07 646.654 178.649L648.162 176.272C648.284 176.096 648.447 175.96 648.637 175.838C648.827 175.729 649.044 175.661 649.275 175.661C649.574 175.661 649.886 175.756 650.185 175.946C650.484 176.137 650.837 176.354 651.217 176.571C651.598 176.802 652.046 177.006 652.548 177.196C653.051 177.386 653.635 177.481 654.327 177.481C655.251 177.481 655.97 177.277 656.473 176.87C656.989 176.462 657.233 175.824 657.233 174.941C657.233 174.425 657.098 174.018 656.812 173.692C656.527 173.366 656.161 173.108 655.712 172.891C655.251 172.687 654.735 172.497 654.151 172.334C653.567 172.171 652.969 171.994 652.358 171.804C651.747 171.614 651.149 171.37 650.565 171.085C649.981 170.799 649.465 170.419 649.017 169.957C648.556 169.496 648.189 168.912 647.917 168.219C647.632 167.527 647.496 166.671 647.496 165.652C647.496 164.838 647.659 164.036 647.985 163.249C648.311 162.461 648.8 161.768 649.438 161.157C650.077 160.546 650.864 160.057 651.801 159.691C652.738 159.324 653.798 159.147 655.006 159.147C655.672 159.147 656.337 159.202 656.975 159.297C657.614 159.405 658.211 159.555 658.782 159.759C659.352 159.962 659.882 160.207 660.384 160.492C660.873 160.777 661.321 161.103 661.715 161.47L660.452 163.833V163.846Z" fill="#201E1E"/>
</svg>
