<?xml version="1.0" encoding="utf-8"?>
<!-- Generator: Adobe Illustrator 26.3.1, SVG Export Plug-In . SVG Version: 6.00 Build 0)  -->
<svg version="1.1" id="Layer_1" xmlns="http://www.w3.org/2000/svg" xmlns:xlink="http://www.w3.org/1999/xlink" x="0px" y="0px"
   viewBox="0 0 819.1 164.5" style="enable-background:new 0 0 819.1 164.5;" xml:space="preserve">
<style type="text/css">
  .st0{fill:#00A1DA;}
</style>
<g>
  <path class="st0" d="M61.9,146.6c-6.1,0-11.7-1.3-16.6-4c-4.9-2.7-8.5-5.7-10.9-9.1v11.4H15.6v-128h18.8V71c2.4-3.4,6-6.5,10.9-9.1
    c4.9-2.7,10.4-4,16.6-4c5.8,0,11.2,1.2,16.3,3.5c5.1,2.3,9.4,5.5,13.1,9.6c3.6,4,6.5,8.7,8.6,14.1c2.1,5.3,3.2,11.1,3.2,17.2
    c0,6.1-1.1,11.9-3.2,17.2c-2.1,5.3-5,10-8.6,14.1c-3.6,4-8,7.2-13.1,9.6C73.1,145.5,67.7,146.6,61.9,146.6z M58.5,129.6
    c3.8,0,7.2-0.7,10.3-2.1c3.1-1.4,5.8-3.4,8-5.8c2.2-2.4,4-5.3,5.2-8.6c1.3-3.3,1.9-6.9,1.9-10.8c0-3.9-0.6-7.5-1.9-10.8
    c-1.3-3.3-3-6.2-5.2-8.6c-2.2-2.4-4.9-4.4-8-5.8c-3.1-1.4-6.6-2.1-10.3-2.1s-7.2,0.7-10.4,2.1c-3.2,1.4-5.9,3.4-8.1,5.8
    c-2.2,2.4-4,5.3-5.2,8.6c-1.3,3.3-1.9,6.9-1.9,10.8c0,3.9,0.6,7.5,1.9,10.8c1.3,3.3,3,6.2,5.2,8.6c2.2,2.4,4.9,4.4,8.1,5.8
    C51.2,128.9,54.7,129.6,58.5,129.6z"/>
  <path class="st0" d="M113.6,16.9h18.8v128h-18.8V16.9z"/>
  <path class="st0" d="M179.7,146.6c-4.9,0-9.3-0.9-13.2-2.6c-3.9-1.7-7.3-4.1-10-7.3c-2.7-3.1-4.8-6.9-6.3-11.4
    c-1.5-4.4-2.2-9.4-2.2-14.8v-51h18.8v48c0,6.8,1.5,12.2,4.4,16.1c3,3.9,7.2,5.9,12.6,5.9c6.1,0,11.2-2.4,15-7.1
    c3.9-4.7,5.8-11.7,5.8-20.9v-42h18.8v85.3h-18.8v-11.6c-2.5,4.3-5.9,7.6-10.2,9.9C190,145.5,185.1,146.6,179.7,146.6z"/>
  <path class="st0" d="M277.8,146.6c-6.4,0-12.2-1.1-17.6-3.3c-5.4-2.2-10-5.3-13.8-9.2c-3.9-3.9-6.9-8.6-9-14.1
    c-2.2-5.5-3.2-11.4-3.2-17.8c0-6.3,1.1-12.1,3.2-17.6c2.1-5.5,5.1-10.2,8.9-14.1c3.8-3.9,8.4-7,13.8-9.3c5.4-2.3,11.4-3.4,18-3.4
    c6.5,0,12.5,1.2,17.9,3.6c5.5,2.4,10.1,5.7,13.9,10.1c3.8,4.3,6.7,9.5,8.6,15.4c1.9,6,2.7,12.6,2.2,19.9h-67.9
    c0.1,3.3,0.8,6.3,2.1,9.1c1.3,2.8,3.1,5.2,5.3,7.3c2.2,2.1,4.9,3.8,8,4.9c3.1,1.2,6.6,1.8,10.3,1.8c4.8,0,9.1-1,12.9-2.9
    c3.8-1.9,6.7-4.9,8.6-9h19.6c-1.3,4-3.1,7.7-5.5,11.2c-2.4,3.5-5.5,6.5-9,9c-3.6,2.6-7.7,4.6-12.2,6.1
    C288.3,145.9,283.3,146.6,277.8,146.6z M277.5,73.6c-5.9,0-11.1,1.7-15.6,5c-4.5,3.4-7.4,8.3-8.6,14.9h47.3
    c-1.5-6.9-4.4-12-8.7-15.2C287.5,75.2,282.7,73.6,277.5,73.6z"/>
  <path d="M366.9,145.8c-4.1,0-7.9-0.6-11.4-1.7c-3.5-1.1-6.6-2.9-9.3-5.2c-2.7-2.3-4.8-5.3-6.2-8.9c-1.5-3.6-2.2-7.8-2.2-12.5V76.3
    H320V59.6h17.8V35.9h18.8v23.7h24.4v16.7h-24.4v38.1c0,5.3,1.2,9.1,3.5,11.3c2.3,2.2,5.9,3.2,10.8,3.2c1.8,0,3.6-0.1,5.4-0.4
    c1.8-0.3,3.3-0.7,4.7-1.3v16.7c-1.9,0.6-4,1-6.2,1.4C372.4,145.6,369.9,145.8,366.9,145.8z"/>
  <path d="M390.1,144.9v-128h18.8v54.3c2.6-4.3,6.2-7.6,10.8-9.9c4.6-2.3,9.6-3.4,15.2-3.4c4.9,0,9.4,0.9,13.4,2.6
    c4,1.7,7.5,4.1,10.3,7.2c2.8,3.1,5,6.8,6.6,11.2c1.5,4.4,2.3,9.3,2.3,14.8v51.4h-18.8V96.6c0-6.8-1.6-12.1-4.8-16
    c-3.2-3.8-7.5-5.7-13-5.7c-6.3,0-11.5,2.4-15.7,7.1c-4.2,4.7-6.3,11.7-6.3,20.9v42H390.1z"/>
  <path d="M513.5,146.6c-4.9,0-9.3-0.9-13.2-2.6c-3.9-1.7-7.3-4.1-10-7.3c-2.7-3.1-4.8-6.9-6.3-11.4c-1.5-4.4-2.2-9.4-2.2-14.8v-51
    h18.8v48c0,6.8,1.5,12.2,4.4,16.1c3,3.9,7.2,5.9,12.6,5.9c6.1,0,11.2-2.4,15-7.1c3.9-4.7,5.8-11.7,5.8-20.9v-42h18.8v85.3h-18.8
    v-11.6c-2.5,4.3-5.9,7.6-10.2,9.9C523.9,145.5,519,146.6,513.5,146.6z"/>
  <path d="M682.7,97c0-6.7-1.3-12.1-3.8-16c-2.5-4-6.3-6-11.4-6c-5.9,0-10.7,2.3-14.4,6.9c-3.7,4.6-5.7,11.2-5.9,19.7v43.4h-18.8V97
    c0-6.7-1.3-12.1-3.8-16c-2.5-4-6.3-6-11.4-6c-6.1,0-11.1,2.4-14.9,7.3c-3.8,4.8-5.6,11.8-5.6,20.7v42h-18.8V59.6h18.8v11.6
    c2.4-4,5.7-7.2,9.8-9.6c4.2-2.4,9-3.7,14.4-3.7c6.4,0,11.8,1.5,16.3,4.4c4.5,3,7.9,7.1,10.2,12.5c2.5-5.5,6.3-9.6,11.3-12.5
    c5-2.9,10.4-4.4,16-4.4c9.7,0,17.2,3.3,22.6,9.8c5.4,6.5,8.1,15.3,8.1,26.2v51h-18.8V97z"/>
  <path d="M763.2,146.6c-6.1,0-11.7-1.3-16.6-4c-4.9-2.7-8.5-5.7-10.9-9.1v11.4H717v-128h18.8V71c2.4-3.4,6-6.5,10.9-9.1
    c4.9-2.7,10.4-4,16.6-4c5.8,0,11.2,1.2,16.3,3.5c5.1,2.3,9.4,5.5,13.1,9.6c3.6,4,6.5,8.7,8.6,14.1c2.1,5.3,3.2,11.1,3.2,17.2
    c0,6.1-1.1,11.9-3.2,17.2c-2.1,5.3-5,10-8.6,14.1c-3.6,4-8,7.2-13.1,9.6C774.5,145.5,769,146.6,763.2,146.6z M759.8,129.6
    c3.8,0,7.2-0.7,10.3-2.1c3.1-1.4,5.8-3.4,8-5.8c2.2-2.4,4-5.3,5.2-8.6c1.3-3.3,1.9-6.9,1.9-10.8c0-3.9-0.6-7.5-1.9-10.8
    c-1.3-3.3-3-6.2-5.2-8.6c-2.2-2.4-4.9-4.4-8-5.8c-3.1-1.4-6.6-2.1-10.3-2.1c-3.8,0-7.2,0.7-10.4,2.1c-3.2,1.4-5.9,3.4-8.1,5.8
    c-2.2,2.4-4,5.3-5.2,8.6c-1.3,3.3-1.9,6.9-1.9,10.8c0,3.9,0.6,7.5,1.9,10.8c1.3,3.3,3,6.2,5.2,8.6c2.2,2.4,4.9,4.4,8.1,5.8
    C752.6,128.9,756.1,129.6,759.8,129.6z"/>
</g>
</svg>
