<svg width="768" height="224" viewBox="0 0 768 224" fill="none" xmlns="http://www.w3.org/2000/svg">
<path d="M276.737 135.777H308.424C324.108 135.777 331.886 129.372 331.886 116.5C331.886 109.652 328.443 104.262 322.705 101.853V101.662C326.977 99.3796 329.527 94.8775 329.527 89.4877C329.527 79.6592 321.621 72.7475 310.783 72.7475H276.737V135.777ZM288.468 98.4919V82.9565H308.679C314.544 82.9565 317.86 85.6831 317.86 90.6291C317.86 95.8287 314.799 98.4919 308.679 98.4919H288.468ZM288.468 125.378V107.75H309.316C316.648 107.75 320.219 110.603 320.219 116.5C320.219 122.397 316.839 125.378 309.189 125.378H288.468ZM339.154 115.739C339.154 129.055 347.315 137.108 360.639 137.108C367.78 137.108 373.518 134.826 377.535 130.831H377.726V135.777H388.564V88.0292H377.343V113.964C377.343 121.636 371.605 127.026 363.572 127.026C355.475 127.026 350.439 122.271 350.439 113.964V88.0292H339.218V115.739H339.154V115.739ZM398.51 135.777H409.731V88.0292H398.51V135.777ZM398.064 79.9128H410.05V68.499H398.064V79.9128ZM419.868 135.777H431.089V70.0209H419.868V135.777ZM439.505 111.871C439.505 126.646 450.279 137.108 465.453 137.108C472.594 137.108 478.523 134.762 482.221 130.704H482.412V135.777H492.995V70.0209H481.774V92.5313H481.583C477.694 88.8536 471.765 86.6976 465.007 86.6976C450.343 86.6976 439.505 97.6041 439.505 111.871ZM481.774 114.978C481.774 121.763 474.953 127.343 466.537 127.343C457.037 127.343 450.726 121.319 450.726 111.935C450.726 102.55 456.974 96.5262 466.409 96.5262C474.761 96.5262 481.711 101.916 481.711 108.701V114.978H481.774V114.978ZM502.941 135.777H514.162V122.08L523.343 114.344H523.534L541.067 135.777H555.029L531.248 107.433L554.009 88.0927H537.943L514.353 108.511H514.162V70.0209H502.941V135.777ZM561.213 135.777H572.434V88.0292H561.213V135.777ZM560.767 79.9128H572.753V68.499H560.767V79.9128ZM616.298 97.6041V88.0292H600.805V76.4887H589.585V88.0292H578.491V97.6041H589.585V122.017C589.585 131.655 594.047 135.777 605.013 135.777H614.258V125.504H605.906C601.889 125.504 600.805 124.617 600.805 121.446V97.6041H616.298V97.6041ZM619.486 112.062C619.486 127.217 629.75 137.108 645.944 137.108C655.826 137.108 663.541 133.494 669.087 126.392L661.564 119.734C657.101 125.251 652.32 127.851 645.88 127.851C637.082 127.851 631.025 122.968 630.643 115.486H671V112.125C671 97.6041 660.735 86.6342 645.307 86.6342C629.878 86.6976 619.486 97.2237 619.486 112.062V112.062ZM630.834 107.369C631.536 100.584 637.465 95.9555 645.562 95.9555C653.659 95.9555 659.333 100.648 659.97 107.369H630.834V107.369Z" fill="#1A002E"/>
<path d="M97 63.667V111.339L144.651 135.175V87.5031L97 63.667ZM192.366 63.667V111.339L240.017 87.5031L192.366 63.667Z" fill="#30F2A2"/>
<path d="M192.216 111.468V159.334L240.017 135.401V87.5997L192.216 111.468V111.468ZM144.35 87.5997V135.465L192.152 111.532V63.667L144.35 87.5997Z" fill="#14CC80"/>
</svg>
