<svg width="768" height="224" viewBox="0 0 768 224" fill="none" xmlns="http://www.w3.org/2000/svg">
<path d="M383.865 205.041C383.865 205.041 530.259 161.17 452.208 27.0057C452.208 27.0057 420.996 45.1426 383.865 26.1589L383.641 26.1122C346.516 45.0968 315.297 26.9599 315.297 26.9599C237.251 161.086 383.653 204.965 383.653 204.994L383.865 205.041Z" fill="white"/>
<path d="M452.347 26.6386C452.347 26.6386 421.07 44.8122 383.864 25.7888L383.64 25.7421C346.439 44.7466 315.196 26.6376 315.196 26.6376C301.026 50.9156 294.301 72.2086 292.61 90.8598H474.856C473.229 72.2086 466.436 50.9156 452.307 26.6386H452.347Z" fill="url(#paint0_linear_90_13)"/>
<path d="M475.258 97.1909H292.249C290.107 176.99 383.689 204.949 383.689 204.988H383.914C383.865 205.041 477.481 176.982 475.292 97.1909H475.258Z" fill="url(#paint1_linear_90_13)"/>
<path d="M336.256 78.2214C335.121 78.7885 332.564 79.4382 329.237 79.4382C319.782 79.4382 314.914 73.513 314.914 65.7222C314.914 56.3891 321.568 51.1962 329.844 51.1962C333.052 51.1962 335.515 51.8927 336.61 52.4121L335.351 57.3214C334.092 56.797 332.349 56.3075 330.157 56.3075C325.245 56.3075 321.434 59.2696 321.434 65.357C321.434 70.8295 324.717 74.312 330.19 74.2841C332.055 74.2841 334.125 73.8782 335.344 73.3926L336.256 78.2214ZM343.348 51.6419H349.559V73.7976H360.429V78.9915H343.348V51.6419ZM390.614 65.0356C390.614 74.0006 385.175 79.4392 377.181 79.4392C369.065 79.4392 364.319 73.311 364.319 65.5222C364.319 57.3234 369.553 51.1982 377.629 51.1982C386.028 51.2141 390.617 57.4826 390.617 65.0356H390.614ZM370.853 65.3968C370.853 70.7698 373.34 74.5508 377.519 74.5508C381.696 74.5508 384.091 70.5738 384.091 65.2595C384.091 60.3492 381.741 56.1284 377.479 56.1284C373.285 56.0896 370.817 60.0696 370.817 65.3968H370.853ZM403.873 51.6419V67.3868C403.873 72.0633 405.664 74.4513 408.848 74.4861C412.097 74.4861 413.883 72.2145 413.883 67.3868V51.6419H420.051V66.9789C420.051 75.4214 415.79 79.4382 408.646 79.4382C401.748 79.4382 397.691 75.6244 397.691 66.9003V51.6419H403.873ZM428.411 52.0071C430.681 51.6409 433.645 51.4389 436.769 51.4389C441.962 51.4389 445.326 52.3344 448.013 54.3244C450.858 56.4139 452.689 59.7969 452.689 64.6326C452.689 69.8654 450.783 73.4772 448.148 75.709C445.265 78.103 440.884 79.2383 435.53 79.1915C432.319 79.1915 430.049 78.9885 428.508 78.7875V52.0071H428.411ZM434.616 74.3259C435.144 74.4254 436.009 74.4254 436.805 74.4463C442.404 74.4463 446.056 71.4026 446.056 64.8714C446.096 59.189 442.769 56.1861 437.453 56.1861C436.075 56.1861 435.181 56.3085 434.653 56.4319V74.3259H434.616ZM374.34 120.96C372.731 120.96 371.028 120.96 368.755 121.148C355.975 122.189 350.295 128.721 348.687 135.915H348.97C351.998 132.789 356.26 130.993 362.034 130.993C372.353 130.993 381.038 138.257 381.038 151.062C381.038 163.276 371.668 173.308 358.319 173.35C341.943 173.35 333.895 161.141 333.895 146.465C333.895 134.918 338.156 125.26 344.782 119.107C350.936 113.521 358.889 110.493 368.543 110.021C371.195 109.831 372.898 109.831 374.317 109.926V120.96H374.34ZM358.247 162.707C363.264 162.707 366.483 158.068 366.483 151.821C366.483 146.14 363.454 141.218 357.3 141.218C353.42 141.218 350.2 143.583 348.78 146.708C348.402 147.466 348.213 148.603 348.213 150.305C348.497 156.872 351.596 162.743 358.163 162.708H358.247V162.707ZM426.87 120.96C425.261 120.96 423.557 120.96 421.285 121.148C408.505 122.189 402.825 128.721 401.216 135.915H401.5C404.527 132.789 408.789 130.993 414.565 130.993C424.882 130.993 433.569 138.257 433.569 151.062C433.569 163.276 424.2 173.308 410.852 173.35C394.475 173.35 386.426 161.141 386.426 146.465C386.426 134.918 390.686 125.26 397.312 119.107C403.467 113.521 411.419 110.493 421.073 110.021C423.726 109.831 425.428 109.831 426.849 109.926V120.96H426.87ZM410.775 162.707C415.793 162.707 419.013 158.068 419.013 151.821C419.013 146.14 415.983 141.218 409.829 141.218C405.95 141.218 402.729 143.583 401.31 146.708C400.931 147.466 400.743 148.603 400.743 150.305C401.027 156.872 404.126 162.743 410.693 162.708H410.775V162.707Z" fill="white"/>
<defs>
<linearGradient id="paint0_linear_90_13" x1="292.61" y1="58.2786" x2="474.894" y2="58.2786" gradientUnits="userSpaceOnUse">
<stop stop-color="#2478C7"/>
<stop offset="0.257" stop-color="#246BB8"/>
<stop offset="0.752" stop-color="#254B90"/>
<stop offset="1" stop-color="#26387A"/>
</linearGradient>
<linearGradient id="paint1_linear_90_13" x1="292.212" y1="151.112" x2="475.292" y2="151.112" gradientUnits="userSpaceOnUse">
<stop stop-color="#57BF42"/>
<stop offset="0.318" stop-color="#4BAE3C"/>
<stop offset="0.948" stop-color="#2C812C"/>
<stop offset="1" stop-color="#297D2B"/>
</linearGradient>
</defs>
</svg>
