<svg width="768" height="224" viewBox="0 0 768 224" fill="none" xmlns="http://www.w3.org/2000/svg">
<mask id="mask0_90_13" style="mask-type:alpha" maskUnits="userSpaceOnUse" x="293" y="26" width="180" height="179">
<path d="M383.057 26.4163C419.54 45.3686 450.208 27.2614 450.208 27.2614C526.899 161.206 383.057 205.005 382.837 204.96C382.837 204.96 238.997 161.161 315.683 27.2162C315.683 27.2162 346.357 45.3234 383.057 26.4163Z" fill="black"/>
</mask>
<g mask="url(#mask0_90_13)">
<path d="M293.172 26.4163H472.719V204.96H293.172V26.4163Z" fill="white"/>
</g>
<path d="M450.208 27.2614C450.208 27.2614 419.54 45.3686 383.057 26.4163C346.357 45.3234 315.683 27.2162 315.683 27.2162C238.997 161.161 382.837 204.96 382.837 204.96C383.057 205.005 526.899 161.206 450.208 27.2614Z" stroke="white" stroke-width="9" stroke-miterlimit="10"/>
<mask id="mask1_90_13" style="mask-type:alpha" maskUnits="userSpaceOnUse" x="293" y="26" width="180" height="66">
<path d="M382.835 26L383.056 26.0471C414.495 42.3795 441.626 31.2472 448.607 27.8101L449.061 27.5832C449.903 27.1562 450.345 26.8949 450.345 26.8949C464.219 51.1253 470.863 72.395 472.48 91.0117H293.41C295.021 72.3842 301.661 51.0982 315.546 26.8479C315.546 26.8479 346.282 44.9931 382.835 26Z" fill="black"/>
</mask>
<g mask="url(#mask1_90_13)">
<path d="M293.41 26H472.48V91.0117H293.41V26Z" fill="#3C71B9"/>
</g>
<mask id="mask2_90_13" style="mask-type:alpha" maskUnits="userSpaceOnUse" x="293" y="97" width="180" height="109">
<path d="M472.856 97.3333C475 176.996 383.057 205 383.056 205L382.835 204.954C382.835 204.954 290.931 176.961 293.036 97.3333H472.856Z" fill="black"/>
</mask>
<g mask="url(#mask2_90_13)">
<path d="M293 97.3333H472.893V205H293V97.3333Z" fill="#57BD5C"/>
</g>
<mask id="mask3_90_13" style="mask-type:alpha" maskUnits="userSpaceOnUse" x="315" y="51" width="22" height="29">
<path d="M329.976 51.4139C333.13 51.4139 335.521 52.0609 336.598 52.6283L335.361 57.5299C334.124 57.006 332.411 56.5174 330.257 56.5174C325.431 56.5174 321.685 59.4754 321.685 65.5515C321.685 71.0205 324.873 74.4635 330.295 74.4635C332.129 74.4635 334.162 74.059 335.36 73.574L336.277 78.3942C335.161 78.9607 332.649 79.6095 329.379 79.6095C320.09 79.6095 315.306 73.6935 315.306 65.9162C315.306 56.5979 321.846 51.4139 329.976 51.4139Z" fill="black"/>
</mask>
<g mask="url(#mask3_90_13)">
<path d="M315.306 51.4139H336.598V79.6095H315.306V51.4139Z" fill="white"/>
</g>
<mask id="mask4_90_13" style="mask-type:alpha" maskUnits="userSpaceOnUse" x="343" y="51" width="18" height="29">
<path d="M349.347 51.8574V73.9759H360.029V79.1617H343.245V51.8574H349.347Z" fill="black"/>
</mask>
<g mask="url(#mask4_90_13)">
<path d="M343.245 51.8574H360.029V79.1617H343.245V51.8574Z" fill="white"/>
</g>
<mask id="mask5_90_13" style="mask-type:alpha" maskUnits="userSpaceOnUse" x="363" y="51" width="27" height="29">
<path d="M376.93 51.4139C385.182 51.413 389.688 57.6919 389.688 65.2294C389.688 74.1803 384.343 79.6095 376.489 79.6095C368.514 79.6095 363.852 73.4917 363.852 65.7153C363.852 57.5299 368.995 51.4139 376.93 51.4139ZM376.769 56.3147C372.661 56.3147 370.27 60.2843 370.27 65.5904C370.27 70.9382 372.743 74.7069 376.808 74.7069C380.913 74.7069 383.265 70.7364 383.265 65.4312C383.265 60.5295 380.956 56.3147 376.769 56.3147Z" fill="black"/>
</mask>
<g mask="url(#mask5_90_13)">
<path d="M363.852 51.4139H389.688V79.6095H363.852V51.4139Z" fill="white"/>
</g>
<mask id="mask6_90_13" style="mask-type:alpha" maskUnits="userSpaceOnUse" x="396" y="51" width="23" height="29">
<path d="M402.714 51.8574V67.5767C402.714 72.2757 404.466 74.6645 407.575 74.6645C410.768 74.6645 412.523 72.3969 412.523 67.5767V51.8574H418.583V67.1695C418.583 75.5974 414.397 79.6087 407.377 79.6087C400.6 79.6087 396.612 75.801 396.612 67.0917V51.8574H402.714Z" fill="black"/>
</mask>
<g mask="url(#mask6_90_13)">
<path d="M396.612 51.8574H418.583V79.6087H396.612V51.8574Z" fill="white"/>
</g>
<mask id="mask7_90_13" style="mask-type:alpha" maskUnits="userSpaceOnUse" x="426" y="51" width="25" height="29">
<path d="M435.039 51.6564C440.141 51.6564 443.449 52.5884 446.04 54.5727C448.835 56.6793 450.586 60.0445 450.586 64.8647C450.586 70.0884 448.713 73.6943 446.122 75.923C443.29 78.3127 438.986 79.4465 433.724 79.4465C430.571 79.4465 428.339 79.2447 426.825 79.043V52.2228C429.057 51.8582 431.967 51.6564 435.039 51.6564ZM435.675 56.3951C434.32 56.3951 433.443 56.5164 432.923 56.6404V74.5051C433.443 74.6254 434.282 74.6254 435.039 74.6254C440.54 74.6652 444.128 71.5869 444.128 65.0664C444.168 59.3929 440.898 56.3951 435.675 56.3951Z" fill="black"/>
</mask>
<g mask="url(#mask7_90_13)">
<path d="M426.825 51.6564H450.586V79.4465H426.825V51.6564Z" fill="white"/>
</g>
<mask id="mask8_90_13" style="mask-type:alpha" maskUnits="userSpaceOnUse" x="333" y="109" width="48" height="65">
<path d="M373.698 110.004V121.062C372.117 121.062 370.444 121.062 368.209 121.25C355.652 122.29 350.071 128.811 348.491 135.992H348.77C351.745 132.872 355.931 131.078 361.606 131.078C371.746 131.078 380.302 138.356 380.302 151.115C380.302 163.309 371.095 173.325 357.978 173.325C341.887 173.325 333.979 161.133 333.979 146.484C333.979 134.955 338.166 125.314 344.677 119.17C350.723 113.593 358.538 110.57 368.024 110.098C370.63 109.909 372.303 109.909 373.698 110.004ZM356.954 141.287C353.141 141.287 349.978 143.648 348.583 146.768C348.212 147.525 348.026 148.659 348.026 150.359C348.305 156.88 351.374 162.741 357.792 162.741H357.884C362.814 162.74 365.978 158.11 365.978 151.872C365.978 146.2 363.001 141.287 356.954 141.287Z" fill="black"/>
</mask>
<g mask="url(#mask8_90_13)">
<path d="M333.979 109.941H380.302V173.325H333.979V109.941Z" fill="white"/>
</g>
<mask id="mask9_90_13" style="mask-type:alpha" maskUnits="userSpaceOnUse" x="385" y="109" width="47" height="65">
<path d="M425.311 110.004V121.062C423.731 121.062 422.057 121.062 419.824 121.25C407.266 122.29 401.685 128.811 400.104 135.992H400.383C403.358 132.872 407.545 131.078 413.219 131.078C423.358 131.078 431.915 138.356 431.915 151.115C431.915 163.309 422.707 173.325 409.592 173.325C393.501 173.325 385.593 161.133 385.593 146.484C385.593 134.955 389.778 125.314 396.29 119.17C402.336 113.593 410.151 110.57 419.638 110.098C422.243 109.909 423.917 109.909 425.311 110.004ZM408.568 141.287C404.756 141.287 401.592 143.648 400.198 146.768C399.826 147.525 399.64 148.659 399.64 150.359C399.918 156.88 402.988 162.741 409.405 162.741H409.498C414.428 162.74 417.592 158.11 417.592 151.872C417.592 146.2 414.614 141.287 408.568 141.287Z" fill="black"/>
</mask>
<g mask="url(#mask9_90_13)">
<path d="M385.593 109.941H431.915V173.325H385.593V109.941Z" fill="white"/>
</g>
</svg>
