<?xml version="1.0" encoding="UTF-8"?><svg version="1.1" width="160px" height="160px" viewBox="0 0 160.0 160.0" xmlns="http://www.w3.org/2000/svg" xmlns:xlink="http://www.w3.org/1999/xlink"><defs><clipPath id="i0"><path d="M74.94847,0 C105.369141,15.8030479 130.941604,0.704705023 130.941604,0.704705023 C194.888354,112.391397 74.94847,148.913075 74.7650564,148.875379 C74.7650564,148.875379 -45.1726003,112.354427 18.7704373,0.666979915 C18.7704373,0.666979915 44.3473554,15.7653228 74.94847,0 Z"></path></clipPath><clipPath id="i1"><path d="M74.5654338,0 L74.7495899,0.0392341126 C100.96501,13.6577568 123.587556,4.37529438 129.408046,1.50928187 L129.786699,1.32010693 C130.488819,0.964053372 130.857821,0.746202642 130.857821,0.746202642 C142.426246,20.9502616 147.965783,38.6855896 149.314281,54.2087171 L0,54.2087171 C1.34330057,38.6765355 6.88060976,20.9276266 18.4579448,0.70696853 C18.4579448,0.70696853 44.0868424,15.8370005 74.5654338,0 Z"></path></clipPath><clipPath id="i2"><path d="M149.969201,0 C151.757298,66.4248617 75.0918898,89.7759492 75.0911472,89.7759492 L74.9069911,89.7374696 C74.9069911,89.7374696 -1.72500184,66.3961906 0.0296798874,0 Z"></path></clipPath><clipPath id="i3"><path d="M12.2322776,0 C14.8617012,0 16.855489,0.539469049 17.7532504,1.01254191 L16.7218272,5.09968014 C15.6904041,4.66282339 14.2624511,4.25539222 12.4661857,4.25539222 C8.44222451,4.25539222 5.318995,6.7218598 5.318995,11.7883418 C5.318995,16.3485529 7.97663609,19.2194337 12.498116,19.2194337 C14.0270579,19.2194337 15.7223344,18.8821712 16.7210847,18.477758 L17.4859269,22.4969911 C16.5554926,22.9693094 14.460716,23.5102875 11.7340163,23.5102875 C3.98831804,23.5102875 0,18.5773523 0,12.0924062 C0,4.32254291 5.45265675,0 12.2322776,0 Z"></path></clipPath><clipPath id="i4"><path d="M5.0880572,0 L5.0880572,18.4430509 L13.9951276,18.4430509 L13.9951276,22.7671029 L0,22.7671029 L0,0 L5.0880572,0 Z"></path></clipPath><clipPath id="i5"><path d="M10.9053135,0 C17.7859233,-0.000754502166 21.5433035,5.23473603 21.5433035,11.5197391 C21.5433035,18.9832745 17.0864268,23.5102875 10.5370011,23.5102875 C3.88732917,23.5102875 0,18.4090983 0,11.9249067 C0,5.09968014 4.28831441,0 10.9053135,0 Z M10.7709092,4.08638373 C7.34545561,4.08638373 5.35166787,7.39638473 5.35166787,11.8207854 C5.35166787,16.2798932 7.41377162,19.4223948 10.8035821,19.4223948 C14.2260654,19.4223948 16.1871802,16.1116393 16.1871802,11.6879931 C16.1871802,7.60085482 14.2617085,4.08638373 10.7709092,4.08638373 Z"></path></clipPath><clipPath id="i6"><path d="M5.0880572,0 L5.0880572,13.1072116 C5.0880572,17.0253414 6.54868308,19.0172271 9.14097843,19.0172271 C11.8030749,19.0172271 13.266671,17.1264447 13.266671,13.1072116 L13.266671,0 L18.3198277,0 L18.3198277,12.7676857 C18.3198277,19.7951188 14.8290284,23.1398269 8.97612894,23.1398269 C3.32520726,23.1398269 0,19.9648818 0,12.7027985 L0,0 L5.0880572,0 Z"></path></clipPath><clipPath id="i7"><path d="M6.84867945,0 C11.1035784,0 13.8614658,0.777137231 16.0223307,2.43176048 C18.3525006,4.18824152 19.8123839,6.99423508 19.8123839,11.0134681 C19.8123839,15.3692091 18.2507691,18.3759003 16.0906468,20.2342391 C13.7285466,22.2268793 10.1397287,23.1722705 5.75265312,23.1722705 C3.12322951,23.1722705 1.26236095,23.0040165 0,22.8357626 L0,0.472318356 C1.86086856,0.168253983 4.28757185,0 6.84867945,0 Z M7.37887105,3.95132784 C6.24942928,3.95132784 5.51800249,4.05243113 5.08434438,4.15579793 L5.08434438,19.0519342 C5.51800249,19.152283 6.21749897,19.152283 6.84867945,19.152283 C11.4355051,19.1854811 14.4280431,16.6186647 14.4280431,11.1817221 C14.460716,6.45099352 11.7347589,3.95132784 7.37887105,3.95132784 Z"></path></clipPath><clipPath id="i8"><path d="M33.1184109,0.0520915185 L33.1184109,9.27286249 C31.8003575,9.27286249 30.4050774,9.27286249 28.5419811,9.42979894 C18.0710683,10.2967219 13.4174118,15.734419 12.100101,21.7221482 L12.3325239,21.7221482 C14.8134345,19.1206248 18.3042338,17.624447 23.0358597,17.624447 C31.4907078,17.624447 38.6252749,23.6929079 38.6252749,34.3321429 C38.6252749,44.4998141 30.9478926,52.8513986 20.0106488,52.8513986 C6.59397956,52.8513986 0,42.6852364 0,30.4706008 C0,20.8567342 3.49079932,12.8182682 8.91969398,7.69519846 C13.9617121,3.04444711 20.4777223,0.524409874 28.3875276,0.130559744 C30.5602735,-0.027131209 31.9555537,-0.027131209 33.1184109,0.0520915185 Z M19.1566987,26.1367404 C15.9777768,26.1367404 13.340185,28.1052366 12.1773278,30.7075145 C11.8676781,31.3382783 11.7124819,32.2836696 11.7124819,33.7013791 C11.9449049,39.1390762 14.5037848,44.0259868 19.8554527,44.0259868 L19.9326794,44.0259868 C24.0435208,44.0252323 26.6811126,40.1644447 26.6811126,34.9629067 C26.6811126,30.2336872 24.1987169,26.1367404 19.1566987,26.1367404 Z"></path></clipPath><clipPath id="i9"><path d="M33.1184109,0.0520915185 L33.1184109,9.27286249 C31.8011001,9.27286249 30.4050774,9.27286249 28.5427237,9.42979894 C18.0718109,10.2967219 13.4181544,15.734419 12.100101,21.7221482 L12.3325239,21.7221482 C14.8134345,19.1206248 18.3042338,17.624447 23.0358597,17.624447 C31.4899652,17.624447 38.6245323,23.6929079 38.6245323,34.3321429 C38.6245323,44.4998141 30.94715,52.8513986 20.0113914,52.8513986 C6.59397956,52.8513986 0,42.6852364 0,30.4706008 C0,20.8567342 3.49005675,12.8182682 8.91969398,7.69519846 C13.9609696,3.04444711 20.4769798,0.524409874 28.3875276,0.130559744 C30.5602735,-0.027131209 31.9555537,-0.027131209 33.1184109,0.0520915185 Z M19.1574413,26.1367404 C15.9785194,26.1367404 13.3409276,28.1052366 12.1780704,30.7075145 C11.8676781,31.3382783 11.7132245,32.2836696 11.7132245,33.7013791 C11.9449049,39.1390762 14.5045273,44.0259868 19.8554527,44.0259868 L19.9326794,44.0259868 C24.0435208,44.0252323 26.6818551,40.1644447 26.6818551,34.9629067 C26.6818551,30.2336872 24.1987169,26.1367404 19.1574413,26.1367404 Z"></path></clipPath></defs><g transform="translate(5.0 6.0)"><g transform="translate(0.14341983820727933 0.3470709963932421)"><g clip-path="url(#i0)"><polygon points="-3.55271368e-15,0 149.711963,0 149.711963,148.875408 -3.55271368e-15,148.875408 -3.55271368e-15,0" stroke="none" fill="#FFFFFF"></polygon></g><path d="M130.941604,0.704705023 C130.941604,0.704705023 105.369141,15.8030479 74.94847,0 C44.3473554,15.7653228 18.7704373,0.666979915 18.7704373,0.666979915 C-45.1726003,112.354427 74.7650564,148.875379 74.7650564,148.875379 C74.94847,148.913075 194.888354,112.391397 130.941604,0.704705023 Z" stroke="#FFFFFF" stroke-width="9" fill="none" stroke-miterlimit="10"></path></g><g transform="translate(0.34155729916928124 7.105427357601002e-15)"><g clip-path="url(#i1)"><polygon points="0,0 149.314281,0 149.314281,54.2087171 0,54.2087171 0,0" stroke="none" fill="#3C71B9"></polygon></g></g><g transform="translate(0.0 59.47966925797282)"><g clip-path="url(#i2)"><polygon points="-3.12250226e-17,0 150,0 150,89.7759492 -3.12250226e-17,89.7759492 -3.12250226e-17,0" stroke="none" fill="#57BD5C"></polygon></g></g><g transform="translate(18.599752062808015 21.190947836304915)"><g transform=""><g clip-path="url(#i3)"><polygon points="0,0 17.7532504,0 17.7532504,23.5102875 0,23.5102875 0,0" stroke="none" fill="#FFFFFF"></polygon></g></g><g transform="translate(23.29575752907411 0.3697060613753944)"><g clip-path="url(#i4)"><polygon points="0,0 13.9951276,0 13.9951276,22.7671029 0,22.7671029 0,0" stroke="none" fill="#FFFFFF"></polygon></g></g><g transform="translate(40.47871778735457 -3.552713678800501e-15)"><g clip-path="url(#i5)"><polygon points="0,0 21.5433035,0 21.5433035,23.5102875 0,23.5102875 0,0" stroke="none" fill="#FFFFFF"></polygon></g></g><g transform="translate(67.7954662325302 0.3697060613753944)"><g clip-path="url(#i6)"><polygon points="0,0 18.3198277,0 18.3198277,23.1398269 0,23.1398269 0,0" stroke="none" fill="#FFFFFF"></polygon></g></g><g transform="translate(92.98773545130385 0.20220658050735807)"><g clip-path="url(#i7)"><polygon points="0,0 19.8123839,0 19.8123839,23.1722705 0,23.1722705 0,0" stroke="none" fill="#FFFFFF"></polygon></g></g><g transform="translate(15.57010850024308 48.80192373470739)"><g transform=""><g clip-path="url(#i8)"><polygon points="0,0 38.6252749,0 38.6252749,52.8513986 0,52.8513986 0,0" stroke="none" fill="#FFFFFF"></polygon></g></g><g transform="translate(43.03685512917724 0.0)"><g clip-path="url(#i9)"><polygon points="0,0 38.6245323,0 38.6245323,52.8513986 0,52.8513986 0,0" stroke="none" fill="#FFFFFF"></polygon></g></g></g></g></g></svg>