<svg width="768" height="224" viewBox="0 0 768 224" fill="none" xmlns="http://www.w3.org/2000/svg">
  <path fill-rule="evenodd" clip-rule="evenodd" d="M145.333 159.615H157.684V119.844H145.333V159.615ZM145.333 110.244H157.684V64.9873H145.333V110.244ZM117.888 159.615H130.239V99.2717H117.888V159.615Z" fill="#4A4A4A"/>
  <path fill-rule="evenodd" clip-rule="evenodd" d="M117.888 89.6748H130.239V64.9873H117.888V89.6748ZM90.4442 159.615H102.795V136.303H90.4442V159.615Z" fill="#46D7CE"/>
  <path fill-rule="evenodd" clip-rule="evenodd" d="M90.4442 126.703H102.795V64.9873H90.4442V126.703ZM63 159.615H75.351V64.9904H63V159.615Z" fill="#4A4A4A"/>
  <path fill-rule="evenodd" clip-rule="evenodd" d="M248.796 111.791V63.1968H258.183V158.172H248.799V150.616C245.669 154.656 239.803 159.737 230.288 159.737C216.599 159.737 203.954 150.094 203.954 131.072C203.954 112.444 216.468 102.8 230.285 102.8C240.716 102.8 246.32 108.534 248.796 111.791ZM231.33 111.141C222.074 111.141 213.601 117.916 213.601 131.072C213.601 142.669 220.117 151.397 231.33 151.397C242.802 151.397 249.318 141.887 249.318 131.203C249.318 117.266 239.672 111.141 231.33 111.141ZM321.073 111.791V104.103H330.46V158.172H321.073V150.616C317.946 154.656 312.077 159.737 302.562 159.737C288.873 159.737 276.228 150.094 276.228 131.072C276.228 112.444 288.745 102.8 302.562 102.8C312.99 102.8 318.596 108.534 321.073 111.791ZM303.606 111.141C294.351 111.141 285.877 117.916 285.877 131.072C285.877 142.669 292.394 151.397 303.606 151.397C315.076 151.397 321.595 141.887 321.595 131.203C321.595 117.266 311.949 111.141 303.606 111.141ZM370.927 112.703H361.54V158.172H352.154V112.703H346.419V104.103H352.154V84.5624H361.54V104.103H370.927V112.703ZM424.952 111.791V104.103H434.336V158.172H424.952V150.616C421.826 154.656 415.956 159.737 406.442 159.737C392.752 159.737 380.107 150.094 380.107 131.072C380.107 112.444 392.621 102.8 406.442 102.8C416.87 102.8 422.476 108.534 424.952 111.791ZM407.483 111.141C398.227 111.141 389.754 117.916 389.754 131.072C389.754 142.669 396.273 151.397 407.483 151.397C418.955 151.397 425.471 141.887 425.471 131.203C425.471 117.266 415.825 111.141 407.483 111.141ZM447.95 104.103H458.378L474.413 140.844L491.36 99.9374L508.176 140.844L524.342 104.103H534.77L507.917 161.95L491.229 121.562L474.544 161.95L447.95 104.106V104.103ZM573.674 159.737C557.249 159.737 544.994 147.75 544.994 131.331C544.994 114.919 557.117 102.8 573.674 102.8C590.23 102.8 602.353 114.919 602.353 131.331C602.353 147.75 590.099 159.737 573.674 159.737ZM573.674 111.141C563.765 111.141 554.641 118.175 554.641 131.334C554.641 144.622 564.028 151.397 573.674 151.397C583.451 151.397 592.707 144.491 592.707 131.334C592.707 118.044 583.583 111.141 573.674 111.141ZM612.578 104.103H623.006L639.04 140.844L655.988 99.9374L672.804 140.844L688.969 104.103H699.397L672.544 161.95L655.856 121.562L639.171 161.95L612.578 104.106V104.103Z" fill="#4A4A4A"/>
  </svg>
