<svg width="768" height="224" viewBox="0 0 768 224" fill="none" xmlns="http://www.w3.org/2000/svg">
<g clip-path="url(#clip0_1643_2)">
<path d="M526.808 99.4299C517.432 99.4299 507.947 102.051 507.947 121.822C507.947 129.577 509.037 134.493 511.545 137.66C514.27 141.265 518.849 142.904 525.826 142.904C529.969 142.904 536.947 142.467 540.98 141.811L541.634 141.702V135.476H527.789C519.612 135.476 516.887 133.291 516.887 126.847V124.553H538.691C542.071 124.553 544.142 122.259 544.142 118.873V116.361C544.251 105.001 538.364 99.4299 526.808 99.4299ZM535.529 117.562H516.887V115.924C516.887 111.882 518.304 106.967 525.063 106.967H528.443C534.439 106.967 535.638 110.571 535.638 116.033V117.562H535.529Z" fill="#3C3C3A"/>
<path d="M454.418 99.4299H452.347C439.7 99.4299 434.14 106.311 434.14 121.713C434.14 134.493 437.193 142.904 452.347 142.904H454.418C466.737 142.904 472.515 136.022 472.515 121.167C472.515 105.875 467.064 99.4299 454.418 99.4299ZM463.249 124.662C463.249 132.417 460.741 135.585 454.418 135.585H452.128C444.606 135.585 443.298 132.199 443.298 122.696V119.856C443.298 109.698 445.26 106.967 452.565 106.967H453.873C460.741 106.967 463.14 108.933 463.14 119.856V124.662H463.249Z" fill="#3C3C3A"/>
<path d="M372.652 99.4299C363.277 99.4299 353.792 102.051 353.792 121.822C353.792 129.577 354.882 134.493 357.39 137.66C360.115 141.265 364.694 142.904 371.671 142.904C375.814 142.904 382.791 142.467 386.825 141.811L387.479 141.702V135.476H373.634C365.457 135.476 362.732 133.291 362.732 126.847V124.553H384.536C387.915 124.553 389.987 122.259 389.987 118.873V116.361C390.096 105.001 384.209 99.4299 372.652 99.4299ZM381.374 117.562H362.732V115.924C362.732 111.882 364.149 106.967 370.908 106.967H374.288C380.284 106.967 381.483 110.571 381.483 116.033V117.562H381.374Z" fill="#3C3C3A"/>
<path d="M338.42 100.413H326.428C318.251 100.522 310.293 102.707 310.293 121.931C310.293 141.374 317.815 142.904 328.39 142.904C332.751 142.904 338.856 142.794 346.378 141.702L347.142 141.593V86.7593H338.42V100.413ZM338.42 135.257H328.717C321.413 135.257 319.45 132.854 319.45 124.007V119.091C319.45 111.008 322.067 108.168 329.371 108.168H338.42V135.257Z" fill="#3C3C3A"/>
<path d="M568.672 99.4299C564.202 99.4299 558.86 99.7576 554.935 100.413L554.281 100.522V107.076H569.326C574.886 107.076 576.848 108.933 576.848 114.285V116.361C572.269 115.705 567.799 115.487 563.875 115.487C557.115 115.487 548.067 117.016 548.067 130.014C548.067 142.139 555.48 143.122 565.183 143.122C569.544 143.122 578.156 142.685 584.589 141.593L585.243 141.484L585.352 114.285C585.243 101.178 577.393 99.4299 568.672 99.4299ZM576.739 135.257H563.111C558.751 135.257 557.115 133.837 557.115 130.124V128.594C557.115 124.771 559.078 123.024 563.548 123.024H576.739V135.257Z" fill="#3C3C3A"/>
<path d="M411.9 131.325L399.035 100.413H389.987L407.321 142.03H415.934L432.832 100.413H424.001L411.9 131.325Z" fill="#3C3C3A"/>
<path d="M490.286 129.577V107.294H502.932V100.413H493.447H490.395V88.9438V87.4146H482.218V88.9438V100.413H475.459V100.522V101.396V103.908V104.673V107.294H481.673V129.577C481.673 136.24 483.199 143.013 494.32 143.013C497.59 143.013 500.97 142.576 504.568 141.702L505.222 141.593V135.367H496.5C491.703 135.367 490.286 134.056 490.286 129.577Z" fill="#3C3C3A"/>
<path d="M635.719 99.3208C631.576 99.3208 626.343 99.9762 621.547 101.068C618.603 99.5393 615.005 99.43 611.626 99.43C603.667 99.43 594.182 101.068 594.182 101.068V142.03H603.013V107.185H611.19C617.186 107.185 618.93 109.152 618.93 115.815V142.03H627.761V113.521C627.761 111.008 627.434 109.042 626.78 107.404H634.411C641.17 107.404 643.242 109.479 643.242 116.033V142.03H651.963V113.739C651.963 99.3208 640.952 99.3208 635.719 99.3208Z" fill="#3C3C3A"/>
<path d="M194.186 32.1443C150.468 32.1443 114.928 67.6441 114.928 111.555C114.928 155.356 150.359 190.965 194.186 190.965C237.903 190.965 273.444 155.465 273.444 111.555C273.444 67.6441 238.012 32.1443 194.186 32.1443Z" fill="#F8485E"/>
<path d="M247.061 105.547H216.753V161.036H180.776C161.261 161.036 143.709 149.239 143.709 123.898C143.709 105.11 153.521 86.7593 180.776 86.7593H189.171C189.171 86.7593 192.55 95.9346 193.75 105.765H181.212C169.983 105.765 163.551 111.882 163.551 123.898C163.551 135.257 169.547 142.03 181.212 142.03H197.238V58.5779H216.644V86.7593H246.952V105.547H247.061Z" fill="white"/>
</g>
<defs>
<clipPath id="clip0_1643_2">
<rect width="768" height="224" fill="white"/>
</clipPath>
</defs>
</svg>
