<svg width="768" height="224" viewBox="0 0 768 224" fill="none" xmlns="http://www.w3.org/2000/svg">
<g clip-path="url(#clip0_1643_2)">
<path d="M504.122 103.39C496.263 103.39 488.313 105.586 488.313 122.146C488.313 128.643 489.227 132.76 491.329 135.413C493.613 138.433 497.451 139.805 503.3 139.805C506.772 139.805 512.621 139.439 516.002 138.89L516.55 138.799V133.583H504.945C498.091 133.583 495.806 131.753 495.806 126.355V124.434H514.083C516.916 124.434 518.652 122.512 518.652 119.676V117.572C518.743 108.056 513.809 103.39 504.122 103.39ZM511.433 118.578H495.806V117.206C495.806 113.82 496.994 109.703 502.66 109.703H505.493C510.519 109.703 511.524 112.722 511.524 117.297V118.578H511.433Z" fill="#3C3C3A"/>
<path d="M443.444 103.39H441.708C431.108 103.39 426.447 109.154 426.447 122.055C426.447 132.76 429.006 139.805 441.708 139.805H443.444C453.771 139.805 458.614 134.041 458.614 121.597C458.614 108.788 454.045 103.39 443.444 103.39ZM450.846 124.525C450.846 131.021 448.745 133.675 443.444 133.675H441.525C435.22 133.675 434.123 130.839 434.123 122.878V120.5C434.123 111.99 435.768 109.703 441.891 109.703H442.987C448.745 109.703 450.755 111.35 450.755 120.5V124.525H450.846Z" fill="#3C3C3A"/>
<path d="M374.907 103.39C367.049 103.39 359.098 105.586 359.098 122.146C359.098 128.643 360.012 132.76 362.114 135.413C364.398 138.433 368.237 139.805 374.085 139.805C377.558 139.805 383.406 139.439 386.787 138.89L387.335 138.799V133.583H375.73C368.876 133.583 366.592 131.753 366.592 126.355V124.434H384.868C387.701 124.434 389.437 122.512 389.437 119.676V117.572C389.529 108.056 384.594 103.39 374.907 103.39ZM382.218 118.578H366.592V117.206C366.592 113.82 367.78 109.703 373.445 109.703H376.278C381.304 109.703 382.309 112.722 382.309 117.297V118.578H382.218Z" fill="#3C3C3A"/>
<path d="M346.213 104.213H336.161C329.308 104.305 322.637 106.135 322.637 122.238C322.637 138.524 328.942 139.805 337.806 139.805C341.461 139.805 346.579 139.713 352.884 138.799L353.524 138.707V92.7764H346.213V104.213ZM346.213 133.4H338.08C331.958 133.4 330.313 131.387 330.313 123.976V119.859C330.313 113.088 332.506 110.709 338.629 110.709H346.213V133.4Z" fill="#3C3C3A"/>
<path d="M539.213 103.39C535.466 103.39 530.989 103.664 527.699 104.213L527.151 104.305V109.795H539.761C544.422 109.795 546.067 111.35 546.067 115.833V117.572C542.229 117.023 538.482 116.84 535.192 116.84C529.527 116.84 521.942 118.121 521.942 129.009C521.942 139.165 528.156 139.988 536.289 139.988C539.944 139.988 547.163 139.622 552.555 138.707L553.103 138.616L553.195 115.833C553.103 104.854 546.524 103.39 539.213 103.39ZM545.975 133.4H534.553C530.897 133.4 529.527 132.211 529.527 129.1V127.819C529.527 124.617 531.172 123.153 534.918 123.153H545.975V133.4Z" fill="#3C3C3A"/>
<path d="M407.805 130.107L397.022 104.213H389.437L403.967 139.073H411.186L425.351 104.213H417.949L407.805 130.107Z" fill="#3C3C3A"/>
<path d="M473.509 128.643V109.978H484.11V104.213H476.159H473.601V94.6064V93.3254H466.747V94.6064V104.213H461.081V104.305V105.037V107.141V107.782V109.978H466.29V128.643C466.29 134.224 467.569 139.897 476.89 139.897C479.632 139.897 482.465 139.531 485.48 138.799L486.029 138.707V133.492H478.718C474.697 133.492 473.509 132.394 473.509 128.643Z" fill="#3C3C3A"/>
<path d="M595.413 103.298C591.941 103.298 587.555 103.847 583.534 104.762C581.066 103.481 578.051 103.39 575.218 103.39C568.547 103.39 560.597 104.762 560.597 104.762V139.073H567.999V109.886H574.852C579.878 109.886 581.34 111.533 581.34 117.114V139.073H588.743V115.193C588.743 113.088 588.468 111.441 587.92 110.069H594.317C599.983 110.069 601.719 111.807 601.719 117.297V139.073H609.029V115.376C609.029 103.298 599.8 103.298 595.413 103.298Z" fill="#3C3C3A"/>
<path d="M225.314 47.0286C188.67 47.0286 158.879 76.7646 158.879 113.546C158.879 150.235 188.579 180.063 225.314 180.063C261.959 180.063 291.749 150.327 291.749 113.546C291.749 76.7646 262.05 47.0286 225.314 47.0286Z" fill="#F8485E"/>
<path d="M269.635 108.513H244.23V154.993H214.074C197.717 154.993 183.004 145.112 183.004 123.885C183.004 108.147 191.229 92.7762 214.074 92.7762H221.111C221.111 92.7762 223.944 100.462 224.949 108.696H214.44C205.027 108.696 199.636 113.82 199.636 123.885C199.636 133.4 204.662 139.073 214.44 139.073H227.873V69.1704H244.139V92.7762H269.543V108.513H269.635Z" fill="white"/>
</g>
<defs>
<clipPath id="clip0_1643_2">
<rect width="768" height="224" fill="white"/>
</clipPath>
</defs>
</svg>
