<svg width="768" height="224" viewBox="0 0 768 224" fill="none" xmlns="http://www.w3.org/2000/svg">
<g clip-path="url(#clip0_127_2)">
<path d="M450.185 101.938C446.355 101.938 442.95 105.388 442.95 109.269C442.95 113.15 446.213 116.6 450.185 116.6C454.016 116.6 457.279 113.15 457.279 109.269C457.279 105.244 454.016 101.938 450.185 101.938Z" fill="#009A44"/>
<path d="M338.954 101.938H334.414V108.981H338.954C341.508 108.981 342.643 107.113 342.643 105.388C342.643 103.663 341.508 101.938 338.954 101.938Z" fill="#009A44"/>
<path fill-rule="evenodd" clip-rule="evenodd" d="M291 112C291 60.6847 332.57 19 383.929 19C435.288 19 476.858 60.6847 476.858 112C476.858 163.315 435.288 205 383.929 205C332.57 205 291 163.315 291 112ZM437.842 109.125C437.842 116.025 443.375 121.487 450.185 121.487C456.996 121.487 462.529 116.025 462.529 109.125C462.529 102.226 456.996 96.7635 450.185 96.7635C443.375 96.7635 437.842 102.369 437.842 109.125ZM457.563 136.867C457.989 136.867 458.414 136.436 458.414 136.005V132.699C458.414 132.267 457.989 131.836 457.563 131.836H443.092C442.666 131.836 442.24 132.267 442.24 132.699V136.005C442.24 136.436 442.666 136.867 443.092 136.867H457.563ZM427.769 121.199C428.053 121.199 428.336 121.056 428.336 120.624V97.6259C428.336 97.3386 428.053 97.051 427.769 97.051H423.796C423.513 97.051 423.229 97.3386 423.229 97.6259V106.825H413.014V97.6259C413.014 97.3386 412.73 97.051 412.446 97.051H408.474C408.19 97.051 407.906 97.3386 407.906 97.6259V120.624C407.906 120.912 408.048 121.199 408.474 121.199H412.446C412.73 121.199 413.014 120.912 413.014 120.624V112H423.229V119.618C423.229 120.481 423.796 121.199 424.789 121.199H427.769ZM382.715 118.101C383.503 118.904 386.04 121.487 390.455 121.487C395.279 121.487 398.826 118.325 398.826 114.3C398.826 109.836 394.95 108.079 390.96 106.271C390.84 106.217 390.718 106.162 390.597 106.107C388.753 105.388 387.902 104.813 387.902 103.663C387.902 102.657 389.037 101.651 390.597 101.651C392.282 101.651 393.848 102.729 394.755 103.355C394.841 103.414 394.921 103.469 394.996 103.519C395.421 103.807 395.988 103.663 396.272 103.232L398.117 100.645C398.542 100.213 398.259 99.7821 397.975 99.4946C397.265 98.9196 394.57 96.7635 390.881 96.7635C385.49 96.7635 382.794 100.501 382.794 103.807C382.794 107.975 386.341 109.7 390.881 111.856L390.927 111.878C392.467 112.586 393.718 113.163 393.718 114.444C393.718 115.881 392.158 116.6 390.455 116.6C388.686 116.6 387.309 115.507 386.324 114.725C386.124 114.567 385.941 114.421 385.773 114.3C385.348 114.012 384.922 114.012 384.497 114.444L382.51 117.031C382.085 117.462 382.368 117.75 382.652 118.037C382.672 118.057 382.693 118.078 382.715 118.101ZM373.004 101.938C373.288 101.938 373.572 101.794 373.572 101.363H373.43V97.6259C373.43 97.3386 373.147 97.051 372.863 97.051H358.108C357.824 97.051 357.54 97.3386 357.54 97.6259V120.624C357.54 120.912 357.682 121.199 358.108 121.199H373.004C373.288 121.199 373.572 121.056 373.572 120.624V117.031C373.572 116.743 373.288 116.456 373.004 116.456H362.789V111.856H368.181C368.465 111.856 368.748 111.712 368.748 111.281V107.688C368.748 107.4 368.465 107.113 368.181 107.113H362.789V101.938H373.004ZM344.346 121.343H348.034C348.602 121.343 348.744 121.056 348.318 120.768L343.352 113.006C346.19 111.425 347.751 108.407 347.751 105.532C347.751 101.794 344.629 97.1948 339.664 97.1948H329.874C329.59 97.1948 329.307 97.4823 329.307 97.7696V120.768C329.307 121.056 329.449 121.343 329.874 121.343H333.847C334.13 121.343 334.414 121.199 334.414 120.768V113.869H338.529L342.359 120.05C342.643 120.481 343.494 121.343 344.346 121.343ZM320.652 101.938C320.936 101.938 321.22 101.794 321.22 101.363V97.6259C321.22 97.3386 320.936 97.051 320.652 97.051H306.039C305.755 97.051 305.471 97.3386 305.471 97.6259V119.618C305.471 120.624 306.039 121.199 307.032 121.199H310.011C310.295 121.199 310.579 121.056 310.579 120.624V111.856H315.828C316.112 111.856 316.396 111.712 316.396 111.281V107.688C316.396 107.4 316.112 107.113 315.828 107.113H310.579V101.938H320.652Z" fill="#009A44"/>
</g>
<defs>
<clipPath id="clip0_127_2">
<rect width="186" height="186" fill="white" transform="translate(291 19)"/>
</clipPath>
</defs>
</svg>
