<svg width="768" height="224" viewBox="0 0 768 224" fill="none" xmlns="http://www.w3.org/2000/svg">
<g clip-path="url(#clip0_134_2)">
<path d="M236.516 189.363H246.717V196.307C246.717 197.774 245.976 199.174 244.7 199.896C242.019 201.415 238.8 202.285 235.681 202.285C226.522 202.285 220.366 195.792 220.366 186.133C220.366 177.204 226.819 170.211 235.055 170.211C238.641 170.211 241.255 170.996 243.35 172.129C245.59 173.341 248.349 172.937 249.999 171C250.24 170.715 250.2 170.27 249.907 170.037C245.523 166.511 241.218 165.059 235.225 165.059C223.711 165.059 214.696 174.366 214.696 186.248C214.696 198.129 223.255 207.322 235.511 207.322C241.237 207.322 245.787 205.226 248.891 203.174C250.878 201.859 252.046 199.633 252.046 197.255V191.448C252.046 187.518 248.857 184.329 244.919 184.329H233.646C233.219 184.329 232.871 184.674 232.871 185.104V185.729C232.871 187.741 234.502 189.366 236.512 189.366L236.516 189.363Z" fill="#28D2AF"/>
<path d="M274.167 188.563H295.308C295.675 188.563 295.972 188.267 295.972 187.9V184.13C295.972 183.763 295.675 183.467 295.308 183.467H274.167V170.833H295.771C297.299 170.833 298.538 169.596 298.538 168.07V166.404C298.538 166.037 298.241 165.741 297.874 165.741H275.787C271.853 165.741 268.66 168.926 268.66 172.859V199.522C268.66 203.452 271.849 206.641 275.787 206.641H298.156C298.523 206.641 298.82 206.344 298.82 205.978V204.204C298.82 202.737 297.629 201.544 296.157 201.544H274.159V188.567L274.167 188.563Z" fill="#28D2AF"/>
<path d="M314.09 170.893H324.919V205.974C324.919 206.341 325.215 206.637 325.583 206.637H329.814C330.181 206.637 330.478 206.341 330.478 205.974V170.893H341.302C342.73 170.893 343.887 169.737 343.887 168.311V166.404C343.887 166.037 343.59 165.741 343.223 165.741H312.166C311.799 165.741 311.502 166.037 311.502 166.404V168.311C311.502 169.737 312.659 170.893 314.087 170.893H314.09Z" fill="#28D2AF"/>
<path d="M361.576 165.741H359.462C359.095 165.741 358.798 166.037 358.798 166.404V199.519C358.798 203.448 361.987 206.637 365.926 206.637H386.132C386.496 206.637 386.789 206.344 386.789 205.981V204.167C386.789 202.685 385.587 201.485 384.104 201.485H367.832C365.881 201.485 364.301 199.907 364.301 197.959V168.463C364.301 166.963 363.081 165.744 361.579 165.744L361.576 165.741Z" fill="#788796"/>
<path d="M404.663 206.637H406.814C407.181 206.637 407.477 206.341 407.477 205.974V168.415C407.477 166.937 406.28 165.741 404.8 165.741H402.701C402.301 165.741 401.978 166.063 401.978 166.463V203.956C401.978 205.437 403.179 206.637 404.663 206.637V206.637Z" fill="#788796"/>
<path d="M455.029 196.789L433.25 169.115C431.574 166.985 429.012 165.741 426.297 165.741C425.93 165.741 425.633 166.037 425.633 166.404V204.211C425.633 205.552 426.72 206.637 428.062 206.637H430.354C430.721 206.637 431.018 206.341 431.018 205.974V174.848L453.813 203.759C455.245 205.578 457.432 206.637 459.75 206.637C460.117 206.637 460.414 206.341 460.414 205.974V168.315C460.414 166.893 459.261 165.741 457.837 165.741H455.693C455.326 165.741 455.029 166.037 455.029 166.404V196.789V196.789Z" fill="#788796"/>
<path d="M510.428 165.741H509.004C506.316 165.741 503.742 166.833 501.877 168.77L483.68 188.837V168.622C483.68 167.033 482.39 165.744 480.799 165.744H478.844C478.477 165.744 478.181 166.041 478.181 166.407V203.311C478.181 205.148 479.675 206.641 481.514 206.641H483.016C483.383 206.641 483.68 206.344 483.68 205.978V196.726C483.68 196.026 483.958 195.352 484.451 194.852L491.649 187.567L502.526 202.67C504.517 205.178 507.547 206.641 510.755 206.641H511.225C511.782 206.641 512.09 206 511.745 205.567L495.491 183.719L510.907 166.87C511.318 166.452 511.022 165.744 510.432 165.744L510.428 165.741Z" fill="#788796"/>
<path d="M539.902 183.541C531.065 181.648 529.448 179.589 529.448 176.211C529.448 172.833 532.741 170.207 537.458 170.207C540.214 170.207 542.724 170.807 545.138 172.07C547.33 173.211 550.018 172.674 551.52 170.711C551.743 170.419 551.683 169.989 551.394 169.767C547.196 166.552 543.025 165.17 537.577 165.17C529.682 165.17 523.953 169.982 523.953 176.611C523.953 184.13 529.471 186.867 537.759 188.67C546.21 190.448 547.756 192.474 547.756 195.822C547.756 199.619 544.374 202.167 539.346 202.167C535.567 202.167 532.478 201.307 529.389 199.307C527.309 197.959 524.564 198.304 522.951 200.185C522.714 200.467 522.747 200.9 523.025 201.137C527.857 205.27 533.008 207.204 539.172 207.204C547.627 207.204 553.308 202.444 553.308 195.363C553.308 189.119 549.299 185.582 539.906 183.537L539.902 183.541Z" fill="#788796"/>
<path d="M332.369 106.137C332.369 106.137 332.354 106.108 332.343 106.097L332.317 106.137H332.365H332.369Z" fill="url(#paint0_linear_134_2)"/>
<path d="M383.967 16.7039H383.985V16.6816L383.967 16.7076V16.7039Z" fill="url(#paint1_linear_134_2)"/>
<path d="M435.635 106.126C435.635 106.126 435.631 106.133 435.627 106.137H435.642L435.635 106.126Z" fill="url(#paint2_linear_134_2)"/>
<path d="M438.568 100.382C441.835 93.0115 443.663 84.8671 443.663 76.2893C443.663 45.5559 420.364 20.2634 390.445 17.0522L416.125 61.5189L438.568 100.378V100.382Z" fill="url(#paint3_linear_134_2)"/>
<path d="M360.493 57.3559H407.474L383.996 16.7041C383.996 16.7041 383.978 16.7041 383.97 16.7041L360.493 57.3559V57.3559Z" fill="url(#paint4_linear_134_2)"/>
<path d="M412.154 65.4595L388.665 106.137H435.631V106.13L412.154 65.4595Z" fill="url(#paint5_linear_134_2)"/>
<path d="M324.34 76.2892C324.34 84.8522 326.161 92.9892 329.421 100.348L377.522 17.0596C347.621 20.2855 324.34 45.5707 324.34 76.2892V76.2892Z" fill="url(#paint6_linear_134_2)"/>
<path d="M335.899 111.53C346.757 126.289 364.257 135.874 384 135.874C403.743 135.874 421.243 126.289 432.101 111.53H335.899Z" fill="url(#paint7_linear_134_2)"/>
<path d="M379.302 106.137L355.813 65.4595L332.347 106.093C332.347 106.093 332.361 106.122 332.373 106.134H379.302V106.137Z" fill="url(#paint8_linear_134_2)"/>
<path d="M407.474 62.7485H360.493L383.981 103.426L407.474 62.7485Z" fill="url(#paint9_linear_134_2)"/>
</g>
<defs>
<linearGradient id="paint0_linear_134_2" x1="332.321" y1="106.115" x2="332.369" y2="106.115" gradientUnits="userSpaceOnUse">
<stop stop-color="#28D2AF"/>
<stop offset="1" stop-color="#008CC8"/>
</linearGradient>
<linearGradient id="paint1_linear_134_2" x1="383.967" y1="16.6927" x2="383.985" y2="16.6927" gradientUnits="userSpaceOnUse">
<stop stop-color="#28D2AF"/>
<stop offset="1" stop-color="#008CC8"/>
</linearGradient>
<linearGradient id="paint2_linear_134_2" x1="435.627" y1="106.13" x2="435.642" y2="106.13" gradientUnits="userSpaceOnUse">
<stop stop-color="#28D2AF"/>
<stop offset="1" stop-color="#008CC8"/>
</linearGradient>
<linearGradient id="paint3_linear_134_2" x1="324.337" y1="58.7189" x2="443.663" y2="58.7189" gradientUnits="userSpaceOnUse">
<stop stop-color="#28D2AF"/>
<stop offset="1" stop-color="#008CC8"/>
</linearGradient>
<linearGradient id="paint4_linear_134_2" x1="324.34" y1="37.03" x2="443.66" y2="37.03" gradientUnits="userSpaceOnUse">
<stop stop-color="#28D2AF"/>
<stop offset="1" stop-color="#008CC8"/>
</linearGradient>
<linearGradient id="paint5_linear_134_2" x1="324.34" y1="85.8002" x2="443.66" y2="85.8002" gradientUnits="userSpaceOnUse">
<stop stop-color="#28D2AF"/>
<stop offset="1" stop-color="#008CC8"/>
</linearGradient>
<linearGradient id="paint6_linear_134_2" x1="324.34" y1="58.704" x2="443.663" y2="58.704" gradientUnits="userSpaceOnUse">
<stop stop-color="#28D2AF"/>
<stop offset="1" stop-color="#008CC8"/>
</linearGradient>
<linearGradient id="paint7_linear_134_2" x1="324.337" y1="123.704" x2="443.663" y2="123.704" gradientUnits="userSpaceOnUse">
<stop stop-color="#28D2AF"/>
<stop offset="1" stop-color="#008CC8"/>
</linearGradient>
<linearGradient id="paint8_linear_134_2" x1="324.337" y1="85.8002" x2="443.663" y2="85.8002" gradientUnits="userSpaceOnUse">
<stop stop-color="#28D2AF"/>
<stop offset="1" stop-color="#008CC8"/>
</linearGradient>
<linearGradient id="paint9_linear_134_2" x1="324.34" y1="83.0856" x2="443.663" y2="83.0856" gradientUnits="userSpaceOnUse">
<stop stop-color="#28D2AF"/>
<stop offset="1" stop-color="#008CC8"/>
</linearGradient>
<clipPath id="clip0_134_2">
<rect width="768" height="224" fill="white"/>
</clipPath>
</defs>
</svg>
