<svg width="768" height="224" viewBox="0 0 768 224" fill="none" xmlns="http://www.w3.org/2000/svg">
<path fill-rule="evenodd" clip-rule="evenodd" d="M371.488 68.8858V150.004C371.488 159.701 369.409 167.561 365.537 173.637C361.666 179.71 355.669 184.877 347.258 188.967L337.906 171.934C341.048 169.712 343.554 167.591 345.345 165.547C347.139 163.502 348.329 160.902 349.171 158.095C350.011 155.294 350.446 152.692 350.446 150.004V68.8858H371.488ZM408.683 38.8656V70.802H427.387V88.2605H408.683V130.842C408.683 133.51 409.371 135.335 410.596 136.378C411.821 137.421 413.39 138.081 415.059 138.081C419.179 138.081 422.681 136.894 425.686 134.462L431 149.791C428.441 151.762 425.276 153.415 421.436 154.688C417.595 155.967 413.552 156.604 409.321 156.604C404.866 156.604 400.971 155.752 397.631 153.837C394.29 151.924 391.853 149.208 390.404 145.959C388.959 142.713 388.279 139.254 388.279 135.313V38.8656H408.683ZM360.329 35.0332C366.962 35.0332 372.338 40.4189 372.338 47.0626C372.338 53.7062 366.962 59.092 360.329 59.092C353.697 59.092 348.321 53.7062 348.321 47.0626C348.321 40.4189 353.697 35.0332 360.329 35.0332Z" fill="#1C97F5"/>
</svg>
