<svg width="768" height="224" viewBox="0 0 768 224" fill="none" xmlns="http://www.w3.org/2000/svg">
<path d="M278.07 57.4226H260.203V166.47H278.07V57.4226Z" fill="black"/>
<path d="M181.9 56C170.844 56 160.036 59.2869 150.844 65.445C141.651 71.6031 134.486 80.3558 130.255 90.5963C126.024 100.837 124.917 112.105 127.074 122.977C129.231 133.848 134.555 143.834 142.373 151.672C150.191 159.509 160.151 164.847 170.994 167.009C181.838 169.172 193.078 168.062 203.292 163.82C213.506 159.578 222.237 152.395 228.379 143.179C234.522 133.963 237.8 123.127 237.8 112.043C237.8 97.1796 231.911 82.9248 221.427 72.4146C210.944 61.9045 196.726 56 181.9 56V56ZM181.9 150.433C174.308 150.445 166.884 148.199 160.566 143.979C154.249 139.758 149.323 133.753 146.412 126.724C143.501 119.695 142.736 111.958 144.213 104.492C145.691 97.0269 149.346 90.1691 154.714 84.7873C160.082 79.4055 166.922 75.7417 174.368 74.26C181.815 72.7783 189.532 73.5453 196.544 76.4638C203.555 79.3823 209.545 84.3211 213.754 90.6548C217.964 96.9885 220.204 104.432 220.192 112.043C220.174 122.219 216.135 131.974 208.957 139.17C201.78 146.365 192.05 150.416 181.9 150.433V150.433Z" fill="black"/>
<path d="M624.133 57.4226V158.731C624.133 160.24 623.273 160.52 622.521 160.52C622.109 160.54 621.703 160.412 621.376 160.159C621.049 159.906 620.823 159.546 620.736 159.141L581.262 57.3795H543.637V166.448H561.504V65.1393C561.504 63.6305 562.385 63.3503 563.138 63.3503C563.548 63.3394 563.95 63.4706 564.275 63.7219C564.6 63.9732 564.829 64.3292 564.922 64.7298L604.375 166.534H642V57.4226H624.133Z" fill="black"/>
<path d="M391.654 57.4226L357.254 159.292C357.128 159.665 356.887 159.988 356.567 160.217C356.246 160.445 355.863 160.566 355.47 160.563C355.082 160.567 354.703 160.446 354.389 160.216C354.075 159.987 353.844 159.663 353.728 159.292L319.156 57.4657H300.301L337.216 166.534H373.551L410.467 57.4657H391.654V57.4226Z" fill="black"/>
<path d="M429.881 166.534L464.367 64.622C464.491 64.2471 464.73 63.9216 465.051 63.6928C465.372 63.4641 465.758 63.3441 466.152 63.3502C466.533 63.3523 466.904 63.477 467.21 63.7059C467.515 63.9347 467.74 64.2558 467.85 64.622L502.25 166.448H521.105L484.297 57.4226H447.984L411.047 166.491H429.881V166.534Z" fill="black"/>
</svg>
