<?xml version="1.0" encoding="UTF-8"?> <svg xmlns="http://www.w3.org/2000/svg" width="240" height="51.96" viewBox="0 0 240 51.96"><g id="Layer_2" data-name="Layer 2"><g id="Content"><rect x="62.42" y="0.66" width="8.31" height="50.59"></rect><path d="M26,0A26,26,0,1,0,52,26,26,26,0,0,0,26,0Zm0,43.81A17.84,17.84,0,1,1,43.81,26,17.84,17.84,0,0,1,26,43.81Z"></path><path d="M231.69.66v47c0,.7-.4.83-.75.83a.81.81,0,0,1-.83-.64L211.75.64h-17.5v50.6h8.31v-47c0-.7.41-.83.76-.83a.83.83,0,0,1,.83.64L222.5,51.28H240V.66Z"></path><path d="M123.56.66l-16,47.26a.87.87,0,0,1-.83.59.84.84,0,0,1-.81-.59L89.84.68H81.07l17.17,50.6h16.9L132.31.68h-8.75Z"></path><path d="M141.34,51.28,157.38,4a.86.86,0,0,1,.83-.59A.83.83,0,0,1,159,4l16,47.24h8.77L166.65.66H149.76l-17.18,50.6h8.76Z"></path></g></g></svg> 