<svg width="768" height="224" viewBox="0 0 768 224" fill="none" xmlns="http://www.w3.org/2000/svg">
<g clip-path="url(#clip0_113_2)">
<path d="M311.922 20.2334V26.316C311.79 26.9971 311.517 27.6434 311.122 28.2142L310.824 28.6024L305.956 35.1165L305.702 35.467C305.209 36.0738 304.587 36.5631 303.88 36.899C303.174 37.2349 302.4 37.4089 301.618 37.4083H294.586V20.2334H311.922Z" fill="#EE4036"/>
<path d="M442.582 48.1015V100.316C442.588 102.382 441.976 104.402 440.824 106.119L440.245 106.906L430.665 120.074L430.162 120.775C429.215 121.998 428 122.988 426.609 123.671C425.219 124.353 423.69 124.709 422.14 124.712H396.468C397.652 124.715 398.82 124.446 399.882 123.924C400.943 123.402 401.869 122.641 402.586 121.703L402.97 121.163L408.304 113.803V55.2681H362.72V83.8101C362.723 85.4617 363.056 87.0961 363.701 88.6175C364.345 90.1389 365.288 91.5167 366.474 92.6699C368.358 94.4913 370.748 95.7067 373.333 96.1588C373.878 96.1573 374.422 96.2134 374.956 96.326V96.326H374.999H382.448C383.208 96.3252 383.961 96.474 384.663 96.7637C385.366 97.0534 386.004 97.4784 386.542 98.0143C387.079 98.5503 387.506 99.1866 387.796 99.887C388.087 100.587 388.236 101.338 388.235 102.096V124.776H374.945C373.288 124.779 371.649 125.111 370.123 125.754C368.596 126.396 367.214 127.336 366.058 128.519C364.226 130.396 363.006 132.781 362.558 135.362V135.421C362.554 135.965 362.496 136.507 362.385 137.039V137.039V137.087C362.13 138.459 361.602 139.767 360.832 140.932L360.243 141.709L350.701 154.888L350.209 155.594C349.264 156.811 348.054 157.797 346.669 158.477C345.285 159.158 343.763 159.514 342.219 159.52H328.415V55.0092L355.78 46.2735L362.72 20.3899H416.585C418.136 20.3922 419.666 20.7493 421.056 21.4336C422.447 22.118 423.662 23.1113 424.607 24.3371L425.11 25.0382L440.256 41.512L440.835 42.2993C441.98 44.0186 442.588 46.0378 442.582 48.1015V48.1015Z" fill="url(#paint0_linear_113_2)"/>
<path d="M362.72 20.3735V55.1115H328.42V44.7688C328.417 42.7039 329.029 40.6844 330.178 38.9666L330.757 38.1847L340.342 25.0164L340.845 24.31C341.791 23.0868 343.005 22.096 344.395 21.4136C345.785 20.7312 347.313 20.3754 348.862 20.3735H362.72Z" fill="#EE4036"/>
<path d="M293.19 177.509L293.028 177.395L290.004 175.201L289.831 175.066C289.565 174.891 289.267 174.77 288.955 174.71H275.61C275.297 174.77 275 174.891 274.734 175.066L274.561 175.201L271.537 177.395L271.375 177.509C271.097 177.727 270.872 178.004 270.717 178.321C270.562 178.637 270.479 178.984 270.477 179.337V182.513V190.456V198.388H270.542V206.299H273.722C274.077 206.297 274.426 206.216 274.745 206.061C275.063 205.906 275.342 205.681 275.561 205.404L275.68 205.242L277.876 202.233L278.006 202.06C278.186 201.797 278.307 201.5 278.363 201.187V193.443C278.428 193.697 278.536 193.938 278.682 194.155L278.823 194.328L281.068 197.32L281.182 197.482C281.41 197.761 281.698 197.986 282.025 198.141C282.351 198.296 282.708 198.376 283.069 198.377H289.382C289.736 198.375 290.085 198.293 290.404 198.138C290.722 197.983 291.001 197.759 291.221 197.482L291.329 197.32L293.536 194.311L293.666 194.139C293.842 193.872 293.963 193.574 294.023 193.26V190.456H294.055V182.513H294.088V179.337C294.085 178.984 294.003 178.637 293.848 178.321C293.692 178.004 293.467 177.727 293.19 177.509ZM286.201 190.488H278.363V190.456V182.653H286.196V190.456H286.228L286.201 190.488Z" fill="#2B388F"/>
<path d="M356.462 182.513H356.494V179.337C356.494 178.984 356.413 178.636 356.257 178.319C356.101 178.002 355.875 177.725 355.596 177.509L355.434 177.395L352.421 175.201L352.242 175.066C351.975 174.89 351.675 174.769 351.361 174.71H348.548H340.834H338.038C337.725 174.769 337.427 174.89 337.162 175.066L336.978 175.195L333.975 177.385L333.813 177.498C333.535 177.715 333.309 177.992 333.153 178.309C332.998 178.626 332.916 178.973 332.915 179.326V198.356V201.208C332.976 201.523 333.098 201.823 333.272 202.093L333.418 202.265L335.642 205.274L335.755 205.425C335.977 205.707 336.261 205.935 336.584 206.092C336.907 206.249 337.262 206.33 337.621 206.331H340.802H348.662H351.842C352.198 206.331 352.548 206.251 352.868 206.096C353.188 205.94 353.468 205.715 353.687 205.436L353.8 205.274L355.996 202.254L356.126 202.082C356.308 201.816 356.43 201.515 356.483 201.198V198.388L356.462 182.513ZM348.575 198.388H340.802V182.513H340.834H348.548H348.575V198.388Z" fill="#2B388F"/>
<path d="M387.797 182.513V179.337C387.795 178.984 387.712 178.637 387.557 178.321C387.402 178.004 387.177 177.727 386.899 177.509L386.732 177.395L383.713 175.201L383.54 175.066C383.274 174.891 382.976 174.77 382.664 174.71H379.867H372.132H369.33C369.017 174.769 368.719 174.89 368.454 175.066L368.281 175.195L365.262 177.417L365.1 177.53C364.82 177.746 364.593 178.023 364.437 178.34C364.281 178.657 364.201 179.005 364.202 179.358V206.32H372.089H379.932H383.113C383.467 206.321 383.816 206.241 384.134 206.086C384.452 205.931 384.73 205.705 384.947 205.425L385.06 205.263L387.262 202.244L387.397 202.071C387.576 201.804 387.698 201.503 387.754 201.187V198.377V182.513H387.797ZM379.867 198.388H372.105V182.513H372.132H379.867V198.388Z" fill="#2B388F"/>
<path d="M427.025 182.513H419.311H419.279V198.388H426.96V190.585H429.778C430.09 190.648 430.387 190.769 430.655 190.941L430.838 191.076L433.851 193.271L434.014 193.384C434.294 193.601 434.521 193.879 434.677 194.196C434.833 194.514 434.913 194.864 434.912 195.217V198.388H434.949V201.208C434.896 201.525 434.774 201.827 434.592 202.093L434.463 202.265L432.266 205.285L432.147 205.447C431.93 205.726 431.651 205.952 431.332 206.107C431.013 206.263 430.663 206.343 430.308 206.342H427.128H419.268H416.066C415.706 206.341 415.352 206.259 415.028 206.103C414.705 205.946 414.422 205.718 414.2 205.436L414.086 205.285L411.863 202.276L411.728 202.104C411.545 201.838 411.421 201.537 411.365 201.219V198.421V179.358C411.364 179.005 411.444 178.657 411.6 178.34C411.756 178.023 411.983 177.746 412.263 177.53L412.425 177.417L415.428 175.228L415.611 175.098C415.873 174.922 416.167 174.801 416.477 174.742H419.284H426.998H429.811C430.124 174.802 430.421 174.923 430.687 175.098L430.865 175.233L433.884 177.428L434.046 177.541C434.324 177.759 434.548 178.037 434.704 178.353C434.859 178.67 434.941 179.017 434.944 179.369V182.545L427.025 182.513Z" fill="#2B388F"/>
<path d="M400.92 205.274L403.176 202.26L403.316 202.077C403.492 201.814 403.611 201.519 403.668 201.208V198.394V190.424H395.651V206.315H398.897C399.26 206.316 399.619 206.236 399.947 206.08C400.274 205.924 400.563 205.697 400.79 205.415L400.92 205.274Z" fill="#2B388F"/>
<path d="M400.806 181.887L400.92 181.725L403.176 178.711L403.316 178.533C403.498 178.266 403.623 177.965 403.684 177.649V174.834H395.651V182.788H398.897C399.263 182.792 399.625 182.712 399.956 182.556C400.286 182.4 400.577 182.172 400.806 181.887V181.887Z" fill="#2B388F"/>
<path d="M465.804 179.337V182.513H465.771V190.456H465.739V193.255C465.683 193.571 465.561 193.872 465.382 194.139L465.252 194.311L463.05 197.331L462.937 197.493C462.719 197.772 462.44 197.997 462.121 198.152C461.802 198.308 461.452 198.388 461.098 198.388H457.917V201.208C457.858 201.524 457.737 201.825 457.56 202.093L457.414 202.265L455.223 205.285L455.11 205.447C454.89 205.725 454.61 205.951 454.291 206.106C453.971 206.261 453.62 206.342 453.265 206.342H450.079V198.388V195.875C449.857 194.534 449.218 193.296 448.251 192.338C447.298 191.399 446.081 190.771 444.762 190.537C444.505 190.534 444.25 190.507 443.999 190.456H442.252V182.513V179.358C442.251 179.005 442.331 178.657 442.487 178.34C442.642 178.023 442.869 177.746 443.15 177.53L443.301 177.417L446.314 175.228L446.487 175.098C446.753 174.924 447.051 174.803 447.364 174.742H450.171V182.513V190.423H457.944V182.513H457.917V174.71H460.73C461.043 174.769 461.34 174.89 461.606 175.066L461.779 175.201L464.803 177.395L464.965 177.509C465.232 177.733 465.445 178.013 465.59 178.329C465.735 178.645 465.808 178.989 465.804 179.337V179.337Z" fill="#2B388F"/>
<path d="M481.69 206.029H487.927C487.655 205.973 487.378 205.944 487.1 205.943V205.943C485.781 205.71 484.565 205.084 483.611 204.147C483.007 203.552 482.527 202.843 482.2 202.062C481.872 201.281 481.703 200.443 481.701 199.596V198.016H473.696V200.853C473.755 201.169 473.878 201.47 474.058 201.737L474.199 201.915L476.444 204.951L476.557 205.118C476.783 205.4 477.069 205.627 477.395 205.784C477.721 205.941 478.078 206.023 478.44 206.024L481.69 206.029Z" fill="#EE4036"/>
<path d="M322.183 197.617L322.308 197.45L324.542 194.392L324.693 194.198C324.876 193.932 325.002 193.631 325.061 193.314V179.293C325.061 178.934 324.978 178.579 324.819 178.256C324.659 177.934 324.428 177.652 324.142 177.433L323.979 177.309L320.907 175.087L320.723 174.953C320.455 174.77 320.15 174.647 319.83 174.591H306.269C305.955 174.648 305.656 174.771 305.393 174.953L305.215 175.087L302.229 177.314L302.067 177.439C301.787 177.662 301.561 177.945 301.406 178.267C301.251 178.589 301.17 178.942 301.169 179.299V182.534V206.331H304.414C304.774 206.33 305.13 206.249 305.454 206.092C305.778 205.935 306.062 205.707 306.286 205.425L306.394 205.274L308.622 202.265L308.763 202.093C308.941 201.823 309.062 201.52 309.12 201.203V193.292C309.187 193.57 309.3 193.834 309.456 194.074L309.602 194.247L311.846 197.239L311.955 197.401C312.184 197.68 312.472 197.904 312.798 198.059C313.124 198.214 313.481 198.295 313.842 198.296H317.088V198.512V206.261H325.034V203.096C325.034 202.741 324.953 202.392 324.797 202.073C324.642 201.755 324.416 201.476 324.136 201.257L323.974 201.144L320.966 198.96L320.782 198.825C320.575 198.688 320.347 198.586 320.106 198.523H320.323C320.681 198.521 321.035 198.439 321.357 198.282C321.679 198.125 321.961 197.898 322.183 197.617V197.617ZM317.072 190.423H309.158V182.524H317.072V190.423Z" fill="#2B388F"/>
<path d="M497.55 178.965V198.011H497.523V200.847C497.464 201.168 497.339 201.473 497.155 201.742L497.02 201.915L494.797 204.983L494.683 205.145C494.464 205.427 494.183 205.656 493.861 205.813C493.54 205.97 493.186 206.051 492.828 206.051H489.615V198.011H489.582V195.816C489.433 194.33 488.769 192.942 487.705 191.89C486.753 190.953 485.535 190.329 484.217 190.1C483.94 190.1 483.664 190.069 483.394 190.008V190.008H489.637V182.157H489.577H481.685V190.132H478.44C478.076 190.135 477.718 190.054 477.39 189.897C477.063 189.74 476.776 189.511 476.552 189.227L476.438 189.065L474.193 186.034L474.053 185.851C473.872 185.583 473.747 185.283 473.685 184.967L473.712 182.125V178.954C473.713 178.601 473.795 178.252 473.95 177.935C474.106 177.617 474.331 177.339 474.61 177.121L474.777 177.013L477.774 174.786L477.958 174.645C478.224 174.471 478.522 174.35 478.834 174.29H492.357C492.675 174.344 492.978 174.465 493.245 174.645L493.418 174.775L496.468 176.986L496.631 177.104C496.917 177.323 497.149 177.605 497.309 177.928C497.468 178.25 497.551 178.605 497.55 178.965V178.965Z" fill="url(#paint1_linear_113_2)"/>
</g>
<defs>
<linearGradient id="paint0_linear_113_2" x1="311.527" y1="18.605" x2="428.693" y2="151.237" gradientUnits="userSpaceOnUse">
<stop offset="0.25" stop-color="#E9483A"/>
<stop offset="0.31" stop-color="#AB4259"/>
<stop offset="0.37" stop-color="#793D73"/>
<stop offset="0.41" stop-color="#543A85"/>
<stop offset="0.45" stop-color="#3E3890"/>
<stop offset="0.48" stop-color="#363794"/>
</linearGradient>
<linearGradient id="paint1_linear_113_2" x1="479.651" y1="196.102" x2="497.624" y2="178.073" gradientUnits="userSpaceOnUse">
<stop offset="0.03" stop-color="#E9483A"/>
<stop offset="0.39" stop-color="#363794"/>
</linearGradient>
<clipPath id="clip0_113_2">
<rect width="768" height="224" fill="white"/>
</clipPath>
</defs>
</svg>
