<svg width="768" height="224" viewBox="0 0 768 224" fill="none" xmlns="http://www.w3.org/2000/svg">
<path d="M395.861 36.9443H360.657V97.2489H395.861V36.9443Z" fill="white"/>
<path fill-rule="evenodd" clip-rule="evenodd" d="M381.101 115.929C386.109 115.929 390.947 115.193 395.511 113.823C399.233 128.073 412.144 138.586 427.501 138.586C445.765 138.586 460.569 123.716 460.569 105.372C460.569 95.7139 456.465 87.0184 449.912 80.9492C454.572 76.6657 457.495 70.5066 457.495 63.6621C457.495 50.7222 447.05 40.2323 434.165 40.2323C431.117 40.2323 428.206 40.8194 425.536 41.8875C417.107 25.8955 400.371 15 381.101 15C366.396 15 353.167 21.3443 343.979 31.4563C341.856 30.801 339.602 30.4481 337.265 30.4481C324.664 30.4481 314.449 40.7076 314.449 53.3631C314.449 54.6106 314.549 55.8349 314.74 57.0285C304.135 63.292 297.017 74.8722 297.017 88.122C297.017 108.03 313.086 124.168 332.907 124.168C343.887 124.168 353.715 119.216 360.298 111.414C366.637 114.313 373.681 115.929 381.101 115.929ZM388.367 62.6075L388.366 62.6082C384.13 68.5956 377.779 77.5706 373.667 75.5058C369.052 73.1886 369.822 61.0873 371.103 54.1358C372.385 47.1838 379.563 35.2116 387.51 39.2021C395.457 43.1931 393.919 54.908 389.817 60.5724C389.37 61.1891 388.885 61.8761 388.367 62.6075ZM378.025 87.6069C378.025 91.8728 374.582 95.331 370.334 95.331C366.087 95.331 362.644 91.8728 362.644 87.6069C362.644 83.341 366.087 79.8828 370.334 79.8828C374.582 79.8828 378.025 83.341 378.025 87.6069Z" fill="#F26721"/>
<path d="M172.896 170.352V199.414H180.261V191.235H185.516C192.923 191.235 197.185 187.291 197.185 180.482C197.185 174.005 192.923 170.352 185.516 170.352H172.896ZM180.261 176.164H185.144C188.371 176.164 190.233 177.7 190.233 180.731C190.233 183.803 188.371 185.422 185.144 185.422H180.261V176.164ZM230.687 199.414H239.045L232.963 189.823C236.356 188.121 238.217 184.924 238.217 180.482C238.217 174.005 233.832 170.352 226.177 170.352H213.226V199.414H220.591V191.235H226.177H226.384L230.687 199.414ZM220.591 185.422V176.164H226.177C229.363 176.164 231.225 177.7 231.225 180.731C231.225 183.803 229.363 185.422 226.177 185.422H220.591ZM269.111 170.103C260.173 170.103 253.47 176.372 253.47 184.841C253.47 193.352 260.173 199.746 269.111 199.746C278.09 199.746 284.793 193.311 284.793 184.841C284.793 176.413 278.09 170.103 269.111 170.103ZM269.194 176.289C273.662 176.289 277.221 179.984 277.221 184.883C277.221 189.782 273.662 193.56 269.194 193.56C264.766 193.56 261.001 189.782 261.001 184.883C261.001 179.984 264.725 176.289 269.194 176.289ZM326.943 170.352H319.619V187.208C319.619 191.152 317.261 193.56 313.785 193.56C310.268 193.56 307.744 191.152 307.744 187.208V170.352H300.379V187.208C300.379 194.888 305.592 199.746 313.744 199.746C321.853 199.746 326.943 194.888 326.943 187.208V170.352ZM344.438 170.352V199.414H356.602C365.912 199.414 372.284 193.477 372.284 184.883C372.284 176.247 365.995 170.352 356.892 170.352H344.438ZM351.803 176.247H356.726C361.402 176.247 364.795 179.776 364.795 184.924C364.795 190.031 361.568 193.518 357.057 193.518H351.803V176.247ZM401.41 170.103C392.596 170.103 385.935 176.413 385.935 184.8C385.935 193.311 392.431 199.746 401.161 199.746C405.423 199.746 410.016 197.628 413.118 194.432L408.816 189.865C406.789 191.941 403.975 193.269 401.534 193.269C396.941 193.269 393.465 189.574 393.465 184.717C393.465 179.942 396.941 176.289 401.534 176.289C404.099 176.289 406.913 177.742 408.816 180.067L413.077 175.002C410.182 172.012 405.713 170.103 401.41 170.103ZM436.058 193.228V170.352H428.692V199.414H448.346V193.228H436.058ZM477.789 170.103C468.852 170.103 462.15 176.372 462.15 184.841C462.15 193.352 468.852 199.746 477.789 199.746C486.769 199.746 493.471 193.311 493.471 184.841C493.471 176.413 486.769 170.103 477.789 170.103ZM477.873 176.289C482.34 176.289 485.898 179.984 485.898 184.883C485.898 189.782 482.34 193.56 477.873 193.56C473.444 193.56 469.679 189.782 469.679 184.883C469.679 179.984 473.403 176.289 477.873 176.289ZM535.623 170.352H528.297V187.208C528.297 191.152 525.94 193.56 522.464 193.56C518.947 193.56 516.423 191.152 516.423 187.208V170.352H509.057V187.208C509.057 194.888 514.27 199.746 522.423 199.746C530.532 199.746 535.623 194.888 535.623 187.208V170.352ZM553.116 170.352V199.414H565.282C574.591 199.414 580.962 193.477 580.962 184.883C580.962 176.247 574.673 170.352 565.57 170.352H553.116ZM560.48 176.247H565.404C570.081 176.247 573.473 179.776 573.473 184.924C573.473 190.031 570.247 193.518 565.736 193.518H560.48V176.247Z" fill="#222222"/>
</svg>
