<svg width="768" height="224" viewBox="0 0 768 224" fill="none" xmlns="http://www.w3.org/2000/svg">
  <path fill-rule="evenodd" clip-rule="evenodd" d="M132 196C84.5035 196 46 157.496 46 110C46 62.5035 84.5035 24 132 24C179.496 24 218 62.5035 218 110C218 157.496 179.496 196 132 196ZM169.625 53.1525H154.328V97.431H147.05V54.939H132V127.962C119.25 119.67 111.375 106.274 111.375 81.0152V64.8135H95.2501V81.2703C95.2501 106.912 87.875 122.349 72.875 131.534L82 143.525C91.75 137.785 100.625 126.048 103.375 115.459C106 125.793 116 136.381 122.625 140.846L132 127.962V161.744H147.05V110.702H154.328V166.848H169.625V53.1525Z" fill="#303A4B"/>
  <path d="M294.959 163C301.476 163 307.189 161.811 312.098 159.432C317.007 157.053 320.858 153.782 323.651 149.619C326.444 145.456 327.84 140.656 327.84 135.218C327.84 122.56 320.308 113.809 305.243 108.966L287.85 103.486C284.464 102.382 281.883 100.853 280.106 98.8986C278.413 96.8596 277.567 94.5232 277.567 91.8895C277.567 88.4062 278.878 85.6025 281.502 83.4785C284.21 81.2696 287.765 80.1651 292.166 80.1651C297.075 80.1651 301.392 81.482 305.116 84.1157C308.839 86.6645 311.632 90.3178 313.495 95.0754L327.713 88.7035C325.174 81.567 320.731 75.8323 314.383 71.4994C308.12 67.1665 300.714 65 292.166 65C285.988 65 280.487 66.1894 275.662 68.5683C270.923 70.8622 267.198 74.0906 264.49 78.2536C261.866 82.4166 260.555 87.2167 260.555 92.6541C260.555 98.8561 262.417 104.251 266.141 108.839C269.864 113.341 275.408 116.782 282.772 119.161L300.926 125.023C304.227 126.128 306.681 127.572 308.289 129.356C309.982 131.14 310.828 133.434 310.828 136.238C310.828 139.721 309.432 142.525 306.639 144.649C303.931 146.773 300.333 147.835 295.848 147.835C290.431 147.835 285.565 146.306 281.248 143.247C276.932 140.103 273.631 135.813 271.346 130.376L257 136.62C258.692 141.887 261.358 146.518 264.998 150.511C268.722 154.419 273.123 157.478 278.201 159.687C283.364 161.895 288.95 163 294.959 163ZM362.319 163C371.29 163 378.484 160.027 383.901 154.079V161.471H399.643V115.338C399.643 110.495 398.416 106.205 395.961 102.467C393.506 98.7287 390.122 95.8401 385.805 93.801C381.573 91.677 376.622 90.6151 370.952 90.6151C364.011 90.6151 357.832 92.2718 352.416 95.5852C346.999 98.8986 343.276 103.274 341.244 108.711L354.828 115.338C356.098 112.194 358.086 109.688 360.795 107.819C363.503 105.865 366.677 104.888 370.317 104.888C374.125 104.888 377.172 105.908 379.457 107.947C381.827 109.9 383.012 112.365 383.012 115.338V117.632L362.446 120.945C354.321 122.305 348.311 124.896 344.418 128.719C340.525 132.542 338.578 137.343 338.578 143.12C338.578 149.237 340.736 154.079 345.053 157.648C349.369 161.216 355.124 163 362.319 163ZM355.844 142.482C355.844 137.64 359.102 134.581 365.619 133.307L383.012 130.376V133.179C383.012 137.937 381.362 141.973 378.061 145.286C374.844 148.599 370.613 150.256 365.366 150.256C362.573 150.256 360.287 149.577 358.51 148.217C356.733 146.773 355.844 144.862 355.844 142.482ZM447.768 163C454.793 163 460.929 161.429 466.177 158.285C471.509 155.057 475.232 150.979 477.348 146.051L463.891 139.424C462.368 142.058 460.252 144.224 457.544 145.923C454.92 147.538 451.704 148.345 447.895 148.345C442.902 148.345 438.712 146.815 435.327 143.757C431.941 140.698 429.995 136.62 429.487 131.523H479.253C479.592 130.588 479.803 129.526 479.888 128.337C480.057 127.062 480.141 125.788 480.141 124.514C480.141 118.311 478.83 112.662 476.206 107.564C473.582 102.467 469.773 98.3888 464.78 95.3303C459.787 92.1868 453.693 90.6151 446.499 90.6151C440.066 90.6151 434.226 92.1868 428.979 95.3303C423.816 98.4738 419.711 102.764 416.664 108.202C413.702 113.554 412.221 119.713 412.221 126.68C412.221 133.392 413.702 139.509 416.664 145.031C419.626 150.553 423.774 154.929 429.106 158.157C434.438 161.385 440.659 163 447.768 163ZM446.499 104.378C450.9 104.378 454.539 105.738 457.417 108.456C460.379 111.09 462.029 114.531 462.368 118.779H429.868C430.798 114.191 432.746 110.665 435.708 108.202C438.754 105.653 442.351 104.378 446.499 104.378ZM492.748 161.471H509.379V65H492.748V161.471ZM558.505 163C565.191 163 571.285 161.471 576.786 158.412C582.288 155.268 586.688 150.979 589.989 145.541C593.29 140.019 594.94 133.774 594.94 126.808C594.94 119.841 593.29 113.639 589.989 108.202C586.773 102.764 582.415 98.4738 576.913 95.3303C571.412 92.1868 565.276 90.6151 558.505 90.6151C551.649 90.6151 545.471 92.1868 539.969 95.3303C534.468 98.4738 530.067 102.764 526.766 108.202C523.55 113.639 521.942 119.841 521.942 126.808C521.942 133.774 523.55 139.976 526.766 145.414C530.067 150.851 534.468 155.141 539.969 158.285C545.555 161.429 551.734 163 558.505 163ZM558.505 147.707C554.781 147.707 551.438 146.815 548.475 145.031C545.598 143.247 543.313 140.784 541.62 137.64C540.012 134.412 539.208 130.8 539.208 126.808C539.208 122.815 540.012 119.246 541.62 116.103C543.313 112.959 545.598 110.495 548.475 108.711C551.438 106.842 554.781 105.908 558.505 105.908C562.229 105.908 565.487 106.842 568.28 108.711C571.158 110.495 573.401 112.959 575.009 116.103C576.702 119.246 577.548 122.815 577.548 126.808C577.548 130.8 576.702 134.412 575.009 137.64C573.401 140.784 571.158 143.247 568.28 145.031C565.487 146.815 562.229 147.707 558.505 147.707ZM632.182 163C636.498 163 640.307 162.193 643.608 160.579C646.993 158.88 649.659 156.415 651.606 153.187V161.471H667.348V92.1443H650.717V132.797C650.717 137.385 649.405 141.038 646.781 143.757C644.157 146.391 640.815 147.707 636.752 147.707C632.605 147.707 629.22 146.391 626.596 143.757C624.057 141.123 622.787 137.598 622.787 133.179V92.1443H606.156V134.581C606.156 143.077 608.441 149.959 613.012 155.226C617.667 160.409 624.057 163 632.182 163ZM682.808 161.471H699.439V120.818C699.439 116.315 700.709 112.704 703.248 109.986C705.871 107.267 709.257 105.908 713.404 105.908C717.551 105.908 720.894 107.267 723.433 109.986C726.057 112.62 727.369 116.23 727.369 120.818V161.471H744V116.867C744 111.685 742.899 107.14 740.699 103.231C738.498 99.2384 735.409 96.1374 731.432 93.9285C727.538 91.7196 723.053 90.6151 717.974 90.6151C713.658 90.6151 709.764 91.4647 706.295 93.1638C702.909 94.863 700.285 97.3693 698.423 100.683V92.1443H682.808V161.471Z" fill="#303A4B"/>
</svg>
