<svg width="768" height="224" viewBox="0 0 768 224" fill="none" xmlns="http://www.w3.org/2000/svg">
<path d="M95.9662 70.3871H90.7968V50.3607H84.1914V46.0488H102.572V50.3607H95.9662V70.3871Z" fill="#939598"/>
<path d="M123.536 70.3871H118.367V59.8469H108.698V70.3871H103.529V46.0488H108.698V55.6308H118.367V46.0488H123.536V70.3871Z" fill="#939598"/>
<path d="M140.959 70.3871H126.887V46.0488H140.864V50.2649H132.056V55.6308H140.289V59.8469H132.056V66.0752H140.864V70.3871H140.959Z" fill="#939598"/>
<path d="M140.959 76.3279V121.267C140.959 126.442 139.81 130.945 137.513 134.778C135.215 138.611 131.865 141.581 127.557 143.689C123.249 145.797 118.08 146.755 112.145 146.755C103.242 146.755 96.2534 144.456 91.3712 139.856C86.3932 135.257 84 129.029 84 121.076V76.3279H98.6467V118.872C98.6467 124.238 99.6997 128.166 101.901 130.658C104.008 133.149 107.645 134.395 112.623 134.395C117.41 134.395 120.952 133.149 123.058 130.658C125.26 128.166 126.313 124.142 126.313 118.776V76.3279H140.959Z" fill="#939598"/>
<path d="M164.892 119.159V145.797H150.149V76.3279H170.348C179.825 76.3279 186.718 78.0526 191.313 81.5021C195.812 84.9517 198.11 90.1259 198.11 97.1208C198.11 101.241 196.961 104.882 194.759 108.044C192.557 111.206 189.303 113.698 185.186 115.518C195.621 131.137 202.418 141.198 205.577 145.797H189.207L172.646 119.159H164.892ZM164.892 107.182H169.678C174.369 107.182 177.719 106.415 180.017 104.882C182.219 103.349 183.367 100.858 183.367 97.5999C183.367 94.342 182.219 91.9465 180.017 90.605C177.719 89.1677 174.273 88.497 169.487 88.497H164.987V107.182H164.892Z" fill="#939598"/>
<path d="M210.459 76.3279H232.094C241.954 76.3279 249.038 77.7652 253.537 80.5439C257.941 83.3227 260.238 87.8263 260.238 93.9587C260.238 98.079 259.281 101.528 257.271 104.211C255.356 106.894 252.771 108.428 249.517 109.002V109.482C253.92 110.44 257.079 112.26 258.994 115.039C260.908 117.722 261.866 121.267 261.866 125.771C261.866 132.095 259.568 137.078 254.973 140.623C250.378 144.168 244.156 145.989 236.306 145.989H210.363V76.3279H210.459ZM225.201 103.828H233.721C237.742 103.828 240.614 103.253 242.433 102.008C244.252 100.762 245.113 98.7497 245.113 95.8751C245.113 93.1922 244.156 91.2758 242.145 90.1259C240.231 88.9761 237.167 88.4012 232.955 88.4012H225.201V103.828ZM225.201 115.518V133.628H234.774C238.795 133.628 241.858 132.862 243.773 131.328C245.687 129.795 246.645 127.4 246.645 124.238C246.645 118.489 242.528 115.614 234.296 115.614H225.201V115.518Z" fill="#939598"/>
<path d="M312.411 145.797L307.338 129.221H282.065L276.991 145.797H261.1L285.607 76.0405H303.604L328.207 145.797H312.411ZM303.891 116.86C299.201 101.912 296.616 93.3839 296.041 91.4675C295.467 89.5511 295.084 87.9222 294.797 86.7723C293.744 90.7968 290.776 100.858 285.798 116.86H303.891Z" fill="#939598"/>
<path d="M394.739 145.797H376.071L345.917 93.1923H345.534C346.108 102.487 346.395 109.098 346.395 113.027V145.702H333.28V76.2322H351.852L382.007 128.262H382.294C381.815 119.255 381.624 112.835 381.624 109.098V76.2322H394.834V145.797H394.739Z" fill="#939598"/>
<path d="M489.511 146.181H475.056V76.7112H514.88V88.7845H489.607V106.703H513.156V118.68H489.607V146.181H489.511Z" fill="#FFC90C"/>
<path d="M535.079 146.181H520.623V76.7112H560.447V88.7845H535.174V106.703H558.628V118.68H535.079V146.181Z" fill="#FFC90C"/>
<path d="M566.191 146.181V76.7112H580.933V146.181H566.191Z" fill="#FFC90C"/>
<path d="M620.087 87.9221C614.534 87.9221 610.226 90.0302 607.259 94.1504C604.195 98.2707 602.664 104.116 602.664 111.59C602.664 127.112 608.503 134.874 620.087 134.874C624.969 134.874 630.904 133.628 637.797 131.233V143.498C632.053 145.893 625.735 147.043 618.746 147.043C608.695 147.043 600.941 143.977 595.58 137.844C590.219 131.712 587.538 122.896 587.538 111.398C587.538 104.212 588.879 97.8874 591.463 92.4257C594.048 86.964 597.877 82.8437 602.759 79.9691C607.642 77.0945 613.481 75.6572 620.087 75.6572C626.788 75.6572 633.584 77.2861 640.381 80.544L635.595 92.5215C633.01 91.2758 630.425 90.2218 627.745 89.2636C625.16 88.4012 622.576 87.9221 620.087 87.9221Z" fill="#FFC90C"/>
<path d="M684.704 146.181H644.785V76.7112H684.8V88.7845H659.527V104.02H683.077V116.093H659.527V134.011H684.8V146.181H684.704Z" fill="#FFC90C"/>
<path d="M512.965 106.607H487.501V118.585H512.965V106.607Z" fill="#FFC90C"/>
<path d="M514.784 76.6155H475.056V88.6887H514.784V76.6155Z" fill="#FFC90C"/>
<path d="M425.181 112.644V163.428C425.181 172.531 432.552 179.813 441.55 179.813H441.838C450.932 179.813 458.207 172.435 458.207 163.428V112.644H465.387V163.428C465.387 176.46 454.857 187 441.838 187H441.55C428.531 187 418.001 176.46 418.001 163.428V112.644H425.181Z" fill="#FFC90C"/>
<path d="M445.571 118.297V66.2667C445.571 61.5715 441.742 57.6429 436.955 57.6429H433.796C429.106 57.6429 425.181 61.4757 425.181 66.2667V130.178H418.001V66.2667C418.001 57.5471 425.085 50.5522 433.701 50.5522H436.86C445.571 50.5522 452.559 57.6429 452.559 66.2667V118.297H445.571Z" fill="#FFC90C"/>
<path d="M412.353 148.672V68.1832C412.353 55.4392 422.692 45.1865 435.328 45.1865C448.06 45.1865 458.303 55.535 458.303 68.1832V156.817C458.303 156.912 458.303 157.104 458.303 157.2H465.483C465.483 157.104 465.483 156.912 465.483 156.817V68.1832C465.483 51.5106 451.985 38 435.328 38C418.671 38 405.173 51.5106 405.173 68.1832V148.672H412.353Z" fill="#FFC90C"/>
</svg>
