<svg width="768" height="224" viewBox="0 0 768 224" fill="none" xmlns="http://www.w3.org/2000/svg">
<path d="M123.476 160.616C118.896 160.616 114.691 159.644 111.012 157.625C107.333 155.606 104.63 153.363 102.828 150.821V159.345H88.7128V63.6365H102.828V104.088C104.63 101.546 107.333 99.228 111.012 97.2839C114.691 95.265 118.821 94.293 123.476 94.293C127.831 94.293 131.885 95.1903 135.714 96.91C139.544 98.6298 142.772 101.022 145.55 104.088C148.253 107.079 150.431 110.593 152.007 114.631C153.584 118.594 154.41 122.931 154.41 127.492C154.41 132.053 153.584 136.39 152.007 140.353C150.431 144.316 148.253 147.83 145.55 150.895C142.847 153.886 139.544 156.279 135.714 158.074C131.885 159.793 127.831 160.616 123.476 160.616ZM120.923 147.905C123.776 147.905 126.329 147.381 128.657 146.334C130.984 145.288 133.011 143.792 134.663 141.998C136.315 140.203 137.667 138.035 138.568 135.567C139.544 133.1 139.994 130.408 139.994 127.492C139.994 124.576 139.544 121.884 138.568 119.416C137.591 116.949 136.315 114.781 134.663 112.986C133.011 111.191 130.984 109.696 128.657 108.649C126.329 107.602 123.701 107.079 120.923 107.079C118.145 107.079 115.517 107.602 113.115 108.649C110.712 109.696 108.685 111.191 107.033 112.986C105.381 114.781 104.03 116.949 103.129 119.416C102.153 121.884 101.702 124.576 101.702 127.492C101.702 130.408 102.153 133.1 103.129 135.567C104.105 138.035 105.381 140.203 107.033 141.998C108.685 143.792 110.712 145.288 113.115 146.334C115.442 147.381 118.07 147.905 120.923 147.905Z" fill="#00A1DA"/>
<path d="M162.294 63.6365H176.409V159.345H162.294V63.6365Z" fill="#00A1DA"/>
<path d="M211.923 160.616C208.244 160.616 204.94 159.943 202.012 158.672C199.084 157.401 196.531 155.606 194.504 153.213C192.477 150.895 190.9 148.054 189.774 144.689C188.648 141.399 188.122 137.661 188.122 133.623V95.4893H202.237V131.38C202.237 136.464 203.364 140.502 205.541 143.418C207.794 146.334 210.947 147.83 215.001 147.83C219.581 147.83 223.411 146.035 226.264 142.521C229.192 139.007 230.619 133.773 230.619 126.894V95.4893H244.734V159.27H230.619V150.596C228.742 153.811 226.189 156.279 222.96 157.999C219.657 159.793 215.978 160.616 211.923 160.616Z" fill="#00A1DA"/>
<path d="M285.579 160.616C280.774 160.616 276.419 159.793 272.364 158.148C268.31 156.503 264.856 154.185 262.003 151.269C259.075 148.353 256.822 144.839 255.246 140.726C253.594 136.614 252.843 132.202 252.843 127.417C252.843 122.706 253.669 118.37 255.246 114.257C256.822 110.145 259.075 106.63 261.928 103.714C264.781 100.798 268.235 98.4803 272.289 96.7605C276.344 95.0408 280.849 94.2183 285.804 94.2183C290.684 94.2183 295.189 95.1155 299.244 96.9101C303.373 98.7046 306.827 101.172 309.68 104.462C312.533 107.677 314.711 111.565 316.137 115.977C317.564 120.463 318.165 125.398 317.789 130.857H266.808C266.883 133.324 267.409 135.567 268.385 137.661C269.361 139.754 270.713 141.549 272.364 143.119C274.016 144.689 276.043 145.961 278.371 146.783C280.699 147.68 283.326 148.129 286.104 148.129C289.708 148.129 292.937 147.381 295.79 145.961C298.643 144.54 300.821 142.297 302.247 139.231H316.963C315.987 142.222 314.636 144.988 312.834 147.605C311.032 150.223 308.704 152.466 306.076 154.335C303.373 156.279 300.295 157.774 296.916 158.896C293.463 160.092 289.708 160.616 285.579 160.616ZM285.354 106.032C280.924 106.032 277.019 107.303 273.641 109.771C270.262 112.313 268.085 115.977 267.184 120.912H302.698C301.571 115.753 299.394 111.939 296.166 109.547C292.862 107.229 289.258 106.032 285.354 106.032Z" fill="#00A1DA"/>
<path d="M352.477 160.018C349.399 160.018 346.546 159.569 343.918 158.747C341.29 157.924 338.962 156.578 336.935 154.858C334.908 153.139 333.331 150.896 332.28 148.204C331.154 145.512 330.628 142.372 330.628 138.857V108.051H317.264V95.5642H330.628V77.8433H344.744V95.5642H363.064V108.051H344.744V136.539C344.744 140.502 345.645 143.344 347.372 144.989C349.099 146.634 351.802 147.381 355.481 147.381C356.832 147.381 358.184 147.306 359.535 147.082C360.887 146.858 362.013 146.559 363.064 146.11V158.597C361.637 159.046 360.061 159.345 358.409 159.644C356.607 159.868 354.73 160.018 352.477 160.018Z" fill="black"/>
<path d="M369.896 159.345V63.6365H384.012V104.238C385.964 101.022 388.667 98.555 392.121 96.8353C395.575 95.1155 399.329 94.293 403.533 94.293C407.212 94.293 410.591 94.966 413.594 96.2371C416.598 97.5082 419.226 99.3027 421.328 101.621C423.43 103.939 425.082 106.705 426.283 109.995C427.41 113.285 428.01 116.949 428.01 121.061V159.494H413.895V123.23C413.895 118.145 412.693 114.182 410.291 111.266C407.888 108.425 404.66 107.004 400.53 107.004C395.8 107.004 391.896 108.799 388.742 112.313C385.589 115.827 384.012 121.061 384.012 127.94V159.345H369.896Z" fill="black"/>
<path d="M462.548 160.616C458.869 160.616 455.565 159.943 452.637 158.672C449.709 157.401 447.156 155.606 445.129 153.213C443.102 150.895 441.525 148.054 440.399 144.689C439.273 141.399 438.747 137.661 438.747 133.623V95.4893H452.863V131.38C452.863 136.464 453.989 140.502 456.166 143.418C458.419 146.334 461.572 147.83 465.627 147.83C470.207 147.83 474.036 146.035 476.889 142.521C479.817 139.007 481.244 133.773 481.244 126.894V95.4893H495.359V159.27H481.244V150.596C479.367 153.811 476.814 156.279 473.585 157.999C470.357 159.793 466.678 160.616 462.548 160.616Z" fill="black"/>
<path d="M589.588 123.529C589.588 118.519 588.612 114.481 586.734 111.565C584.857 108.574 582.004 107.079 578.175 107.079C573.745 107.079 570.141 108.799 567.363 112.238C564.585 115.678 563.084 120.613 562.933 126.968V159.419H548.818V123.529C548.818 118.519 547.842 114.481 545.965 111.565C544.088 108.574 541.235 107.079 537.405 107.079C532.825 107.079 529.071 108.874 526.218 112.537C523.365 116.126 522.013 121.36 522.013 128.015V159.419H507.898V95.5641H522.013V104.238C523.815 101.247 526.293 98.8541 529.371 97.0595C532.525 95.265 536.129 94.293 540.183 94.293C544.989 94.293 549.043 95.4145 552.422 97.5829C555.801 99.8261 558.353 102.892 560.08 106.929C561.957 102.817 564.81 99.7513 568.565 97.5829C572.319 95.4145 576.373 94.293 580.578 94.293C587.861 94.293 593.492 96.7604 597.546 101.621C601.601 106.481 603.628 113.061 603.628 121.211V159.345H589.512V123.529H589.588Z" fill="black"/>
<path d="M650.029 160.616C645.449 160.616 641.244 159.644 637.565 157.625C633.886 155.606 631.183 153.363 629.381 150.821V159.345H615.341V63.6365H629.456V104.088C631.258 101.546 633.961 99.228 637.64 97.2839C641.319 95.265 645.449 94.293 650.104 94.293C654.459 94.293 658.513 95.1903 662.342 96.91C666.172 98.6298 669.4 101.022 672.178 104.088C674.881 107.079 677.059 110.593 678.635 114.631C680.212 118.594 681.038 122.931 681.038 127.492C681.038 132.053 680.212 136.39 678.635 140.353C677.059 144.316 674.881 147.83 672.178 150.895C669.475 153.886 666.172 156.279 662.342 158.074C658.513 159.793 654.384 160.616 650.029 160.616ZM647.476 147.905C650.329 147.905 652.882 147.381 655.21 146.334C657.537 145.288 659.564 143.792 661.216 141.998C662.868 140.203 664.219 138.035 665.12 135.567C666.097 133.1 666.547 130.408 666.547 127.492C666.547 124.576 666.097 121.884 665.12 119.416C664.144 116.949 662.868 114.781 661.216 112.986C659.564 111.191 657.537 109.696 655.21 108.649C652.882 107.602 650.254 107.079 647.476 107.079C644.623 107.079 642.07 107.602 639.668 108.649C637.265 109.696 635.238 111.191 633.586 112.986C631.934 114.781 630.583 116.949 629.682 119.416C628.705 121.884 628.255 124.576 628.255 127.492C628.255 130.408 628.705 133.1 629.682 135.567C630.658 138.035 631.934 140.203 633.586 141.998C635.238 143.792 637.265 145.288 639.668 146.334C642.07 147.381 644.698 147.905 647.476 147.905Z" fill="black"/>
</svg>
