<svg xmlns="http://www.w3.org/2000/svg" width="223" height="26" viewBox="0 0 223 26">
  <g fill="none" fill-rule="evenodd">
    <path fill="#ED1944" d="M6.1074401 11.8725404L8.33081634 11.8725404C9.11628416 11.8725404 9.67433614 11.7516681 10.0052483 11.5099234 10.3353324 11.2681787 10.5006505 10.8436043 10.5006505 10.234817 10.5006505 9.64428511 10.3353324 9.22385957 10.0052483 8.97298723 9.67433614 8.72266809 9.11628416 8.59709362 8.33081634 8.59709362L6.1074401 8.59709362 6.1074401 11.8725404zM7.8216146 15.9799872L6.1074401 15.9799872 6.1074401 21.8590298.0000551980198 21.8590298.0000551980198 4.14085957 9.58988317 4.14085957C11.9471146 4.14085957 13.7283547 4.63734894 14.9336035 5.63088085 16.1394042 6.62385957 16.7418906 8.10502979 16.7418906 10.0735617 16.7418906 12.6691362 15.6793287 14.4139021 13.554205 15.3086894L17.733247 21.8590298 10.9560342 21.8590298 7.8216146 15.9799872zM35.4391986 14.2346957C35.4391986 19.4963766 32.5904288 22.1276319 26.8939932 22.1276319 21.1972816 22.1276319 18.3487877 19.4963766 18.3487877 14.2346957L18.3487877 4.14088723 24.6173509 4.14088723 24.6173509 14.7181851C24.6173509 15.6132489 24.808888 16.2886957 25.1930662 16.7450787 25.5769684 17.2017383 26.1441281 17.4296532 26.8939932 17.4296532 27.6441343 17.4296532 28.2154338 17.2017383 28.6084437 16.7450787 29.0009016 16.2886957 29.1979585 15.6132489 29.1979585 14.7181851L29.1979585 4.14088723 35.4391986 4.14088723 35.4391986 14.2346957zM46.7430631 17.7785787C47.8500594 17.7785787 48.4039715 17.3404511 48.4039715 16.463366 48.4039715 15.6219617 47.8500594 15.2015362 46.7430631 15.2015362L43.5553775 15.2015362 43.5553775 17.7785787 46.7430631 17.7785787zM46.2876795 11.0136C47.3949517 11.0136 47.9485879 10.5837702 47.9485879 9.72466383 47.9485879 8.86555745 47.3949517 8.43628085 46.2876795 8.43628085L43.5553775 8.43628085 43.5553775 11.0136 46.2876795 11.0136zM37.5818478 4.14074894L47.7076485 4.14074894C49.9398564 4.15900426 51.6004889 4.55702553 52.6900978 5.33564255 53.7791547 6.11425957 54.3236832 7.29089787 54.3236832 8.86555745 54.3236832 9.95755745 53.9891832 10.8658979 53.3193552 11.5903021 52.6498032 12.3155362 51.6540309 12.7677702 50.3325903 12.9464511L50.3325903 12.9730043C51.8325965 13.133983 52.9487005 13.5817915 53.6809022 14.3153234 54.413104 15.0496851 54.7793428 16.006983 54.7793428 17.1877702 54.7793428 18.7450043 54.2522017 19.9127915 53.1987475 20.6911319 52.1450173 21.4700255 50.5470347 21.8591957 48.4039715 21.8591957L37.5818478 21.8591957 37.5818478 4.14074894z"/>
    <polygon fill="#ED1944" points="67.637 15.711 67.637 21.859 61.396 21.859 61.396 15.711 55.208 4.141 61.422 4.141 63.297 8.195 64.556 11.416 65.815 8.195 67.691 4.141 73.825 4.141"/>
    <path fill="#000006" d="M81.9684522 22.1276596C80.1110389 22.1276596 78.5086403 21.7700213 77.1601527 21.0536383 75.8116651 20.3380851 74.7761502 19.2953191 74.0527802 17.9261702 73.3299621 16.5570213 72.9681391 14.9154255 72.9681391 13 72.9681391 11.0851277 73.3299621 9.44297872 74.0527802 8.07382979 74.7761502 6.70468085 75.8116651 5.66219149 77.1601527 4.94608511 78.5086403 4.23053191 80.1110389 3.87234043 81.9684522 3.87234043 84.0400339 3.87234043 85.8077505 4.31544681 87.2727059 5.20110638 88.7365574 6.08731915 89.6476007 7.43406383 90.0047319 9.24134043L84.6474881 11.3354468C84.5042493 10.2442766 84.2456465 9.50991489 83.870576 9.13402128 83.4955054 8.75840426 82.9148223 8.57031915 82.1293545 8.57031915 81.2006478 8.57031915 80.5040488 8.92851064 80.0398334 9.64434043 79.5753421 10.3601702 79.3435104 11.479 79.3435104 13 79.3435104 14.5212766 79.5665104 15.6401064 80.0130624 16.3556596 80.4593384 17.0720426 81.1471057 17.4296809 82.0758124 17.4296809 82.9148223 17.4296809 83.5222765 17.2415957 83.897071 16.8659787 84.2724176 16.4900851 84.5136329 15.8724468 84.6204411 15.0133404L90.1388631 16.4361489C89.2280958 20.2310426 86.5046255 22.1276596 81.9684522 22.1276596M97.9737252 9.63073191C97.5539443 10.3382638 97.3441918 11.460966 97.3441918 12.9999447 97.3441918 14.5394766 97.5539443 15.6624553 97.9737252 16.369434 98.3932302 17.0764128 99.0586423 17.4296255 99.9691337 17.4296255 100.880177 17.4296255 101.540345 17.0764128 101.951847 16.369434 102.361968 15.6624553 102.567856 14.5394766 102.567856 12.9999447 102.567856 11.460966 102.361968 10.3382638 101.951847 9.63073191 101.540345 8.92402979 100.880177 8.57054043 99.9691337 8.57054043 99.0586423 8.57054043 98.3932302 8.92402979 97.9737252 9.63073191M106.572473 6.27507234C108.152792 7.87711489 108.943228 10.1186468 108.943228 12.9999447 108.943228 15.8817957 108.152792 18.1236043 106.572473 19.7250936 104.991877 21.3268596 102.790856 22.1276043 99.9691337 22.1276043 98.1117203 22.1276043 96.5093218 21.769966 95.1608342 21.053583 93.8123465 20.3380298 92.7768317 19.2952638 92.0534616 17.9261149 91.3306436 16.5572426 90.9688205 14.9153702 90.9688205 12.9999447 90.9688205 11.0850723 91.3306436 9.4429234 92.0534616 8.07377447 92.7768317 6.70462553 93.8123465 5.66213617 95.1608342 4.94602979 96.5093218 4.23075319 98.1117203 3.87228511 99.9691337 3.87228511 102.790856 3.87228511 104.991877 4.67358298 106.572473 6.27507234"/>
    <polygon fill="#000006" points="128.229 21.859 121.479 21.859 117.247 13.806 116.282 11.631 116.229 11.631 116.336 15.282 116.336 21.859 110.925 21.859 110.925 4.141 117.675 4.141 121.908 12.221 122.872 14.369 122.926 14.369 122.819 10.718 122.819 4.141 128.229 4.141"/>
    <polygon fill="#000006" points="137.015 8.732 137.015 11.202 143.819 11.202 143.819 15.792 137.015 15.792 137.015 21.859 130.774 21.859 130.774 4.141 145.426 4.141 145.426 8.732"/>
    <polygon fill="#000006" points="147.452 6.155 147.452 4.136 161.892 4.136 161.892 6.155 155.745 6.155 155.745 21.859 153.6 21.859 153.6 6.155"/>
    <polygon fill="#000006" points="165.499 21.859 165.499 4.137 167.644 4.137 167.644 11.87 177.232 11.87 177.232 4.137 179.376 4.137 179.376 21.859 177.232 21.859 177.232 13.889 167.644 13.889 167.644 21.859"/>
    <path fill="#000006" d="M193.52572 1.75668723L191.944573 1.75668723C191.631876 1.75668723 191.382657 1.82030426 191.197192 1.94698511 191.011726 2.07394255 190.865176 2.24985745 190.758367 2.4741766 190.650731 2.69877234 190.582562 2.94743191 190.553031 3.22043191 190.524052 3.49398511 190.509148 3.77694255 190.509148 4.06985745L190.509148 9.22283617C190.509148 9.88666596 190.411448 10.4478787 190.216599 10.9064745 190.020922 11.3653468 189.786606 11.7409638 189.513376 12.0338787 189.23987 12.326517 188.961672 12.546134 188.678782 12.6924532 188.395616 12.8387723 188.166544 12.9317085 187.990463 12.9704319L187.990463 13.0290702C188.166544 13.0489851 188.395616 13.122283 188.678782 13.2486872 188.961672 13.3759213 189.23987 13.5811553 189.513376 13.8638362 189.786606 14.1467936 190.020922 14.5273894 190.216599 15.0056234 190.411448 15.4838574 190.509148 16.0843468 190.509148 16.8062617L190.509148 21.9301979C190.509148 22.2228362 190.524052 22.505517 190.553031 22.7790702 190.582562 23.0523468 190.650731 23.2963043 190.758367 23.5112191 190.865176 23.7258574 191.011726 23.9014957 191.197192 24.038134 191.382657 24.1744957 191.631876 24.2430915 191.944573 24.2430915L193.52572 24.2430915 193.52572 26.0000277 191.47539 26.0000277C191.104735 26.0000277 190.738496 25.9217511 190.377501 25.7657511 190.015954 25.6091979 189.689182 25.3749213 189.396356 25.0629213 189.103531 24.7503681 188.864247 24.3650702 188.678782 23.9064745 188.493317 23.4476021 188.40086 22.9259426 188.40086 22.3401128L188.40086 17.2161766C188.40086 16.6889851 188.327723 16.2204319 188.181172 15.8107936 188.034621 15.4008787 187.844188 15.0496021 187.609872 14.7566872 187.375833 14.4640489 187.107294 14.2444319 186.804533 14.0981128 186.501772 13.951517 186.194595 13.8784957 185.882174 13.8784957L185.882174 12.1218362C186.194595 12.1218362 186.501772 12.0435596 186.804533 11.8870064 187.107294 11.731283 187.375833 11.511666 187.609872 11.2284319 187.844188 10.9457511 188.034621 10.5989 188.181172 10.1889851 188.327723 9.77907021 188.40086 9.32102766 188.40086 8.81292128L188.40086 3.65994255C188.40086 3.07438936 188.498009 2.5521766 188.693686 2.09330426 188.888259 1.63498511 189.132786 1.24941064 189.425887.936857447 189.718437.624857447 190.045485.390857447 190.406756.234304255 190.768027.0783042553 191.12433.0000276595745 191.47539.0000276595745L193.52572.0000276595745 193.52572 1.75668723zM215.221412 0L217.271467 0C217.622526 0 217.978829.0782765957 218.340376.234276596 218.701371.390829787 219.02842.624829787 219.321245.936829787 219.614071 1.24938298 219.858046 1.63495745 220.053723 2.0932766 220.248296 2.55242553 220.346272 3.0743617 220.346272 3.65991489L220.346272 8.81289362C220.346272 9.321 220.419686 9.77904255 220.565961 10.1889574 220.712511 10.5988723 220.902668 10.9457234 221.136984 11.2284043 221.371024 11.5116383 221.639562 11.7312553 221.942599 11.8872553 222.244808 12.0435319 222.552261 12.1218085 222.864682 12.1218085L222.864682 13.8784681C222.552261 13.8784681 222.244808 13.9514894 221.942599 14.0980851 221.639562 14.2444043 221.371024 14.4640213 221.136984 14.7566596 220.902668 15.0495745 220.712511 15.4008511 220.565961 15.810766 220.419686 16.2206809 220.346272 16.6889574 220.346272 17.2161489L220.346272 22.3400851C220.346272 22.9259149 220.253264 23.4475745 220.06835 23.9064468 219.882333 24.3650426 219.643326 24.7503404 219.3505 25.0628936 219.057675 25.3748936 218.73035 25.6091702 218.369631 25.7657234 218.008084 25.9217234 217.641845 26 217.271467 26L215.221412 26 215.221412 24.2430638 216.80256 24.2430638C217.114704 24.2430638 217.363647 24.1744681 217.549665 24.0381064 217.734854 23.9014681 217.876437 23.7258298 217.974137 23.5111915 218.071562 23.2962766 218.139732 23.0523191 218.179474 22.7790426 218.217837 22.5054894 218.237984 22.2228085 218.237984 21.9301702L218.237984 16.806234C218.237984 16.0843191 218.335133 15.4838298 218.530534 15.0055957 218.725383 14.5273617 218.959698 14.146766 219.23348 13.8638085 219.506435 13.5811277 219.784633 13.3758936 220.06835 13.2486596 220.350964 13.1222553 220.580588 13.0489574 220.756394 13.0290426L220.756394 12.9706809C220.580588 12.9316809 220.350964 12.8387447 220.06835 12.6924255 219.784633 12.5461064 219.506435 12.3264894 219.23348 12.0338511 218.959698 11.7409362 218.725383 11.3653191 218.530534 10.9064468 218.335133 10.4478511 218.237984 9.8866383 218.237984 9.22280851L218.237984 4.06982979C218.237984 3.77691489 218.217837 3.49395745 218.179474 3.22068085 218.139732 2.94740426 218.071562 2.69874468 217.974137 2.47414894 217.876437 2.24982979 217.734854 2.07419149 217.549665 1.94695745 217.363647 1.82055319 217.114704 1.75665957 216.80256 1.75665957L215.221412 1.75665957 215.221412 0zM210.159533 16.3250957C208.730732 17.4674362 207.01987 18.0953085 205.352337 18.0953085 205.263193 18.0953085 205.1746 18.0889468 205.085179 18.0853511 205.824557 18.9804149 206.821433 19.7200319 207.988595 20.2046277 209.923837 21.0081383 212.026606 20.9896064 213.683927 20.1683936 213.14133 18.560266 211.858528 17.1659468 210.159533 16.3250957"/>
    <path fill="#000006" d="M210.823896 15.7335404C211.66815 16.1926894 212.410287 16.7810085 213.018846 17.4592213 213.975979 16.9129447 214.763931 16.1788596 215.309839 15.329434 214.57129 14.5292426 213.577726 13.912434 212.437059 13.548434 212.032733 14.3367319 211.490412 15.0791149 210.823896 15.7335404M203.394519 18.0954191C201.726987 18.0954191 200.016124 17.4672702 198.587323 16.3252064 196.888604 17.1660574 195.605526 18.5606532 195.063206 20.1682277 196.720526 20.989717 198.823295 21.0079723 200.758538 20.2047383 201.9257 19.7201426 202.922576 18.9802489 203.661677 18.0854617 203.572809 18.0890574 203.48394 18.0954191 203.394519 18.0954191M204.376657 18.5175872C203.91879 19.090417 203.369569 19.6076511 202.745004 20.0493745 203.179136 20.8210766 203.738016 21.4835234 204.389077 21.989417 205.035998 21.4868426 205.591014 20.8302043 206.024042 20.065417 205.391473 19.6212043 204.839769 19.0962255 204.376657 18.5175872M195.727983 17.4593043C196.336817 16.7810915 197.079231 16.1930489 197.923208 15.7336234 197.256416 15.0791979 196.714096 14.3368149 196.30977 13.5482404 195.169379 13.912517 194.175815 14.5293255 193.436989 15.329517 193.983174 16.1789426 194.771125 16.9127511 195.727983 17.4593043M211.126575 10.0290298L204.826825 17.2412638C206.665471 17.4141362 208.636592 16.6750723 210.15647 15.229583 211.676071 13.783817 212.513977 11.8512426 212.439184 9.99971064 212.006431 9.95960426 211.566227 9.97149787 211.126575 10.0290298"/>
    <polygon fill="#ED1944" points="204.389 14.077 206.246 8.512 202.532 8.512"/>
    <polygon fill="#ED1944" points="201.659 8.512 198.631 8.512 198.631 7.683 201.382 7.683 200.431 4.834 201.216 4.571 202.114 7.262 204.389 4.327 206.664 7.263 207.562 4.573 208.347 4.836 207.397 7.683 210.147 7.683 210.147 8.512 207.12 8.512 204.503 16.352 211.633 8.19 208.153 4.011 200.625 4.011 197.146 8.19 204.275 16.352"/>
    <polygon fill="#ED1944" points="202.837 7.683 205.941 7.683 204.389 5.68"/>
    <path fill="#000006" d="M197.655332,10.0330681 C197.204089,9.97138723 196.752293,9.95838723 196.307673,9.9996 C196.232879,11.8511319 197.070785,13.783983 198.590387,15.2294723 C200.110264,16.6746851 202.080558,17.4143021 203.920308,17.2414298 C203.92086,17.2298128 203.920308,17.2179191 203.920584,17.2063021 L197.655332,10.0330681 Z"/>
  </g>
</svg>
